<?xml version="1.0" encoding="utf-8" standalone="no"?>
<!DOCTYPE svg PUBLIC "-//W3C//DTD SVG 1.1//EN"
  "http://www.w3.org/Graphics/SVG/1.1/DTD/svg11.dtd">
<svg xmlns:xlink="http://www.w3.org/1999/xlink" width="460.8pt" height="345.6pt" viewBox="0 0 460.8 345.6" xmlns="http://www.w3.org/2000/svg" version="1.1">
 <metadata>
  <rdf:RDF xmlns:dc="http://purl.org/dc/elements/1.1/" xmlns:cc="http://creativecommons.org/ns#" xmlns:rdf="http://www.w3.org/1999/02/22-rdf-syntax-ns#">
   <cc:Work>
    <dc:type rdf:resource="http://purl.org/dc/dcmitype/StillImage"/>
    <dc:date>2024-11-02T23:56:10.767876</dc:date>
    <dc:format>image/svg+xml</dc:format>
    <dc:creator>
     <cc:Agent>
      <dc:title>Matplotlib v3.9.2, https://matplotlib.org/</dc:title>
     </cc:Agent>
    </dc:creator>
   </cc:Work>
  </rdf:RDF>
 </metadata>
 <defs>
  <style type="text/css">*{stroke-linejoin: round; stroke-linecap: butt}</style>
 </defs>
 <g id="figure_1">
  <g id="patch_1">
   <path d="M 0 345.6 
L 460.8 345.6 
L 460.8 0 
L 0 0 
z
" style="fill: #ffffff"/>
  </g>
  <g id="axes_1">
   <g id="patch_2">
    <path d="M 57.6 307.584 
L 414.72 307.584 
L 414.72 41.472 
L 57.6 41.472 
z
" style="fill: #ffffff"/>
   </g>
   <g id="matplotlib.axis_1">
    <g id="xtick_1">
     <g id="line2d_1">
      <defs>
       <path id="mbc79de0909" d="M 0 0 
L 0 3.5 
" style="stroke: #000000; stroke-width: 0.8"/>
      </defs>
      <g>
       <use xlink:href="#mbc79de0909" x="73.832727" y="307.584" style="stroke: #000000; stroke-width: 0.8"/>
      </g>
     </g>
     <g id="text_1">
      <!-- 0 -->
      <g transform="translate(70.651477 322.182437) scale(0.1 -0.1)">
       <defs>
        <path id="DejaVuSans-30" d="M 2034 4250 
Q 1547 4250 1301 3770 
Q 1056 3291 1056 2328 
Q 1056 1369 1301 889 
Q 1547 409 2034 409 
Q 2525 409 2770 889 
Q 3016 1369 3016 2328 
Q 3016 3291 2770 3770 
Q 2525 4250 2034 4250 
z
M 2034 4750 
Q 2819 4750 3233 4129 
Q 3647 3509 3647 2328 
Q 3647 1150 3233 529 
Q 2819 -91 2034 -91 
Q 1250 -91 836 529 
Q 422 1150 422 2328 
Q 422 3509 836 4129 
Q 1250 4750 2034 4750 
z
" transform="scale(0.015625)"/>
       </defs>
       <use xlink:href="#DejaVuSans-30"/>
      </g>
     </g>
    </g>
    <g id="xtick_2">
     <g id="line2d_2">
      <g>
       <use xlink:href="#mbc79de0909" x="146.138862" y="307.584" style="stroke: #000000; stroke-width: 0.8"/>
      </g>
     </g>
     <g id="text_2">
      <!-- 100 -->
      <g transform="translate(136.595112 322.182437) scale(0.1 -0.1)">
       <defs>
        <path id="DejaVuSans-31" d="M 794 531 
L 1825 531 
L 1825 4091 
L 703 3866 
L 703 4441 
L 1819 4666 
L 2450 4666 
L 2450 531 
L 3481 531 
L 3481 0 
L 794 0 
L 794 531 
z
" transform="scale(0.015625)"/>
       </defs>
       <use xlink:href="#DejaVuSans-31"/>
       <use xlink:href="#DejaVuSans-30" x="63.623047"/>
       <use xlink:href="#DejaVuSans-30" x="127.246094"/>
      </g>
     </g>
    </g>
    <g id="xtick_3">
     <g id="line2d_3">
      <g>
       <use xlink:href="#mbc79de0909" x="218.444997" y="307.584" style="stroke: #000000; stroke-width: 0.8"/>
      </g>
     </g>
     <g id="text_3">
      <!-- 200 -->
      <g transform="translate(208.901247 322.182437) scale(0.1 -0.1)">
       <defs>
        <path id="DejaVuSans-32" d="M 1228 531 
L 3431 531 
L 3431 0 
L 469 0 
L 469 531 
Q 828 903 1448 1529 
Q 2069 2156 2228 2338 
Q 2531 2678 2651 2914 
Q 2772 3150 2772 3378 
Q 2772 3750 2511 3984 
Q 2250 4219 1831 4219 
Q 1534 4219 1204 4116 
Q 875 4013 500 3803 
L 500 4441 
Q 881 4594 1212 4672 
Q 1544 4750 1819 4750 
Q 2544 4750 2975 4387 
Q 3406 4025 3406 3419 
Q 3406 3131 3298 2873 
Q 3191 2616 2906 2266 
Q 2828 2175 2409 1742 
Q 1991 1309 1228 531 
z
" transform="scale(0.015625)"/>
       </defs>
       <use xlink:href="#DejaVuSans-32"/>
       <use xlink:href="#DejaVuSans-30" x="63.623047"/>
       <use xlink:href="#DejaVuSans-30" x="127.246094"/>
      </g>
     </g>
    </g>
    <g id="xtick_4">
     <g id="line2d_4">
      <g>
       <use xlink:href="#mbc79de0909" x="290.751132" y="307.584" style="stroke: #000000; stroke-width: 0.8"/>
      </g>
     </g>
     <g id="text_4">
      <!-- 300 -->
      <g transform="translate(281.207382 322.182437) scale(0.1 -0.1)">
       <defs>
        <path id="DejaVuSans-33" d="M 2597 2516 
Q 3050 2419 3304 2112 
Q 3559 1806 3559 1356 
Q 3559 666 3084 287 
Q 2609 -91 1734 -91 
Q 1441 -91 1130 -33 
Q 819 25 488 141 
L 488 750 
Q 750 597 1062 519 
Q 1375 441 1716 441 
Q 2309 441 2620 675 
Q 2931 909 2931 1356 
Q 2931 1769 2642 2001 
Q 2353 2234 1838 2234 
L 1294 2234 
L 1294 2753 
L 1863 2753 
Q 2328 2753 2575 2939 
Q 2822 3125 2822 3475 
Q 2822 3834 2567 4026 
Q 2313 4219 1838 4219 
Q 1578 4219 1281 4162 
Q 984 4106 628 3988 
L 628 4550 
Q 988 4650 1302 4700 
Q 1616 4750 1894 4750 
Q 2613 4750 3031 4423 
Q 3450 4097 3450 3541 
Q 3450 3153 3228 2886 
Q 3006 2619 2597 2516 
z
" transform="scale(0.015625)"/>
       </defs>
       <use xlink:href="#DejaVuSans-33"/>
       <use xlink:href="#DejaVuSans-30" x="63.623047"/>
       <use xlink:href="#DejaVuSans-30" x="127.246094"/>
      </g>
     </g>
    </g>
    <g id="xtick_5">
     <g id="line2d_5">
      <g>
       <use xlink:href="#mbc79de0909" x="363.057267" y="307.584" style="stroke: #000000; stroke-width: 0.8"/>
      </g>
     </g>
     <g id="text_5">
      <!-- 400 -->
      <g transform="translate(353.513517 322.182437) scale(0.1 -0.1)">
       <defs>
        <path id="DejaVuSans-34" d="M 2419 4116 
L 825 1625 
L 2419 1625 
L 2419 4116 
z
M 2253 4666 
L 3047 4666 
L 3047 1625 
L 3713 1625 
L 3713 1100 
L 3047 1100 
L 3047 0 
L 2419 0 
L 2419 1100 
L 313 1100 
L 313 1709 
L 2253 4666 
z
" transform="scale(0.015625)"/>
       </defs>
       <use xlink:href="#DejaVuSans-34"/>
       <use xlink:href="#DejaVuSans-30" x="63.623047"/>
       <use xlink:href="#DejaVuSans-30" x="127.246094"/>
      </g>
     </g>
    </g>
    <g id="text_6">
     <!-- GraphPair_ : 450 -->
     <g transform="translate(194.618594 335.860562) scale(0.1 -0.1)">
      <defs>
       <path id="DejaVuSans-47" d="M 3809 666 
L 3809 1919 
L 2778 1919 
L 2778 2438 
L 4434 2438 
L 4434 434 
Q 4069 175 3628 42 
Q 3188 -91 2688 -91 
Q 1594 -91 976 548 
Q 359 1188 359 2328 
Q 359 3472 976 4111 
Q 1594 4750 2688 4750 
Q 3144 4750 3555 4637 
Q 3966 4525 4313 4306 
L 4313 3634 
Q 3963 3931 3569 4081 
Q 3175 4231 2741 4231 
Q 1884 4231 1454 3753 
Q 1025 3275 1025 2328 
Q 1025 1384 1454 906 
Q 1884 428 2741 428 
Q 3075 428 3337 486 
Q 3600 544 3809 666 
z
" transform="scale(0.015625)"/>
       <path id="DejaVuSans-72" d="M 2631 2963 
Q 2534 3019 2420 3045 
Q 2306 3072 2169 3072 
Q 1681 3072 1420 2755 
Q 1159 2438 1159 1844 
L 1159 0 
L 581 0 
L 581 3500 
L 1159 3500 
L 1159 2956 
Q 1341 3275 1631 3429 
Q 1922 3584 2338 3584 
Q 2397 3584 2469 3576 
Q 2541 3569 2628 3553 
L 2631 2963 
z
" transform="scale(0.015625)"/>
       <path id="DejaVuSans-61" d="M 2194 1759 
Q 1497 1759 1228 1600 
Q 959 1441 959 1056 
Q 959 750 1161 570 
Q 1363 391 1709 391 
Q 2188 391 2477 730 
Q 2766 1069 2766 1631 
L 2766 1759 
L 2194 1759 
z
M 3341 1997 
L 3341 0 
L 2766 0 
L 2766 531 
Q 2569 213 2275 61 
Q 1981 -91 1556 -91 
Q 1019 -91 701 211 
Q 384 513 384 1019 
Q 384 1609 779 1909 
Q 1175 2209 1959 2209 
L 2766 2209 
L 2766 2266 
Q 2766 2663 2505 2880 
Q 2244 3097 1772 3097 
Q 1472 3097 1187 3025 
Q 903 2953 641 2809 
L 641 3341 
Q 956 3463 1253 3523 
Q 1550 3584 1831 3584 
Q 2591 3584 2966 3190 
Q 3341 2797 3341 1997 
z
" transform="scale(0.015625)"/>
       <path id="DejaVuSans-70" d="M 1159 525 
L 1159 -1331 
L 581 -1331 
L 581 3500 
L 1159 3500 
L 1159 2969 
Q 1341 3281 1617 3432 
Q 1894 3584 2278 3584 
Q 2916 3584 3314 3078 
Q 3713 2572 3713 1747 
Q 3713 922 3314 415 
Q 2916 -91 2278 -91 
Q 1894 -91 1617 61 
Q 1341 213 1159 525 
z
M 3116 1747 
Q 3116 2381 2855 2742 
Q 2594 3103 2138 3103 
Q 1681 3103 1420 2742 
Q 1159 2381 1159 1747 
Q 1159 1113 1420 752 
Q 1681 391 2138 391 
Q 2594 391 2855 752 
Q 3116 1113 3116 1747 
z
" transform="scale(0.015625)"/>
       <path id="DejaVuSans-68" d="M 3513 2113 
L 3513 0 
L 2938 0 
L 2938 2094 
Q 2938 2591 2744 2837 
Q 2550 3084 2163 3084 
Q 1697 3084 1428 2787 
Q 1159 2491 1159 1978 
L 1159 0 
L 581 0 
L 581 4863 
L 1159 4863 
L 1159 2956 
Q 1366 3272 1645 3428 
Q 1925 3584 2291 3584 
Q 2894 3584 3203 3211 
Q 3513 2838 3513 2113 
z
" transform="scale(0.015625)"/>
       <path id="DejaVuSans-50" d="M 1259 4147 
L 1259 2394 
L 2053 2394 
Q 2494 2394 2734 2622 
Q 2975 2850 2975 3272 
Q 2975 3691 2734 3919 
Q 2494 4147 2053 4147 
L 1259 4147 
z
M 628 4666 
L 2053 4666 
Q 2838 4666 3239 4311 
Q 3641 3956 3641 3272 
Q 3641 2581 3239 2228 
Q 2838 1875 2053 1875 
L 1259 1875 
L 1259 0 
L 628 0 
L 628 4666 
z
" transform="scale(0.015625)"/>
       <path id="DejaVuSans-69" d="M 603 3500 
L 1178 3500 
L 1178 0 
L 603 0 
L 603 3500 
z
M 603 4863 
L 1178 4863 
L 1178 4134 
L 603 4134 
L 603 4863 
z
" transform="scale(0.015625)"/>
       <path id="DejaVuSans-5f" d="M 3263 -1063 
L 3263 -1509 
L -63 -1509 
L -63 -1063 
L 3263 -1063 
z
" transform="scale(0.015625)"/>
       <path id="DejaVuSans-20" transform="scale(0.015625)"/>
       <path id="DejaVuSans-3a" d="M 750 794 
L 1409 794 
L 1409 0 
L 750 0 
L 750 794 
z
M 750 3309 
L 1409 3309 
L 1409 2516 
L 750 2516 
L 750 3309 
z
" transform="scale(0.015625)"/>
       <path id="DejaVuSans-35" d="M 691 4666 
L 3169 4666 
L 3169 4134 
L 1269 4134 
L 1269 2991 
Q 1406 3038 1543 3061 
Q 1681 3084 1819 3084 
Q 2600 3084 3056 2656 
Q 3513 2228 3513 1497 
Q 3513 744 3044 326 
Q 2575 -91 1722 -91 
Q 1428 -91 1123 -41 
Q 819 9 494 109 
L 494 744 
Q 775 591 1075 516 
Q 1375 441 1709 441 
Q 2250 441 2565 725 
Q 2881 1009 2881 1497 
Q 2881 1984 2565 2268 
Q 2250 2553 1709 2553 
Q 1456 2553 1204 2497 
Q 953 2441 691 2322 
L 691 4666 
z
" transform="scale(0.015625)"/>
      </defs>
      <use xlink:href="#DejaVuSans-47"/>
      <use xlink:href="#DejaVuSans-72" x="77.490234"/>
      <use xlink:href="#DejaVuSans-61" x="118.603516"/>
      <use xlink:href="#DejaVuSans-70" x="179.882812"/>
      <use xlink:href="#DejaVuSans-68" x="243.359375"/>
      <use xlink:href="#DejaVuSans-50" x="306.738281"/>
      <use xlink:href="#DejaVuSans-61" x="362.541016"/>
      <use xlink:href="#DejaVuSans-69" x="423.820312"/>
      <use xlink:href="#DejaVuSans-72" x="451.603516"/>
      <use xlink:href="#DejaVuSans-5f" x="492.716797"/>
      <use xlink:href="#DejaVuSans-20" x="542.716797"/>
      <use xlink:href="#DejaVuSans-3a" x="574.503906"/>
      <use xlink:href="#DejaVuSans-20" x="608.195312"/>
      <use xlink:href="#DejaVuSans-34" x="639.982422"/>
      <use xlink:href="#DejaVuSans-35" x="703.605469"/>
      <use xlink:href="#DejaVuSans-30" x="767.228516"/>
     </g>
    </g>
   </g>
   <g id="matplotlib.axis_2">
    <g id="ytick_1">
     <g id="line2d_6">
      <defs>
       <path id="m28a2a7ba03" d="M 0 0 
L -3.5 0 
" style="stroke: #000000; stroke-width: 0.8"/>
      </defs>
      <g>
       <use xlink:href="#m28a2a7ba03" x="57.6" y="279.41673" style="stroke: #000000; stroke-width: 0.8"/>
      </g>
     </g>
     <g id="text_7">
      <!-- 0.00002 -->
      <g transform="translate(9.246875 283.215949) scale(0.1 -0.1)">
       <defs>
        <path id="DejaVuSans-2e" d="M 684 794 
L 1344 794 
L 1344 0 
L 684 0 
L 684 794 
z
" transform="scale(0.015625)"/>
       </defs>
       <use xlink:href="#DejaVuSans-30"/>
       <use xlink:href="#DejaVuSans-2e" x="63.623047"/>
       <use xlink:href="#DejaVuSans-30" x="95.410156"/>
       <use xlink:href="#DejaVuSans-30" x="159.033203"/>
       <use xlink:href="#DejaVuSans-30" x="222.65625"/>
       <use xlink:href="#DejaVuSans-30" x="286.279297"/>
       <use xlink:href="#DejaVuSans-32" x="349.902344"/>
      </g>
     </g>
    </g>
    <g id="ytick_2">
     <g id="line2d_7">
      <g>
       <use xlink:href="#m28a2a7ba03" x="57.6" y="243.696098" style="stroke: #000000; stroke-width: 0.8"/>
      </g>
     </g>
     <g id="text_8">
      <!-- 0.00004 -->
      <g transform="translate(9.246875 247.495317) scale(0.1 -0.1)">
       <use xlink:href="#DejaVuSans-30"/>
       <use xlink:href="#DejaVuSans-2e" x="63.623047"/>
       <use xlink:href="#DejaVuSans-30" x="95.410156"/>
       <use xlink:href="#DejaVuSans-30" x="159.033203"/>
       <use xlink:href="#DejaVuSans-30" x="222.65625"/>
       <use xlink:href="#DejaVuSans-30" x="286.279297"/>
       <use xlink:href="#DejaVuSans-34" x="349.902344"/>
      </g>
     </g>
    </g>
    <g id="ytick_3">
     <g id="line2d_8">
      <g>
       <use xlink:href="#m28a2a7ba03" x="57.6" y="207.975466" style="stroke: #000000; stroke-width: 0.8"/>
      </g>
     </g>
     <g id="text_9">
      <!-- 0.00006 -->
      <g transform="translate(9.246875 211.774685) scale(0.1 -0.1)">
       <defs>
        <path id="DejaVuSans-36" d="M 2113 2584 
Q 1688 2584 1439 2293 
Q 1191 2003 1191 1497 
Q 1191 994 1439 701 
Q 1688 409 2113 409 
Q 2538 409 2786 701 
Q 3034 994 3034 1497 
Q 3034 2003 2786 2293 
Q 2538 2584 2113 2584 
z
M 3366 4563 
L 3366 3988 
Q 3128 4100 2886 4159 
Q 2644 4219 2406 4219 
Q 1781 4219 1451 3797 
Q 1122 3375 1075 2522 
Q 1259 2794 1537 2939 
Q 1816 3084 2150 3084 
Q 2853 3084 3261 2657 
Q 3669 2231 3669 1497 
Q 3669 778 3244 343 
Q 2819 -91 2113 -91 
Q 1303 -91 875 529 
Q 447 1150 447 2328 
Q 447 3434 972 4092 
Q 1497 4750 2381 4750 
Q 2619 4750 2861 4703 
Q 3103 4656 3366 4563 
z
" transform="scale(0.015625)"/>
       </defs>
       <use xlink:href="#DejaVuSans-30"/>
       <use xlink:href="#DejaVuSans-2e" x="63.623047"/>
       <use xlink:href="#DejaVuSans-30" x="95.410156"/>
       <use xlink:href="#DejaVuSans-30" x="159.033203"/>
       <use xlink:href="#DejaVuSans-30" x="222.65625"/>
       <use xlink:href="#DejaVuSans-30" x="286.279297"/>
       <use xlink:href="#DejaVuSans-36" x="349.902344"/>
      </g>
     </g>
    </g>
    <g id="ytick_4">
     <g id="line2d_9">
      <g>
       <use xlink:href="#m28a2a7ba03" x="57.6" y="172.254833" style="stroke: #000000; stroke-width: 0.8"/>
      </g>
     </g>
     <g id="text_10">
      <!-- 0.00008 -->
      <g transform="translate(9.246875 176.054052) scale(0.1 -0.1)">
       <defs>
        <path id="DejaVuSans-38" d="M 2034 2216 
Q 1584 2216 1326 1975 
Q 1069 1734 1069 1313 
Q 1069 891 1326 650 
Q 1584 409 2034 409 
Q 2484 409 2743 651 
Q 3003 894 3003 1313 
Q 3003 1734 2745 1975 
Q 2488 2216 2034 2216 
z
M 1403 2484 
Q 997 2584 770 2862 
Q 544 3141 544 3541 
Q 544 4100 942 4425 
Q 1341 4750 2034 4750 
Q 2731 4750 3128 4425 
Q 3525 4100 3525 3541 
Q 3525 3141 3298 2862 
Q 3072 2584 2669 2484 
Q 3125 2378 3379 2068 
Q 3634 1759 3634 1313 
Q 3634 634 3220 271 
Q 2806 -91 2034 -91 
Q 1263 -91 848 271 
Q 434 634 434 1313 
Q 434 1759 690 2068 
Q 947 2378 1403 2484 
z
M 1172 3481 
Q 1172 3119 1398 2916 
Q 1625 2713 2034 2713 
Q 2441 2713 2670 2916 
Q 2900 3119 2900 3481 
Q 2900 3844 2670 4047 
Q 2441 4250 2034 4250 
Q 1625 4250 1398 4047 
Q 1172 3844 1172 3481 
z
" transform="scale(0.015625)"/>
       </defs>
       <use xlink:href="#DejaVuSans-30"/>
       <use xlink:href="#DejaVuSans-2e" x="63.623047"/>
       <use xlink:href="#DejaVuSans-30" x="95.410156"/>
       <use xlink:href="#DejaVuSans-30" x="159.033203"/>
       <use xlink:href="#DejaVuSans-30" x="222.65625"/>
       <use xlink:href="#DejaVuSans-30" x="286.279297"/>
       <use xlink:href="#DejaVuSans-38" x="349.902344"/>
      </g>
     </g>
    </g>
    <g id="ytick_5">
     <g id="line2d_10">
      <g>
       <use xlink:href="#m28a2a7ba03" x="57.6" y="136.534201" style="stroke: #000000; stroke-width: 0.8"/>
      </g>
     </g>
     <g id="text_11">
      <!-- 0.00010 -->
      <g transform="translate(9.246875 140.33342) scale(0.1 -0.1)">
       <use xlink:href="#DejaVuSans-30"/>
       <use xlink:href="#DejaVuSans-2e" x="63.623047"/>
       <use xlink:href="#DejaVuSans-30" x="95.410156"/>
       <use xlink:href="#DejaVuSans-30" x="159.033203"/>
       <use xlink:href="#DejaVuSans-30" x="222.65625"/>
       <use xlink:href="#DejaVuSans-31" x="286.279297"/>
       <use xlink:href="#DejaVuSans-30" x="349.902344"/>
      </g>
     </g>
    </g>
    <g id="ytick_6">
     <g id="line2d_11">
      <g>
       <use xlink:href="#m28a2a7ba03" x="57.6" y="100.813569" style="stroke: #000000; stroke-width: 0.8"/>
      </g>
     </g>
     <g id="text_12">
      <!-- 0.00012 -->
      <g transform="translate(9.246875 104.612788) scale(0.1 -0.1)">
       <use xlink:href="#DejaVuSans-30"/>
       <use xlink:href="#DejaVuSans-2e" x="63.623047"/>
       <use xlink:href="#DejaVuSans-30" x="95.410156"/>
       <use xlink:href="#DejaVuSans-30" x="159.033203"/>
       <use xlink:href="#DejaVuSans-30" x="222.65625"/>
       <use xlink:href="#DejaVuSans-31" x="286.279297"/>
       <use xlink:href="#DejaVuSans-32" x="349.902344"/>
      </g>
     </g>
    </g>
    <g id="ytick_7">
     <g id="line2d_12">
      <g>
       <use xlink:href="#m28a2a7ba03" x="57.6" y="65.092936" style="stroke: #000000; stroke-width: 0.8"/>
      </g>
     </g>
     <g id="text_13">
      <!-- 0.00014 -->
      <g transform="translate(9.246875 68.892155) scale(0.1 -0.1)">
       <use xlink:href="#DejaVuSans-30"/>
       <use xlink:href="#DejaVuSans-2e" x="63.623047"/>
       <use xlink:href="#DejaVuSans-30" x="95.410156"/>
       <use xlink:href="#DejaVuSans-30" x="159.033203"/>
       <use xlink:href="#DejaVuSans-30" x="222.65625"/>
       <use xlink:href="#DejaVuSans-31" x="286.279297"/>
       <use xlink:href="#DejaVuSans-34" x="349.902344"/>
      </g>
     </g>
    </g>
    <g id="text_14">
     <!-- Loss -->
     <g transform="translate(3.167187 185.495187) rotate(-90) scale(0.1 -0.1)">
      <defs>
       <path id="DejaVuSans-4c" d="M 628 4666 
L 1259 4666 
L 1259 531 
L 3531 531 
L 3531 0 
L 628 0 
L 628 4666 
z
" transform="scale(0.015625)"/>
       <path id="DejaVuSans-6f" d="M 1959 3097 
Q 1497 3097 1228 2736 
Q 959 2375 959 1747 
Q 959 1119 1226 758 
Q 1494 397 1959 397 
Q 2419 397 2687 759 
Q 2956 1122 2956 1747 
Q 2956 2369 2687 2733 
Q 2419 3097 1959 3097 
z
M 1959 3584 
Q 2709 3584 3137 3096 
Q 3566 2609 3566 1747 
Q 3566 888 3137 398 
Q 2709 -91 1959 -91 
Q 1206 -91 779 398 
Q 353 888 353 1747 
Q 353 2609 779 3096 
Q 1206 3584 1959 3584 
z
" transform="scale(0.015625)"/>
       <path id="DejaVuSans-73" d="M 2834 3397 
L 2834 2853 
Q 2591 2978 2328 3040 
Q 2066 3103 1784 3103 
Q 1356 3103 1142 2972 
Q 928 2841 928 2578 
Q 928 2378 1081 2264 
Q 1234 2150 1697 2047 
L 1894 2003 
Q 2506 1872 2764 1633 
Q 3022 1394 3022 966 
Q 3022 478 2636 193 
Q 2250 -91 1575 -91 
Q 1294 -91 989 -36 
Q 684 19 347 128 
L 347 722 
Q 666 556 975 473 
Q 1284 391 1588 391 
Q 1994 391 2212 530 
Q 2431 669 2431 922 
Q 2431 1156 2273 1281 
Q 2116 1406 1581 1522 
L 1381 1569 
Q 847 1681 609 1914 
Q 372 2147 372 2553 
Q 372 3047 722 3315 
Q 1072 3584 1716 3584 
Q 2034 3584 2315 3537 
Q 2597 3491 2834 3397 
z
" transform="scale(0.015625)"/>
      </defs>
      <use xlink:href="#DejaVuSans-4c"/>
      <use xlink:href="#DejaVuSans-6f" x="53.962891"/>
      <use xlink:href="#DejaVuSans-73" x="115.144531"/>
      <use xlink:href="#DejaVuSans-73" x="167.244141"/>
     </g>
    </g>
   </g>
   <g id="line2d_13">
    <path d="M 73.832727 208.571248 
L 74.555789 260.540102 
L 75.27885 260.516562 
L 76.001911 295.347923 
L 76.724973 260.493008 
L 77.448034 295.396794 
L 78.171095 139.821535 
L 78.894157 260.556586 
L 79.617218 260.611887 
L 80.340279 260.418786 
L 81.063341 208.684695 
L 81.786402 295.350757 
L 82.509463 260.463561 
L 83.232525 295.405288 
L 83.955586 260.549524 
L 84.678647 295.305377 
L 85.401709 260.523624 
L 86.12477 260.488297 
L 86.847832 208.457736 
L 87.570893 295.431463 
L 88.293954 295.393963 
L 89.017016 53.568 
L 89.740077 208.594269 
L 90.463138 260.516562 
L 91.1862 295.339417 
L 91.909261 295.333747 
L 92.632322 260.675397 
L 93.355384 295.459742 
L 94.801506 295.335165 
L 95.524568 139.490199 
L 96.247629 295.316728 
L 98.416813 295.385467 
L 99.139874 260.530687 
L 99.862936 295.363512 
L 102.03212 295.392548 
L 102.755181 260.602479 
L 103.478243 295.381219 
L 104.201304 260.540102 
L 104.924365 208.342521 
L 105.647427 260.685975 
L 107.093549 260.362206 
L 107.816611 260.544813 
L 108.539672 295.395379 
L 109.262733 139.661175 
L 109.985795 139.682279 
L 110.708856 295.339417 
L 111.431917 139.561971 
L 112.154979 260.566001 
L 112.87804 208.544933 
L 113.601101 260.521266 
L 114.324163 260.556586 
L 115.047224 295.359261 
L 115.770285 260.523624 
L 116.493347 260.509492 
L 117.216408 208.554796 
L 117.93947 260.530687 
L 118.662531 260.421145 
L 119.385592 208.581111 
L 120.108654 260.500071 
L 120.831715 139.561971 
L 121.554776 295.339417 
L 122.277838 295.356426 
L 123.000899 260.442353 
L 123.72396 260.523624 
L 124.447022 295.329492 
L 125.170083 260.516562 
L 125.893144 295.337999 
L 126.616206 260.516562 
L 127.339267 295.328074 
L 128.062328 295.339417 
L 128.78539 208.561378 
L 129.508451 260.544813 
L 130.231512 260.566001 
L 130.954574 139.54509 
L 131.677635 260.583649 
L 133.123758 260.581297 
L 133.846819 208.597556 
L 134.569881 260.514203 
L 135.292942 139.595745 
L 136.016003 260.561291 
L 136.739065 260.570706 
L 137.462126 208.521899 
L 138.185187 260.533039 
L 138.908249 295.257815 
L 139.63131 260.523624 
L 140.354371 208.485708 
L 141.077433 295.340835 
L 141.800494 295.328074 
L 142.523555 208.554796 
L 143.246617 260.535398 
L 144.692739 260.50714 
L 145.415801 53.568 
L 146.138862 208.581111 
L 146.861923 260.514203 
L 147.584985 260.547165 
L 148.308046 208.55809 
L 149.031108 260.663637 
L 149.754169 295.339417 
L 150.47723 139.540867 
L 151.200292 208.561378 
L 151.923353 260.576592 
L 152.646414 260.614239 
L 153.369476 208.684695 
L 154.092537 295.360677 
L 154.815598 295.31389 
L 155.53866 208.551508 
L 156.261721 139.561971 
L 156.984782 260.521266 
L 157.707844 295.31389 
L 158.430905 295.342254 
L 159.153966 260.623654 
L 159.877028 139.55776 
L 160.600089 208.581111 
L 161.32315 260.525976 
L 162.046212 208.571248 
L 162.769273 260.533039 
L 163.492334 260.53775 
L 164.215396 139.54509 
L 164.938457 208.577823 
L 165.661519 295.298991 
L 166.38458 208.590981 
L 167.107641 260.523624 
L 167.830703 295.336583 
L 168.553764 295.374137 
L 169.276825 260.561291 
L 169.999887 208.641954 
L 170.722948 295.35501 
L 171.446009 208.590981 
L 172.169071 295.384051 
L 172.892132 260.485939 
L 173.615193 260.588359 
L 174.338255 295.326656 
L 175.061316 295.326656 
L 175.784377 139.644295 
L 176.507439 260.540102 
L 177.2305 295.352175 
L 177.953561 260.49536 
L 178.676623 139.591535 
L 179.399684 260.514203 
L 180.845807 260.533039 
L 181.568868 208.531769 
L 183.014991 208.590981 
L 183.738052 295.349341 
L 185.184175 295.352175 
L 185.907236 208.574536 
L 186.630298 260.514203 
L 187.353359 295.352175 
L 188.07642 295.326656 
L 188.799482 260.542461 
L 189.522543 295.332329 
L 190.245604 295.353592 
L 190.968666 208.548221 
L 191.691727 260.614239 
L 193.13785 260.681274 
L 193.860911 295.37697 
L 194.583972 295.379803 
L 195.307034 260.602479 
L 196.030095 208.691271 
L 196.753157 260.581297 
L 197.476218 260.590712 
L 198.199279 295.375553 
L 198.922341 260.614239 
L 199.645402 53.797259 
L 200.368463 260.604831 
L 202.537647 260.616591 
L 203.260709 295.375553 
L 203.98377 260.635415 
L 204.706831 295.382636 
L 205.429893 260.602479 
L 206.152954 295.379803 
L 208.322138 295.39821 
L 209.045199 260.514203 
L 209.768261 295.385467 
L 210.491322 260.523624 
L 211.214383 295.340835 
L 211.937445 208.635379 
L 212.660506 295.359261 
L 214.106629 295.35501 
L 214.82969 260.570706 
L 215.552752 295.3883 
L 216.275813 295.353592 
L 216.998874 260.549524 
L 217.721936 295.353592 
L 218.444997 208.551508 
L 219.168058 295.392548 
L 219.89112 260.573058 
L 220.614181 295.381219 
L 223.506426 295.315308 
L 224.229488 295.386884 
L 224.952549 260.478876 
L 225.67561 260.604831 
L 226.398672 208.55809 
L 227.121733 295.437121 
L 227.844794 260.581297 
L 228.567856 260.556586 
L 229.290917 295.371304 
L 230.013979 295.406703 
L 230.73704 295.322402 
L 231.460101 260.568353 
L 232.183163 295.435706 
L 234.352347 295.357844 
L 235.075408 260.642471 
L 235.798469 260.547165 
L 236.521531 260.651879 
L 237.244592 208.571248 
L 237.967653 295.33091 
L 239.413776 295.3883 
L 240.136837 260.514203 
L 240.859899 260.504781 
L 241.58296 295.413779 
L 242.306021 260.637767 
L 243.029083 295.349341 
L 243.752144 139.707607 
L 244.475206 295.360677 
L 245.198267 260.540102 
L 245.921328 295.286217 
L 246.64439 260.523624 
L 247.367451 295.415193 
L 248.090512 208.620577 
L 248.813574 295.395379 
L 249.536635 260.573058 
L 250.259696 295.306796 
L 250.982758 295.366345 
L 251.705819 260.616591 
L 252.42888 260.649527 
L 253.151942 260.570706 
L 253.875003 208.740574 
L 254.598064 295.33091 
L 255.321126 260.714188 
L 256.044187 295.378386 
L 256.767248 260.747091 
L 257.49031 295.379803 
L 258.213371 208.587693 
L 258.936432 295.332329 
L 259.659494 295.408118 
L 260.382555 260.483586 
L 261.105617 208.600844 
L 261.828678 139.79622 
L 262.551739 139.732921 
L 263.274801 260.681274 
L 264.720923 260.593064 
L 265.443985 295.346506 
L 266.167046 295.372721 
L 266.890107 139.616862 
L 267.613169 208.610714 
L 268.33623 295.378386 
L 270.505414 295.379803 
L 271.228475 208.691271 
L 271.951537 295.447018 
L 272.674598 260.561291 
L 273.397659 208.681407 
L 274.120721 260.633063 
L 274.843782 295.39821 
L 275.566843 295.441362 
L 276.289905 260.558939 
L 277.012966 295.371304 
L 278.459089 295.389715 
L 279.18215 208.737286 
L 279.905212 295.312472 
L 280.628273 260.590712 
L 281.351334 208.594269 
L 282.074396 208.574536 
L 282.797457 260.476517 
L 284.24358 260.523624 
L 284.966641 295.357844 
L 285.689702 295.35501 
L 286.412764 260.547165 
L 287.135825 260.581297 
L 287.858886 295.391131 
L 288.581948 295.437121 
L 289.305009 260.530687 
L 290.751132 260.583649 
L 291.474193 208.535063 
L 292.197255 260.547165 
L 292.920316 260.597774 
L 293.643377 295.374137 
L 294.366439 295.378386 
L 295.0895 260.554228 
L 295.812561 295.332329 
L 296.535623 295.356426 
L 297.258684 260.547165 
L 297.981745 208.638666 
L 298.704807 295.32382 
L 299.427868 295.342254 
L 300.150929 260.576592 
L 300.873991 260.53775 
L 301.597052 139.445847 
L 302.320113 260.547165 
L 303.043175 295.35501 
L 303.766236 208.620577 
L 304.489297 208.600844 
L 305.212359 295.335165 
L 305.93542 295.303959 
L 306.658481 260.523624 
L 307.381543 139.724487 
L 308.104604 260.658936 
L 308.827666 295.345088 
L 309.550727 295.461155 
L 310.273788 208.876925 
L 310.99685 257.575649 
L 311.719911 53.730283 
L 312.442972 295.399625 
L 314.612156 295.430757 
L 315.335218 260.628358 
L 316.058279 295.329492 
L 316.78134 295.403871 
L 317.504402 295.360677 
L 318.227463 295.441362 
L 318.950524 295.405288 
L 319.673586 260.504781 
L 320.396647 295.363512 
L 321.84277 295.386884 
L 322.565831 260.611887 
L 323.288892 208.651817 
L 324.011954 260.665989 
L 324.735015 295.420853 
L 325.458077 208.641954 
L 326.181138 260.718889 
L 326.904199 260.561291 
L 327.627261 260.828132 
L 328.350322 139.720264 
L 329.073383 295.488 
L 329.796445 208.763582 
L 331.242567 208.645242 
L 331.965629 295.364928 
L 332.68869 208.628797 
L 333.411751 260.430573 
L 334.134813 295.438534 
L 334.857874 260.551876 
L 335.580935 260.640119 
L 336.303997 139.749802 
L 337.027058 260.554228 
L 339.919304 260.514203 
L 340.642365 295.395379 
L 341.365426 260.593064 
L 342.088488 295.33091 
L 342.811549 139.553537 
L 343.53461 139.502869 
L 344.257672 260.607183 
L 344.980733 208.528481 
L 345.703794 260.516562 
L 346.426856 208.434702 
L 347.149917 260.623654 
L 347.872978 295.419438 
L 348.59604 208.623865 
L 349.319101 260.521266 
L 350.042162 208.548221 
L 350.765224 260.490649 
L 351.488285 260.578944 
L 352.211346 260.535398 
L 352.934408 208.632091 
L 353.657469 295.366345 
L 355.826653 295.346506 
L 356.549715 260.590712 
L 357.272776 208.625509 
L 357.995837 260.563643 
L 358.718899 295.342254 
L 359.44196 295.366345 
L 360.165021 208.548221 
L 360.888083 260.549524 
L 361.611144 260.578944 
L 362.334205 295.382636 
L 363.780328 295.359261 
L 364.503389 208.571248 
L 365.226451 295.349341 
L 368.118696 295.349341 
L 368.841757 208.625509 
L 369.564819 295.346506 
L 370.28788 295.391131 
L 371.010941 295.306796 
L 371.734003 295.381219 
L 372.457064 260.616591 
L 373.180126 260.642471 
L 373.903187 295.290476 
L 374.626248 208.651817 
L 375.34931 295.346506 
L 377.518494 295.439949 
L 378.241555 208.428113 
L 378.964616 260.609535 
L 379.687678 260.588359 
L 380.410739 208.632091 
L 381.1338 295.352175 
L 384.026046 295.419438 
L 384.749107 260.709487 
L 385.472168 208.548221 
L 386.19523 260.568353 
L 386.918291 208.597556 
L 387.641353 295.485175 
L 388.364414 208.538351 
L 389.087475 260.521266 
L 389.810537 295.413779 
L 390.533598 139.53242 
L 391.256659 260.578944 
L 393.425843 260.700085 
L 394.148905 208.733998 
L 394.871966 295.371304 
L 395.595027 295.438534 
L 396.318089 139.570418 
L 397.04115 260.551876 
L 397.764211 260.600126 
L 398.487273 295.389715 
L 398.487273 295.389715 
" clip-path="url(#pc5a69972d7)" style="fill: none; stroke: #1f77b4; stroke-width: 1.5; stroke-linecap: square"/>
   </g>
   <g id="patch_3">
    <path d="M 57.6 307.584 
L 57.6 41.472 
" style="fill: none; stroke: #000000; stroke-width: 0.8; stroke-linejoin: miter; stroke-linecap: square"/>
   </g>
   <g id="patch_4">
    <path d="M 414.72 307.584 
L 414.72 41.472 
" style="fill: none; stroke: #000000; stroke-width: 0.8; stroke-linejoin: miter; stroke-linecap: square"/>
   </g>
   <g id="patch_5">
    <path d="M 57.6 307.584 
L 414.72 307.584 
" style="fill: none; stroke: #000000; stroke-width: 0.8; stroke-linejoin: miter; stroke-linecap: square"/>
   </g>
   <g id="patch_6">
    <path d="M 57.6 41.472 
L 414.72 41.472 
" style="fill: none; stroke: #000000; stroke-width: 0.8; stroke-linejoin: miter; stroke-linecap: square"/>
   </g>
   <g id="text_15">
    <!-- Prediction Loss_GP_75_n_450_d_2000_e_21_l_0.0001 -->
    <g transform="translate(77.064375 35.472) scale(0.12 -0.12)">
     <defs>
      <path id="DejaVuSans-65" d="M 3597 1894 
L 3597 1613 
L 953 1613 
Q 991 1019 1311 708 
Q 1631 397 2203 397 
Q 2534 397 2845 478 
Q 3156 559 3463 722 
L 3463 178 
Q 3153 47 2828 -22 
Q 2503 -91 2169 -91 
Q 1331 -91 842 396 
Q 353 884 353 1716 
Q 353 2575 817 3079 
Q 1281 3584 2069 3584 
Q 2775 3584 3186 3129 
Q 3597 2675 3597 1894 
z
M 3022 2063 
Q 3016 2534 2758 2815 
Q 2500 3097 2075 3097 
Q 1594 3097 1305 2825 
Q 1016 2553 972 2059 
L 3022 2063 
z
" transform="scale(0.015625)"/>
      <path id="DejaVuSans-64" d="M 2906 2969 
L 2906 4863 
L 3481 4863 
L 3481 0 
L 2906 0 
L 2906 525 
Q 2725 213 2448 61 
Q 2172 -91 1784 -91 
Q 1150 -91 751 415 
Q 353 922 353 1747 
Q 353 2572 751 3078 
Q 1150 3584 1784 3584 
Q 2172 3584 2448 3432 
Q 2725 3281 2906 2969 
z
M 947 1747 
Q 947 1113 1208 752 
Q 1469 391 1925 391 
Q 2381 391 2643 752 
Q 2906 1113 2906 1747 
Q 2906 2381 2643 2742 
Q 2381 3103 1925 3103 
Q 1469 3103 1208 2742 
Q 947 2381 947 1747 
z
" transform="scale(0.015625)"/>
      <path id="DejaVuSans-63" d="M 3122 3366 
L 3122 2828 
Q 2878 2963 2633 3030 
Q 2388 3097 2138 3097 
Q 1578 3097 1268 2742 
Q 959 2388 959 1747 
Q 959 1106 1268 751 
Q 1578 397 2138 397 
Q 2388 397 2633 464 
Q 2878 531 3122 666 
L 3122 134 
Q 2881 22 2623 -34 
Q 2366 -91 2075 -91 
Q 1284 -91 818 406 
Q 353 903 353 1747 
Q 353 2603 823 3093 
Q 1294 3584 2113 3584 
Q 2378 3584 2631 3529 
Q 2884 3475 3122 3366 
z
" transform="scale(0.015625)"/>
      <path id="DejaVuSans-74" d="M 1172 4494 
L 1172 3500 
L 2356 3500 
L 2356 3053 
L 1172 3053 
L 1172 1153 
Q 1172 725 1289 603 
Q 1406 481 1766 481 
L 2356 481 
L 2356 0 
L 1766 0 
Q 1100 0 847 248 
Q 594 497 594 1153 
L 594 3053 
L 172 3053 
L 172 3500 
L 594 3500 
L 594 4494 
L 1172 4494 
z
" transform="scale(0.015625)"/>
      <path id="DejaVuSans-6e" d="M 3513 2113 
L 3513 0 
L 2938 0 
L 2938 2094 
Q 2938 2591 2744 2837 
Q 2550 3084 2163 3084 
Q 1697 3084 1428 2787 
Q 1159 2491 1159 1978 
L 1159 0 
L 581 0 
L 581 3500 
L 1159 3500 
L 1159 2956 
Q 1366 3272 1645 3428 
Q 1925 3584 2291 3584 
Q 2894 3584 3203 3211 
Q 3513 2838 3513 2113 
z
" transform="scale(0.015625)"/>
      <path id="DejaVuSans-37" d="M 525 4666 
L 3525 4666 
L 3525 4397 
L 1831 0 
L 1172 0 
L 2766 4134 
L 525 4134 
L 525 4666 
z
" transform="scale(0.015625)"/>
      <path id="DejaVuSans-6c" d="M 603 4863 
L 1178 4863 
L 1178 0 
L 603 0 
L 603 4863 
z
" transform="scale(0.015625)"/>
     </defs>
     <use xlink:href="#DejaVuSans-50"/>
     <use xlink:href="#DejaVuSans-72" x="58.552734"/>
     <use xlink:href="#DejaVuSans-65" x="97.416016"/>
     <use xlink:href="#DejaVuSans-64" x="158.939453"/>
     <use xlink:href="#DejaVuSans-69" x="222.416016"/>
     <use xlink:href="#DejaVuSans-63" x="250.199219"/>
     <use xlink:href="#DejaVuSans-74" x="305.179688"/>
     <use xlink:href="#DejaVuSans-69" x="344.388672"/>
     <use xlink:href="#DejaVuSans-6f" x="372.171875"/>
     <use xlink:href="#DejaVuSans-6e" x="433.353516"/>
     <use xlink:href="#DejaVuSans-20" x="496.732422"/>
     <use xlink:href="#DejaVuSans-4c" x="528.519531"/>
     <use xlink:href="#DejaVuSans-6f" x="582.482422"/>
     <use xlink:href="#DejaVuSans-73" x="643.664062"/>
     <use xlink:href="#DejaVuSans-73" x="695.763672"/>
     <use xlink:href="#DejaVuSans-5f" x="747.863281"/>
     <use xlink:href="#DejaVuSans-47" x="797.863281"/>
     <use xlink:href="#DejaVuSans-50" x="875.353516"/>
     <use xlink:href="#DejaVuSans-5f" x="935.65625"/>
     <use xlink:href="#DejaVuSans-37" x="985.65625"/>
     <use xlink:href="#DejaVuSans-35" x="1049.279297"/>
     <use xlink:href="#DejaVuSans-5f" x="1112.902344"/>
     <use xlink:href="#DejaVuSans-6e" x="1162.902344"/>
     <use xlink:href="#DejaVuSans-5f" x="1226.28125"/>
     <use xlink:href="#DejaVuSans-34" x="1276.28125"/>
     <use xlink:href="#DejaVuSans-35" x="1339.904297"/>
     <use xlink:href="#DejaVuSans-30" x="1403.527344"/>
     <use xlink:href="#DejaVuSans-5f" x="1467.150391"/>
     <use xlink:href="#DejaVuSans-64" x="1517.150391"/>
     <use xlink:href="#DejaVuSans-5f" x="1580.626953"/>
     <use xlink:href="#DejaVuSans-32" x="1630.626953"/>
     <use xlink:href="#DejaVuSans-30" x="1694.25"/>
     <use xlink:href="#DejaVuSans-30" x="1757.873047"/>
     <use xlink:href="#DejaVuSans-30" x="1821.496094"/>
     <use xlink:href="#DejaVuSans-5f" x="1885.119141"/>
     <use xlink:href="#DejaVuSans-65" x="1935.119141"/>
     <use xlink:href="#DejaVuSans-5f" x="1996.642578"/>
     <use xlink:href="#DejaVuSans-32" x="2046.642578"/>
     <use xlink:href="#DejaVuSans-31" x="2110.265625"/>
     <use xlink:href="#DejaVuSans-5f" x="2173.888672"/>
     <use xlink:href="#DejaVuSans-6c" x="2223.888672"/>
     <use xlink:href="#DejaVuSans-5f" x="2251.671875"/>
     <use xlink:href="#DejaVuSans-30" x="2301.671875"/>
     <use xlink:href="#DejaVuSans-2e" x="2365.294922"/>
     <use xlink:href="#DejaVuSans-30" x="2397.082031"/>
     <use xlink:href="#DejaVuSans-30" x="2460.705078"/>
     <use xlink:href="#DejaVuSans-30" x="2524.328125"/>
     <use xlink:href="#DejaVuSans-31" x="2587.951172"/>
    </g>
   </g>
  </g>
 </g>
 <defs>
  <clipPath id="pc5a69972d7">
   <rect x="57.6" y="41.472" width="357.12" height="266.112"/>
  </clipPath>
 </defs>
</svg>
