<?xml version="1.0" encoding="utf-8" standalone="no"?>
<!DOCTYPE svg PUBLIC "-//W3C//DTD SVG 1.1//EN"
  "http://www.w3.org/Graphics/SVG/1.1/DTD/svg11.dtd">
<svg xmlns:xlink="http://www.w3.org/1999/xlink" width="460.8pt" height="345.6pt" viewBox="0 0 460.8 345.6" xmlns="http://www.w3.org/2000/svg" version="1.1">
 <metadata>
  <rdf:RDF xmlns:dc="http://purl.org/dc/elements/1.1/" xmlns:cc="http://creativecommons.org/ns#" xmlns:rdf="http://www.w3.org/1999/02/22-rdf-syntax-ns#">
   <cc:Work>
    <dc:type rdf:resource="http://purl.org/dc/dcmitype/StillImage"/>
    <dc:date>2024-11-02T21:49:03.844507</dc:date>
    <dc:format>image/svg+xml</dc:format>
    <dc:creator>
     <cc:Agent>
      <dc:title>Matplotlib v3.9.2, https://matplotlib.org/</dc:title>
     </cc:Agent>
    </dc:creator>
   </cc:Work>
  </rdf:RDF>
 </metadata>
 <defs>
  <style type="text/css">*{stroke-linejoin: round; stroke-linecap: butt}</style>
 </defs>
 <g id="figure_1">
  <g id="patch_1">
   <path d="M 0 345.6 
L 460.8 345.6 
L 460.8 0 
L 0 0 
z
" style="fill: #ffffff"/>
  </g>
  <g id="axes_1">
   <g id="patch_2">
    <path d="M 57.6 307.584 
L 414.72 307.584 
L 414.72 41.472 
L 57.6 41.472 
z
" style="fill: #ffffff"/>
   </g>
   <g id="matplotlib.axis_1">
    <g id="xtick_1">
     <g id="line2d_1">
      <defs>
       <path id="mfc4d524ec9" d="M 0 0 
L 0 3.5 
" style="stroke: #000000; stroke-width: 0.8"/>
      </defs>
      <g>
       <use xlink:href="#mfc4d524ec9" x="73.832727" y="307.584" style="stroke: #000000; stroke-width: 0.8"/>
      </g>
     </g>
     <g id="text_1">
      <!-- 0 -->
      <g transform="translate(70.651477 322.182437) scale(0.1 -0.1)">
       <defs>
        <path id="DejaVuSans-30" d="M 2034 4250 
Q 1547 4250 1301 3770 
Q 1056 3291 1056 2328 
Q 1056 1369 1301 889 
Q 1547 409 2034 409 
Q 2525 409 2770 889 
Q 3016 1369 3016 2328 
Q 3016 3291 2770 3770 
Q 2525 4250 2034 4250 
z
M 2034 4750 
Q 2819 4750 3233 4129 
Q 3647 3509 3647 2328 
Q 3647 1150 3233 529 
Q 2819 -91 2034 -91 
Q 1250 -91 836 529 
Q 422 1150 422 2328 
Q 422 3509 836 4129 
Q 1250 4750 2034 4750 
z
" transform="scale(0.015625)"/>
       </defs>
       <use xlink:href="#DejaVuSans-30"/>
      </g>
     </g>
    </g>
    <g id="xtick_2">
     <g id="line2d_2">
      <g>
       <use xlink:href="#mfc4d524ec9" x="146.138862" y="307.584" style="stroke: #000000; stroke-width: 0.8"/>
      </g>
     </g>
     <g id="text_2">
      <!-- 100 -->
      <g transform="translate(136.595112 322.182437) scale(0.1 -0.1)">
       <defs>
        <path id="DejaVuSans-31" d="M 794 531 
L 1825 531 
L 1825 4091 
L 703 3866 
L 703 4441 
L 1819 4666 
L 2450 4666 
L 2450 531 
L 3481 531 
L 3481 0 
L 794 0 
L 794 531 
z
" transform="scale(0.015625)"/>
       </defs>
       <use xlink:href="#DejaVuSans-31"/>
       <use xlink:href="#DejaVuSans-30" x="63.623047"/>
       <use xlink:href="#DejaVuSans-30" x="127.246094"/>
      </g>
     </g>
    </g>
    <g id="xtick_3">
     <g id="line2d_3">
      <g>
       <use xlink:href="#mfc4d524ec9" x="218.444997" y="307.584" style="stroke: #000000; stroke-width: 0.8"/>
      </g>
     </g>
     <g id="text_3">
      <!-- 200 -->
      <g transform="translate(208.901247 322.182437) scale(0.1 -0.1)">
       <defs>
        <path id="DejaVuSans-32" d="M 1228 531 
L 3431 531 
L 3431 0 
L 469 0 
L 469 531 
Q 828 903 1448 1529 
Q 2069 2156 2228 2338 
Q 2531 2678 2651 2914 
Q 2772 3150 2772 3378 
Q 2772 3750 2511 3984 
Q 2250 4219 1831 4219 
Q 1534 4219 1204 4116 
Q 875 4013 500 3803 
L 500 4441 
Q 881 4594 1212 4672 
Q 1544 4750 1819 4750 
Q 2544 4750 2975 4387 
Q 3406 4025 3406 3419 
Q 3406 3131 3298 2873 
Q 3191 2616 2906 2266 
Q 2828 2175 2409 1742 
Q 1991 1309 1228 531 
z
" transform="scale(0.015625)"/>
       </defs>
       <use xlink:href="#DejaVuSans-32"/>
       <use xlink:href="#DejaVuSans-30" x="63.623047"/>
       <use xlink:href="#DejaVuSans-30" x="127.246094"/>
      </g>
     </g>
    </g>
    <g id="xtick_4">
     <g id="line2d_4">
      <g>
       <use xlink:href="#mfc4d524ec9" x="290.751132" y="307.584" style="stroke: #000000; stroke-width: 0.8"/>
      </g>
     </g>
     <g id="text_4">
      <!-- 300 -->
      <g transform="translate(281.207382 322.182437) scale(0.1 -0.1)">
       <defs>
        <path id="DejaVuSans-33" d="M 2597 2516 
Q 3050 2419 3304 2112 
Q 3559 1806 3559 1356 
Q 3559 666 3084 287 
Q 2609 -91 1734 -91 
Q 1441 -91 1130 -33 
Q 819 25 488 141 
L 488 750 
Q 750 597 1062 519 
Q 1375 441 1716 441 
Q 2309 441 2620 675 
Q 2931 909 2931 1356 
Q 2931 1769 2642 2001 
Q 2353 2234 1838 2234 
L 1294 2234 
L 1294 2753 
L 1863 2753 
Q 2328 2753 2575 2939 
Q 2822 3125 2822 3475 
Q 2822 3834 2567 4026 
Q 2313 4219 1838 4219 
Q 1578 4219 1281 4162 
Q 984 4106 628 3988 
L 628 4550 
Q 988 4650 1302 4700 
Q 1616 4750 1894 4750 
Q 2613 4750 3031 4423 
Q 3450 4097 3450 3541 
Q 3450 3153 3228 2886 
Q 3006 2619 2597 2516 
z
" transform="scale(0.015625)"/>
       </defs>
       <use xlink:href="#DejaVuSans-33"/>
       <use xlink:href="#DejaVuSans-30" x="63.623047"/>
       <use xlink:href="#DejaVuSans-30" x="127.246094"/>
      </g>
     </g>
    </g>
    <g id="xtick_5">
     <g id="line2d_5">
      <g>
       <use xlink:href="#mfc4d524ec9" x="363.057267" y="307.584" style="stroke: #000000; stroke-width: 0.8"/>
      </g>
     </g>
     <g id="text_5">
      <!-- 400 -->
      <g transform="translate(353.513517 322.182437) scale(0.1 -0.1)">
       <defs>
        <path id="DejaVuSans-34" d="M 2419 4116 
L 825 1625 
L 2419 1625 
L 2419 4116 
z
M 2253 4666 
L 3047 4666 
L 3047 1625 
L 3713 1625 
L 3713 1100 
L 3047 1100 
L 3047 0 
L 2419 0 
L 2419 1100 
L 313 1100 
L 313 1709 
L 2253 4666 
z
" transform="scale(0.015625)"/>
       </defs>
       <use xlink:href="#DejaVuSans-34"/>
       <use xlink:href="#DejaVuSans-30" x="63.623047"/>
       <use xlink:href="#DejaVuSans-30" x="127.246094"/>
      </g>
     </g>
    </g>
    <g id="text_6">
     <!-- GraphPair_ : 450 -->
     <g transform="translate(194.618594 335.860562) scale(0.1 -0.1)">
      <defs>
       <path id="DejaVuSans-47" d="M 3809 666 
L 3809 1919 
L 2778 1919 
L 2778 2438 
L 4434 2438 
L 4434 434 
Q 4069 175 3628 42 
Q 3188 -91 2688 -91 
Q 1594 -91 976 548 
Q 359 1188 359 2328 
Q 359 3472 976 4111 
Q 1594 4750 2688 4750 
Q 3144 4750 3555 4637 
Q 3966 4525 4313 4306 
L 4313 3634 
Q 3963 3931 3569 4081 
Q 3175 4231 2741 4231 
Q 1884 4231 1454 3753 
Q 1025 3275 1025 2328 
Q 1025 1384 1454 906 
Q 1884 428 2741 428 
Q 3075 428 3337 486 
Q 3600 544 3809 666 
z
" transform="scale(0.015625)"/>
       <path id="DejaVuSans-72" d="M 2631 2963 
Q 2534 3019 2420 3045 
Q 2306 3072 2169 3072 
Q 1681 3072 1420 2755 
Q 1159 2438 1159 1844 
L 1159 0 
L 581 0 
L 581 3500 
L 1159 3500 
L 1159 2956 
Q 1341 3275 1631 3429 
Q 1922 3584 2338 3584 
Q 2397 3584 2469 3576 
Q 2541 3569 2628 3553 
L 2631 2963 
z
" transform="scale(0.015625)"/>
       <path id="DejaVuSans-61" d="M 2194 1759 
Q 1497 1759 1228 1600 
Q 959 1441 959 1056 
Q 959 750 1161 570 
Q 1363 391 1709 391 
Q 2188 391 2477 730 
Q 2766 1069 2766 1631 
L 2766 1759 
L 2194 1759 
z
M 3341 1997 
L 3341 0 
L 2766 0 
L 2766 531 
Q 2569 213 2275 61 
Q 1981 -91 1556 -91 
Q 1019 -91 701 211 
Q 384 513 384 1019 
Q 384 1609 779 1909 
Q 1175 2209 1959 2209 
L 2766 2209 
L 2766 2266 
Q 2766 2663 2505 2880 
Q 2244 3097 1772 3097 
Q 1472 3097 1187 3025 
Q 903 2953 641 2809 
L 641 3341 
Q 956 3463 1253 3523 
Q 1550 3584 1831 3584 
Q 2591 3584 2966 3190 
Q 3341 2797 3341 1997 
z
" transform="scale(0.015625)"/>
       <path id="DejaVuSans-70" d="M 1159 525 
L 1159 -1331 
L 581 -1331 
L 581 3500 
L 1159 3500 
L 1159 2969 
Q 1341 3281 1617 3432 
Q 1894 3584 2278 3584 
Q 2916 3584 3314 3078 
Q 3713 2572 3713 1747 
Q 3713 922 3314 415 
Q 2916 -91 2278 -91 
Q 1894 -91 1617 61 
Q 1341 213 1159 525 
z
M 3116 1747 
Q 3116 2381 2855 2742 
Q 2594 3103 2138 3103 
Q 1681 3103 1420 2742 
Q 1159 2381 1159 1747 
Q 1159 1113 1420 752 
Q 1681 391 2138 391 
Q 2594 391 2855 752 
Q 3116 1113 3116 1747 
z
" transform="scale(0.015625)"/>
       <path id="DejaVuSans-68" d="M 3513 2113 
L 3513 0 
L 2938 0 
L 2938 2094 
Q 2938 2591 2744 2837 
Q 2550 3084 2163 3084 
Q 1697 3084 1428 2787 
Q 1159 2491 1159 1978 
L 1159 0 
L 581 0 
L 581 4863 
L 1159 4863 
L 1159 2956 
Q 1366 3272 1645 3428 
Q 1925 3584 2291 3584 
Q 2894 3584 3203 3211 
Q 3513 2838 3513 2113 
z
" transform="scale(0.015625)"/>
       <path id="DejaVuSans-50" d="M 1259 4147 
L 1259 2394 
L 2053 2394 
Q 2494 2394 2734 2622 
Q 2975 2850 2975 3272 
Q 2975 3691 2734 3919 
Q 2494 4147 2053 4147 
L 1259 4147 
z
M 628 4666 
L 2053 4666 
Q 2838 4666 3239 4311 
Q 3641 3956 3641 3272 
Q 3641 2581 3239 2228 
Q 2838 1875 2053 1875 
L 1259 1875 
L 1259 0 
L 628 0 
L 628 4666 
z
" transform="scale(0.015625)"/>
       <path id="DejaVuSans-69" d="M 603 3500 
L 1178 3500 
L 1178 0 
L 603 0 
L 603 3500 
z
M 603 4863 
L 1178 4863 
L 1178 4134 
L 603 4134 
L 603 4863 
z
" transform="scale(0.015625)"/>
       <path id="DejaVuSans-5f" d="M 3263 -1063 
L 3263 -1509 
L -63 -1509 
L -63 -1063 
L 3263 -1063 
z
" transform="scale(0.015625)"/>
       <path id="DejaVuSans-20" transform="scale(0.015625)"/>
       <path id="DejaVuSans-3a" d="M 750 794 
L 1409 794 
L 1409 0 
L 750 0 
L 750 794 
z
M 750 3309 
L 1409 3309 
L 1409 2516 
L 750 2516 
L 750 3309 
z
" transform="scale(0.015625)"/>
       <path id="DejaVuSans-35" d="M 691 4666 
L 3169 4666 
L 3169 4134 
L 1269 4134 
L 1269 2991 
Q 1406 3038 1543 3061 
Q 1681 3084 1819 3084 
Q 2600 3084 3056 2656 
Q 3513 2228 3513 1497 
Q 3513 744 3044 326 
Q 2575 -91 1722 -91 
Q 1428 -91 1123 -41 
Q 819 9 494 109 
L 494 744 
Q 775 591 1075 516 
Q 1375 441 1709 441 
Q 2250 441 2565 725 
Q 2881 1009 2881 1497 
Q 2881 1984 2565 2268 
Q 2250 2553 1709 2553 
Q 1456 2553 1204 2497 
Q 953 2441 691 2322 
L 691 4666 
z
" transform="scale(0.015625)"/>
      </defs>
      <use xlink:href="#DejaVuSans-47"/>
      <use xlink:href="#DejaVuSans-72" x="77.490234"/>
      <use xlink:href="#DejaVuSans-61" x="118.603516"/>
      <use xlink:href="#DejaVuSans-70" x="179.882812"/>
      <use xlink:href="#DejaVuSans-68" x="243.359375"/>
      <use xlink:href="#DejaVuSans-50" x="306.738281"/>
      <use xlink:href="#DejaVuSans-61" x="362.541016"/>
      <use xlink:href="#DejaVuSans-69" x="423.820312"/>
      <use xlink:href="#DejaVuSans-72" x="451.603516"/>
      <use xlink:href="#DejaVuSans-5f" x="492.716797"/>
      <use xlink:href="#DejaVuSans-20" x="542.716797"/>
      <use xlink:href="#DejaVuSans-3a" x="574.503906"/>
      <use xlink:href="#DejaVuSans-20" x="608.195312"/>
      <use xlink:href="#DejaVuSans-34" x="639.982422"/>
      <use xlink:href="#DejaVuSans-35" x="703.605469"/>
      <use xlink:href="#DejaVuSans-30" x="767.228516"/>
     </g>
    </g>
   </g>
   <g id="matplotlib.axis_2">
    <g id="ytick_1">
     <g id="line2d_6">
      <defs>
       <path id="mef1d9138ff" d="M 0 0 
L -3.5 0 
" style="stroke: #000000; stroke-width: 0.8"/>
      </defs>
      <g>
       <use xlink:href="#mef1d9138ff" x="57.6" y="285.136767" style="stroke: #000000; stroke-width: 0.8"/>
      </g>
     </g>
     <g id="text_7">
      <!-- 0.00002 -->
      <g transform="translate(9.246875 288.935986) scale(0.1 -0.1)">
       <defs>
        <path id="DejaVuSans-2e" d="M 684 794 
L 1344 794 
L 1344 0 
L 684 0 
L 684 794 
z
" transform="scale(0.015625)"/>
       </defs>
       <use xlink:href="#DejaVuSans-30"/>
       <use xlink:href="#DejaVuSans-2e" x="63.623047"/>
       <use xlink:href="#DejaVuSans-30" x="95.410156"/>
       <use xlink:href="#DejaVuSans-30" x="159.033203"/>
       <use xlink:href="#DejaVuSans-30" x="222.65625"/>
       <use xlink:href="#DejaVuSans-30" x="286.279297"/>
       <use xlink:href="#DejaVuSans-32" x="349.902344"/>
      </g>
     </g>
    </g>
    <g id="ytick_2">
     <g id="line2d_7">
      <g>
       <use xlink:href="#mef1d9138ff" x="57.6" y="251.21806" style="stroke: #000000; stroke-width: 0.8"/>
      </g>
     </g>
     <g id="text_8">
      <!-- 0.00004 -->
      <g transform="translate(9.246875 255.017279) scale(0.1 -0.1)">
       <use xlink:href="#DejaVuSans-30"/>
       <use xlink:href="#DejaVuSans-2e" x="63.623047"/>
       <use xlink:href="#DejaVuSans-30" x="95.410156"/>
       <use xlink:href="#DejaVuSans-30" x="159.033203"/>
       <use xlink:href="#DejaVuSans-30" x="222.65625"/>
       <use xlink:href="#DejaVuSans-30" x="286.279297"/>
       <use xlink:href="#DejaVuSans-34" x="349.902344"/>
      </g>
     </g>
    </g>
    <g id="ytick_3">
     <g id="line2d_8">
      <g>
       <use xlink:href="#mef1d9138ff" x="57.6" y="217.299353" style="stroke: #000000; stroke-width: 0.8"/>
      </g>
     </g>
     <g id="text_9">
      <!-- 0.00006 -->
      <g transform="translate(9.246875 221.098571) scale(0.1 -0.1)">
       <defs>
        <path id="DejaVuSans-36" d="M 2113 2584 
Q 1688 2584 1439 2293 
Q 1191 2003 1191 1497 
Q 1191 994 1439 701 
Q 1688 409 2113 409 
Q 2538 409 2786 701 
Q 3034 994 3034 1497 
Q 3034 2003 2786 2293 
Q 2538 2584 2113 2584 
z
M 3366 4563 
L 3366 3988 
Q 3128 4100 2886 4159 
Q 2644 4219 2406 4219 
Q 1781 4219 1451 3797 
Q 1122 3375 1075 2522 
Q 1259 2794 1537 2939 
Q 1816 3084 2150 3084 
Q 2853 3084 3261 2657 
Q 3669 2231 3669 1497 
Q 3669 778 3244 343 
Q 2819 -91 2113 -91 
Q 1303 -91 875 529 
Q 447 1150 447 2328 
Q 447 3434 972 4092 
Q 1497 4750 2381 4750 
Q 2619 4750 2861 4703 
Q 3103 4656 3366 4563 
z
" transform="scale(0.015625)"/>
       </defs>
       <use xlink:href="#DejaVuSans-30"/>
       <use xlink:href="#DejaVuSans-2e" x="63.623047"/>
       <use xlink:href="#DejaVuSans-30" x="95.410156"/>
       <use xlink:href="#DejaVuSans-30" x="159.033203"/>
       <use xlink:href="#DejaVuSans-30" x="222.65625"/>
       <use xlink:href="#DejaVuSans-30" x="286.279297"/>
       <use xlink:href="#DejaVuSans-36" x="349.902344"/>
      </g>
     </g>
    </g>
    <g id="ytick_4">
     <g id="line2d_9">
      <g>
       <use xlink:href="#mef1d9138ff" x="57.6" y="183.380645" style="stroke: #000000; stroke-width: 0.8"/>
      </g>
     </g>
     <g id="text_10">
      <!-- 0.00008 -->
      <g transform="translate(9.246875 187.179864) scale(0.1 -0.1)">
       <defs>
        <path id="DejaVuSans-38" d="M 2034 2216 
Q 1584 2216 1326 1975 
Q 1069 1734 1069 1313 
Q 1069 891 1326 650 
Q 1584 409 2034 409 
Q 2484 409 2743 651 
Q 3003 894 3003 1313 
Q 3003 1734 2745 1975 
Q 2488 2216 2034 2216 
z
M 1403 2484 
Q 997 2584 770 2862 
Q 544 3141 544 3541 
Q 544 4100 942 4425 
Q 1341 4750 2034 4750 
Q 2731 4750 3128 4425 
Q 3525 4100 3525 3541 
Q 3525 3141 3298 2862 
Q 3072 2584 2669 2484 
Q 3125 2378 3379 2068 
Q 3634 1759 3634 1313 
Q 3634 634 3220 271 
Q 2806 -91 2034 -91 
Q 1263 -91 848 271 
Q 434 634 434 1313 
Q 434 1759 690 2068 
Q 947 2378 1403 2484 
z
M 1172 3481 
Q 1172 3119 1398 2916 
Q 1625 2713 2034 2713 
Q 2441 2713 2670 2916 
Q 2900 3119 2900 3481 
Q 2900 3844 2670 4047 
Q 2441 4250 2034 4250 
Q 1625 4250 1398 4047 
Q 1172 3844 1172 3481 
z
" transform="scale(0.015625)"/>
       </defs>
       <use xlink:href="#DejaVuSans-30"/>
       <use xlink:href="#DejaVuSans-2e" x="63.623047"/>
       <use xlink:href="#DejaVuSans-30" x="95.410156"/>
       <use xlink:href="#DejaVuSans-30" x="159.033203"/>
       <use xlink:href="#DejaVuSans-30" x="222.65625"/>
       <use xlink:href="#DejaVuSans-30" x="286.279297"/>
       <use xlink:href="#DejaVuSans-38" x="349.902344"/>
      </g>
     </g>
    </g>
    <g id="ytick_5">
     <g id="line2d_10">
      <g>
       <use xlink:href="#mef1d9138ff" x="57.6" y="149.461938" style="stroke: #000000; stroke-width: 0.8"/>
      </g>
     </g>
     <g id="text_11">
      <!-- 0.00010 -->
      <g transform="translate(9.246875 153.261157) scale(0.1 -0.1)">
       <use xlink:href="#DejaVuSans-30"/>
       <use xlink:href="#DejaVuSans-2e" x="63.623047"/>
       <use xlink:href="#DejaVuSans-30" x="95.410156"/>
       <use xlink:href="#DejaVuSans-30" x="159.033203"/>
       <use xlink:href="#DejaVuSans-30" x="222.65625"/>
       <use xlink:href="#DejaVuSans-31" x="286.279297"/>
       <use xlink:href="#DejaVuSans-30" x="349.902344"/>
      </g>
     </g>
    </g>
    <g id="ytick_6">
     <g id="line2d_11">
      <g>
       <use xlink:href="#mef1d9138ff" x="57.6" y="115.543231" style="stroke: #000000; stroke-width: 0.8"/>
      </g>
     </g>
     <g id="text_12">
      <!-- 0.00012 -->
      <g transform="translate(9.246875 119.34245) scale(0.1 -0.1)">
       <use xlink:href="#DejaVuSans-30"/>
       <use xlink:href="#DejaVuSans-2e" x="63.623047"/>
       <use xlink:href="#DejaVuSans-30" x="95.410156"/>
       <use xlink:href="#DejaVuSans-30" x="159.033203"/>
       <use xlink:href="#DejaVuSans-30" x="222.65625"/>
       <use xlink:href="#DejaVuSans-31" x="286.279297"/>
       <use xlink:href="#DejaVuSans-32" x="349.902344"/>
      </g>
     </g>
    </g>
    <g id="ytick_7">
     <g id="line2d_12">
      <g>
       <use xlink:href="#mef1d9138ff" x="57.6" y="81.624524" style="stroke: #000000; stroke-width: 0.8"/>
      </g>
     </g>
     <g id="text_13">
      <!-- 0.00014 -->
      <g transform="translate(9.246875 85.423743) scale(0.1 -0.1)">
       <use xlink:href="#DejaVuSans-30"/>
       <use xlink:href="#DejaVuSans-2e" x="63.623047"/>
       <use xlink:href="#DejaVuSans-30" x="95.410156"/>
       <use xlink:href="#DejaVuSans-30" x="159.033203"/>
       <use xlink:href="#DejaVuSans-30" x="222.65625"/>
       <use xlink:href="#DejaVuSans-31" x="286.279297"/>
       <use xlink:href="#DejaVuSans-34" x="349.902344"/>
      </g>
     </g>
    </g>
    <g id="ytick_8">
     <g id="line2d_13">
      <g>
       <use xlink:href="#mef1d9138ff" x="57.6" y="47.705817" style="stroke: #000000; stroke-width: 0.8"/>
      </g>
     </g>
     <g id="text_14">
      <!-- 0.00016 -->
      <g transform="translate(9.246875 51.505035) scale(0.1 -0.1)">
       <use xlink:href="#DejaVuSans-30"/>
       <use xlink:href="#DejaVuSans-2e" x="63.623047"/>
       <use xlink:href="#DejaVuSans-30" x="95.410156"/>
       <use xlink:href="#DejaVuSans-30" x="159.033203"/>
       <use xlink:href="#DejaVuSans-30" x="222.65625"/>
       <use xlink:href="#DejaVuSans-31" x="286.279297"/>
       <use xlink:href="#DejaVuSans-36" x="349.902344"/>
      </g>
     </g>
    </g>
    <g id="text_15">
     <!-- Loss -->
     <g transform="translate(3.167187 185.495187) rotate(-90) scale(0.1 -0.1)">
      <defs>
       <path id="DejaVuSans-4c" d="M 628 4666 
L 1259 4666 
L 1259 531 
L 3531 531 
L 3531 0 
L 628 0 
L 628 4666 
z
" transform="scale(0.015625)"/>
       <path id="DejaVuSans-6f" d="M 1959 3097 
Q 1497 3097 1228 2736 
Q 959 2375 959 1747 
Q 959 1119 1226 758 
Q 1494 397 1959 397 
Q 2419 397 2687 759 
Q 2956 1122 2956 1747 
Q 2956 2369 2687 2733 
Q 2419 3097 1959 3097 
z
M 1959 3584 
Q 2709 3584 3137 3096 
Q 3566 2609 3566 1747 
Q 3566 888 3137 398 
Q 2709 -91 1959 -91 
Q 1206 -91 779 398 
Q 353 888 353 1747 
Q 353 2609 779 3096 
Q 1206 3584 1959 3584 
z
" transform="scale(0.015625)"/>
       <path id="DejaVuSans-73" d="M 2834 3397 
L 2834 2853 
Q 2591 2978 2328 3040 
Q 2066 3103 1784 3103 
Q 1356 3103 1142 2972 
Q 928 2841 928 2578 
Q 928 2378 1081 2264 
Q 1234 2150 1697 2047 
L 1894 2003 
Q 2506 1872 2764 1633 
Q 3022 1394 3022 966 
Q 3022 478 2636 193 
Q 2250 -91 1575 -91 
Q 1294 -91 989 -36 
Q 684 19 347 128 
L 347 722 
Q 666 556 975 473 
Q 1284 391 1588 391 
Q 1994 391 2212 530 
Q 2431 669 2431 922 
Q 2431 1156 2273 1281 
Q 2116 1406 1581 1522 
L 1381 1569 
Q 847 1681 609 1914 
Q 372 2147 372 2553 
Q 372 3047 722 3315 
Q 1072 3584 1716 3584 
Q 2034 3584 2315 3537 
Q 2597 3491 2834 3397 
z
" transform="scale(0.015625)"/>
      </defs>
      <use xlink:href="#DejaVuSans-4c"/>
      <use xlink:href="#DejaVuSans-6f" x="53.962891"/>
      <use xlink:href="#DejaVuSans-73" x="115.144531"/>
      <use xlink:href="#DejaVuSans-73" x="167.244141"/>
     </g>
    </g>
   </g>
   <g id="line2d_14">
    <path d="M 73.832727 206.842287 
L 74.555789 259.224772 
L 75.27885 259.363987 
L 76.001911 295.488 
L 76.724973 259.395163 
L 77.448034 295.341565 
L 78.171095 138.231579 
L 78.894157 259.383175 
L 79.617218 259.215166 
L 80.340279 259.205553 
L 81.063341 206.79953 
L 81.786402 295.344588 
L 82.509463 259.231972 
L 83.232525 295.323418 
L 83.955586 259.224772 
L 84.678647 295.341565 
L 85.401709 259.219966 
L 86.12477 259.227172 
L 86.847832 206.819261 
L 87.570893 295.346101 
L 88.293954 295.327954 
L 89.017016 53.583178 
L 89.740077 206.802812 
L 90.463138 259.200753 
L 91.1862 295.32493 
L 91.909261 295.33854 
L 92.632322 259.215166 
L 93.355384 295.33854 
L 94.801506 295.326443 
L 95.524568 138.219054 
L 96.247629 295.33854 
L 96.97069 295.330979 
L 97.693752 295.447286 
L 98.416813 295.435214 
L 99.139874 259.21276 
L 99.862936 295.329468 
L 101.309059 295.423896 
L 102.03212 295.445777 
L 102.755181 259.224772 
L 103.478243 295.332492 
L 104.201304 259.229572 
L 104.924365 206.79953 
L 105.647427 259.419145 
L 106.370488 259.242782 
L 107.816611 259.195947 
L 108.539672 295.435214 
L 109.262733 138.269153 
L 109.985795 138.519547 
L 110.708856 295.352903 
L 111.431917 138.281677 
L 112.154979 259.231972 
L 112.87804 206.842287 
L 113.601101 259.222366 
L 114.324163 259.229572 
L 115.047224 295.344588 
L 115.770285 259.229572 
L 116.493347 259.245182 
L 117.216408 206.829133 
L 117.93947 259.247582 
L 118.662531 259.229572 
L 119.385592 206.83571 
L 120.108654 259.231972 
L 120.831715 138.269153 
L 121.554776 295.346101 
L 122.277838 295.343077 
L 123.000899 259.227172 
L 123.72396 259.234379 
L 124.447022 295.344588 
L 125.170083 259.236779 
L 125.893144 295.340053 
L 126.616206 259.224772 
L 127.339267 295.341565 
L 128.062328 295.344588 
L 128.78539 206.832427 
L 129.508451 259.222366 
L 130.231512 259.231972 
L 130.954574 138.269153 
L 131.677635 259.215166 
L 133.123758 259.20796 
L 133.846819 206.842287 
L 134.569881 259.239179 
L 135.292942 138.256628 
L 136.016003 259.229572 
L 136.739065 259.231972 
L 137.462126 206.832427 
L 138.185187 259.236779 
L 138.908249 295.311316 
L 139.63131 259.203153 
L 140.354371 206.829133 
L 141.077433 295.344588 
L 141.800494 295.340053 
L 142.523555 206.848864 
L 143.246617 259.231972 
L 144.692739 259.224772 
L 145.415801 53.568 
L 146.138862 206.832427 
L 146.861923 259.224772 
L 147.584985 259.229572 
L 148.308046 206.829133 
L 149.031108 259.21276 
L 149.754169 295.349124 
L 150.47723 138.252457 
L 151.200292 206.83571 
L 151.923353 259.227172 
L 152.646414 259.21036 
L 153.369476 206.848864 
L 154.092537 295.343077 
L 154.815598 295.341565 
L 155.53866 206.832427 
L 156.261721 138.256628 
L 156.984782 259.224772 
L 157.707844 295.343077 
L 158.430905 295.330979 
L 159.153966 259.215166 
L 159.877028 138.252457 
L 160.600089 206.839004 
L 161.32315 259.239179 
L 162.046212 206.839004 
L 162.769273 259.236779 
L 163.492334 259.236779 
L 164.215396 138.264982 
L 164.938457 206.83571 
L 165.661519 295.329468 
L 166.38458 206.829133 
L 167.107641 259.203153 
L 167.830703 295.341565 
L 168.553764 295.332492 
L 169.276825 259.236779 
L 169.999887 206.832427 
L 170.722948 295.350636 
L 171.446009 206.832427 
L 172.169071 295.330979 
L 172.892132 259.231972 
L 173.615193 259.231972 
L 174.338255 295.349124 
L 175.061316 295.349124 
L 175.784377 138.223225 
L 176.507439 259.239179 
L 177.2305 295.329468 
L 177.953561 259.239179 
L 178.676623 138.273324 
L 179.399684 259.231972 
L 180.845807 259.231972 
L 181.568868 206.839004 
L 183.014991 206.829133 
L 183.738052 295.344588 
L 185.184175 295.349124 
L 185.907236 206.83571 
L 186.630298 259.234379 
L 187.353359 295.347613 
L 188.07642 295.349124 
L 188.799482 259.234379 
L 189.522543 295.346101 
L 190.245604 295.344588 
L 190.968666 206.82585 
L 191.691727 259.20796 
L 193.13785 259.219966 
L 193.860911 295.329468 
L 194.583972 295.330979 
L 195.307034 259.21036 
L 196.030095 206.796235 
L 196.753157 259.21036 
L 197.476218 259.21036 
L 198.199279 295.332492 
L 198.922341 259.205553 
L 199.645402 53.573059 
L 200.368463 259.21276 
L 202.537647 259.215166 
L 203.260709 295.327954 
L 203.98377 259.215166 
L 204.706831 295.329468 
L 205.429893 259.20796 
L 206.152954 295.326443 
L 208.322138 295.330979 
L 209.045199 259.234379 
L 209.768261 295.332492 
L 210.491322 259.205553 
L 211.214383 295.329468 
L 211.937445 206.79953 
L 212.660506 295.341565 
L 214.106629 295.327954 
L 214.82969 259.234379 
L 215.552752 295.32493 
L 216.275813 295.327954 
L 216.998874 259.205553 
L 217.721936 295.327954 
L 218.444997 206.829133 
L 219.168058 295.329468 
L 219.89112 259.205553 
L 220.614181 295.329468 
L 223.506426 295.32493 
L 224.229488 295.433706 
L 224.952549 259.205553 
L 225.67561 259.21036 
L 226.398672 207.029688 
L 227.121733 295.334004 
L 227.844794 259.375975 
L 228.567856 259.236779 
L 229.290917 295.341565 
L 230.013979 295.444269 
L 230.73704 295.332492 
L 231.460101 259.21036 
L 232.183163 295.334004 
L 234.352347 295.335517 
L 235.075408 259.366381 
L 235.798469 259.205553 
L 236.521531 259.215166 
L 237.244592 206.806107 
L 237.967653 295.326443 
L 239.413776 295.432197 
L 240.136837 259.227172 
L 240.859899 259.222366 
L 241.58296 295.427669 
L 242.306021 259.21276 
L 243.029083 295.330979 
L 243.752144 138.231579 
L 244.475206 295.332492 
L 245.198267 259.227172 
L 245.921328 295.444269 
L 246.64439 259.361587 
L 247.367451 295.450303 
L 248.090512 206.83571 
L 248.813574 295.305264 
L 249.536635 259.215166 
L 250.259696 295.327954 
L 250.982758 295.33854 
L 251.705819 259.399963 
L 253.151942 259.241579 
L 253.875003 206.806107 
L 254.598064 295.432197 
L 255.321126 259.392769 
L 256.044187 295.351392 
L 256.767248 259.321996 
L 257.49031 295.436725 
L 258.213371 207.055971 
L 258.936432 295.335517 
L 259.659494 295.444269 
L 260.382555 259.231972 
L 261.105617 206.845581 
L 261.828678 138.532059 
L 262.551739 138.23575 
L 263.274801 258.680771 
L 263.997862 259.402357 
L 264.720923 259.234379 
L 265.443985 295.334004 
L 266.167046 295.429179 
L 266.890107 138.277507 
L 267.613169 206.83571 
L 268.33623 295.351392 
L 269.059291 295.436725 
L 269.782353 295.335517 
L 270.505414 295.436725 
L 271.228475 206.845581 
L 271.951537 295.429179 
L 272.674598 259.21276 
L 273.397659 206.815979 
L 274.120721 259.375975 
L 274.843782 295.438233 
L 275.566843 295.427669 
L 276.289905 259.392769 
L 277.012966 295.445777 
L 278.459089 295.42616 
L 279.18215 206.8538 
L 279.905212 295.321905 
L 280.628273 259.397563 
L 281.351334 206.822556 
L 282.074396 206.829133 
L 282.797457 259.21036 
L 284.24358 259.205553 
L 284.966641 295.349124 
L 285.689702 295.349124 
L 286.412764 259.241579 
L 287.135825 259.241579 
L 287.858886 295.350636 
L 288.581948 295.429179 
L 289.305009 259.234379 
L 290.751132 259.224772 
L 291.474193 206.792953 
L 292.197255 259.366381 
L 292.920316 259.219966 
L 293.643377 295.427669 
L 294.366439 295.332492 
L 295.0895 259.239179 
L 295.812561 295.344588 
L 296.535623 295.349124 
L 297.258684 259.366381 
L 297.981745 206.845581 
L 298.704807 295.330979 
L 299.427868 295.334004 
L 300.150929 259.371181 
L 300.873991 259.371181 
L 301.597052 138.515376 
L 302.320113 259.375975 
L 303.043175 295.349124 
L 303.766236 206.819261 
L 304.489297 206.839004 
L 305.212359 295.343077 
L 305.93542 295.343077 
L 306.658481 259.229572 
L 307.381543 138.450705 
L 308.104604 259.383175 
L 308.827666 295.444269 
L 309.550727 295.430687 
L 310.273788 207.046111 
L 310.99685 259.295595 
L 311.719911 53.937175 
L 312.442972 295.432197 
L 314.612156 295.462369 
L 315.335218 259.368781 
L 316.058279 295.432197 
L 318.950524 295.429179 
L 319.673586 259.368781 
L 320.396647 295.433706 
L 321.84277 295.44276 
L 322.565831 259.373581 
L 323.288892 207.029688 
L 324.011954 259.373581 
L 324.735015 295.433706 
L 325.458077 207.029688 
L 326.181138 259.390369 
L 327.627261 259.373581 
L 328.350322 138.511206 
L 329.073383 295.429179 
L 329.796445 207.019828 
L 331.242567 207.026405 
L 331.965629 295.433706 
L 332.68869 207.026405 
L 333.411751 259.21276 
L 334.134813 295.329468 
L 334.857874 259.217566 
L 335.580935 259.215166 
L 336.303997 138.23575 
L 337.027058 259.217566 
L 337.750119 259.34839 
L 339.196242 259.21276 
L 339.919304 259.215166 
L 340.642365 295.42465 
L 341.365426 259.215166 
L 342.088488 295.44276 
L 342.811549 138.231579 
L 343.53461 138.544584 
L 344.257672 259.215166 
L 344.980733 207.026405 
L 345.703794 259.371181 
L 346.426856 207.026405 
L 347.149917 259.219966 
L 347.872978 295.42616 
L 348.59604 207.03297 
L 349.319101 259.371181 
L 350.042162 206.812684 
L 350.765224 259.21036 
L 352.211346 259.234379 
L 352.934408 206.812684 
L 353.657469 295.332492 
L 355.826653 295.341565 
L 356.549715 259.21276 
L 357.272776 206.806107 
L 357.995837 259.20796 
L 358.718899 295.343077 
L 359.44196 295.334004 
L 360.165021 206.806107 
L 360.888083 259.215166 
L 361.611144 259.217566 
L 362.334205 295.334004 
L 363.780328 295.335517 
L 364.503389 206.812684 
L 365.226451 295.332492 
L 368.118696 295.332492 
L 368.841757 206.809402 
L 369.564819 295.334004 
L 371.734003 295.334004 
L 372.457064 259.402357 
L 373.180126 259.371181 
L 373.903187 295.430687 
L 374.626248 207.062548 
L 375.34931 295.33854 
L 377.518494 295.430687 
L 378.241555 206.79953 
L 378.964616 259.399963 
L 379.687678 259.385569 
L 380.410739 206.812684 
L 381.1338 295.329468 
L 381.856862 295.429179 
L 382.579923 295.335517 
L 383.302984 295.44125 
L 384.026046 295.42616 
L 384.749107 259.363987 
L 385.472168 207.06583 
L 386.19523 259.215166 
L 386.918291 206.812684 
L 387.641353 295.42616 
L 388.364414 207.023111 
L 389.087475 259.229572 
L 389.810537 295.445777 
L 390.533598 138.502864 
L 391.256659 259.219966 
L 391.979721 259.371181 
L 392.702782 259.217566 
L 393.425843 259.368781 
L 394.148905 207.062548 
L 394.871966 295.447286 
L 395.595027 295.427669 
L 396.318089 138.548755 
L 397.04115 259.234379 
L 397.764211 259.361587 
L 398.487273 295.432197 
L 398.487273 295.432197 
" clip-path="url(#p45d9bcb180)" style="fill: none; stroke: #1f77b4; stroke-width: 1.5; stroke-linecap: square"/>
   </g>
   <g id="patch_3">
    <path d="M 57.6 307.584 
L 57.6 41.472 
" style="fill: none; stroke: #000000; stroke-width: 0.8; stroke-linejoin: miter; stroke-linecap: square"/>
   </g>
   <g id="patch_4">
    <path d="M 414.72 307.584 
L 414.72 41.472 
" style="fill: none; stroke: #000000; stroke-width: 0.8; stroke-linejoin: miter; stroke-linecap: square"/>
   </g>
   <g id="patch_5">
    <path d="M 57.6 307.584 
L 414.72 307.584 
" style="fill: none; stroke: #000000; stroke-width: 0.8; stroke-linejoin: miter; stroke-linecap: square"/>
   </g>
   <g id="patch_6">
    <path d="M 57.6 41.472 
L 414.72 41.472 
" style="fill: none; stroke: #000000; stroke-width: 0.8; stroke-linejoin: miter; stroke-linecap: square"/>
   </g>
   <g id="text_16">
    <!-- Similarity Loss_GP_449_n_450_d_2000_e_21_l_0.0001 -->
    <g transform="translate(74.683125 35.472) scale(0.12 -0.12)">
     <defs>
      <path id="DejaVuSans-53" d="M 3425 4513 
L 3425 3897 
Q 3066 4069 2747 4153 
Q 2428 4238 2131 4238 
Q 1616 4238 1336 4038 
Q 1056 3838 1056 3469 
Q 1056 3159 1242 3001 
Q 1428 2844 1947 2747 
L 2328 2669 
Q 3034 2534 3370 2195 
Q 3706 1856 3706 1288 
Q 3706 609 3251 259 
Q 2797 -91 1919 -91 
Q 1588 -91 1214 -16 
Q 841 59 441 206 
L 441 856 
Q 825 641 1194 531 
Q 1563 422 1919 422 
Q 2459 422 2753 634 
Q 3047 847 3047 1241 
Q 3047 1584 2836 1778 
Q 2625 1972 2144 2069 
L 1759 2144 
Q 1053 2284 737 2584 
Q 422 2884 422 3419 
Q 422 4038 858 4394 
Q 1294 4750 2059 4750 
Q 2388 4750 2728 4690 
Q 3069 4631 3425 4513 
z
" transform="scale(0.015625)"/>
      <path id="DejaVuSans-6d" d="M 3328 2828 
Q 3544 3216 3844 3400 
Q 4144 3584 4550 3584 
Q 5097 3584 5394 3201 
Q 5691 2819 5691 2113 
L 5691 0 
L 5113 0 
L 5113 2094 
Q 5113 2597 4934 2840 
Q 4756 3084 4391 3084 
Q 3944 3084 3684 2787 
Q 3425 2491 3425 1978 
L 3425 0 
L 2847 0 
L 2847 2094 
Q 2847 2600 2669 2842 
Q 2491 3084 2119 3084 
Q 1678 3084 1418 2786 
Q 1159 2488 1159 1978 
L 1159 0 
L 581 0 
L 581 3500 
L 1159 3500 
L 1159 2956 
Q 1356 3278 1631 3431 
Q 1906 3584 2284 3584 
Q 2666 3584 2933 3390 
Q 3200 3197 3328 2828 
z
" transform="scale(0.015625)"/>
      <path id="DejaVuSans-6c" d="M 603 4863 
L 1178 4863 
L 1178 0 
L 603 0 
L 603 4863 
z
" transform="scale(0.015625)"/>
      <path id="DejaVuSans-74" d="M 1172 4494 
L 1172 3500 
L 2356 3500 
L 2356 3053 
L 1172 3053 
L 1172 1153 
Q 1172 725 1289 603 
Q 1406 481 1766 481 
L 2356 481 
L 2356 0 
L 1766 0 
Q 1100 0 847 248 
Q 594 497 594 1153 
L 594 3053 
L 172 3053 
L 172 3500 
L 594 3500 
L 594 4494 
L 1172 4494 
z
" transform="scale(0.015625)"/>
      <path id="DejaVuSans-79" d="M 2059 -325 
Q 1816 -950 1584 -1140 
Q 1353 -1331 966 -1331 
L 506 -1331 
L 506 -850 
L 844 -850 
Q 1081 -850 1212 -737 
Q 1344 -625 1503 -206 
L 1606 56 
L 191 3500 
L 800 3500 
L 1894 763 
L 2988 3500 
L 3597 3500 
L 2059 -325 
z
" transform="scale(0.015625)"/>
      <path id="DejaVuSans-39" d="M 703 97 
L 703 672 
Q 941 559 1184 500 
Q 1428 441 1663 441 
Q 2288 441 2617 861 
Q 2947 1281 2994 2138 
Q 2813 1869 2534 1725 
Q 2256 1581 1919 1581 
Q 1219 1581 811 2004 
Q 403 2428 403 3163 
Q 403 3881 828 4315 
Q 1253 4750 1959 4750 
Q 2769 4750 3195 4129 
Q 3622 3509 3622 2328 
Q 3622 1225 3098 567 
Q 2575 -91 1691 -91 
Q 1453 -91 1209 -44 
Q 966 3 703 97 
z
M 1959 2075 
Q 2384 2075 2632 2365 
Q 2881 2656 2881 3163 
Q 2881 3666 2632 3958 
Q 2384 4250 1959 4250 
Q 1534 4250 1286 3958 
Q 1038 3666 1038 3163 
Q 1038 2656 1286 2365 
Q 1534 2075 1959 2075 
z
" transform="scale(0.015625)"/>
      <path id="DejaVuSans-6e" d="M 3513 2113 
L 3513 0 
L 2938 0 
L 2938 2094 
Q 2938 2591 2744 2837 
Q 2550 3084 2163 3084 
Q 1697 3084 1428 2787 
Q 1159 2491 1159 1978 
L 1159 0 
L 581 0 
L 581 3500 
L 1159 3500 
L 1159 2956 
Q 1366 3272 1645 3428 
Q 1925 3584 2291 3584 
Q 2894 3584 3203 3211 
Q 3513 2838 3513 2113 
z
" transform="scale(0.015625)"/>
      <path id="DejaVuSans-64" d="M 2906 2969 
L 2906 4863 
L 3481 4863 
L 3481 0 
L 2906 0 
L 2906 525 
Q 2725 213 2448 61 
Q 2172 -91 1784 -91 
Q 1150 -91 751 415 
Q 353 922 353 1747 
Q 353 2572 751 3078 
Q 1150 3584 1784 3584 
Q 2172 3584 2448 3432 
Q 2725 3281 2906 2969 
z
M 947 1747 
Q 947 1113 1208 752 
Q 1469 391 1925 391 
Q 2381 391 2643 752 
Q 2906 1113 2906 1747 
Q 2906 2381 2643 2742 
Q 2381 3103 1925 3103 
Q 1469 3103 1208 2742 
Q 947 2381 947 1747 
z
" transform="scale(0.015625)"/>
      <path id="DejaVuSans-65" d="M 3597 1894 
L 3597 1613 
L 953 1613 
Q 991 1019 1311 708 
Q 1631 397 2203 397 
Q 2534 397 2845 478 
Q 3156 559 3463 722 
L 3463 178 
Q 3153 47 2828 -22 
Q 2503 -91 2169 -91 
Q 1331 -91 842 396 
Q 353 884 353 1716 
Q 353 2575 817 3079 
Q 1281 3584 2069 3584 
Q 2775 3584 3186 3129 
Q 3597 2675 3597 1894 
z
M 3022 2063 
Q 3016 2534 2758 2815 
Q 2500 3097 2075 3097 
Q 1594 3097 1305 2825 
Q 1016 2553 972 2059 
L 3022 2063 
z
" transform="scale(0.015625)"/>
     </defs>
     <use xlink:href="#DejaVuSans-53"/>
     <use xlink:href="#DejaVuSans-69" x="63.476562"/>
     <use xlink:href="#DejaVuSans-6d" x="91.259766"/>
     <use xlink:href="#DejaVuSans-69" x="188.671875"/>
     <use xlink:href="#DejaVuSans-6c" x="216.455078"/>
     <use xlink:href="#DejaVuSans-61" x="244.238281"/>
     <use xlink:href="#DejaVuSans-72" x="305.517578"/>
     <use xlink:href="#DejaVuSans-69" x="346.630859"/>
     <use xlink:href="#DejaVuSans-74" x="374.414062"/>
     <use xlink:href="#DejaVuSans-79" x="413.623047"/>
     <use xlink:href="#DejaVuSans-20" x="472.802734"/>
     <use xlink:href="#DejaVuSans-4c" x="504.589844"/>
     <use xlink:href="#DejaVuSans-6f" x="558.552734"/>
     <use xlink:href="#DejaVuSans-73" x="619.734375"/>
     <use xlink:href="#DejaVuSans-73" x="671.833984"/>
     <use xlink:href="#DejaVuSans-5f" x="723.933594"/>
     <use xlink:href="#DejaVuSans-47" x="773.933594"/>
     <use xlink:href="#DejaVuSans-50" x="851.423828"/>
     <use xlink:href="#DejaVuSans-5f" x="911.726562"/>
     <use xlink:href="#DejaVuSans-34" x="961.726562"/>
     <use xlink:href="#DejaVuSans-34" x="1025.349609"/>
     <use xlink:href="#DejaVuSans-39" x="1088.972656"/>
     <use xlink:href="#DejaVuSans-5f" x="1152.595703"/>
     <use xlink:href="#DejaVuSans-6e" x="1202.595703"/>
     <use xlink:href="#DejaVuSans-5f" x="1265.974609"/>
     <use xlink:href="#DejaVuSans-34" x="1315.974609"/>
     <use xlink:href="#DejaVuSans-35" x="1379.597656"/>
     <use xlink:href="#DejaVuSans-30" x="1443.220703"/>
     <use xlink:href="#DejaVuSans-5f" x="1506.84375"/>
     <use xlink:href="#DejaVuSans-64" x="1556.84375"/>
     <use xlink:href="#DejaVuSans-5f" x="1620.320312"/>
     <use xlink:href="#DejaVuSans-32" x="1670.320312"/>
     <use xlink:href="#DejaVuSans-30" x="1733.943359"/>
     <use xlink:href="#DejaVuSans-30" x="1797.566406"/>
     <use xlink:href="#DejaVuSans-30" x="1861.189453"/>
     <use xlink:href="#DejaVuSans-5f" x="1924.8125"/>
     <use xlink:href="#DejaVuSans-65" x="1974.8125"/>
     <use xlink:href="#DejaVuSans-5f" x="2036.335938"/>
     <use xlink:href="#DejaVuSans-32" x="2086.335938"/>
     <use xlink:href="#DejaVuSans-31" x="2149.958984"/>
     <use xlink:href="#DejaVuSans-5f" x="2213.582031"/>
     <use xlink:href="#DejaVuSans-6c" x="2263.582031"/>
     <use xlink:href="#DejaVuSans-5f" x="2291.365234"/>
     <use xlink:href="#DejaVuSans-30" x="2341.365234"/>
     <use xlink:href="#DejaVuSans-2e" x="2404.988281"/>
     <use xlink:href="#DejaVuSans-30" x="2436.775391"/>
     <use xlink:href="#DejaVuSans-30" x="2500.398438"/>
     <use xlink:href="#DejaVuSans-30" x="2564.021484"/>
     <use xlink:href="#DejaVuSans-31" x="2627.644531"/>
    </g>
   </g>
  </g>
 </g>
 <defs>
  <clipPath id="p45d9bcb180">
   <rect x="57.6" y="41.472" width="357.12" height="266.112"/>
  </clipPath>
 </defs>
</svg>
