<?xml version="1.0" encoding="utf-8" standalone="no"?>
<!DOCTYPE svg PUBLIC "-//W3C//DTD SVG 1.1//EN"
  "http://www.w3.org/Graphics/SVG/1.1/DTD/svg11.dtd">
<svg xmlns:xlink="http://www.w3.org/1999/xlink" width="576pt" height="288pt" viewBox="0 0 576 288" xmlns="http://www.w3.org/2000/svg" version="1.1">
 <metadata>
  <rdf:RDF xmlns:dc="http://purl.org/dc/elements/1.1/" xmlns:cc="http://creativecommons.org/ns#" xmlns:rdf="http://www.w3.org/1999/02/22-rdf-syntax-ns#">
   <cc:Work>
    <dc:type rdf:resource="http://purl.org/dc/dcmitype/StillImage"/>
    <dc:date>2024-11-12T21:38:11.904993</dc:date>
    <dc:format>image/svg+xml</dc:format>
    <dc:creator>
     <cc:Agent>
      <dc:title>Matplotlib v3.9.2, https://matplotlib.org/</dc:title>
     </cc:Agent>
    </dc:creator>
   </cc:Work>
  </rdf:RDF>
 </metadata>
 <defs>
  <style type="text/css">*{stroke-linejoin: round; stroke-linecap: butt}</style>
 </defs>
 <g id="figure_1">
  <g id="patch_1">
   <path d="M 0 288 
L 576 288 
L 576 0 
L 0 0 
z
" style="fill: #ffffff"/>
  </g>
  <g id="axes_1">
   <g id="patch_2">
    <path d="M 72 256.32 
L 518.4 256.32 
L 518.4 34.56 
L 72 34.56 
z
" style="fill: #ffffff"/>
   </g>
   <g id="matplotlib.axis_1">
    <g id="xtick_1">
     <g id="line2d_1">
      <defs>
       <path id="m2588b9d21d" d="M 0 0 
L 0 3.5 
" style="stroke: #000000; stroke-width: 0.8"/>
      </defs>
      <g>
       <use xlink:href="#m2588b9d21d" x="88.584807" y="256.32" style="stroke: #000000; stroke-width: 0.8"/>
      </g>
     </g>
     <g id="text_1">
      <!-- 0 -->
      <g transform="translate(85.959807 270.610937) scale(0.105 -0.105)">
       <defs>
        <path id="TimesNewRomanPSMT-30" d="M 231 2094 
Q 231 2819 450 3342 
Q 669 3866 1031 4122 
Q 1313 4325 1613 4325 
Q 2100 4325 2488 3828 
Q 2972 3213 2972 2159 
Q 2972 1422 2759 906 
Q 2547 391 2217 158 
Q 1888 -75 1581 -75 
Q 975 -75 572 641 
Q 231 1244 231 2094 
z
M 844 2016 
Q 844 1141 1059 588 
Q 1238 122 1591 122 
Q 1759 122 1940 273 
Q 2122 425 2216 781 
Q 2359 1319 2359 2297 
Q 2359 3022 2209 3506 
Q 2097 3866 1919 4016 
Q 1791 4119 1609 4119 
Q 1397 4119 1231 3928 
Q 1006 3669 925 3112 
Q 844 2556 844 2016 
z
" transform="scale(0.015625)"/>
       </defs>
       <use xlink:href="#TimesNewRomanPSMT-30"/>
      </g>
     </g>
    </g>
    <g id="xtick_2">
     <g id="line2d_2">
      <g>
       <use xlink:href="#m2588b9d21d" x="181.23736" y="256.32" style="stroke: #000000; stroke-width: 0.8"/>
      </g>
     </g>
     <g id="text_2">
      <!-- 100 -->
      <g transform="translate(173.36236 270.610937) scale(0.105 -0.105)">
       <defs>
        <path id="TimesNewRomanPSMT-31" d="M 750 3822 
L 1781 4325 
L 1884 4325 
L 1884 747 
Q 1884 391 1914 303 
Q 1944 216 2037 169 
Q 2131 122 2419 116 
L 2419 0 
L 825 0 
L 825 116 
Q 1125 122 1212 167 
Q 1300 213 1334 289 
Q 1369 366 1369 747 
L 1369 3034 
Q 1369 3497 1338 3628 
Q 1316 3728 1258 3775 
Q 1200 3822 1119 3822 
Q 1003 3822 797 3725 
L 750 3822 
z
" transform="scale(0.015625)"/>
       </defs>
       <use xlink:href="#TimesNewRomanPSMT-31"/>
       <use xlink:href="#TimesNewRomanPSMT-30" x="50"/>
       <use xlink:href="#TimesNewRomanPSMT-30" x="100"/>
      </g>
     </g>
    </g>
    <g id="xtick_3">
     <g id="line2d_3">
      <g>
       <use xlink:href="#m2588b9d21d" x="273.889913" y="256.32" style="stroke: #000000; stroke-width: 0.8"/>
      </g>
     </g>
     <g id="text_3">
      <!-- 200 -->
      <g transform="translate(266.014913 270.610937) scale(0.105 -0.105)">
       <defs>
        <path id="TimesNewRomanPSMT-32" d="M 2934 816 
L 2638 0 
L 138 0 
L 138 116 
Q 1241 1122 1691 1759 
Q 2141 2397 2141 2925 
Q 2141 3328 1894 3587 
Q 1647 3847 1303 3847 
Q 991 3847 742 3664 
Q 494 3481 375 3128 
L 259 3128 
Q 338 3706 661 4015 
Q 984 4325 1469 4325 
Q 1984 4325 2329 3994 
Q 2675 3663 2675 3213 
Q 2675 2891 2525 2569 
Q 2294 2063 1775 1497 
Q 997 647 803 472 
L 1909 472 
Q 2247 472 2383 497 
Q 2519 522 2628 598 
Q 2738 675 2819 816 
L 2934 816 
z
" transform="scale(0.015625)"/>
       </defs>
       <use xlink:href="#TimesNewRomanPSMT-32"/>
       <use xlink:href="#TimesNewRomanPSMT-30" x="50"/>
       <use xlink:href="#TimesNewRomanPSMT-30" x="100"/>
      </g>
     </g>
    </g>
    <g id="xtick_4">
     <g id="line2d_4">
      <g>
       <use xlink:href="#m2588b9d21d" x="366.542466" y="256.32" style="stroke: #000000; stroke-width: 0.8"/>
      </g>
     </g>
     <g id="text_4">
      <!-- 300 -->
      <g transform="translate(358.667466 270.610937) scale(0.105 -0.105)">
       <defs>
        <path id="TimesNewRomanPSMT-33" d="M 325 3431 
Q 506 3859 782 4092 
Q 1059 4325 1472 4325 
Q 1981 4325 2253 3994 
Q 2459 3747 2459 3466 
Q 2459 3003 1878 2509 
Q 2269 2356 2469 2072 
Q 2669 1788 2669 1403 
Q 2669 853 2319 450 
Q 1863 -75 997 -75 
Q 569 -75 414 31 
Q 259 138 259 259 
Q 259 350 332 419 
Q 406 488 509 488 
Q 588 488 669 463 
Q 722 447 909 348 
Q 1097 250 1169 231 
Q 1284 197 1416 197 
Q 1734 197 1970 444 
Q 2206 691 2206 1028 
Q 2206 1275 2097 1509 
Q 2016 1684 1919 1775 
Q 1784 1900 1550 2001 
Q 1316 2103 1072 2103 
L 972 2103 
L 972 2197 
Q 1219 2228 1467 2375 
Q 1716 2522 1828 2728 
Q 1941 2934 1941 3181 
Q 1941 3503 1739 3701 
Q 1538 3900 1238 3900 
Q 753 3900 428 3381 
L 325 3431 
z
" transform="scale(0.015625)"/>
       </defs>
       <use xlink:href="#TimesNewRomanPSMT-33"/>
       <use xlink:href="#TimesNewRomanPSMT-30" x="50"/>
       <use xlink:href="#TimesNewRomanPSMT-30" x="100"/>
      </g>
     </g>
    </g>
    <g id="xtick_5">
     <g id="line2d_5">
      <g>
       <use xlink:href="#m2588b9d21d" x="459.195019" y="256.32" style="stroke: #000000; stroke-width: 0.8"/>
      </g>
     </g>
     <g id="text_5">
      <!-- 400 -->
      <g transform="translate(451.320019 270.610937) scale(0.105 -0.105)">
       <defs>
        <path id="TimesNewRomanPSMT-34" d="M 2978 1563 
L 2978 1119 
L 2409 1119 
L 2409 0 
L 1894 0 
L 1894 1119 
L 100 1119 
L 100 1519 
L 2066 4325 
L 2409 4325 
L 2409 1563 
L 2978 1563 
z
M 1894 1563 
L 1894 3666 
L 406 1563 
L 1894 1563 
z
" transform="scale(0.015625)"/>
       </defs>
       <use xlink:href="#TimesNewRomanPSMT-34"/>
       <use xlink:href="#TimesNewRomanPSMT-30" x="50"/>
       <use xlink:href="#TimesNewRomanPSMT-30" x="100"/>
      </g>
     </g>
    </g>
    <g id="text_6">
     <!-- Number of nodes -->
     <g transform="translate(258.749414 284.147891) scale(0.105 -0.105)">
      <defs>
       <path id="TimesNewRomanPSMT-4e" d="M -84 4238 
L 1066 4238 
L 3656 1059 
L 3656 3503 
Q 3656 3894 3569 3991 
Q 3453 4122 3203 4122 
L 3056 4122 
L 3056 4238 
L 4531 4238 
L 4531 4122 
L 4381 4122 
Q 4113 4122 4000 3959 
Q 3931 3859 3931 3503 
L 3931 -69 
L 3819 -69 
L 1025 3344 
L 1025 734 
Q 1025 344 1109 247 
Q 1228 116 1475 116 
L 1625 116 
L 1625 0 
L 150 0 
L 150 116 
L 297 116 
Q 569 116 681 278 
Q 750 378 750 734 
L 750 3681 
Q 566 3897 470 3965 
Q 375 4034 191 4094 
Q 100 4122 -84 4122 
L -84 4238 
z
" transform="scale(0.015625)"/>
       <path id="TimesNewRomanPSMT-75" d="M 2709 2863 
L 2709 1128 
Q 2709 631 2732 520 
Q 2756 409 2807 365 
Q 2859 322 2928 322 
Q 3025 322 3147 375 
L 3191 266 
L 2334 -88 
L 2194 -88 
L 2194 519 
Q 1825 119 1631 15 
Q 1438 -88 1222 -88 
Q 981 -88 804 51 
Q 628 191 559 409 
Q 491 628 491 1028 
L 491 2306 
Q 491 2509 447 2587 
Q 403 2666 317 2708 
Q 231 2750 6 2747 
L 6 2863 
L 1009 2863 
L 1009 947 
Q 1009 547 1148 422 
Q 1288 297 1484 297 
Q 1619 297 1789 381 
Q 1959 466 2194 703 
L 2194 2325 
Q 2194 2569 2105 2655 
Q 2016 2741 1734 2747 
L 1734 2863 
L 2709 2863 
z
" transform="scale(0.015625)"/>
       <path id="TimesNewRomanPSMT-6d" d="M 1050 2338 
Q 1363 2650 1419 2697 
Q 1559 2816 1721 2881 
Q 1884 2947 2044 2947 
Q 2313 2947 2506 2790 
Q 2700 2634 2766 2338 
Q 3088 2713 3309 2830 
Q 3531 2947 3766 2947 
Q 3994 2947 4170 2830 
Q 4347 2713 4450 2447 
Q 4519 2266 4519 1878 
L 4519 647 
Q 4519 378 4559 278 
Q 4591 209 4675 161 
Q 4759 113 4950 113 
L 4950 0 
L 3538 0 
L 3538 113 
L 3597 113 
Q 3781 113 3884 184 
Q 3956 234 3988 344 
Q 4000 397 4000 647 
L 4000 1878 
Q 4000 2228 3916 2372 
Q 3794 2572 3525 2572 
Q 3359 2572 3192 2489 
Q 3025 2406 2788 2181 
L 2781 2147 
L 2788 2013 
L 2788 647 
Q 2788 353 2820 281 
Q 2853 209 2943 161 
Q 3034 113 3253 113 
L 3253 0 
L 1806 0 
L 1806 113 
Q 2044 113 2133 169 
Q 2222 225 2256 338 
Q 2272 391 2272 647 
L 2272 1878 
Q 2272 2228 2169 2381 
Q 2031 2581 1784 2581 
Q 1616 2581 1450 2491 
Q 1191 2353 1050 2181 
L 1050 647 
Q 1050 366 1089 281 
Q 1128 197 1204 155 
Q 1281 113 1516 113 
L 1516 0 
L 100 0 
L 100 113 
Q 297 113 375 155 
Q 453 197 493 289 
Q 534 381 534 647 
L 534 1741 
Q 534 2213 506 2350 
Q 484 2453 437 2492 
Q 391 2531 309 2531 
Q 222 2531 100 2484 
L 53 2597 
L 916 2947 
L 1050 2947 
L 1050 2338 
z
" transform="scale(0.015625)"/>
       <path id="TimesNewRomanPSMT-62" d="M 984 2369 
Q 1400 2947 1881 2947 
Q 2322 2947 2650 2570 
Q 2978 2194 2978 1541 
Q 2978 778 2472 313 
Q 2038 -88 1503 -88 
Q 1253 -88 995 3 
Q 738 94 469 275 
L 469 3241 
Q 469 3728 445 3840 
Q 422 3953 372 3993 
Q 322 4034 247 4034 
Q 159 4034 28 3984 
L -16 4094 
L 844 4444 
L 984 4444 
L 984 2369 
z
M 984 2169 
L 984 456 
Q 1144 300 1314 220 
Q 1484 141 1663 141 
Q 1947 141 2192 453 
Q 2438 766 2438 1363 
Q 2438 1913 2192 2208 
Q 1947 2503 1634 2503 
Q 1469 2503 1303 2419 
Q 1178 2356 984 2169 
z
" transform="scale(0.015625)"/>
       <path id="TimesNewRomanPSMT-65" d="M 681 1784 
Q 678 1147 991 784 
Q 1303 422 1725 422 
Q 2006 422 2214 576 
Q 2422 731 2563 1106 
L 2659 1044 
Q 2594 616 2278 264 
Q 1963 -88 1488 -88 
Q 972 -88 605 314 
Q 238 716 238 1394 
Q 238 2128 614 2539 
Q 991 2950 1559 2950 
Q 2041 2950 2350 2633 
Q 2659 2316 2659 1784 
L 681 1784 
z
M 681 1966 
L 2006 1966 
Q 1991 2241 1941 2353 
Q 1863 2528 1708 2628 
Q 1553 2728 1384 2728 
Q 1125 2728 920 2526 
Q 716 2325 681 1966 
z
" transform="scale(0.015625)"/>
       <path id="TimesNewRomanPSMT-72" d="M 1038 2947 
L 1038 2303 
Q 1397 2947 1775 2947 
Q 1947 2947 2059 2842 
Q 2172 2738 2172 2600 
Q 2172 2478 2090 2393 
Q 2009 2309 1897 2309 
Q 1788 2309 1652 2417 
Q 1516 2525 1450 2525 
Q 1394 2525 1328 2463 
Q 1188 2334 1038 2041 
L 1038 669 
Q 1038 431 1097 309 
Q 1138 225 1241 169 
Q 1344 113 1538 113 
L 1538 0 
L 72 0 
L 72 113 
Q 291 113 397 181 
Q 475 231 506 341 
Q 522 394 522 644 
L 522 1753 
Q 522 2253 501 2348 
Q 481 2444 426 2487 
Q 372 2531 291 2531 
Q 194 2531 72 2484 
L 41 2597 
L 906 2947 
L 1038 2947 
z
" transform="scale(0.015625)"/>
       <path id="TimesNewRomanPSMT-20" transform="scale(0.015625)"/>
       <path id="TimesNewRomanPSMT-6f" d="M 1600 2947 
Q 2250 2947 2644 2453 
Q 2978 2031 2978 1484 
Q 2978 1100 2793 706 
Q 2609 313 2286 112 
Q 1963 -88 1566 -88 
Q 919 -88 538 428 
Q 216 863 216 1403 
Q 216 1797 411 2186 
Q 606 2575 925 2761 
Q 1244 2947 1600 2947 
z
M 1503 2744 
Q 1338 2744 1170 2645 
Q 1003 2547 900 2300 
Q 797 2053 797 1666 
Q 797 1041 1045 587 
Q 1294 134 1700 134 
Q 2003 134 2200 384 
Q 2397 634 2397 1244 
Q 2397 2006 2069 2444 
Q 1847 2744 1503 2744 
z
" transform="scale(0.015625)"/>
       <path id="TimesNewRomanPSMT-66" d="M 1319 2638 
L 1319 756 
Q 1319 356 1406 250 
Q 1522 113 1716 113 
L 1975 113 
L 1975 0 
L 266 0 
L 266 113 
L 394 113 
Q 519 113 622 175 
Q 725 238 764 344 
Q 803 450 803 756 
L 803 2638 
L 247 2638 
L 247 2863 
L 803 2863 
L 803 3050 
Q 803 3478 940 3775 
Q 1078 4072 1361 4255 
Q 1644 4438 1997 4438 
Q 2325 4438 2600 4225 
Q 2781 4084 2781 3909 
Q 2781 3816 2700 3733 
Q 2619 3650 2525 3650 
Q 2453 3650 2373 3701 
Q 2294 3753 2178 3923 
Q 2063 4094 1966 4153 
Q 1869 4213 1750 4213 
Q 1606 4213 1506 4136 
Q 1406 4059 1362 3898 
Q 1319 3738 1319 3069 
L 1319 2863 
L 2056 2863 
L 2056 2638 
L 1319 2638 
z
" transform="scale(0.015625)"/>
       <path id="TimesNewRomanPSMT-6e" d="M 1034 2341 
Q 1538 2947 1994 2947 
Q 2228 2947 2397 2830 
Q 2566 2713 2666 2444 
Q 2734 2256 2734 1869 
L 2734 647 
Q 2734 375 2778 278 
Q 2813 200 2889 156 
Q 2966 113 3172 113 
L 3172 0 
L 1756 0 
L 1756 113 
L 1816 113 
Q 2016 113 2095 173 
Q 2175 234 2206 353 
Q 2219 400 2219 647 
L 2219 1819 
Q 2219 2209 2117 2386 
Q 2016 2563 1775 2563 
Q 1403 2563 1034 2156 
L 1034 647 
Q 1034 356 1069 288 
Q 1113 197 1189 155 
Q 1266 113 1500 113 
L 1500 0 
L 84 0 
L 84 113 
L 147 113 
Q 366 113 442 223 
Q 519 334 519 647 
L 519 1709 
Q 519 2225 495 2337 
Q 472 2450 423 2490 
Q 375 2531 294 2531 
Q 206 2531 84 2484 
L 38 2597 
L 900 2947 
L 1034 2947 
L 1034 2341 
z
" transform="scale(0.015625)"/>
       <path id="TimesNewRomanPSMT-64" d="M 2222 322 
Q 2013 103 1813 7 
Q 1613 -88 1381 -88 
Q 913 -88 563 304 
Q 213 697 213 1313 
Q 213 1928 600 2439 
Q 988 2950 1597 2950 
Q 1975 2950 2222 2709 
L 2222 3238 
Q 2222 3728 2198 3840 
Q 2175 3953 2125 3993 
Q 2075 4034 2000 4034 
Q 1919 4034 1784 3984 
L 1744 4094 
L 2597 4444 
L 2738 4444 
L 2738 1134 
Q 2738 631 2761 520 
Q 2784 409 2836 365 
Q 2888 322 2956 322 
Q 3041 322 3181 375 
L 3216 266 
L 2366 -88 
L 2222 -88 
L 2222 322 
z
M 2222 541 
L 2222 2016 
Q 2203 2228 2109 2403 
Q 2016 2578 1861 2667 
Q 1706 2756 1559 2756 
Q 1284 2756 1069 2509 
Q 784 2184 784 1559 
Q 784 928 1059 592 
Q 1334 256 1672 256 
Q 1956 256 2222 541 
z
" transform="scale(0.015625)"/>
       <path id="TimesNewRomanPSMT-73" d="M 2050 2947 
L 2050 1972 
L 1947 1972 
Q 1828 2431 1642 2597 
Q 1456 2763 1169 2763 
Q 950 2763 815 2647 
Q 681 2531 681 2391 
Q 681 2216 781 2091 
Q 878 1963 1175 1819 
L 1631 1597 
Q 2266 1288 2266 781 
Q 2266 391 1970 151 
Q 1675 -88 1309 -88 
Q 1047 -88 709 6 
Q 606 38 541 38 
Q 469 38 428 -44 
L 325 -44 
L 325 978 
L 428 978 
Q 516 541 762 319 
Q 1009 97 1316 97 
Q 1531 97 1667 223 
Q 1803 350 1803 528 
Q 1803 744 1651 891 
Q 1500 1038 1047 1263 
Q 594 1488 453 1669 
Q 313 1847 313 2119 
Q 313 2472 555 2709 
Q 797 2947 1181 2947 
Q 1350 2947 1591 2875 
Q 1750 2828 1803 2828 
Q 1853 2828 1881 2850 
Q 1909 2872 1947 2947 
L 2050 2947 
z
" transform="scale(0.015625)"/>
      </defs>
      <use xlink:href="#TimesNewRomanPSMT-4e"/>
      <use xlink:href="#TimesNewRomanPSMT-75" x="72.216797"/>
      <use xlink:href="#TimesNewRomanPSMT-6d" x="122.216797"/>
      <use xlink:href="#TimesNewRomanPSMT-62" x="200"/>
      <use xlink:href="#TimesNewRomanPSMT-65" x="250"/>
      <use xlink:href="#TimesNewRomanPSMT-72" x="294.384766"/>
      <use xlink:href="#TimesNewRomanPSMT-20" x="327.685547"/>
      <use xlink:href="#TimesNewRomanPSMT-6f" x="352.685547"/>
      <use xlink:href="#TimesNewRomanPSMT-66" x="402.685547"/>
      <use xlink:href="#TimesNewRomanPSMT-20" x="435.986328"/>
      <use xlink:href="#TimesNewRomanPSMT-6e" x="460.986328"/>
      <use xlink:href="#TimesNewRomanPSMT-6f" x="510.986328"/>
      <use xlink:href="#TimesNewRomanPSMT-64" x="560.986328"/>
      <use xlink:href="#TimesNewRomanPSMT-65" x="610.986328"/>
      <use xlink:href="#TimesNewRomanPSMT-73" x="655.371094"/>
     </g>
    </g>
   </g>
   <g id="matplotlib.axis_2">
    <g id="ytick_1">
     <g id="line2d_6">
      <defs>
       <path id="m126f1a98f6" d="M 0 0 
L -3.5 0 
" style="stroke: #000000; stroke-width: 0.8"/>
      </defs>
      <g>
       <use xlink:href="#m126f1a98f6" x="72" y="224.422722" style="stroke: #000000; stroke-width: 0.8"/>
      </g>
     </g>
     <g id="text_7">
      <!-- 1.1 -->
      <g transform="translate(51.875 228.068191) scale(0.105 -0.105)">
       <defs>
        <path id="TimesNewRomanPSMT-2e" d="M 800 606 
Q 947 606 1047 504 
Q 1147 403 1147 259 
Q 1147 116 1045 14 
Q 944 -88 800 -88 
Q 656 -88 554 14 
Q 453 116 453 259 
Q 453 406 554 506 
Q 656 606 800 606 
z
" transform="scale(0.015625)"/>
       </defs>
       <use xlink:href="#TimesNewRomanPSMT-31"/>
       <use xlink:href="#TimesNewRomanPSMT-2e" x="50"/>
       <use xlink:href="#TimesNewRomanPSMT-31" x="75"/>
      </g>
     </g>
    </g>
    <g id="ytick_2">
     <g id="line2d_7">
      <g>
       <use xlink:href="#m126f1a98f6" x="72" y="188.229032" style="stroke: #000000; stroke-width: 0.8"/>
      </g>
     </g>
     <g id="text_8">
      <!-- 1.2 -->
      <g transform="translate(51.875 191.874501) scale(0.105 -0.105)">
       <use xlink:href="#TimesNewRomanPSMT-31"/>
       <use xlink:href="#TimesNewRomanPSMT-2e" x="50"/>
       <use xlink:href="#TimesNewRomanPSMT-32" x="75"/>
      </g>
     </g>
    </g>
    <g id="ytick_3">
     <g id="line2d_8">
      <g>
       <use xlink:href="#m126f1a98f6" x="72" y="152.035342" style="stroke: #000000; stroke-width: 0.8"/>
      </g>
     </g>
     <g id="text_9">
      <!-- 1.3 -->
      <g transform="translate(51.875 155.68081) scale(0.105 -0.105)">
       <use xlink:href="#TimesNewRomanPSMT-31"/>
       <use xlink:href="#TimesNewRomanPSMT-2e" x="50"/>
       <use xlink:href="#TimesNewRomanPSMT-33" x="75"/>
      </g>
     </g>
    </g>
    <g id="ytick_4">
     <g id="line2d_9">
      <g>
       <use xlink:href="#m126f1a98f6" x="72" y="115.841651" style="stroke: #000000; stroke-width: 0.8"/>
      </g>
     </g>
     <g id="text_10">
      <!-- 1.4 -->
      <g transform="translate(51.875 119.48712) scale(0.105 -0.105)">
       <use xlink:href="#TimesNewRomanPSMT-31"/>
       <use xlink:href="#TimesNewRomanPSMT-2e" x="50"/>
       <use xlink:href="#TimesNewRomanPSMT-34" x="75"/>
      </g>
     </g>
    </g>
    <g id="ytick_5">
     <g id="line2d_10">
      <g>
       <use xlink:href="#m126f1a98f6" x="72" y="79.647961" style="stroke: #000000; stroke-width: 0.8"/>
      </g>
     </g>
     <g id="text_11">
      <!-- 1.5 -->
      <g transform="translate(51.875 83.29343) scale(0.105 -0.105)">
       <defs>
        <path id="TimesNewRomanPSMT-35" d="M 2778 4238 
L 2534 3706 
L 1259 3706 
L 981 3138 
Q 1809 3016 2294 2522 
Q 2709 2097 2709 1522 
Q 2709 1188 2573 903 
Q 2438 619 2231 419 
Q 2025 219 1772 97 
Q 1413 -75 1034 -75 
Q 653 -75 479 54 
Q 306 184 306 341 
Q 306 428 378 495 
Q 450 563 559 563 
Q 641 563 702 538 
Q 763 513 909 409 
Q 1144 247 1384 247 
Q 1750 247 2026 523 
Q 2303 800 2303 1197 
Q 2303 1581 2056 1914 
Q 1809 2247 1375 2428 
Q 1034 2569 447 2591 
L 1259 4238 
L 2778 4238 
z
" transform="scale(0.015625)"/>
       </defs>
       <use xlink:href="#TimesNewRomanPSMT-31"/>
       <use xlink:href="#TimesNewRomanPSMT-2e" x="50"/>
       <use xlink:href="#TimesNewRomanPSMT-35" x="75"/>
      </g>
     </g>
    </g>
    <g id="ytick_6">
     <g id="line2d_11">
      <g>
       <use xlink:href="#m126f1a98f6" x="72" y="43.45427" style="stroke: #000000; stroke-width: 0.8"/>
      </g>
     </g>
     <g id="text_12">
      <!-- 1.6 -->
      <g transform="translate(51.875 47.099739) scale(0.105 -0.105)">
       <defs>
        <path id="TimesNewRomanPSMT-36" d="M 2869 4325 
L 2869 4209 
Q 2456 4169 2195 4045 
Q 1934 3922 1679 3669 
Q 1425 3416 1258 3105 
Q 1091 2794 978 2366 
Q 1428 2675 1881 2675 
Q 2316 2675 2634 2325 
Q 2953 1975 2953 1425 
Q 2953 894 2631 456 
Q 2244 -75 1606 -75 
Q 1172 -75 869 213 
Q 275 772 275 1663 
Q 275 2231 503 2743 
Q 731 3256 1154 3653 
Q 1578 4050 1965 4187 
Q 2353 4325 2688 4325 
L 2869 4325 
z
M 925 2138 
Q 869 1716 869 1456 
Q 869 1156 980 804 
Q 1091 453 1309 247 
Q 1469 100 1697 100 
Q 1969 100 2183 356 
Q 2397 613 2397 1088 
Q 2397 1622 2184 2012 
Q 1972 2403 1581 2403 
Q 1463 2403 1327 2353 
Q 1191 2303 925 2138 
z
" transform="scale(0.015625)"/>
       </defs>
       <use xlink:href="#TimesNewRomanPSMT-31"/>
       <use xlink:href="#TimesNewRomanPSMT-2e" x="50"/>
       <use xlink:href="#TimesNewRomanPSMT-36" x="75"/>
      </g>
     </g>
    </g>
    <g id="text_13">
     <!-- Natural Connectivity -->
     <g transform="translate(45.609297 189.617109) rotate(-90) scale(0.105 -0.105)">
      <defs>
       <path id="TimesNewRomanPSMT-61" d="M 1822 413 
Q 1381 72 1269 19 
Q 1100 -59 909 -59 
Q 613 -59 420 144 
Q 228 347 228 678 
Q 228 888 322 1041 
Q 450 1253 767 1440 
Q 1084 1628 1822 1897 
L 1822 2009 
Q 1822 2438 1686 2597 
Q 1550 2756 1291 2756 
Q 1094 2756 978 2650 
Q 859 2544 859 2406 
L 866 2225 
Q 866 2081 792 2003 
Q 719 1925 600 1925 
Q 484 1925 411 2006 
Q 338 2088 338 2228 
Q 338 2497 613 2722 
Q 888 2947 1384 2947 
Q 1766 2947 2009 2819 
Q 2194 2722 2281 2516 
Q 2338 2381 2338 1966 
L 2338 994 
Q 2338 584 2353 492 
Q 2369 400 2405 369 
Q 2441 338 2488 338 
Q 2538 338 2575 359 
Q 2641 400 2828 588 
L 2828 413 
Q 2478 -56 2159 -56 
Q 2006 -56 1915 50 
Q 1825 156 1822 413 
z
M 1822 616 
L 1822 1706 
Q 1350 1519 1213 1441 
Q 966 1303 859 1153 
Q 753 1003 753 825 
Q 753 600 887 451 
Q 1022 303 1197 303 
Q 1434 303 1822 616 
z
" transform="scale(0.015625)"/>
       <path id="TimesNewRomanPSMT-74" d="M 1031 3803 
L 1031 2863 
L 1700 2863 
L 1700 2644 
L 1031 2644 
L 1031 788 
Q 1031 509 1111 412 
Q 1191 316 1316 316 
Q 1419 316 1516 380 
Q 1613 444 1666 569 
L 1788 569 
Q 1678 263 1478 108 
Q 1278 -47 1066 -47 
Q 922 -47 784 33 
Q 647 113 581 261 
Q 516 409 516 719 
L 516 2644 
L 63 2644 
L 63 2747 
Q 234 2816 414 2980 
Q 594 3144 734 3369 
Q 806 3488 934 3803 
L 1031 3803 
z
" transform="scale(0.015625)"/>
       <path id="TimesNewRomanPSMT-6c" d="M 1184 4444 
L 1184 647 
Q 1184 378 1223 290 
Q 1263 203 1344 158 
Q 1425 113 1647 113 
L 1647 0 
L 244 0 
L 244 113 
Q 441 113 512 153 
Q 584 194 625 287 
Q 666 381 666 647 
L 666 3247 
Q 666 3731 644 3842 
Q 622 3953 573 3993 
Q 525 4034 450 4034 
Q 369 4034 244 3984 
L 191 4094 
L 1044 4444 
L 1184 4444 
z
" transform="scale(0.015625)"/>
       <path id="TimesNewRomanPSMT-43" d="M 3853 4334 
L 3950 2894 
L 3853 2894 
Q 3659 3541 3300 3825 
Q 2941 4109 2438 4109 
Q 2016 4109 1675 3895 
Q 1334 3681 1139 3212 
Q 944 2744 944 2047 
Q 944 1472 1128 1050 
Q 1313 628 1683 403 
Q 2053 178 2528 178 
Q 2941 178 3256 354 
Q 3572 531 3950 1056 
L 4047 994 
Q 3728 428 3303 165 
Q 2878 -97 2294 -97 
Q 1241 -97 663 684 
Q 231 1266 231 2053 
Q 231 2688 515 3219 
Q 800 3750 1298 4042 
Q 1797 4334 2388 4334 
Q 2847 4334 3294 4109 
Q 3425 4041 3481 4041 
Q 3566 4041 3628 4100 
Q 3709 4184 3744 4334 
L 3853 4334 
z
" transform="scale(0.015625)"/>
       <path id="TimesNewRomanPSMT-63" d="M 2631 1088 
Q 2516 522 2178 217 
Q 1841 -88 1431 -88 
Q 944 -88 581 321 
Q 219 731 219 1428 
Q 219 2103 620 2525 
Q 1022 2947 1584 2947 
Q 2006 2947 2278 2723 
Q 2550 2500 2550 2259 
Q 2550 2141 2473 2067 
Q 2397 1994 2259 1994 
Q 2075 1994 1981 2113 
Q 1928 2178 1911 2362 
Q 1894 2547 1784 2644 
Q 1675 2738 1481 2738 
Q 1169 2738 978 2506 
Q 725 2200 725 1697 
Q 725 1184 976 792 
Q 1228 400 1656 400 
Q 1963 400 2206 609 
Q 2378 753 2541 1131 
L 2631 1088 
z
" transform="scale(0.015625)"/>
       <path id="TimesNewRomanPSMT-69" d="M 928 4444 
Q 1059 4444 1151 4351 
Q 1244 4259 1244 4128 
Q 1244 3997 1151 3903 
Q 1059 3809 928 3809 
Q 797 3809 703 3903 
Q 609 3997 609 4128 
Q 609 4259 701 4351 
Q 794 4444 928 4444 
z
M 1188 2947 
L 1188 647 
Q 1188 378 1227 289 
Q 1266 200 1342 156 
Q 1419 113 1622 113 
L 1622 0 
L 231 0 
L 231 113 
Q 441 113 512 153 
Q 584 194 626 287 
Q 669 381 669 647 
L 669 1750 
Q 669 2216 641 2353 
Q 619 2453 572 2492 
Q 525 2531 444 2531 
Q 356 2531 231 2484 
L 188 2597 
L 1050 2947 
L 1188 2947 
z
" transform="scale(0.015625)"/>
       <path id="TimesNewRomanPSMT-76" d="M 53 2863 
L 1400 2863 
L 1400 2747 
L 1313 2747 
Q 1191 2747 1127 2687 
Q 1063 2628 1063 2528 
Q 1063 2419 1128 2269 
L 1794 688 
L 2463 2328 
Q 2534 2503 2534 2594 
Q 2534 2638 2509 2666 
Q 2475 2713 2422 2730 
Q 2369 2747 2206 2747 
L 2206 2863 
L 3141 2863 
L 3141 2747 
Q 2978 2734 2916 2681 
Q 2806 2588 2719 2369 
L 1703 -88 
L 1575 -88 
L 553 2328 
Q 484 2497 421 2570 
Q 359 2644 263 2694 
Q 209 2722 53 2747 
L 53 2863 
z
" transform="scale(0.015625)"/>
       <path id="TimesNewRomanPSMT-79" d="M 38 2863 
L 1372 2863 
L 1372 2747 
L 1306 2747 
Q 1166 2747 1095 2686 
Q 1025 2625 1025 2534 
Q 1025 2413 1128 2197 
L 1825 753 
L 2466 2334 
Q 2519 2463 2519 2588 
Q 2519 2644 2497 2672 
Q 2472 2706 2419 2726 
Q 2366 2747 2231 2747 
L 2231 2863 
L 3163 2863 
L 3163 2747 
Q 3047 2734 2984 2696 
Q 2922 2659 2847 2556 
Q 2819 2513 2741 2316 
L 1575 -541 
Q 1406 -956 1132 -1168 
Q 859 -1381 606 -1381 
Q 422 -1381 303 -1275 
Q 184 -1169 184 -1031 
Q 184 -900 270 -820 
Q 356 -741 506 -741 
Q 609 -741 788 -809 
Q 913 -856 944 -856 
Q 1038 -856 1148 -759 
Q 1259 -663 1372 -384 
L 1575 113 
L 547 2272 
Q 500 2369 397 2513 
Q 319 2622 269 2659 
Q 197 2709 38 2747 
L 38 2863 
z
" transform="scale(0.015625)"/>
      </defs>
      <use xlink:href="#TimesNewRomanPSMT-4e"/>
      <use xlink:href="#TimesNewRomanPSMT-61" x="72.216797"/>
      <use xlink:href="#TimesNewRomanPSMT-74" x="116.601562"/>
      <use xlink:href="#TimesNewRomanPSMT-75" x="144.384766"/>
      <use xlink:href="#TimesNewRomanPSMT-72" x="194.384766"/>
      <use xlink:href="#TimesNewRomanPSMT-61" x="227.685547"/>
      <use xlink:href="#TimesNewRomanPSMT-6c" x="272.070312"/>
      <use xlink:href="#TimesNewRomanPSMT-20" x="299.853516"/>
      <use xlink:href="#TimesNewRomanPSMT-43" x="324.853516"/>
      <use xlink:href="#TimesNewRomanPSMT-6f" x="391.552734"/>
      <use xlink:href="#TimesNewRomanPSMT-6e" x="441.552734"/>
      <use xlink:href="#TimesNewRomanPSMT-6e" x="491.552734"/>
      <use xlink:href="#TimesNewRomanPSMT-65" x="541.552734"/>
      <use xlink:href="#TimesNewRomanPSMT-63" x="585.9375"/>
      <use xlink:href="#TimesNewRomanPSMT-74" x="630.322266"/>
      <use xlink:href="#TimesNewRomanPSMT-69" x="658.105469"/>
      <use xlink:href="#TimesNewRomanPSMT-76" x="685.888672"/>
      <use xlink:href="#TimesNewRomanPSMT-69" x="735.888672"/>
      <use xlink:href="#TimesNewRomanPSMT-74" x="763.671875"/>
      <use xlink:href="#TimesNewRomanPSMT-79" x="791.455078"/>
     </g>
    </g>
   </g>
   <g id="line2d_12">
    <path d="M 92.290909 246.24 
L 93.217435 156.541337 
L 94.14396 106.592219 
L 95.070486 75.37387 
L 95.997011 52.491491 
L 96.923537 53.832511 
L 97.850062 51.88516 
L 98.776588 51.892313 
L 99.703113 44.64 
L 100.629639 52.76627 
L 101.556164 54.107501 
L 102.48269 62.65803 
L 103.409215 73.089441 
L 104.335741 101.714606 
L 105.262267 99.854123 
L 106.188792 95.548389 
L 107.115318 103.65513 
L 108.041843 106.83002 
L 108.968369 104.844846 
L 109.894894 89.774098 
L 110.82142 83.410134 
L 111.747945 85.732411 
L 112.674471 95.874009 
L 113.600996 89.458222 
L 114.527522 90.30452 
L 115.454047 93.295719 
L 117.307098 109.152963 
L 118.233624 108.078372 
L 120.086675 120.291885 
L 121.0132 121.494242 
L 121.939726 119.873151 
L 122.866252 116.903 
L 123.792777 124.611607 
L 124.719303 115.358863 
L 125.645828 111.587344 
L 126.572354 109.915566 
L 127.498879 115.799133 
L 128.425405 114.147177 
L 129.35193 120.677716 
L 130.278456 119.838778 
L 131.204981 124.196404 
L 132.131507 120.058535 
L 133.058032 124.238717 
L 133.984558 125.964264 
L 134.911083 101.343795 
L 135.837609 122.768536 
L 136.764134 134.296526 
L 137.69066 121.893041 
L 138.617186 120.48787 
L 139.543711 123.287378 
L 140.470237 127.501555 
L 141.396762 123.798535 
L 142.323288 109.786689 
L 143.249813 113.921054 
L 145.102864 123.900413 
L 146.02939 121.126588 
L 146.955915 118.974888 
L 147.882441 117.907977 
L 148.808966 126.158891 
L 149.735492 128.050124 
L 150.662017 132.461186 
L 151.588543 128.806836 
L 152.515068 127.948362 
L 153.441594 129.728502 
L 154.36812 128.478074 
L 155.294645 127.591316 
L 156.221171 128.228638 
L 157.147696 119.822503 
L 158.074222 116.284273 
L 159.000747 117.607011 
L 159.927273 116.899612 
L 160.853798 116.670171 
L 161.780324 118.896561 
L 162.706849 121.820205 
L 163.633375 122.837761 
L 164.5599 121.861344 
L 165.486426 118.958329 
L 166.412951 123.708897 
L 168.266002 119.084149 
L 169.192528 119.229525 
L 170.119054 120.27168 
L 171.045579 113.998363 
L 171.972105 112.297075 
L 172.89863 114.164524 
L 173.825156 117.373626 
L 174.751681 119.410593 
L 175.678207 130.408576 
L 176.604732 131.856319 
L 177.531258 134.538033 
L 178.457783 133.901087 
L 179.384309 132.138121 
L 181.23736 133.344589 
L 182.163885 131.399183 
L 183.090411 130.6423 
L 184.016936 134.108665 
L 184.943462 135.450702 
L 185.869988 134.811517 
L 186.796513 134.955444 
L 187.723039 138.968678 
L 188.649564 143.833452 
L 189.57609 145.668934 
L 190.502615 148.876905 
L 191.429141 148.316319 
L 192.355666 146.057504 
L 193.282192 151.408496 
L 194.208717 152.06955 
L 196.061768 150.677056 
L 196.988294 150.426822 
L 197.914819 150.854265 
L 198.841345 151.022742 
L 199.76787 149.228643 
L 200.694396 151.152483 
L 201.620922 149.103599 
L 203.473973 155.39962 
L 204.400498 154.845077 
L 205.327024 155.074033 
L 206.253549 161.053203 
L 207.180075 160.518991 
L 208.1066 161.225662 
L 209.959651 151.81503 
L 210.886177 148.688954 
L 211.812702 150.679443 
L 212.739228 151.718812 
L 213.665753 151.816996 
L 214.592279 148.220495 
L 216.44533 148.905411 
L 217.371856 148.427981 
L 218.298381 148.165017 
L 219.224907 146.633659 
L 220.151432 147.08117 
L 221.077958 149.844276 
L 222.004483 153.846409 
L 222.931009 149.43005 
L 223.857534 150.172796 
L 224.78406 150.29598 
L 225.710585 149.689955 
L 226.637111 151.939418 
L 227.563636 150.552053 
L 229.416687 151.254109 
L 238.681943 155.780473 
L 247.947198 155.112478 
L 257.212453 159.929422 
L 266.477709 165.215721 
L 275.742964 165.325616 
L 285.008219 163.312773 
L 294.273474 161.53378 
L 303.53873 160.612051 
L 312.803985 164.132845 
L 322.06924 162.846185 
L 331.334496 160.22966 
L 340.599751 155.80684 
L 349.865006 156.04068 
L 359.130262 161.534184 
L 368.395517 165.195078 
L 377.660772 160.403896 
L 386.926027 161.37896 
L 396.191283 157.28457 
L 405.456538 158.016716 
L 414.721793 155.868033 
L 423.987049 154.227349 
L 433.252304 152.799155 
L 442.517559 152.019603 
L 451.782814 150.622382 
L 461.04807 151.364136 
L 479.57858 151.427427 
L 488.843836 152.267134 
L 498.109091 149.961843 
L 498.109091 149.961843 
" clip-path="url(#pc29a729f53)" style="fill: none; stroke: #d92523; stroke-width: 1.5; stroke-linecap: square"/>
    <defs>
     <path id="m909f926597" d="M 0 1.5 
C 0.397805 1.5 0.77937 1.341951 1.06066 1.06066 
C 1.341951 0.77937 1.5 0.397805 1.5 0 
C 1.5 -0.397805 1.341951 -0.77937 1.06066 -1.06066 
C 0.77937 -1.341951 0.397805 -1.5 0 -1.5 
C -0.397805 -1.5 -0.77937 -1.341951 -1.06066 -1.06066 
C -1.341951 -0.77937 -1.5 -0.397805 -1.5 0 
C -1.5 0.397805 -1.341951 0.77937 -1.06066 1.06066 
C -0.77937 1.341951 -0.397805 1.5 0 1.5 
z
" style="stroke: #d92523"/>
    </defs>
    <g clip-path="url(#pc29a729f53)">
     <use xlink:href="#m909f926597" x="92.290909" y="246.24" style="fill: #ffffff; stroke: #d92523"/>
     <use xlink:href="#m909f926597" x="93.217435" y="156.541337" style="fill: #ffffff; stroke: #d92523"/>
     <use xlink:href="#m909f926597" x="94.14396" y="106.592219" style="fill: #ffffff; stroke: #d92523"/>
     <use xlink:href="#m909f926597" x="95.070486" y="75.37387" style="fill: #ffffff; stroke: #d92523"/>
     <use xlink:href="#m909f926597" x="95.997011" y="52.491491" style="fill: #ffffff; stroke: #d92523"/>
     <use xlink:href="#m909f926597" x="96.923537" y="53.832511" style="fill: #ffffff; stroke: #d92523"/>
     <use xlink:href="#m909f926597" x="97.850062" y="51.88516" style="fill: #ffffff; stroke: #d92523"/>
     <use xlink:href="#m909f926597" x="98.776588" y="51.892313" style="fill: #ffffff; stroke: #d92523"/>
     <use xlink:href="#m909f926597" x="99.703113" y="44.64" style="fill: #ffffff; stroke: #d92523"/>
     <use xlink:href="#m909f926597" x="100.629639" y="52.76627" style="fill: #ffffff; stroke: #d92523"/>
     <use xlink:href="#m909f926597" x="101.556164" y="54.107501" style="fill: #ffffff; stroke: #d92523"/>
     <use xlink:href="#m909f926597" x="102.48269" y="62.65803" style="fill: #ffffff; stroke: #d92523"/>
     <use xlink:href="#m909f926597" x="103.409215" y="73.089441" style="fill: #ffffff; stroke: #d92523"/>
     <use xlink:href="#m909f926597" x="104.335741" y="101.714606" style="fill: #ffffff; stroke: #d92523"/>
     <use xlink:href="#m909f926597" x="105.262267" y="99.854123" style="fill: #ffffff; stroke: #d92523"/>
     <use xlink:href="#m909f926597" x="106.188792" y="95.548389" style="fill: #ffffff; stroke: #d92523"/>
     <use xlink:href="#m909f926597" x="107.115318" y="103.65513" style="fill: #ffffff; stroke: #d92523"/>
     <use xlink:href="#m909f926597" x="108.041843" y="106.83002" style="fill: #ffffff; stroke: #d92523"/>
     <use xlink:href="#m909f926597" x="108.968369" y="104.844846" style="fill: #ffffff; stroke: #d92523"/>
     <use xlink:href="#m909f926597" x="109.894894" y="89.774098" style="fill: #ffffff; stroke: #d92523"/>
     <use xlink:href="#m909f926597" x="110.82142" y="83.410134" style="fill: #ffffff; stroke: #d92523"/>
     <use xlink:href="#m909f926597" x="111.747945" y="85.732411" style="fill: #ffffff; stroke: #d92523"/>
     <use xlink:href="#m909f926597" x="112.674471" y="95.874009" style="fill: #ffffff; stroke: #d92523"/>
     <use xlink:href="#m909f926597" x="113.600996" y="89.458222" style="fill: #ffffff; stroke: #d92523"/>
     <use xlink:href="#m909f926597" x="114.527522" y="90.30452" style="fill: #ffffff; stroke: #d92523"/>
     <use xlink:href="#m909f926597" x="115.454047" y="93.295719" style="fill: #ffffff; stroke: #d92523"/>
     <use xlink:href="#m909f926597" x="116.380573" y="101.218992" style="fill: #ffffff; stroke: #d92523"/>
     <use xlink:href="#m909f926597" x="117.307098" y="109.152963" style="fill: #ffffff; stroke: #d92523"/>
     <use xlink:href="#m909f926597" x="118.233624" y="108.078372" style="fill: #ffffff; stroke: #d92523"/>
     <use xlink:href="#m909f926597" x="119.160149" y="114.063422" style="fill: #ffffff; stroke: #d92523"/>
     <use xlink:href="#m909f926597" x="120.086675" y="120.291885" style="fill: #ffffff; stroke: #d92523"/>
     <use xlink:href="#m909f926597" x="121.0132" y="121.494242" style="fill: #ffffff; stroke: #d92523"/>
     <use xlink:href="#m909f926597" x="121.939726" y="119.873151" style="fill: #ffffff; stroke: #d92523"/>
     <use xlink:href="#m909f926597" x="122.866252" y="116.903" style="fill: #ffffff; stroke: #d92523"/>
     <use xlink:href="#m909f926597" x="123.792777" y="124.611607" style="fill: #ffffff; stroke: #d92523"/>
     <use xlink:href="#m909f926597" x="124.719303" y="115.358863" style="fill: #ffffff; stroke: #d92523"/>
     <use xlink:href="#m909f926597" x="125.645828" y="111.587344" style="fill: #ffffff; stroke: #d92523"/>
     <use xlink:href="#m909f926597" x="126.572354" y="109.915566" style="fill: #ffffff; stroke: #d92523"/>
     <use xlink:href="#m909f926597" x="127.498879" y="115.799133" style="fill: #ffffff; stroke: #d92523"/>
     <use xlink:href="#m909f926597" x="128.425405" y="114.147177" style="fill: #ffffff; stroke: #d92523"/>
     <use xlink:href="#m909f926597" x="129.35193" y="120.677716" style="fill: #ffffff; stroke: #d92523"/>
     <use xlink:href="#m909f926597" x="130.278456" y="119.838778" style="fill: #ffffff; stroke: #d92523"/>
     <use xlink:href="#m909f926597" x="131.204981" y="124.196404" style="fill: #ffffff; stroke: #d92523"/>
     <use xlink:href="#m909f926597" x="132.131507" y="120.058535" style="fill: #ffffff; stroke: #d92523"/>
     <use xlink:href="#m909f926597" x="133.058032" y="124.238717" style="fill: #ffffff; stroke: #d92523"/>
     <use xlink:href="#m909f926597" x="133.984558" y="125.964264" style="fill: #ffffff; stroke: #d92523"/>
     <use xlink:href="#m909f926597" x="134.911083" y="101.343795" style="fill: #ffffff; stroke: #d92523"/>
     <use xlink:href="#m909f926597" x="135.837609" y="122.768536" style="fill: #ffffff; stroke: #d92523"/>
     <use xlink:href="#m909f926597" x="136.764134" y="134.296526" style="fill: #ffffff; stroke: #d92523"/>
     <use xlink:href="#m909f926597" x="137.69066" y="121.893041" style="fill: #ffffff; stroke: #d92523"/>
     <use xlink:href="#m909f926597" x="138.617186" y="120.48787" style="fill: #ffffff; stroke: #d92523"/>
     <use xlink:href="#m909f926597" x="139.543711" y="123.287378" style="fill: #ffffff; stroke: #d92523"/>
     <use xlink:href="#m909f926597" x="140.470237" y="127.501555" style="fill: #ffffff; stroke: #d92523"/>
     <use xlink:href="#m909f926597" x="141.396762" y="123.798535" style="fill: #ffffff; stroke: #d92523"/>
     <use xlink:href="#m909f926597" x="142.323288" y="109.786689" style="fill: #ffffff; stroke: #d92523"/>
     <use xlink:href="#m909f926597" x="143.249813" y="113.921054" style="fill: #ffffff; stroke: #d92523"/>
     <use xlink:href="#m909f926597" x="144.176339" y="119.146305" style="fill: #ffffff; stroke: #d92523"/>
     <use xlink:href="#m909f926597" x="145.102864" y="123.900413" style="fill: #ffffff; stroke: #d92523"/>
     <use xlink:href="#m909f926597" x="146.02939" y="121.126588" style="fill: #ffffff; stroke: #d92523"/>
     <use xlink:href="#m909f926597" x="146.955915" y="118.974888" style="fill: #ffffff; stroke: #d92523"/>
     <use xlink:href="#m909f926597" x="147.882441" y="117.907977" style="fill: #ffffff; stroke: #d92523"/>
     <use xlink:href="#m909f926597" x="148.808966" y="126.158891" style="fill: #ffffff; stroke: #d92523"/>
     <use xlink:href="#m909f926597" x="149.735492" y="128.050124" style="fill: #ffffff; stroke: #d92523"/>
     <use xlink:href="#m909f926597" x="150.662017" y="132.461186" style="fill: #ffffff; stroke: #d92523"/>
     <use xlink:href="#m909f926597" x="151.588543" y="128.806836" style="fill: #ffffff; stroke: #d92523"/>
     <use xlink:href="#m909f926597" x="152.515068" y="127.948362" style="fill: #ffffff; stroke: #d92523"/>
     <use xlink:href="#m909f926597" x="153.441594" y="129.728502" style="fill: #ffffff; stroke: #d92523"/>
     <use xlink:href="#m909f926597" x="154.36812" y="128.478074" style="fill: #ffffff; stroke: #d92523"/>
     <use xlink:href="#m909f926597" x="155.294645" y="127.591316" style="fill: #ffffff; stroke: #d92523"/>
     <use xlink:href="#m909f926597" x="156.221171" y="128.228638" style="fill: #ffffff; stroke: #d92523"/>
     <use xlink:href="#m909f926597" x="157.147696" y="119.822503" style="fill: #ffffff; stroke: #d92523"/>
     <use xlink:href="#m909f926597" x="158.074222" y="116.284273" style="fill: #ffffff; stroke: #d92523"/>
     <use xlink:href="#m909f926597" x="159.000747" y="117.607011" style="fill: #ffffff; stroke: #d92523"/>
     <use xlink:href="#m909f926597" x="159.927273" y="116.899612" style="fill: #ffffff; stroke: #d92523"/>
     <use xlink:href="#m909f926597" x="160.853798" y="116.670171" style="fill: #ffffff; stroke: #d92523"/>
     <use xlink:href="#m909f926597" x="161.780324" y="118.896561" style="fill: #ffffff; stroke: #d92523"/>
     <use xlink:href="#m909f926597" x="162.706849" y="121.820205" style="fill: #ffffff; stroke: #d92523"/>
     <use xlink:href="#m909f926597" x="163.633375" y="122.837761" style="fill: #ffffff; stroke: #d92523"/>
     <use xlink:href="#m909f926597" x="164.5599" y="121.861344" style="fill: #ffffff; stroke: #d92523"/>
     <use xlink:href="#m909f926597" x="165.486426" y="118.958329" style="fill: #ffffff; stroke: #d92523"/>
     <use xlink:href="#m909f926597" x="166.412951" y="123.708897" style="fill: #ffffff; stroke: #d92523"/>
     <use xlink:href="#m909f926597" x="167.339477" y="121.389133" style="fill: #ffffff; stroke: #d92523"/>
     <use xlink:href="#m909f926597" x="168.266002" y="119.084149" style="fill: #ffffff; stroke: #d92523"/>
     <use xlink:href="#m909f926597" x="169.192528" y="119.229525" style="fill: #ffffff; stroke: #d92523"/>
     <use xlink:href="#m909f926597" x="170.119054" y="120.27168" style="fill: #ffffff; stroke: #d92523"/>
     <use xlink:href="#m909f926597" x="171.045579" y="113.998363" style="fill: #ffffff; stroke: #d92523"/>
     <use xlink:href="#m909f926597" x="171.972105" y="112.297075" style="fill: #ffffff; stroke: #d92523"/>
     <use xlink:href="#m909f926597" x="172.89863" y="114.164524" style="fill: #ffffff; stroke: #d92523"/>
     <use xlink:href="#m909f926597" x="173.825156" y="117.373626" style="fill: #ffffff; stroke: #d92523"/>
     <use xlink:href="#m909f926597" x="174.751681" y="119.410593" style="fill: #ffffff; stroke: #d92523"/>
     <use xlink:href="#m909f926597" x="175.678207" y="130.408576" style="fill: #ffffff; stroke: #d92523"/>
     <use xlink:href="#m909f926597" x="176.604732" y="131.856319" style="fill: #ffffff; stroke: #d92523"/>
     <use xlink:href="#m909f926597" x="177.531258" y="134.538033" style="fill: #ffffff; stroke: #d92523"/>
     <use xlink:href="#m909f926597" x="178.457783" y="133.901087" style="fill: #ffffff; stroke: #d92523"/>
     <use xlink:href="#m909f926597" x="179.384309" y="132.138121" style="fill: #ffffff; stroke: #d92523"/>
     <use xlink:href="#m909f926597" x="180.310834" y="132.684302" style="fill: #ffffff; stroke: #d92523"/>
     <use xlink:href="#m909f926597" x="181.23736" y="133.344589" style="fill: #ffffff; stroke: #d92523"/>
     <use xlink:href="#m909f926597" x="182.163885" y="131.399183" style="fill: #ffffff; stroke: #d92523"/>
     <use xlink:href="#m909f926597" x="183.090411" y="130.6423" style="fill: #ffffff; stroke: #d92523"/>
     <use xlink:href="#m909f926597" x="184.016936" y="134.108665" style="fill: #ffffff; stroke: #d92523"/>
     <use xlink:href="#m909f926597" x="184.943462" y="135.450702" style="fill: #ffffff; stroke: #d92523"/>
     <use xlink:href="#m909f926597" x="185.869988" y="134.811517" style="fill: #ffffff; stroke: #d92523"/>
     <use xlink:href="#m909f926597" x="186.796513" y="134.955444" style="fill: #ffffff; stroke: #d92523"/>
     <use xlink:href="#m909f926597" x="187.723039" y="138.968678" style="fill: #ffffff; stroke: #d92523"/>
     <use xlink:href="#m909f926597" x="188.649564" y="143.833452" style="fill: #ffffff; stroke: #d92523"/>
     <use xlink:href="#m909f926597" x="189.57609" y="145.668934" style="fill: #ffffff; stroke: #d92523"/>
     <use xlink:href="#m909f926597" x="190.502615" y="148.876905" style="fill: #ffffff; stroke: #d92523"/>
     <use xlink:href="#m909f926597" x="191.429141" y="148.316319" style="fill: #ffffff; stroke: #d92523"/>
     <use xlink:href="#m909f926597" x="192.355666" y="146.057504" style="fill: #ffffff; stroke: #d92523"/>
     <use xlink:href="#m909f926597" x="193.282192" y="151.408496" style="fill: #ffffff; stroke: #d92523"/>
     <use xlink:href="#m909f926597" x="194.208717" y="152.06955" style="fill: #ffffff; stroke: #d92523"/>
     <use xlink:href="#m909f926597" x="195.135243" y="151.36585" style="fill: #ffffff; stroke: #d92523"/>
     <use xlink:href="#m909f926597" x="196.061768" y="150.677056" style="fill: #ffffff; stroke: #d92523"/>
     <use xlink:href="#m909f926597" x="196.988294" y="150.426822" style="fill: #ffffff; stroke: #d92523"/>
     <use xlink:href="#m909f926597" x="197.914819" y="150.854265" style="fill: #ffffff; stroke: #d92523"/>
     <use xlink:href="#m909f926597" x="198.841345" y="151.022742" style="fill: #ffffff; stroke: #d92523"/>
     <use xlink:href="#m909f926597" x="199.76787" y="149.228643" style="fill: #ffffff; stroke: #d92523"/>
     <use xlink:href="#m909f926597" x="200.694396" y="151.152483" style="fill: #ffffff; stroke: #d92523"/>
     <use xlink:href="#m909f926597" x="201.620922" y="149.103599" style="fill: #ffffff; stroke: #d92523"/>
     <use xlink:href="#m909f926597" x="202.547447" y="152.245552" style="fill: #ffffff; stroke: #d92523"/>
     <use xlink:href="#m909f926597" x="203.473973" y="155.39962" style="fill: #ffffff; stroke: #d92523"/>
     <use xlink:href="#m909f926597" x="204.400498" y="154.845077" style="fill: #ffffff; stroke: #d92523"/>
     <use xlink:href="#m909f926597" x="205.327024" y="155.074033" style="fill: #ffffff; stroke: #d92523"/>
     <use xlink:href="#m909f926597" x="206.253549" y="161.053203" style="fill: #ffffff; stroke: #d92523"/>
     <use xlink:href="#m909f926597" x="207.180075" y="160.518991" style="fill: #ffffff; stroke: #d92523"/>
     <use xlink:href="#m909f926597" x="208.1066" y="161.225662" style="fill: #ffffff; stroke: #d92523"/>
     <use xlink:href="#m909f926597" x="209.033126" y="156.639059" style="fill: #ffffff; stroke: #d92523"/>
     <use xlink:href="#m909f926597" x="209.959651" y="151.81503" style="fill: #ffffff; stroke: #d92523"/>
     <use xlink:href="#m909f926597" x="210.886177" y="148.688954" style="fill: #ffffff; stroke: #d92523"/>
     <use xlink:href="#m909f926597" x="211.812702" y="150.679443" style="fill: #ffffff; stroke: #d92523"/>
     <use xlink:href="#m909f926597" x="212.739228" y="151.718812" style="fill: #ffffff; stroke: #d92523"/>
     <use xlink:href="#m909f926597" x="213.665753" y="151.816996" style="fill: #ffffff; stroke: #d92523"/>
     <use xlink:href="#m909f926597" x="214.592279" y="148.220495" style="fill: #ffffff; stroke: #d92523"/>
     <use xlink:href="#m909f926597" x="215.518804" y="148.553386" style="fill: #ffffff; stroke: #d92523"/>
     <use xlink:href="#m909f926597" x="216.44533" y="148.905411" style="fill: #ffffff; stroke: #d92523"/>
     <use xlink:href="#m909f926597" x="217.371856" y="148.427981" style="fill: #ffffff; stroke: #d92523"/>
     <use xlink:href="#m909f926597" x="218.298381" y="148.165017" style="fill: #ffffff; stroke: #d92523"/>
     <use xlink:href="#m909f926597" x="219.224907" y="146.633659" style="fill: #ffffff; stroke: #d92523"/>
     <use xlink:href="#m909f926597" x="220.151432" y="147.08117" style="fill: #ffffff; stroke: #d92523"/>
     <use xlink:href="#m909f926597" x="221.077958" y="149.844276" style="fill: #ffffff; stroke: #d92523"/>
     <use xlink:href="#m909f926597" x="222.004483" y="153.846409" style="fill: #ffffff; stroke: #d92523"/>
     <use xlink:href="#m909f926597" x="222.931009" y="149.43005" style="fill: #ffffff; stroke: #d92523"/>
     <use xlink:href="#m909f926597" x="223.857534" y="150.172796" style="fill: #ffffff; stroke: #d92523"/>
     <use xlink:href="#m909f926597" x="224.78406" y="150.29598" style="fill: #ffffff; stroke: #d92523"/>
     <use xlink:href="#m909f926597" x="225.710585" y="149.689955" style="fill: #ffffff; stroke: #d92523"/>
     <use xlink:href="#m909f926597" x="226.637111" y="151.939418" style="fill: #ffffff; stroke: #d92523"/>
     <use xlink:href="#m909f926597" x="227.563636" y="150.552053" style="fill: #ffffff; stroke: #d92523"/>
     <use xlink:href="#m909f926597" x="229.416687" y="151.254109" style="fill: #ffffff; stroke: #d92523"/>
     <use xlink:href="#m909f926597" x="238.681943" y="155.780473" style="fill: #ffffff; stroke: #d92523"/>
     <use xlink:href="#m909f926597" x="247.947198" y="155.112478" style="fill: #ffffff; stroke: #d92523"/>
     <use xlink:href="#m909f926597" x="257.212453" y="159.929422" style="fill: #ffffff; stroke: #d92523"/>
     <use xlink:href="#m909f926597" x="266.477709" y="165.215721" style="fill: #ffffff; stroke: #d92523"/>
     <use xlink:href="#m909f926597" x="275.742964" y="165.325616" style="fill: #ffffff; stroke: #d92523"/>
     <use xlink:href="#m909f926597" x="285.008219" y="163.312773" style="fill: #ffffff; stroke: #d92523"/>
     <use xlink:href="#m909f926597" x="294.273474" y="161.53378" style="fill: #ffffff; stroke: #d92523"/>
     <use xlink:href="#m909f926597" x="303.53873" y="160.612051" style="fill: #ffffff; stroke: #d92523"/>
     <use xlink:href="#m909f926597" x="312.803985" y="164.132845" style="fill: #ffffff; stroke: #d92523"/>
     <use xlink:href="#m909f926597" x="322.06924" y="162.846185" style="fill: #ffffff; stroke: #d92523"/>
     <use xlink:href="#m909f926597" x="331.334496" y="160.22966" style="fill: #ffffff; stroke: #d92523"/>
     <use xlink:href="#m909f926597" x="340.599751" y="155.80684" style="fill: #ffffff; stroke: #d92523"/>
     <use xlink:href="#m909f926597" x="349.865006" y="156.04068" style="fill: #ffffff; stroke: #d92523"/>
     <use xlink:href="#m909f926597" x="359.130262" y="161.534184" style="fill: #ffffff; stroke: #d92523"/>
     <use xlink:href="#m909f926597" x="368.395517" y="165.195078" style="fill: #ffffff; stroke: #d92523"/>
     <use xlink:href="#m909f926597" x="377.660772" y="160.403896" style="fill: #ffffff; stroke: #d92523"/>
     <use xlink:href="#m909f926597" x="386.926027" y="161.37896" style="fill: #ffffff; stroke: #d92523"/>
     <use xlink:href="#m909f926597" x="396.191283" y="157.28457" style="fill: #ffffff; stroke: #d92523"/>
     <use xlink:href="#m909f926597" x="405.456538" y="158.016716" style="fill: #ffffff; stroke: #d92523"/>
     <use xlink:href="#m909f926597" x="414.721793" y="155.868033" style="fill: #ffffff; stroke: #d92523"/>
     <use xlink:href="#m909f926597" x="423.987049" y="154.227349" style="fill: #ffffff; stroke: #d92523"/>
     <use xlink:href="#m909f926597" x="433.252304" y="152.799155" style="fill: #ffffff; stroke: #d92523"/>
     <use xlink:href="#m909f926597" x="442.517559" y="152.019603" style="fill: #ffffff; stroke: #d92523"/>
     <use xlink:href="#m909f926597" x="451.782814" y="150.622382" style="fill: #ffffff; stroke: #d92523"/>
     <use xlink:href="#m909f926597" x="461.04807" y="151.364136" style="fill: #ffffff; stroke: #d92523"/>
     <use xlink:href="#m909f926597" x="470.313325" y="151.410295" style="fill: #ffffff; stroke: #d92523"/>
     <use xlink:href="#m909f926597" x="479.57858" y="151.427427" style="fill: #ffffff; stroke: #d92523"/>
     <use xlink:href="#m909f926597" x="488.843836" y="152.267134" style="fill: #ffffff; stroke: #d92523"/>
     <use xlink:href="#m909f926597" x="498.109091" y="149.961843" style="fill: #ffffff; stroke: #d92523"/>
    </g>
   </g>
   <g id="patch_3">
    <path d="M 72 256.32 
L 72 34.56 
" style="fill: none; stroke: #000000; stroke-width: 0.8; stroke-linejoin: miter; stroke-linecap: square"/>
   </g>
   <g id="patch_4">
    <path d="M 518.4 256.32 
L 518.4 34.56 
" style="fill: none; stroke: #000000; stroke-width: 0.8; stroke-linejoin: miter; stroke-linecap: square"/>
   </g>
   <g id="patch_5">
    <path d="M 72 256.32 
L 518.4 256.32 
" style="fill: none; stroke: #000000; stroke-width: 0.8; stroke-linejoin: miter; stroke-linecap: square"/>
   </g>
   <g id="patch_6">
    <path d="M 72 34.56 
L 518.4 34.56 
" style="fill: none; stroke: #000000; stroke-width: 0.8; stroke-linejoin: miter; stroke-linecap: square"/>
   </g>
   <g id="legend_1">
    <g id="patch_7">
     <path d="M 389.095781 87.557109 
L 511.05 87.557109 
Q 513.15 87.557109 513.15 85.457109 
L 513.15 41.91 
Q 513.15 39.81 511.05 39.81 
L 389.095781 39.81 
Q 386.995781 39.81 386.995781 41.91 
L 386.995781 85.457109 
Q 386.995781 87.557109 389.095781 87.557109 
z
" style="fill: #ffffff; opacity: 0.8; stroke: #cccccc; stroke-linejoin: miter"/>
    </g>
    <g id="line2d_13">
     <path d="M 391.195781 47.685 
L 401.695781 47.685 
L 412.195781 47.685 
" style="fill: none; stroke: #d92523; stroke-width: 1.5; stroke-linecap: square"/>
     <g>
      <use xlink:href="#m909f926597" x="401.695781" y="47.685" style="fill: #ffffff; stroke: #d92523"/>
     </g>
    </g>
    <g id="text_14">
     <!-- Natural Connectivity -->
     <g transform="translate(420.595781 51.36) scale(0.105 -0.105)">
      <use xlink:href="#TimesNewRomanPSMT-4e"/>
      <use xlink:href="#TimesNewRomanPSMT-61" x="72.216797"/>
      <use xlink:href="#TimesNewRomanPSMT-74" x="116.601562"/>
      <use xlink:href="#TimesNewRomanPSMT-75" x="144.384766"/>
      <use xlink:href="#TimesNewRomanPSMT-72" x="194.384766"/>
      <use xlink:href="#TimesNewRomanPSMT-61" x="227.685547"/>
      <use xlink:href="#TimesNewRomanPSMT-6c" x="272.070312"/>
      <use xlink:href="#TimesNewRomanPSMT-20" x="299.853516"/>
      <use xlink:href="#TimesNewRomanPSMT-43" x="324.853516"/>
      <use xlink:href="#TimesNewRomanPSMT-6f" x="391.552734"/>
      <use xlink:href="#TimesNewRomanPSMT-6e" x="441.552734"/>
      <use xlink:href="#TimesNewRomanPSMT-6e" x="491.552734"/>
      <use xlink:href="#TimesNewRomanPSMT-65" x="541.552734"/>
      <use xlink:href="#TimesNewRomanPSMT-63" x="585.9375"/>
      <use xlink:href="#TimesNewRomanPSMT-74" x="630.322266"/>
      <use xlink:href="#TimesNewRomanPSMT-69" x="658.105469"/>
      <use xlink:href="#TimesNewRomanPSMT-76" x="685.888672"/>
      <use xlink:href="#TimesNewRomanPSMT-69" x="735.888672"/>
      <use xlink:href="#TimesNewRomanPSMT-74" x="763.671875"/>
      <use xlink:href="#TimesNewRomanPSMT-79" x="791.455078"/>
     </g>
    </g>
    <g id="line2d_14">
     <path d="M 391.195781 62.550703 
L 401.695781 62.550703 
L 412.195781 62.550703 
" style="fill: none; stroke: #00ff00; stroke-width: 1.5; stroke-linecap: square"/>
     <defs>
      <path id="m831a44e7fc" d="M 0 1.5 
C 0.397805 1.5 0.77937 1.341951 1.06066 1.06066 
C 1.341951 0.77937 1.5 0.397805 1.5 0 
C 1.5 -0.397805 1.341951 -0.77937 1.06066 -1.06066 
C 0.77937 -1.341951 0.397805 -1.5 0 -1.5 
C -0.397805 -1.5 -0.77937 -1.341951 -1.06066 -1.06066 
C -1.341951 -0.77937 -1.5 -0.397805 -1.5 0 
C -1.5 0.397805 -1.341951 0.77937 -1.06066 1.06066 
C -0.77937 1.341951 -0.397805 1.5 0 1.5 
z
" style="stroke: #00ff00"/>
     </defs>
     <g>
      <use xlink:href="#m831a44e7fc" x="401.695781" y="62.550703" style="fill: #ffffff; stroke: #00ff00"/>
     </g>
    </g>
    <g id="text_15">
     <!-- communicate_circle -->
     <g transform="translate(420.595781 66.225703) scale(0.105 -0.105)">
      <defs>
       <path id="TimesNewRomanPSMT-5f" d="M 3256 -1381 
L -53 -1381 
L -53 -1119 
L 3256 -1119 
L 3256 -1381 
z
" transform="scale(0.015625)"/>
      </defs>
      <use xlink:href="#TimesNewRomanPSMT-63"/>
      <use xlink:href="#TimesNewRomanPSMT-6f" x="44.384766"/>
      <use xlink:href="#TimesNewRomanPSMT-6d" x="94.384766"/>
      <use xlink:href="#TimesNewRomanPSMT-6d" x="172.167969"/>
      <use xlink:href="#TimesNewRomanPSMT-75" x="249.951172"/>
      <use xlink:href="#TimesNewRomanPSMT-6e" x="299.951172"/>
      <use xlink:href="#TimesNewRomanPSMT-69" x="349.951172"/>
      <use xlink:href="#TimesNewRomanPSMT-63" x="377.734375"/>
      <use xlink:href="#TimesNewRomanPSMT-61" x="422.119141"/>
      <use xlink:href="#TimesNewRomanPSMT-74" x="466.503906"/>
      <use xlink:href="#TimesNewRomanPSMT-65" x="494.287109"/>
      <use xlink:href="#TimesNewRomanPSMT-5f" x="538.671875"/>
      <use xlink:href="#TimesNewRomanPSMT-63" x="588.671875"/>
      <use xlink:href="#TimesNewRomanPSMT-69" x="633.056641"/>
      <use xlink:href="#TimesNewRomanPSMT-72" x="660.839844"/>
      <use xlink:href="#TimesNewRomanPSMT-63" x="694.140625"/>
      <use xlink:href="#TimesNewRomanPSMT-6c" x="738.525391"/>
      <use xlink:href="#TimesNewRomanPSMT-65" x="766.308594"/>
     </g>
    </g>
    <g id="line2d_15">
     <path d="M 391.195781 77.416406 
L 401.695781 77.416406 
L 412.195781 77.416406 
" style="fill: none; stroke: #2e7ebb; stroke-width: 1.5; stroke-linecap: square"/>
    </g>
    <g id="text_16">
     <!-- res_energy_avg -->
     <g transform="translate(420.595781 81.091406) scale(0.105 -0.105)">
      <defs>
       <path id="TimesNewRomanPSMT-67" d="M 966 1044 
Q 703 1172 562 1401 
Q 422 1631 422 1909 
Q 422 2334 742 2640 
Q 1063 2947 1563 2947 
Q 1972 2947 2272 2747 
L 2878 2747 
Q 3013 2747 3034 2739 
Q 3056 2731 3066 2713 
Q 3084 2684 3084 2613 
Q 3084 2531 3069 2500 
Q 3059 2484 3036 2475 
Q 3013 2466 2878 2466 
L 2506 2466 
Q 2681 2241 2681 1891 
Q 2681 1491 2375 1206 
Q 2069 922 1553 922 
Q 1341 922 1119 984 
Q 981 866 932 777 
Q 884 688 884 625 
Q 884 572 936 522 
Q 988 472 1138 450 
Q 1225 438 1575 428 
Q 2219 413 2409 384 
Q 2700 344 2873 169 
Q 3047 -6 3047 -263 
Q 3047 -616 2716 -925 
Q 2228 -1381 1444 -1381 
Q 841 -1381 425 -1109 
Q 191 -953 191 -784 
Q 191 -709 225 -634 
Q 278 -519 444 -313 
Q 466 -284 763 25 
Q 600 122 533 198 
Q 466 275 466 372 
Q 466 481 555 628 
Q 644 775 966 1044 
z
M 1509 2797 
Q 1278 2797 1122 2612 
Q 966 2428 966 2047 
Q 966 1553 1178 1281 
Q 1341 1075 1591 1075 
Q 1828 1075 1981 1253 
Q 2134 1431 2134 1813 
Q 2134 2309 1919 2591 
Q 1759 2797 1509 2797 
z
M 934 0 
Q 788 -159 713 -296 
Q 638 -434 638 -550 
Q 638 -700 819 -813 
Q 1131 -1006 1722 -1006 
Q 2284 -1006 2551 -807 
Q 2819 -609 2819 -384 
Q 2819 -222 2659 -153 
Q 2497 -84 2016 -72 
Q 1313 -53 934 0 
z
" transform="scale(0.015625)"/>
      </defs>
      <use xlink:href="#TimesNewRomanPSMT-72"/>
      <use xlink:href="#TimesNewRomanPSMT-65" x="33.300781"/>
      <use xlink:href="#TimesNewRomanPSMT-73" x="77.685547"/>
      <use xlink:href="#TimesNewRomanPSMT-5f" x="116.601562"/>
      <use xlink:href="#TimesNewRomanPSMT-65" x="166.601562"/>
      <use xlink:href="#TimesNewRomanPSMT-6e" x="210.986328"/>
      <use xlink:href="#TimesNewRomanPSMT-65" x="260.986328"/>
      <use xlink:href="#TimesNewRomanPSMT-72" x="305.371094"/>
      <use xlink:href="#TimesNewRomanPSMT-67" x="336.921875"/>
      <use xlink:href="#TimesNewRomanPSMT-79" x="386.921875"/>
      <use xlink:href="#TimesNewRomanPSMT-5f" x="436.921875"/>
      <use xlink:href="#TimesNewRomanPSMT-61" x="486.921875"/>
      <use xlink:href="#TimesNewRomanPSMT-76" x="531.306641"/>
      <use xlink:href="#TimesNewRomanPSMT-67" x="581.306641"/>
     </g>
    </g>
   </g>
  </g>
  <g id="axes_2">
   <g id="matplotlib.axis_3">
    <g id="ytick_7">
     <g id="line2d_16">
      <defs>
       <path id="m152e094bc0" d="M 0 0 
L 3.5 0 
" style="stroke: #000000; stroke-width: 0.8"/>
      </defs>
      <g>
       <use xlink:href="#m152e094bc0" x="518.4" y="246.24" style="stroke: #000000; stroke-width: 0.8"/>
      </g>
     </g>
     <g id="text_17">
      <!-- 0 -->
      <g transform="translate(525.4 249.885469) scale(0.105 -0.105)">
       <use xlink:href="#TimesNewRomanPSMT-30"/>
      </g>
     </g>
    </g>
    <g id="ytick_8">
     <g id="line2d_17">
      <g>
       <use xlink:href="#m152e094bc0" x="518.4" y="210.221483" style="stroke: #000000; stroke-width: 0.8"/>
      </g>
     </g>
     <g id="text_18">
      <!-- 1 -->
      <g transform="translate(525.4 213.866952) scale(0.105 -0.105)">
       <use xlink:href="#TimesNewRomanPSMT-31"/>
      </g>
     </g>
    </g>
    <g id="ytick_9">
     <g id="line2d_18">
      <g>
       <use xlink:href="#m152e094bc0" x="518.4" y="174.202967" style="stroke: #000000; stroke-width: 0.8"/>
      </g>
     </g>
     <g id="text_19">
      <!-- 2 -->
      <g transform="translate(525.4 177.848435) scale(0.105 -0.105)">
       <use xlink:href="#TimesNewRomanPSMT-32"/>
      </g>
     </g>
    </g>
    <g id="ytick_10">
     <g id="line2d_19">
      <g>
       <use xlink:href="#m152e094bc0" x="518.4" y="138.18445" style="stroke: #000000; stroke-width: 0.8"/>
      </g>
     </g>
     <g id="text_20">
      <!-- 3 -->
      <g transform="translate(525.4 141.829919) scale(0.105 -0.105)">
       <use xlink:href="#TimesNewRomanPSMT-33"/>
      </g>
     </g>
    </g>
    <g id="ytick_11">
     <g id="line2d_20">
      <g>
       <use xlink:href="#m152e094bc0" x="518.4" y="102.165933" style="stroke: #000000; stroke-width: 0.8"/>
      </g>
     </g>
     <g id="text_21">
      <!-- 4 -->
      <g transform="translate(525.4 105.811402) scale(0.105 -0.105)">
       <use xlink:href="#TimesNewRomanPSMT-34"/>
      </g>
     </g>
    </g>
    <g id="ytick_12">
     <g id="line2d_21">
      <g>
       <use xlink:href="#m152e094bc0" x="518.4" y="66.147417" style="stroke: #000000; stroke-width: 0.8"/>
      </g>
     </g>
     <g id="text_22">
      <!-- 5 -->
      <g transform="translate(525.4 69.792885) scale(0.105 -0.105)">
       <use xlink:href="#TimesNewRomanPSMT-35"/>
      </g>
     </g>
    </g>
    <g id="text_23">
     <!-- res_energy_avg -->
     <g transform="translate(541.92125 178.584727) rotate(-90) scale(0.105 -0.105)">
      <use xlink:href="#TimesNewRomanPSMT-72"/>
      <use xlink:href="#TimesNewRomanPSMT-65" x="33.300781"/>
      <use xlink:href="#TimesNewRomanPSMT-73" x="77.685547"/>
      <use xlink:href="#TimesNewRomanPSMT-5f" x="116.601562"/>
      <use xlink:href="#TimesNewRomanPSMT-65" x="166.601562"/>
      <use xlink:href="#TimesNewRomanPSMT-6e" x="210.986328"/>
      <use xlink:href="#TimesNewRomanPSMT-65" x="260.986328"/>
      <use xlink:href="#TimesNewRomanPSMT-72" x="305.371094"/>
      <use xlink:href="#TimesNewRomanPSMT-67" x="336.921875"/>
      <use xlink:href="#TimesNewRomanPSMT-79" x="386.921875"/>
      <use xlink:href="#TimesNewRomanPSMT-5f" x="436.921875"/>
      <use xlink:href="#TimesNewRomanPSMT-61" x="486.921875"/>
      <use xlink:href="#TimesNewRomanPSMT-76" x="531.306641"/>
      <use xlink:href="#TimesNewRomanPSMT-67" x="581.306641"/>
     </g>
    </g>
   </g>
   <g id="line2d_22">
    <path d="M 92.290909 246.24 
L 93.217435 246.24 
L 94.14396 222.281443 
L 95.997011 169.222146 
L 96.923537 136.190145 
L 97.850062 110.225725 
L 98.776588 137.187981 
L 99.703113 134.932218 
L 100.629639 114.736728 
L 101.556164 114.979263 
L 102.48269 169.167098 
L 103.409215 166.445479 
L 104.335741 64.041223 
L 105.262267 68.014457 
L 106.188792 105.714326 
L 107.115318 130.749868 
L 108.041843 122.972012 
L 108.968369 130.39967 
L 109.894894 133.64405 
L 110.82142 114.853576 
L 111.747945 92.856674 
L 112.674471 103.404527 
L 113.600996 70.690979 
L 114.527522 71.841635 
L 115.454047 90.403727 
L 116.380573 143.520281 
L 117.307098 58.66895 
L 118.233624 111.906241 
L 119.160149 116.014507 
L 120.086675 113.357268 
L 121.0132 58.480207 
L 121.939726 60.461093 
L 122.866252 79.68668 
L 123.792777 87.248201 
L 124.719303 71.537264 
L 125.645828 99.278149 
L 126.572354 88.960315 
L 127.498879 68.013519 
L 128.425405 76.392088 
L 129.35193 93.771392 
L 130.278456 99.357834 
L 131.204981 66.29882 
L 132.131507 75.708601 
L 133.058032 76.080423 
L 133.984558 59.435917 
L 134.911083 83.468246 
L 135.837609 97.276455 
L 136.764134 71.026208 
L 137.69066 111.915616 
L 138.617186 115.376405 
L 139.543711 62.712272 
L 140.470237 82.007913 
L 141.396762 70.646976 
L 142.323288 47.478734 
L 143.249813 52.624344 
L 144.176339 54.277238 
L 145.102864 47.956294 
L 146.02939 67.196508 
L 146.955915 65.874373 
L 147.882441 67.743442 
L 148.808966 46.663582 
L 149.735492 49.773028 
L 150.662017 70.039674 
L 151.588543 70.840216 
L 152.515068 78.679752 
L 153.441594 70.822558 
L 154.36812 53.924274 
L 155.294645 58.62655 
L 156.221171 57.252876 
L 157.147696 79.4206 
L 158.074222 65.447399 
L 159.000747 53.916874 
L 159.927273 65.084683 
L 160.853798 73.160601 
L 161.780324 76.134987 
L 162.706849 82.990549 
L 163.633375 98.215574 
L 165.486426 93.107276 
L 166.412951 71.665265 
L 167.339477 59.12623 
L 168.266002 49.185661 
L 169.192528 54.677299 
L 170.119054 54.842776 
L 171.045579 86.453547 
L 171.972105 87.801957 
L 172.89863 92.270855 
L 173.825156 107.958932 
L 174.751681 98.250411 
L 175.678207 75.735239 
L 176.604732 77.851236 
L 177.531258 78.140832 
L 178.457783 81.665827 
L 179.384309 82.783561 
L 180.310834 56.276611 
L 181.23736 56.771465 
L 182.163885 86.851003 
L 183.090411 88.921148 
L 184.016936 68.863772 
L 184.943462 70.80299 
L 185.869988 73.097605 
L 186.796513 78.328444 
L 187.723039 76.274827 
L 188.649564 84.82123 
L 189.57609 84.156834 
L 190.502615 59.972664 
L 191.429141 60.601058 
L 192.355666 65.521981 
L 193.282192 61.298215 
L 194.208717 61.423456 
L 197.914819 65.803739 
L 198.841345 68.274773 
L 199.76787 94.557214 
L 200.694396 81.352827 
L 201.620922 80.930184 
L 202.547447 113.529559 
L 203.473973 120.350125 
L 204.400498 121.54212 
L 205.327024 124.692508 
L 206.253549 102.141838 
L 207.180075 102.566414 
L 208.1066 93.289452 
L 209.033126 100.255733 
L 209.959651 114.643847 
L 211.812702 104.08331 
L 213.665753 110.780068 
L 214.592279 110.363748 
L 215.518804 112.167828 
L 216.44533 114.578436 
L 217.371856 117.708105 
L 218.298381 118.04907 
L 219.224907 120.366677 
L 220.151432 121.66788 
L 221.077958 124.126448 
L 222.004483 71.859553 
L 222.931009 68.410473 
L 223.857534 70.390694 
L 224.78406 71.809429 
L 225.710585 73.562948 
L 226.637111 71.777135 
L 227.563636 56.220329 
L 229.416687 102.677775 
L 238.681943 103.945204 
L 247.947198 121.345618 
L 257.212453 86.603211 
L 266.477709 125.898894 
L 275.742964 145.525124 
L 285.008219 165.681529 
L 294.273474 47.707779 
L 303.53873 50.317987 
L 312.803985 60.557635 
L 322.06924 44.64 
L 331.334496 50.465032 
L 340.599751 61.881452 
L 349.865006 78.701229 
L 359.130262 131.899088 
L 368.395517 136.128608 
L 377.660772 140.113177 
L 386.926027 158.323277 
L 396.191283 147.169814 
L 405.456538 143.94546 
L 414.721793 156.154819 
L 423.987049 155.933418 
L 433.252304 152.535149 
L 442.517559 185.304319 
L 451.782814 184.24634 
L 461.04807 174.455967 
L 470.313325 179.433257 
L 479.57858 197.50214 
L 488.843836 205.487183 
L 498.109091 213.869237 
L 498.109091 213.869237 
" clip-path="url(#pc29a729f53)" style="fill: none; stroke: #2e7ebb; stroke-width: 1.5; stroke-linecap: square"/>
   </g>
   <g id="patch_8">
    <path d="M 72 256.32 
L 72 34.56 
" style="fill: none; stroke: #000000; stroke-width: 0.8; stroke-linejoin: miter; stroke-linecap: square"/>
   </g>
   <g id="patch_9">
    <path d="M 518.4 256.32 
L 518.4 34.56 
" style="fill: none; stroke: #000000; stroke-width: 0.8; stroke-linejoin: miter; stroke-linecap: square"/>
   </g>
   <g id="patch_10">
    <path d="M 72 256.32 
L 518.4 256.32 
" style="fill: none; stroke: #000000; stroke-width: 0.8; stroke-linejoin: miter; stroke-linecap: square"/>
   </g>
   <g id="patch_11">
    <path d="M 72 34.56 
L 518.4 34.56 
" style="fill: none; stroke: #000000; stroke-width: 0.8; stroke-linejoin: miter; stroke-linecap: square"/>
   </g>
  </g>
  <g id="axes_3">
   <g id="matplotlib.axis_4">
    <g id="ytick_13">
     <g id="line2d_23">
      <g>
       <use xlink:href="#m152e094bc0" x="558.4" y="246.319842" style="stroke: #000000; stroke-width: 0.8"/>
      </g>
     </g>
     <g id="text_24">
      <!-- 0 -->
      <g transform="translate(565.4 249.96531) scale(0.105 -0.105)">
       <use xlink:href="#TimesNewRomanPSMT-30"/>
      </g>
     </g>
    </g>
    <g id="ytick_14">
     <g id="line2d_24">
      <g>
       <use xlink:href="#m152e094bc0" x="558.4" y="206.39905" style="stroke: #000000; stroke-width: 0.8"/>
      </g>
     </g>
     <g id="text_25">
      <!-- 500 -->
      <g transform="translate(565.4 210.044518) scale(0.105 -0.105)">
       <use xlink:href="#TimesNewRomanPSMT-35"/>
       <use xlink:href="#TimesNewRomanPSMT-30" x="50"/>
       <use xlink:href="#TimesNewRomanPSMT-30" x="100"/>
      </g>
     </g>
    </g>
    <g id="ytick_15">
     <g id="line2d_25">
      <g>
       <use xlink:href="#m152e094bc0" x="558.4" y="166.478257" style="stroke: #000000; stroke-width: 0.8"/>
      </g>
     </g>
     <g id="text_26">
      <!-- 1000 -->
      <g transform="translate(565.4 170.123726) scale(0.105 -0.105)">
       <use xlink:href="#TimesNewRomanPSMT-31"/>
       <use xlink:href="#TimesNewRomanPSMT-30" x="50"/>
       <use xlink:href="#TimesNewRomanPSMT-30" x="100"/>
       <use xlink:href="#TimesNewRomanPSMT-30" x="150"/>
      </g>
     </g>
    </g>
    <g id="ytick_16">
     <g id="line2d_26">
      <g>
       <use xlink:href="#m152e094bc0" x="558.4" y="126.557465" style="stroke: #000000; stroke-width: 0.8"/>
      </g>
     </g>
     <g id="text_27">
      <!-- 1500 -->
      <g transform="translate(565.4 130.202934) scale(0.105 -0.105)">
       <use xlink:href="#TimesNewRomanPSMT-31"/>
       <use xlink:href="#TimesNewRomanPSMT-35" x="50"/>
       <use xlink:href="#TimesNewRomanPSMT-30" x="100"/>
       <use xlink:href="#TimesNewRomanPSMT-30" x="150"/>
      </g>
     </g>
    </g>
    <g id="ytick_17">
     <g id="line2d_27">
      <g>
       <use xlink:href="#m152e094bc0" x="558.4" y="86.636673" style="stroke: #000000; stroke-width: 0.8"/>
      </g>
     </g>
     <g id="text_28">
      <!-- 2000 -->
      <g transform="translate(565.4 90.282142) scale(0.105 -0.105)">
       <use xlink:href="#TimesNewRomanPSMT-32"/>
       <use xlink:href="#TimesNewRomanPSMT-30" x="50"/>
       <use xlink:href="#TimesNewRomanPSMT-30" x="100"/>
       <use xlink:href="#TimesNewRomanPSMT-30" x="150"/>
      </g>
     </g>
    </g>
    <g id="ytick_18">
     <g id="line2d_28">
      <g>
       <use xlink:href="#m152e094bc0" x="558.4" y="46.715881" style="stroke: #000000; stroke-width: 0.8"/>
      </g>
     </g>
     <g id="text_29">
      <!-- 2500 -->
      <g transform="translate(565.4 50.36135) scale(0.105 -0.105)">
       <use xlink:href="#TimesNewRomanPSMT-32"/>
       <use xlink:href="#TimesNewRomanPSMT-35" x="50"/>
       <use xlink:href="#TimesNewRomanPSMT-30" x="100"/>
       <use xlink:href="#TimesNewRomanPSMT-30" x="150"/>
      </g>
     </g>
    </g>
    <g id="text_30">
     <!-- communicate_circle -->
     <g transform="translate(597.690938 188.002734) rotate(-90) scale(0.105 -0.105)">
      <use xlink:href="#TimesNewRomanPSMT-63"/>
      <use xlink:href="#TimesNewRomanPSMT-6f" x="44.384766"/>
      <use xlink:href="#TimesNewRomanPSMT-6d" x="94.384766"/>
      <use xlink:href="#TimesNewRomanPSMT-6d" x="172.167969"/>
      <use xlink:href="#TimesNewRomanPSMT-75" x="249.951172"/>
      <use xlink:href="#TimesNewRomanPSMT-6e" x="299.951172"/>
      <use xlink:href="#TimesNewRomanPSMT-69" x="349.951172"/>
      <use xlink:href="#TimesNewRomanPSMT-63" x="377.734375"/>
      <use xlink:href="#TimesNewRomanPSMT-61" x="422.119141"/>
      <use xlink:href="#TimesNewRomanPSMT-74" x="466.503906"/>
      <use xlink:href="#TimesNewRomanPSMT-65" x="494.287109"/>
      <use xlink:href="#TimesNewRomanPSMT-5f" x="538.671875"/>
      <use xlink:href="#TimesNewRomanPSMT-63" x="588.671875"/>
      <use xlink:href="#TimesNewRomanPSMT-69" x="633.056641"/>
      <use xlink:href="#TimesNewRomanPSMT-72" x="660.839844"/>
      <use xlink:href="#TimesNewRomanPSMT-63" x="694.140625"/>
      <use xlink:href="#TimesNewRomanPSMT-6c" x="738.525391"/>
      <use xlink:href="#TimesNewRomanPSMT-65" x="766.308594"/>
     </g>
    </g>
   </g>
   <g id="line2d_29">
    <path d="M 92.290909 44.64 
L 93.217435 95.099881 
L 94.14396 125.28 
L 95.070486 145.479921 
L 95.997011 159.851406 
L 96.923537 170.709861 
L 97.850062 179.093228 
L 98.776588 184.682139 
L 99.703113 193.464713 
L 100.629639 200.091564 
L 101.556164 205.201426 
L 103.409215 205.201426 
L 104.335741 209.353188 
L 105.262267 212.706535 
L 106.188792 226.279604 
L 109.894894 226.279604 
L 110.82142 228.275644 
L 111.747945 231.309624 
L 112.674471 231.309624 
L 113.600996 237.297743 
L 115.454047 237.297743 
L 116.380573 233.465347 
L 117.307098 238.814733 
L 118.233624 237.297743 
L 120.086675 237.297743 
L 121.0132 240.810772 
L 123.792777 240.810772 
L 124.719303 241.369663 
L 125.645828 240.810772 
L 126.572354 241.369663 
L 127.498879 242.168079 
L 128.425405 242.168079 
L 129.35193 242.567287 
L 130.278456 242.567287 
L 131.204981 243.605228 
L 133.058032 243.605228 
L 133.984558 243.924594 
L 134.911083 212.626693 
L 135.837609 243.924594 
L 136.764134 244.164119 
L 137.69066 244.004436 
L 138.617186 244.004436 
L 139.543711 244.563327 
L 140.470237 244.403644 
L 141.396762 244.563327 
L 142.323288 243.525386 
L 144.176339 243.525386 
L 145.102864 243.764911 
L 146.955915 243.844752 
L 147.882441 243.844752 
L 148.808966 244.084277 
L 149.735492 244.802851 
L 153.441594 244.802851 
L 154.36812 244.962535 
L 156.221171 244.962535 
L 157.147696 244.563327 
L 158.074222 243.924594 
L 159.000747 244.882693 
L 160.853798 244.802851 
L 165.486426 244.72301 
L 166.412951 245.122218 
L 169.192528 245.281901 
L 170.119054 245.281901 
L 171.045579 244.882693 
L 174.751681 244.882693 
L 175.678207 245.521426 
L 187.723039 245.601267 
L 188.649564 245.76095 
L 199.76787 245.76095 
L 200.694396 245.920634 
L 205.327024 245.840792 
L 206.253549 246.080317 
L 285.008219 246.160158 
L 294.273474 246.24 
L 312.803985 246.160158 
L 498.109091 246.24 
L 498.109091 246.24 
" clip-path="url(#pc29a729f53)" style="fill: none; stroke: #00ff00; stroke-width: 1.5; stroke-linecap: square"/>
    <g clip-path="url(#pc29a729f53)">
     <use xlink:href="#m831a44e7fc" x="92.290909" y="44.64" style="fill: #ffffff; stroke: #00ff00"/>
     <use xlink:href="#m831a44e7fc" x="93.217435" y="95.099881" style="fill: #ffffff; stroke: #00ff00"/>
     <use xlink:href="#m831a44e7fc" x="94.14396" y="125.28" style="fill: #ffffff; stroke: #00ff00"/>
     <use xlink:href="#m831a44e7fc" x="95.070486" y="145.479921" style="fill: #ffffff; stroke: #00ff00"/>
     <use xlink:href="#m831a44e7fc" x="95.997011" y="159.851406" style="fill: #ffffff; stroke: #00ff00"/>
     <use xlink:href="#m831a44e7fc" x="96.923537" y="170.709861" style="fill: #ffffff; stroke: #00ff00"/>
     <use xlink:href="#m831a44e7fc" x="97.850062" y="179.093228" style="fill: #ffffff; stroke: #00ff00"/>
     <use xlink:href="#m831a44e7fc" x="98.776588" y="184.682139" style="fill: #ffffff; stroke: #00ff00"/>
     <use xlink:href="#m831a44e7fc" x="99.703113" y="193.464713" style="fill: #ffffff; stroke: #00ff00"/>
     <use xlink:href="#m831a44e7fc" x="100.629639" y="200.091564" style="fill: #ffffff; stroke: #00ff00"/>
     <use xlink:href="#m831a44e7fc" x="101.556164" y="205.201426" style="fill: #ffffff; stroke: #00ff00"/>
     <use xlink:href="#m831a44e7fc" x="102.48269" y="205.201426" style="fill: #ffffff; stroke: #00ff00"/>
     <use xlink:href="#m831a44e7fc" x="103.409215" y="205.201426" style="fill: #ffffff; stroke: #00ff00"/>
     <use xlink:href="#m831a44e7fc" x="104.335741" y="209.353188" style="fill: #ffffff; stroke: #00ff00"/>
     <use xlink:href="#m831a44e7fc" x="105.262267" y="212.706535" style="fill: #ffffff; stroke: #00ff00"/>
     <use xlink:href="#m831a44e7fc" x="106.188792" y="226.279604" style="fill: #ffffff; stroke: #00ff00"/>
     <use xlink:href="#m831a44e7fc" x="107.115318" y="226.279604" style="fill: #ffffff; stroke: #00ff00"/>
     <use xlink:href="#m831a44e7fc" x="108.041843" y="226.279604" style="fill: #ffffff; stroke: #00ff00"/>
     <use xlink:href="#m831a44e7fc" x="108.968369" y="226.279604" style="fill: #ffffff; stroke: #00ff00"/>
     <use xlink:href="#m831a44e7fc" x="109.894894" y="226.279604" style="fill: #ffffff; stroke: #00ff00"/>
     <use xlink:href="#m831a44e7fc" x="110.82142" y="228.275644" style="fill: #ffffff; stroke: #00ff00"/>
     <use xlink:href="#m831a44e7fc" x="111.747945" y="231.309624" style="fill: #ffffff; stroke: #00ff00"/>
     <use xlink:href="#m831a44e7fc" x="112.674471" y="231.309624" style="fill: #ffffff; stroke: #00ff00"/>
     <use xlink:href="#m831a44e7fc" x="113.600996" y="237.297743" style="fill: #ffffff; stroke: #00ff00"/>
     <use xlink:href="#m831a44e7fc" x="114.527522" y="237.297743" style="fill: #ffffff; stroke: #00ff00"/>
     <use xlink:href="#m831a44e7fc" x="115.454047" y="237.297743" style="fill: #ffffff; stroke: #00ff00"/>
     <use xlink:href="#m831a44e7fc" x="116.380573" y="233.465347" style="fill: #ffffff; stroke: #00ff00"/>
     <use xlink:href="#m831a44e7fc" x="117.307098" y="238.814733" style="fill: #ffffff; stroke: #00ff00"/>
     <use xlink:href="#m831a44e7fc" x="118.233624" y="237.297743" style="fill: #ffffff; stroke: #00ff00"/>
     <use xlink:href="#m831a44e7fc" x="119.160149" y="237.297743" style="fill: #ffffff; stroke: #00ff00"/>
     <use xlink:href="#m831a44e7fc" x="120.086675" y="237.297743" style="fill: #ffffff; stroke: #00ff00"/>
     <use xlink:href="#m831a44e7fc" x="121.0132" y="240.810772" style="fill: #ffffff; stroke: #00ff00"/>
     <use xlink:href="#m831a44e7fc" x="121.939726" y="240.810772" style="fill: #ffffff; stroke: #00ff00"/>
     <use xlink:href="#m831a44e7fc" x="122.866252" y="240.810772" style="fill: #ffffff; stroke: #00ff00"/>
     <use xlink:href="#m831a44e7fc" x="123.792777" y="240.810772" style="fill: #ffffff; stroke: #00ff00"/>
     <use xlink:href="#m831a44e7fc" x="124.719303" y="241.369663" style="fill: #ffffff; stroke: #00ff00"/>
     <use xlink:href="#m831a44e7fc" x="125.645828" y="240.810772" style="fill: #ffffff; stroke: #00ff00"/>
     <use xlink:href="#m831a44e7fc" x="126.572354" y="241.369663" style="fill: #ffffff; stroke: #00ff00"/>
     <use xlink:href="#m831a44e7fc" x="127.498879" y="242.168079" style="fill: #ffffff; stroke: #00ff00"/>
     <use xlink:href="#m831a44e7fc" x="128.425405" y="242.168079" style="fill: #ffffff; stroke: #00ff00"/>
     <use xlink:href="#m831a44e7fc" x="129.35193" y="242.567287" style="fill: #ffffff; stroke: #00ff00"/>
     <use xlink:href="#m831a44e7fc" x="130.278456" y="242.567287" style="fill: #ffffff; stroke: #00ff00"/>
     <use xlink:href="#m831a44e7fc" x="131.204981" y="243.605228" style="fill: #ffffff; stroke: #00ff00"/>
     <use xlink:href="#m831a44e7fc" x="132.131507" y="243.605228" style="fill: #ffffff; stroke: #00ff00"/>
     <use xlink:href="#m831a44e7fc" x="133.058032" y="243.605228" style="fill: #ffffff; stroke: #00ff00"/>
     <use xlink:href="#m831a44e7fc" x="133.984558" y="243.924594" style="fill: #ffffff; stroke: #00ff00"/>
     <use xlink:href="#m831a44e7fc" x="134.911083" y="212.626693" style="fill: #ffffff; stroke: #00ff00"/>
     <use xlink:href="#m831a44e7fc" x="135.837609" y="243.924594" style="fill: #ffffff; stroke: #00ff00"/>
     <use xlink:href="#m831a44e7fc" x="136.764134" y="244.164119" style="fill: #ffffff; stroke: #00ff00"/>
     <use xlink:href="#m831a44e7fc" x="137.69066" y="244.004436" style="fill: #ffffff; stroke: #00ff00"/>
     <use xlink:href="#m831a44e7fc" x="138.617186" y="244.004436" style="fill: #ffffff; stroke: #00ff00"/>
     <use xlink:href="#m831a44e7fc" x="139.543711" y="244.563327" style="fill: #ffffff; stroke: #00ff00"/>
     <use xlink:href="#m831a44e7fc" x="140.470237" y="244.403644" style="fill: #ffffff; stroke: #00ff00"/>
     <use xlink:href="#m831a44e7fc" x="141.396762" y="244.563327" style="fill: #ffffff; stroke: #00ff00"/>
     <use xlink:href="#m831a44e7fc" x="142.323288" y="243.525386" style="fill: #ffffff; stroke: #00ff00"/>
     <use xlink:href="#m831a44e7fc" x="143.249813" y="243.525386" style="fill: #ffffff; stroke: #00ff00"/>
     <use xlink:href="#m831a44e7fc" x="144.176339" y="243.525386" style="fill: #ffffff; stroke: #00ff00"/>
     <use xlink:href="#m831a44e7fc" x="145.102864" y="243.764911" style="fill: #ffffff; stroke: #00ff00"/>
     <use xlink:href="#m831a44e7fc" x="146.02939" y="243.844752" style="fill: #ffffff; stroke: #00ff00"/>
     <use xlink:href="#m831a44e7fc" x="146.955915" y="243.844752" style="fill: #ffffff; stroke: #00ff00"/>
     <use xlink:href="#m831a44e7fc" x="147.882441" y="243.844752" style="fill: #ffffff; stroke: #00ff00"/>
     <use xlink:href="#m831a44e7fc" x="148.808966" y="244.084277" style="fill: #ffffff; stroke: #00ff00"/>
     <use xlink:href="#m831a44e7fc" x="149.735492" y="244.802851" style="fill: #ffffff; stroke: #00ff00"/>
     <use xlink:href="#m831a44e7fc" x="150.662017" y="244.802851" style="fill: #ffffff; stroke: #00ff00"/>
     <use xlink:href="#m831a44e7fc" x="151.588543" y="244.802851" style="fill: #ffffff; stroke: #00ff00"/>
     <use xlink:href="#m831a44e7fc" x="152.515068" y="244.802851" style="fill: #ffffff; stroke: #00ff00"/>
     <use xlink:href="#m831a44e7fc" x="153.441594" y="244.802851" style="fill: #ffffff; stroke: #00ff00"/>
     <use xlink:href="#m831a44e7fc" x="154.36812" y="244.962535" style="fill: #ffffff; stroke: #00ff00"/>
     <use xlink:href="#m831a44e7fc" x="155.294645" y="244.962535" style="fill: #ffffff; stroke: #00ff00"/>
     <use xlink:href="#m831a44e7fc" x="156.221171" y="244.962535" style="fill: #ffffff; stroke: #00ff00"/>
     <use xlink:href="#m831a44e7fc" x="157.147696" y="244.563327" style="fill: #ffffff; stroke: #00ff00"/>
     <use xlink:href="#m831a44e7fc" x="158.074222" y="243.924594" style="fill: #ffffff; stroke: #00ff00"/>
     <use xlink:href="#m831a44e7fc" x="159.000747" y="244.882693" style="fill: #ffffff; stroke: #00ff00"/>
     <use xlink:href="#m831a44e7fc" x="159.927273" y="244.802851" style="fill: #ffffff; stroke: #00ff00"/>
     <use xlink:href="#m831a44e7fc" x="160.853798" y="244.802851" style="fill: #ffffff; stroke: #00ff00"/>
     <use xlink:href="#m831a44e7fc" x="161.780324" y="244.802851" style="fill: #ffffff; stroke: #00ff00"/>
     <use xlink:href="#m831a44e7fc" x="162.706849" y="244.802851" style="fill: #ffffff; stroke: #00ff00"/>
     <use xlink:href="#m831a44e7fc" x="163.633375" y="244.72301" style="fill: #ffffff; stroke: #00ff00"/>
     <use xlink:href="#m831a44e7fc" x="164.5599" y="244.72301" style="fill: #ffffff; stroke: #00ff00"/>
     <use xlink:href="#m831a44e7fc" x="165.486426" y="244.72301" style="fill: #ffffff; stroke: #00ff00"/>
     <use xlink:href="#m831a44e7fc" x="166.412951" y="245.122218" style="fill: #ffffff; stroke: #00ff00"/>
     <use xlink:href="#m831a44e7fc" x="167.339477" y="245.202059" style="fill: #ffffff; stroke: #00ff00"/>
     <use xlink:href="#m831a44e7fc" x="168.266002" y="245.281901" style="fill: #ffffff; stroke: #00ff00"/>
     <use xlink:href="#m831a44e7fc" x="169.192528" y="245.281901" style="fill: #ffffff; stroke: #00ff00"/>
     <use xlink:href="#m831a44e7fc" x="170.119054" y="245.281901" style="fill: #ffffff; stroke: #00ff00"/>
     <use xlink:href="#m831a44e7fc" x="171.045579" y="244.882693" style="fill: #ffffff; stroke: #00ff00"/>
     <use xlink:href="#m831a44e7fc" x="171.972105" y="244.882693" style="fill: #ffffff; stroke: #00ff00"/>
     <use xlink:href="#m831a44e7fc" x="172.89863" y="244.882693" style="fill: #ffffff; stroke: #00ff00"/>
     <use xlink:href="#m831a44e7fc" x="173.825156" y="244.802851" style="fill: #ffffff; stroke: #00ff00"/>
     <use xlink:href="#m831a44e7fc" x="174.751681" y="244.882693" style="fill: #ffffff; stroke: #00ff00"/>
     <use xlink:href="#m831a44e7fc" x="175.678207" y="245.521426" style="fill: #ffffff; stroke: #00ff00"/>
     <use xlink:href="#m831a44e7fc" x="176.604732" y="245.521426" style="fill: #ffffff; stroke: #00ff00"/>
     <use xlink:href="#m831a44e7fc" x="177.531258" y="245.521426" style="fill: #ffffff; stroke: #00ff00"/>
     <use xlink:href="#m831a44e7fc" x="178.457783" y="245.521426" style="fill: #ffffff; stroke: #00ff00"/>
     <use xlink:href="#m831a44e7fc" x="179.384309" y="245.521426" style="fill: #ffffff; stroke: #00ff00"/>
     <use xlink:href="#m831a44e7fc" x="180.310834" y="245.601267" style="fill: #ffffff; stroke: #00ff00"/>
     <use xlink:href="#m831a44e7fc" x="181.23736" y="245.601267" style="fill: #ffffff; stroke: #00ff00"/>
     <use xlink:href="#m831a44e7fc" x="182.163885" y="245.521426" style="fill: #ffffff; stroke: #00ff00"/>
     <use xlink:href="#m831a44e7fc" x="183.090411" y="245.521426" style="fill: #ffffff; stroke: #00ff00"/>
     <use xlink:href="#m831a44e7fc" x="184.016936" y="245.601267" style="fill: #ffffff; stroke: #00ff00"/>
     <use xlink:href="#m831a44e7fc" x="184.943462" y="245.601267" style="fill: #ffffff; stroke: #00ff00"/>
     <use xlink:href="#m831a44e7fc" x="185.869988" y="245.601267" style="fill: #ffffff; stroke: #00ff00"/>
     <use xlink:href="#m831a44e7fc" x="186.796513" y="245.601267" style="fill: #ffffff; stroke: #00ff00"/>
     <use xlink:href="#m831a44e7fc" x="187.723039" y="245.601267" style="fill: #ffffff; stroke: #00ff00"/>
     <use xlink:href="#m831a44e7fc" x="188.649564" y="245.76095" style="fill: #ffffff; stroke: #00ff00"/>
     <use xlink:href="#m831a44e7fc" x="189.57609" y="245.76095" style="fill: #ffffff; stroke: #00ff00"/>
     <use xlink:href="#m831a44e7fc" x="190.502615" y="245.840792" style="fill: #ffffff; stroke: #00ff00"/>
     <use xlink:href="#m831a44e7fc" x="191.429141" y="245.840792" style="fill: #ffffff; stroke: #00ff00"/>
     <use xlink:href="#m831a44e7fc" x="192.355666" y="245.840792" style="fill: #ffffff; stroke: #00ff00"/>
     <use xlink:href="#m831a44e7fc" x="193.282192" y="245.840792" style="fill: #ffffff; stroke: #00ff00"/>
     <use xlink:href="#m831a44e7fc" x="194.208717" y="245.840792" style="fill: #ffffff; stroke: #00ff00"/>
     <use xlink:href="#m831a44e7fc" x="195.135243" y="245.840792" style="fill: #ffffff; stroke: #00ff00"/>
     <use xlink:href="#m831a44e7fc" x="196.061768" y="245.840792" style="fill: #ffffff; stroke: #00ff00"/>
     <use xlink:href="#m831a44e7fc" x="196.988294" y="245.840792" style="fill: #ffffff; stroke: #00ff00"/>
     <use xlink:href="#m831a44e7fc" x="197.914819" y="245.840792" style="fill: #ffffff; stroke: #00ff00"/>
     <use xlink:href="#m831a44e7fc" x="198.841345" y="245.840792" style="fill: #ffffff; stroke: #00ff00"/>
     <use xlink:href="#m831a44e7fc" x="199.76787" y="245.76095" style="fill: #ffffff; stroke: #00ff00"/>
     <use xlink:href="#m831a44e7fc" x="200.694396" y="245.920634" style="fill: #ffffff; stroke: #00ff00"/>
     <use xlink:href="#m831a44e7fc" x="201.620922" y="245.920634" style="fill: #ffffff; stroke: #00ff00"/>
     <use xlink:href="#m831a44e7fc" x="202.547447" y="245.840792" style="fill: #ffffff; stroke: #00ff00"/>
     <use xlink:href="#m831a44e7fc" x="203.473973" y="245.840792" style="fill: #ffffff; stroke: #00ff00"/>
     <use xlink:href="#m831a44e7fc" x="204.400498" y="245.840792" style="fill: #ffffff; stroke: #00ff00"/>
     <use xlink:href="#m831a44e7fc" x="205.327024" y="245.840792" style="fill: #ffffff; stroke: #00ff00"/>
     <use xlink:href="#m831a44e7fc" x="206.253549" y="246.080317" style="fill: #ffffff; stroke: #00ff00"/>
     <use xlink:href="#m831a44e7fc" x="207.180075" y="246.080317" style="fill: #ffffff; stroke: #00ff00"/>
     <use xlink:href="#m831a44e7fc" x="208.1066" y="246.080317" style="fill: #ffffff; stroke: #00ff00"/>
     <use xlink:href="#m831a44e7fc" x="209.033126" y="246.080317" style="fill: #ffffff; stroke: #00ff00"/>
     <use xlink:href="#m831a44e7fc" x="209.959651" y="246.000475" style="fill: #ffffff; stroke: #00ff00"/>
     <use xlink:href="#m831a44e7fc" x="210.886177" y="246.000475" style="fill: #ffffff; stroke: #00ff00"/>
     <use xlink:href="#m831a44e7fc" x="211.812702" y="246.000475" style="fill: #ffffff; stroke: #00ff00"/>
     <use xlink:href="#m831a44e7fc" x="212.739228" y="246.000475" style="fill: #ffffff; stroke: #00ff00"/>
     <use xlink:href="#m831a44e7fc" x="213.665753" y="246.000475" style="fill: #ffffff; stroke: #00ff00"/>
     <use xlink:href="#m831a44e7fc" x="214.592279" y="246.000475" style="fill: #ffffff; stroke: #00ff00"/>
     <use xlink:href="#m831a44e7fc" x="215.518804" y="246.000475" style="fill: #ffffff; stroke: #00ff00"/>
     <use xlink:href="#m831a44e7fc" x="216.44533" y="246.000475" style="fill: #ffffff; stroke: #00ff00"/>
     <use xlink:href="#m831a44e7fc" x="217.371856" y="246.000475" style="fill: #ffffff; stroke: #00ff00"/>
     <use xlink:href="#m831a44e7fc" x="218.298381" y="246.000475" style="fill: #ffffff; stroke: #00ff00"/>
     <use xlink:href="#m831a44e7fc" x="219.224907" y="246.000475" style="fill: #ffffff; stroke: #00ff00"/>
     <use xlink:href="#m831a44e7fc" x="220.151432" y="246.000475" style="fill: #ffffff; stroke: #00ff00"/>
     <use xlink:href="#m831a44e7fc" x="221.077958" y="246.000475" style="fill: #ffffff; stroke: #00ff00"/>
     <use xlink:href="#m831a44e7fc" x="222.004483" y="246.080317" style="fill: #ffffff; stroke: #00ff00"/>
     <use xlink:href="#m831a44e7fc" x="222.931009" y="246.080317" style="fill: #ffffff; stroke: #00ff00"/>
     <use xlink:href="#m831a44e7fc" x="223.857534" y="246.080317" style="fill: #ffffff; stroke: #00ff00"/>
     <use xlink:href="#m831a44e7fc" x="224.78406" y="246.080317" style="fill: #ffffff; stroke: #00ff00"/>
     <use xlink:href="#m831a44e7fc" x="225.710585" y="246.080317" style="fill: #ffffff; stroke: #00ff00"/>
     <use xlink:href="#m831a44e7fc" x="226.637111" y="246.080317" style="fill: #ffffff; stroke: #00ff00"/>
     <use xlink:href="#m831a44e7fc" x="227.563636" y="246.080317" style="fill: #ffffff; stroke: #00ff00"/>
     <use xlink:href="#m831a44e7fc" x="229.416687" y="246.000475" style="fill: #ffffff; stroke: #00ff00"/>
     <use xlink:href="#m831a44e7fc" x="238.681943" y="246.080317" style="fill: #ffffff; stroke: #00ff00"/>
     <use xlink:href="#m831a44e7fc" x="247.947198" y="246.080317" style="fill: #ffffff; stroke: #00ff00"/>
     <use xlink:href="#m831a44e7fc" x="257.212453" y="246.160158" style="fill: #ffffff; stroke: #00ff00"/>
     <use xlink:href="#m831a44e7fc" x="266.477709" y="246.160158" style="fill: #ffffff; stroke: #00ff00"/>
     <use xlink:href="#m831a44e7fc" x="275.742964" y="246.160158" style="fill: #ffffff; stroke: #00ff00"/>
     <use xlink:href="#m831a44e7fc" x="285.008219" y="246.160158" style="fill: #ffffff; stroke: #00ff00"/>
     <use xlink:href="#m831a44e7fc" x="294.273474" y="246.24" style="fill: #ffffff; stroke: #00ff00"/>
     <use xlink:href="#m831a44e7fc" x="303.53873" y="246.160158" style="fill: #ffffff; stroke: #00ff00"/>
     <use xlink:href="#m831a44e7fc" x="312.803985" y="246.160158" style="fill: #ffffff; stroke: #00ff00"/>
     <use xlink:href="#m831a44e7fc" x="322.06924" y="246.160158" style="fill: #ffffff; stroke: #00ff00"/>
     <use xlink:href="#m831a44e7fc" x="331.334496" y="246.160158" style="fill: #ffffff; stroke: #00ff00"/>
     <use xlink:href="#m831a44e7fc" x="340.599751" y="246.160158" style="fill: #ffffff; stroke: #00ff00"/>
     <use xlink:href="#m831a44e7fc" x="349.865006" y="246.160158" style="fill: #ffffff; stroke: #00ff00"/>
     <use xlink:href="#m831a44e7fc" x="359.130262" y="246.160158" style="fill: #ffffff; stroke: #00ff00"/>
     <use xlink:href="#m831a44e7fc" x="368.395517" y="246.160158" style="fill: #ffffff; stroke: #00ff00"/>
     <use xlink:href="#m831a44e7fc" x="377.660772" y="246.160158" style="fill: #ffffff; stroke: #00ff00"/>
     <use xlink:href="#m831a44e7fc" x="386.926027" y="246.160158" style="fill: #ffffff; stroke: #00ff00"/>
     <use xlink:href="#m831a44e7fc" x="396.191283" y="246.160158" style="fill: #ffffff; stroke: #00ff00"/>
     <use xlink:href="#m831a44e7fc" x="405.456538" y="246.160158" style="fill: #ffffff; stroke: #00ff00"/>
     <use xlink:href="#m831a44e7fc" x="414.721793" y="246.160158" style="fill: #ffffff; stroke: #00ff00"/>
     <use xlink:href="#m831a44e7fc" x="423.987049" y="246.160158" style="fill: #ffffff; stroke: #00ff00"/>
     <use xlink:href="#m831a44e7fc" x="433.252304" y="246.160158" style="fill: #ffffff; stroke: #00ff00"/>
     <use xlink:href="#m831a44e7fc" x="442.517559" y="246.24" style="fill: #ffffff; stroke: #00ff00"/>
     <use xlink:href="#m831a44e7fc" x="451.782814" y="246.24" style="fill: #ffffff; stroke: #00ff00"/>
     <use xlink:href="#m831a44e7fc" x="461.04807" y="246.24" style="fill: #ffffff; stroke: #00ff00"/>
     <use xlink:href="#m831a44e7fc" x="470.313325" y="246.24" style="fill: #ffffff; stroke: #00ff00"/>
     <use xlink:href="#m831a44e7fc" x="479.57858" y="246.24" style="fill: #ffffff; stroke: #00ff00"/>
     <use xlink:href="#m831a44e7fc" x="488.843836" y="246.24" style="fill: #ffffff; stroke: #00ff00"/>
     <use xlink:href="#m831a44e7fc" x="498.109091" y="246.24" style="fill: #ffffff; stroke: #00ff00"/>
    </g>
   </g>
   <g id="patch_12">
    <path d="M 72 256.32 
L 72 34.56 
" style="fill: none; stroke: #000000; stroke-width: 0.8; stroke-linejoin: miter; stroke-linecap: square"/>
   </g>
   <g id="patch_13">
    <path d="M 558.4 256.32 
L 558.4 34.56 
" style="fill: none; stroke: #000000; stroke-width: 0.8; stroke-linejoin: miter; stroke-linecap: square"/>
   </g>
   <g id="patch_14">
    <path d="M 72 256.32 
L 518.4 256.32 
" style="fill: none; stroke: #000000; stroke-width: 0.8; stroke-linejoin: miter; stroke-linecap: square"/>
   </g>
   <g id="patch_15">
    <path d="M 72 34.56 
L 518.4 34.56 
" style="fill: none; stroke: #000000; stroke-width: 0.8; stroke-linejoin: miter; stroke-linecap: square"/>
   </g>
   <g id="text_31">
    <!-- Reference indicators -->
    <g transform="translate(243.250594 28.56) scale(0.126 -0.126)">
     <defs>
      <path id="TimesNewRomanPSMT-52" d="M 4325 0 
L 3194 0 
L 1759 1981 
Q 1600 1975 1500 1975 
Q 1459 1975 1412 1976 
Q 1366 1978 1316 1981 
L 1316 750 
Q 1316 350 1403 253 
Q 1522 116 1759 116 
L 1925 116 
L 1925 0 
L 109 0 
L 109 116 
L 269 116 
Q 538 116 653 291 
Q 719 388 719 750 
L 719 3488 
Q 719 3888 631 3984 
Q 509 4122 269 4122 
L 109 4122 
L 109 4238 
L 1653 4238 
Q 2328 4238 2648 4139 
Q 2969 4041 3192 3777 
Q 3416 3513 3416 3147 
Q 3416 2756 3161 2468 
Q 2906 2181 2372 2063 
L 3247 847 
Q 3547 428 3762 290 
Q 3978 153 4325 116 
L 4325 0 
z
M 1316 2178 
Q 1375 2178 1419 2176 
Q 1463 2175 1491 2175 
Q 2097 2175 2405 2437 
Q 2713 2700 2713 3106 
Q 2713 3503 2464 3751 
Q 2216 4000 1806 4000 
Q 1625 4000 1316 3941 
L 1316 2178 
z
" transform="scale(0.015625)"/>
     </defs>
     <use xlink:href="#TimesNewRomanPSMT-52"/>
     <use xlink:href="#TimesNewRomanPSMT-65" x="66.699219"/>
     <use xlink:href="#TimesNewRomanPSMT-66" x="111.083984"/>
     <use xlink:href="#TimesNewRomanPSMT-65" x="144.384766"/>
     <use xlink:href="#TimesNewRomanPSMT-72" x="188.769531"/>
     <use xlink:href="#TimesNewRomanPSMT-65" x="222.070312"/>
     <use xlink:href="#TimesNewRomanPSMT-6e" x="266.455078"/>
     <use xlink:href="#TimesNewRomanPSMT-63" x="316.455078"/>
     <use xlink:href="#TimesNewRomanPSMT-65" x="360.839844"/>
     <use xlink:href="#TimesNewRomanPSMT-20" x="405.224609"/>
     <use xlink:href="#TimesNewRomanPSMT-69" x="430.224609"/>
     <use xlink:href="#TimesNewRomanPSMT-6e" x="458.007812"/>
     <use xlink:href="#TimesNewRomanPSMT-64" x="508.007812"/>
     <use xlink:href="#TimesNewRomanPSMT-69" x="558.007812"/>
     <use xlink:href="#TimesNewRomanPSMT-63" x="585.791016"/>
     <use xlink:href="#TimesNewRomanPSMT-61" x="630.175781"/>
     <use xlink:href="#TimesNewRomanPSMT-74" x="674.560547"/>
     <use xlink:href="#TimesNewRomanPSMT-6f" x="702.34375"/>
     <use xlink:href="#TimesNewRomanPSMT-72" x="752.34375"/>
     <use xlink:href="#TimesNewRomanPSMT-73" x="785.644531"/>
    </g>
   </g>
  </g>
 </g>
 <defs>
  <clipPath id="pc29a729f53">
   <rect x="72" y="34.56" width="446.4" height="221.76"/>
  </clipPath>
 </defs>
</svg>
