<?xml version="1.0" encoding="utf-8" standalone="no"?>
<!DOCTYPE svg PUBLIC "-//W3C//DTD SVG 1.1//EN"
  "http://www.w3.org/Graphics/SVG/1.1/DTD/svg11.dtd">
<svg xmlns:xlink="http://www.w3.org/1999/xlink" width="576pt" height="288pt" viewBox="0 0 576 288" xmlns="http://www.w3.org/2000/svg" version="1.1">
 <metadata>
  <rdf:RDF xmlns:dc="http://purl.org/dc/elements/1.1/" xmlns:cc="http://creativecommons.org/ns#" xmlns:rdf="http://www.w3.org/1999/02/22-rdf-syntax-ns#">
   <cc:Work>
    <dc:type rdf:resource="http://purl.org/dc/dcmitype/StillImage"/>
    <dc:date>2024-11-06T11:34:01.870873</dc:date>
    <dc:format>image/svg+xml</dc:format>
    <dc:creator>
     <cc:Agent>
      <dc:title>Matplotlib v3.9.2, https://matplotlib.org/</dc:title>
     </cc:Agent>
    </dc:creator>
   </cc:Work>
  </rdf:RDF>
 </metadata>
 <defs>
  <style type="text/css">*{stroke-linejoin: round; stroke-linecap: butt}</style>
 </defs>
 <g id="figure_1">
  <g id="patch_1">
   <path d="M 0 288 
L 576 288 
L 576 0 
L 0 0 
z
" style="fill: #ffffff"/>
  </g>
  <g id="axes_1">
   <g id="patch_2">
    <path d="M 72 256.32 
L 518.4 256.32 
L 518.4 34.56 
L 72 34.56 
z
" style="fill: #ffffff"/>
   </g>
   <g id="matplotlib.axis_1">
    <g id="xtick_1">
     <g id="line2d_1">
      <defs>
       <path id="m5273a337f3" d="M 0 0 
L 0 3.5 
" style="stroke: #000000; stroke-width: 0.8"/>
      </defs>
      <g>
       <use xlink:href="#m5273a337f3" x="90.425078" y="256.32" style="stroke: #000000; stroke-width: 0.8"/>
      </g>
     </g>
     <g id="text_1">
      <!-- 0 -->
      <g transform="translate(87.800078 270.610937) scale(0.105 -0.105)">
       <defs>
        <path id="TimesNewRomanPSMT-30" d="M 231 2094 
Q 231 2819 450 3342 
Q 669 3866 1031 4122 
Q 1313 4325 1613 4325 
Q 2100 4325 2488 3828 
Q 2972 3213 2972 2159 
Q 2972 1422 2759 906 
Q 2547 391 2217 158 
Q 1888 -75 1581 -75 
Q 975 -75 572 641 
Q 231 1244 231 2094 
z
M 844 2016 
Q 844 1141 1059 588 
Q 1238 122 1591 122 
Q 1759 122 1940 273 
Q 2122 425 2216 781 
Q 2359 1319 2359 2297 
Q 2359 3022 2209 3506 
Q 2097 3866 1919 4016 
Q 1791 4119 1609 4119 
Q 1397 4119 1231 3928 
Q 1006 3669 925 3112 
Q 844 2556 844 2016 
z
" transform="scale(0.015625)"/>
       </defs>
       <use xlink:href="#TimesNewRomanPSMT-30"/>
      </g>
     </g>
    </g>
    <g id="xtick_2">
     <g id="line2d_2">
      <g>
       <use xlink:href="#m5273a337f3" x="183.716614" y="256.32" style="stroke: #000000; stroke-width: 0.8"/>
      </g>
     </g>
     <g id="text_2">
      <!-- 100 -->
      <g transform="translate(175.841614 270.610937) scale(0.105 -0.105)">
       <defs>
        <path id="TimesNewRomanPSMT-31" d="M 750 3822 
L 1781 4325 
L 1884 4325 
L 1884 747 
Q 1884 391 1914 303 
Q 1944 216 2037 169 
Q 2131 122 2419 116 
L 2419 0 
L 825 0 
L 825 116 
Q 1125 122 1212 167 
Q 1300 213 1334 289 
Q 1369 366 1369 747 
L 1369 3034 
Q 1369 3497 1338 3628 
Q 1316 3728 1258 3775 
Q 1200 3822 1119 3822 
Q 1003 3822 797 3725 
L 750 3822 
z
" transform="scale(0.015625)"/>
       </defs>
       <use xlink:href="#TimesNewRomanPSMT-31"/>
       <use xlink:href="#TimesNewRomanPSMT-30" x="50"/>
       <use xlink:href="#TimesNewRomanPSMT-30" x="100"/>
      </g>
     </g>
    </g>
    <g id="xtick_3">
     <g id="line2d_3">
      <g>
       <use xlink:href="#m5273a337f3" x="277.00815" y="256.32" style="stroke: #000000; stroke-width: 0.8"/>
      </g>
     </g>
     <g id="text_3">
      <!-- 200 -->
      <g transform="translate(269.13315 270.610937) scale(0.105 -0.105)">
       <defs>
        <path id="TimesNewRomanPSMT-32" d="M 2934 816 
L 2638 0 
L 138 0 
L 138 116 
Q 1241 1122 1691 1759 
Q 2141 2397 2141 2925 
Q 2141 3328 1894 3587 
Q 1647 3847 1303 3847 
Q 991 3847 742 3664 
Q 494 3481 375 3128 
L 259 3128 
Q 338 3706 661 4015 
Q 984 4325 1469 4325 
Q 1984 4325 2329 3994 
Q 2675 3663 2675 3213 
Q 2675 2891 2525 2569 
Q 2294 2063 1775 1497 
Q 997 647 803 472 
L 1909 472 
Q 2247 472 2383 497 
Q 2519 522 2628 598 
Q 2738 675 2819 816 
L 2934 816 
z
" transform="scale(0.015625)"/>
       </defs>
       <use xlink:href="#TimesNewRomanPSMT-32"/>
       <use xlink:href="#TimesNewRomanPSMT-30" x="50"/>
       <use xlink:href="#TimesNewRomanPSMT-30" x="100"/>
      </g>
     </g>
    </g>
    <g id="xtick_4">
     <g id="line2d_4">
      <g>
       <use xlink:href="#m5273a337f3" x="370.299687" y="256.32" style="stroke: #000000; stroke-width: 0.8"/>
      </g>
     </g>
     <g id="text_4">
      <!-- 300 -->
      <g transform="translate(362.424687 270.610937) scale(0.105 -0.105)">
       <defs>
        <path id="TimesNewRomanPSMT-33" d="M 325 3431 
Q 506 3859 782 4092 
Q 1059 4325 1472 4325 
Q 1981 4325 2253 3994 
Q 2459 3747 2459 3466 
Q 2459 3003 1878 2509 
Q 2269 2356 2469 2072 
Q 2669 1788 2669 1403 
Q 2669 853 2319 450 
Q 1863 -75 997 -75 
Q 569 -75 414 31 
Q 259 138 259 259 
Q 259 350 332 419 
Q 406 488 509 488 
Q 588 488 669 463 
Q 722 447 909 348 
Q 1097 250 1169 231 
Q 1284 197 1416 197 
Q 1734 197 1970 444 
Q 2206 691 2206 1028 
Q 2206 1275 2097 1509 
Q 2016 1684 1919 1775 
Q 1784 1900 1550 2001 
Q 1316 2103 1072 2103 
L 972 2103 
L 972 2197 
Q 1219 2228 1467 2375 
Q 1716 2522 1828 2728 
Q 1941 2934 1941 3181 
Q 1941 3503 1739 3701 
Q 1538 3900 1238 3900 
Q 753 3900 428 3381 
L 325 3431 
z
" transform="scale(0.015625)"/>
       </defs>
       <use xlink:href="#TimesNewRomanPSMT-33"/>
       <use xlink:href="#TimesNewRomanPSMT-30" x="50"/>
       <use xlink:href="#TimesNewRomanPSMT-30" x="100"/>
      </g>
     </g>
    </g>
    <g id="xtick_5">
     <g id="line2d_5">
      <g>
       <use xlink:href="#m5273a337f3" x="463.591223" y="256.32" style="stroke: #000000; stroke-width: 0.8"/>
      </g>
     </g>
     <g id="text_5">
      <!-- 400 -->
      <g transform="translate(455.716223 270.610937) scale(0.105 -0.105)">
       <defs>
        <path id="TimesNewRomanPSMT-34" d="M 2978 1563 
L 2978 1119 
L 2409 1119 
L 2409 0 
L 1894 0 
L 1894 1119 
L 100 1119 
L 100 1519 
L 2066 4325 
L 2409 4325 
L 2409 1563 
L 2978 1563 
z
M 1894 1563 
L 1894 3666 
L 406 1563 
L 1894 1563 
z
" transform="scale(0.015625)"/>
       </defs>
       <use xlink:href="#TimesNewRomanPSMT-34"/>
       <use xlink:href="#TimesNewRomanPSMT-30" x="50"/>
       <use xlink:href="#TimesNewRomanPSMT-30" x="100"/>
      </g>
     </g>
    </g>
    <g id="text_6">
     <!-- Number of nodes -->
     <g transform="translate(258.749414 284.147891) scale(0.105 -0.105)">
      <defs>
       <path id="TimesNewRomanPSMT-4e" d="M -84 4238 
L 1066 4238 
L 3656 1059 
L 3656 3503 
Q 3656 3894 3569 3991 
Q 3453 4122 3203 4122 
L 3056 4122 
L 3056 4238 
L 4531 4238 
L 4531 4122 
L 4381 4122 
Q 4113 4122 4000 3959 
Q 3931 3859 3931 3503 
L 3931 -69 
L 3819 -69 
L 1025 3344 
L 1025 734 
Q 1025 344 1109 247 
Q 1228 116 1475 116 
L 1625 116 
L 1625 0 
L 150 0 
L 150 116 
L 297 116 
Q 569 116 681 278 
Q 750 378 750 734 
L 750 3681 
Q 566 3897 470 3965 
Q 375 4034 191 4094 
Q 100 4122 -84 4122 
L -84 4238 
z
" transform="scale(0.015625)"/>
       <path id="TimesNewRomanPSMT-75" d="M 2709 2863 
L 2709 1128 
Q 2709 631 2732 520 
Q 2756 409 2807 365 
Q 2859 322 2928 322 
Q 3025 322 3147 375 
L 3191 266 
L 2334 -88 
L 2194 -88 
L 2194 519 
Q 1825 119 1631 15 
Q 1438 -88 1222 -88 
Q 981 -88 804 51 
Q 628 191 559 409 
Q 491 628 491 1028 
L 491 2306 
Q 491 2509 447 2587 
Q 403 2666 317 2708 
Q 231 2750 6 2747 
L 6 2863 
L 1009 2863 
L 1009 947 
Q 1009 547 1148 422 
Q 1288 297 1484 297 
Q 1619 297 1789 381 
Q 1959 466 2194 703 
L 2194 2325 
Q 2194 2569 2105 2655 
Q 2016 2741 1734 2747 
L 1734 2863 
L 2709 2863 
z
" transform="scale(0.015625)"/>
       <path id="TimesNewRomanPSMT-6d" d="M 1050 2338 
Q 1363 2650 1419 2697 
Q 1559 2816 1721 2881 
Q 1884 2947 2044 2947 
Q 2313 2947 2506 2790 
Q 2700 2634 2766 2338 
Q 3088 2713 3309 2830 
Q 3531 2947 3766 2947 
Q 3994 2947 4170 2830 
Q 4347 2713 4450 2447 
Q 4519 2266 4519 1878 
L 4519 647 
Q 4519 378 4559 278 
Q 4591 209 4675 161 
Q 4759 113 4950 113 
L 4950 0 
L 3538 0 
L 3538 113 
L 3597 113 
Q 3781 113 3884 184 
Q 3956 234 3988 344 
Q 4000 397 4000 647 
L 4000 1878 
Q 4000 2228 3916 2372 
Q 3794 2572 3525 2572 
Q 3359 2572 3192 2489 
Q 3025 2406 2788 2181 
L 2781 2147 
L 2788 2013 
L 2788 647 
Q 2788 353 2820 281 
Q 2853 209 2943 161 
Q 3034 113 3253 113 
L 3253 0 
L 1806 0 
L 1806 113 
Q 2044 113 2133 169 
Q 2222 225 2256 338 
Q 2272 391 2272 647 
L 2272 1878 
Q 2272 2228 2169 2381 
Q 2031 2581 1784 2581 
Q 1616 2581 1450 2491 
Q 1191 2353 1050 2181 
L 1050 647 
Q 1050 366 1089 281 
Q 1128 197 1204 155 
Q 1281 113 1516 113 
L 1516 0 
L 100 0 
L 100 113 
Q 297 113 375 155 
Q 453 197 493 289 
Q 534 381 534 647 
L 534 1741 
Q 534 2213 506 2350 
Q 484 2453 437 2492 
Q 391 2531 309 2531 
Q 222 2531 100 2484 
L 53 2597 
L 916 2947 
L 1050 2947 
L 1050 2338 
z
" transform="scale(0.015625)"/>
       <path id="TimesNewRomanPSMT-62" d="M 984 2369 
Q 1400 2947 1881 2947 
Q 2322 2947 2650 2570 
Q 2978 2194 2978 1541 
Q 2978 778 2472 313 
Q 2038 -88 1503 -88 
Q 1253 -88 995 3 
Q 738 94 469 275 
L 469 3241 
Q 469 3728 445 3840 
Q 422 3953 372 3993 
Q 322 4034 247 4034 
Q 159 4034 28 3984 
L -16 4094 
L 844 4444 
L 984 4444 
L 984 2369 
z
M 984 2169 
L 984 456 
Q 1144 300 1314 220 
Q 1484 141 1663 141 
Q 1947 141 2192 453 
Q 2438 766 2438 1363 
Q 2438 1913 2192 2208 
Q 1947 2503 1634 2503 
Q 1469 2503 1303 2419 
Q 1178 2356 984 2169 
z
" transform="scale(0.015625)"/>
       <path id="TimesNewRomanPSMT-65" d="M 681 1784 
Q 678 1147 991 784 
Q 1303 422 1725 422 
Q 2006 422 2214 576 
Q 2422 731 2563 1106 
L 2659 1044 
Q 2594 616 2278 264 
Q 1963 -88 1488 -88 
Q 972 -88 605 314 
Q 238 716 238 1394 
Q 238 2128 614 2539 
Q 991 2950 1559 2950 
Q 2041 2950 2350 2633 
Q 2659 2316 2659 1784 
L 681 1784 
z
M 681 1966 
L 2006 1966 
Q 1991 2241 1941 2353 
Q 1863 2528 1708 2628 
Q 1553 2728 1384 2728 
Q 1125 2728 920 2526 
Q 716 2325 681 1966 
z
" transform="scale(0.015625)"/>
       <path id="TimesNewRomanPSMT-72" d="M 1038 2947 
L 1038 2303 
Q 1397 2947 1775 2947 
Q 1947 2947 2059 2842 
Q 2172 2738 2172 2600 
Q 2172 2478 2090 2393 
Q 2009 2309 1897 2309 
Q 1788 2309 1652 2417 
Q 1516 2525 1450 2525 
Q 1394 2525 1328 2463 
Q 1188 2334 1038 2041 
L 1038 669 
Q 1038 431 1097 309 
Q 1138 225 1241 169 
Q 1344 113 1538 113 
L 1538 0 
L 72 0 
L 72 113 
Q 291 113 397 181 
Q 475 231 506 341 
Q 522 394 522 644 
L 522 1753 
Q 522 2253 501 2348 
Q 481 2444 426 2487 
Q 372 2531 291 2531 
Q 194 2531 72 2484 
L 41 2597 
L 906 2947 
L 1038 2947 
z
" transform="scale(0.015625)"/>
       <path id="TimesNewRomanPSMT-20" transform="scale(0.015625)"/>
       <path id="TimesNewRomanPSMT-6f" d="M 1600 2947 
Q 2250 2947 2644 2453 
Q 2978 2031 2978 1484 
Q 2978 1100 2793 706 
Q 2609 313 2286 112 
Q 1963 -88 1566 -88 
Q 919 -88 538 428 
Q 216 863 216 1403 
Q 216 1797 411 2186 
Q 606 2575 925 2761 
Q 1244 2947 1600 2947 
z
M 1503 2744 
Q 1338 2744 1170 2645 
Q 1003 2547 900 2300 
Q 797 2053 797 1666 
Q 797 1041 1045 587 
Q 1294 134 1700 134 
Q 2003 134 2200 384 
Q 2397 634 2397 1244 
Q 2397 2006 2069 2444 
Q 1847 2744 1503 2744 
z
" transform="scale(0.015625)"/>
       <path id="TimesNewRomanPSMT-66" d="M 1319 2638 
L 1319 756 
Q 1319 356 1406 250 
Q 1522 113 1716 113 
L 1975 113 
L 1975 0 
L 266 0 
L 266 113 
L 394 113 
Q 519 113 622 175 
Q 725 238 764 344 
Q 803 450 803 756 
L 803 2638 
L 247 2638 
L 247 2863 
L 803 2863 
L 803 3050 
Q 803 3478 940 3775 
Q 1078 4072 1361 4255 
Q 1644 4438 1997 4438 
Q 2325 4438 2600 4225 
Q 2781 4084 2781 3909 
Q 2781 3816 2700 3733 
Q 2619 3650 2525 3650 
Q 2453 3650 2373 3701 
Q 2294 3753 2178 3923 
Q 2063 4094 1966 4153 
Q 1869 4213 1750 4213 
Q 1606 4213 1506 4136 
Q 1406 4059 1362 3898 
Q 1319 3738 1319 3069 
L 1319 2863 
L 2056 2863 
L 2056 2638 
L 1319 2638 
z
" transform="scale(0.015625)"/>
       <path id="TimesNewRomanPSMT-6e" d="M 1034 2341 
Q 1538 2947 1994 2947 
Q 2228 2947 2397 2830 
Q 2566 2713 2666 2444 
Q 2734 2256 2734 1869 
L 2734 647 
Q 2734 375 2778 278 
Q 2813 200 2889 156 
Q 2966 113 3172 113 
L 3172 0 
L 1756 0 
L 1756 113 
L 1816 113 
Q 2016 113 2095 173 
Q 2175 234 2206 353 
Q 2219 400 2219 647 
L 2219 1819 
Q 2219 2209 2117 2386 
Q 2016 2563 1775 2563 
Q 1403 2563 1034 2156 
L 1034 647 
Q 1034 356 1069 288 
Q 1113 197 1189 155 
Q 1266 113 1500 113 
L 1500 0 
L 84 0 
L 84 113 
L 147 113 
Q 366 113 442 223 
Q 519 334 519 647 
L 519 1709 
Q 519 2225 495 2337 
Q 472 2450 423 2490 
Q 375 2531 294 2531 
Q 206 2531 84 2484 
L 38 2597 
L 900 2947 
L 1034 2947 
L 1034 2341 
z
" transform="scale(0.015625)"/>
       <path id="TimesNewRomanPSMT-64" d="M 2222 322 
Q 2013 103 1813 7 
Q 1613 -88 1381 -88 
Q 913 -88 563 304 
Q 213 697 213 1313 
Q 213 1928 600 2439 
Q 988 2950 1597 2950 
Q 1975 2950 2222 2709 
L 2222 3238 
Q 2222 3728 2198 3840 
Q 2175 3953 2125 3993 
Q 2075 4034 2000 4034 
Q 1919 4034 1784 3984 
L 1744 4094 
L 2597 4444 
L 2738 4444 
L 2738 1134 
Q 2738 631 2761 520 
Q 2784 409 2836 365 
Q 2888 322 2956 322 
Q 3041 322 3181 375 
L 3216 266 
L 2366 -88 
L 2222 -88 
L 2222 322 
z
M 2222 541 
L 2222 2016 
Q 2203 2228 2109 2403 
Q 2016 2578 1861 2667 
Q 1706 2756 1559 2756 
Q 1284 2756 1069 2509 
Q 784 2184 784 1559 
Q 784 928 1059 592 
Q 1334 256 1672 256 
Q 1956 256 2222 541 
z
" transform="scale(0.015625)"/>
       <path id="TimesNewRomanPSMT-73" d="M 2050 2947 
L 2050 1972 
L 1947 1972 
Q 1828 2431 1642 2597 
Q 1456 2763 1169 2763 
Q 950 2763 815 2647 
Q 681 2531 681 2391 
Q 681 2216 781 2091 
Q 878 1963 1175 1819 
L 1631 1597 
Q 2266 1288 2266 781 
Q 2266 391 1970 151 
Q 1675 -88 1309 -88 
Q 1047 -88 709 6 
Q 606 38 541 38 
Q 469 38 428 -44 
L 325 -44 
L 325 978 
L 428 978 
Q 516 541 762 319 
Q 1009 97 1316 97 
Q 1531 97 1667 223 
Q 1803 350 1803 528 
Q 1803 744 1651 891 
Q 1500 1038 1047 1263 
Q 594 1488 453 1669 
Q 313 1847 313 2119 
Q 313 2472 555 2709 
Q 797 2947 1181 2947 
Q 1350 2947 1591 2875 
Q 1750 2828 1803 2828 
Q 1853 2828 1881 2850 
Q 1909 2872 1947 2947 
L 2050 2947 
z
" transform="scale(0.015625)"/>
      </defs>
      <use xlink:href="#TimesNewRomanPSMT-4e"/>
      <use xlink:href="#TimesNewRomanPSMT-75" x="72.216797"/>
      <use xlink:href="#TimesNewRomanPSMT-6d" x="122.216797"/>
      <use xlink:href="#TimesNewRomanPSMT-62" x="200"/>
      <use xlink:href="#TimesNewRomanPSMT-65" x="250"/>
      <use xlink:href="#TimesNewRomanPSMT-72" x="294.384766"/>
      <use xlink:href="#TimesNewRomanPSMT-20" x="327.685547"/>
      <use xlink:href="#TimesNewRomanPSMT-6f" x="352.685547"/>
      <use xlink:href="#TimesNewRomanPSMT-66" x="402.685547"/>
      <use xlink:href="#TimesNewRomanPSMT-20" x="435.986328"/>
      <use xlink:href="#TimesNewRomanPSMT-6e" x="460.986328"/>
      <use xlink:href="#TimesNewRomanPSMT-6f" x="510.986328"/>
      <use xlink:href="#TimesNewRomanPSMT-64" x="560.986328"/>
      <use xlink:href="#TimesNewRomanPSMT-65" x="610.986328"/>
      <use xlink:href="#TimesNewRomanPSMT-73" x="655.371094"/>
     </g>
    </g>
   </g>
   <g id="matplotlib.axis_2">
    <g id="ytick_1">
     <g id="line2d_6">
      <defs>
       <path id="m38a12d6eba" d="M 0 0 
L -3.5 0 
" style="stroke: #000000; stroke-width: 0.8"/>
      </defs>
      <g>
       <use xlink:href="#m38a12d6eba" x="72" y="237.624425" style="stroke: #000000; stroke-width: 0.8"/>
      </g>
     </g>
     <g id="text_7">
      <!-- 0.4 -->
      <g transform="translate(51.875 241.269894) scale(0.105 -0.105)">
       <defs>
        <path id="TimesNewRomanPSMT-2e" d="M 800 606 
Q 947 606 1047 504 
Q 1147 403 1147 259 
Q 1147 116 1045 14 
Q 944 -88 800 -88 
Q 656 -88 554 14 
Q 453 116 453 259 
Q 453 406 554 506 
Q 656 606 800 606 
z
" transform="scale(0.015625)"/>
       </defs>
       <use xlink:href="#TimesNewRomanPSMT-30"/>
       <use xlink:href="#TimesNewRomanPSMT-2e" x="50"/>
       <use xlink:href="#TimesNewRomanPSMT-34" x="75"/>
      </g>
     </g>
    </g>
    <g id="ytick_2">
     <g id="line2d_7">
      <g>
       <use xlink:href="#m38a12d6eba" x="72" y="205.372304" style="stroke: #000000; stroke-width: 0.8"/>
      </g>
     </g>
     <g id="text_8">
      <!-- 0.6 -->
      <g transform="translate(51.875 209.017773) scale(0.105 -0.105)">
       <defs>
        <path id="TimesNewRomanPSMT-36" d="M 2869 4325 
L 2869 4209 
Q 2456 4169 2195 4045 
Q 1934 3922 1679 3669 
Q 1425 3416 1258 3105 
Q 1091 2794 978 2366 
Q 1428 2675 1881 2675 
Q 2316 2675 2634 2325 
Q 2953 1975 2953 1425 
Q 2953 894 2631 456 
Q 2244 -75 1606 -75 
Q 1172 -75 869 213 
Q 275 772 275 1663 
Q 275 2231 503 2743 
Q 731 3256 1154 3653 
Q 1578 4050 1965 4187 
Q 2353 4325 2688 4325 
L 2869 4325 
z
M 925 2138 
Q 869 1716 869 1456 
Q 869 1156 980 804 
Q 1091 453 1309 247 
Q 1469 100 1697 100 
Q 1969 100 2183 356 
Q 2397 613 2397 1088 
Q 2397 1622 2184 2012 
Q 1972 2403 1581 2403 
Q 1463 2403 1327 2353 
Q 1191 2303 925 2138 
z
" transform="scale(0.015625)"/>
       </defs>
       <use xlink:href="#TimesNewRomanPSMT-30"/>
       <use xlink:href="#TimesNewRomanPSMT-2e" x="50"/>
       <use xlink:href="#TimesNewRomanPSMT-36" x="75"/>
      </g>
     </g>
    </g>
    <g id="ytick_3">
     <g id="line2d_8">
      <g>
       <use xlink:href="#m38a12d6eba" x="72" y="173.120183" style="stroke: #000000; stroke-width: 0.8"/>
      </g>
     </g>
     <g id="text_9">
      <!-- 0.8 -->
      <g transform="translate(51.875 176.765652) scale(0.105 -0.105)">
       <defs>
        <path id="TimesNewRomanPSMT-38" d="M 1228 2134 
Q 725 2547 579 2797 
Q 434 3047 434 3316 
Q 434 3728 753 4026 
Q 1072 4325 1600 4325 
Q 2113 4325 2425 4047 
Q 2738 3769 2738 3413 
Q 2738 3175 2569 2928 
Q 2400 2681 1866 2347 
Q 2416 1922 2594 1678 
Q 2831 1359 2831 1006 
Q 2831 559 2490 242 
Q 2150 -75 1597 -75 
Q 994 -75 656 303 
Q 388 606 388 966 
Q 388 1247 577 1523 
Q 766 1800 1228 2134 
z
M 1719 2469 
Q 2094 2806 2194 3001 
Q 2294 3197 2294 3444 
Q 2294 3772 2109 3958 
Q 1925 4144 1606 4144 
Q 1288 4144 1088 3959 
Q 888 3775 888 3528 
Q 888 3366 970 3203 
Q 1053 3041 1206 2894 
L 1719 2469 
z
M 1375 2016 
Q 1116 1797 991 1539 
Q 866 1281 866 981 
Q 866 578 1086 336 
Q 1306 94 1647 94 
Q 1984 94 2187 284 
Q 2391 475 2391 747 
Q 2391 972 2272 1150 
Q 2050 1481 1375 2016 
z
" transform="scale(0.015625)"/>
       </defs>
       <use xlink:href="#TimesNewRomanPSMT-30"/>
       <use xlink:href="#TimesNewRomanPSMT-2e" x="50"/>
       <use xlink:href="#TimesNewRomanPSMT-38" x="75"/>
      </g>
     </g>
    </g>
    <g id="ytick_4">
     <g id="line2d_9">
      <g>
       <use xlink:href="#m38a12d6eba" x="72" y="140.868062" style="stroke: #000000; stroke-width: 0.8"/>
      </g>
     </g>
     <g id="text_10">
      <!-- 1.0 -->
      <g transform="translate(51.875 144.513531) scale(0.105 -0.105)">
       <use xlink:href="#TimesNewRomanPSMT-31"/>
       <use xlink:href="#TimesNewRomanPSMT-2e" x="50"/>
       <use xlink:href="#TimesNewRomanPSMT-30" x="75"/>
      </g>
     </g>
    </g>
    <g id="ytick_5">
     <g id="line2d_10">
      <g>
       <use xlink:href="#m38a12d6eba" x="72" y="108.615941" style="stroke: #000000; stroke-width: 0.8"/>
      </g>
     </g>
     <g id="text_11">
      <!-- 1.2 -->
      <g transform="translate(51.875 112.26141) scale(0.105 -0.105)">
       <use xlink:href="#TimesNewRomanPSMT-31"/>
       <use xlink:href="#TimesNewRomanPSMT-2e" x="50"/>
       <use xlink:href="#TimesNewRomanPSMT-32" x="75"/>
      </g>
     </g>
    </g>
    <g id="ytick_6">
     <g id="line2d_11">
      <g>
       <use xlink:href="#m38a12d6eba" x="72" y="76.36382" style="stroke: #000000; stroke-width: 0.8"/>
      </g>
     </g>
     <g id="text_12">
      <!-- 1.4 -->
      <g transform="translate(51.875 80.009289) scale(0.105 -0.105)">
       <use xlink:href="#TimesNewRomanPSMT-31"/>
       <use xlink:href="#TimesNewRomanPSMT-2e" x="50"/>
       <use xlink:href="#TimesNewRomanPSMT-34" x="75"/>
      </g>
     </g>
    </g>
    <g id="ytick_7">
     <g id="line2d_12">
      <g>
       <use xlink:href="#m38a12d6eba" x="72" y="44.111699" style="stroke: #000000; stroke-width: 0.8"/>
      </g>
     </g>
     <g id="text_13">
      <!-- 1.6 -->
      <g transform="translate(51.875 47.757168) scale(0.105 -0.105)">
       <use xlink:href="#TimesNewRomanPSMT-31"/>
       <use xlink:href="#TimesNewRomanPSMT-2e" x="50"/>
       <use xlink:href="#TimesNewRomanPSMT-36" x="75"/>
      </g>
     </g>
    </g>
    <g id="text_14">
     <!-- Natural Connectivity -->
     <g transform="translate(45.609297 189.617109) rotate(-90) scale(0.105 -0.105)">
      <defs>
       <path id="TimesNewRomanPSMT-61" d="M 1822 413 
Q 1381 72 1269 19 
Q 1100 -59 909 -59 
Q 613 -59 420 144 
Q 228 347 228 678 
Q 228 888 322 1041 
Q 450 1253 767 1440 
Q 1084 1628 1822 1897 
L 1822 2009 
Q 1822 2438 1686 2597 
Q 1550 2756 1291 2756 
Q 1094 2756 978 2650 
Q 859 2544 859 2406 
L 866 2225 
Q 866 2081 792 2003 
Q 719 1925 600 1925 
Q 484 1925 411 2006 
Q 338 2088 338 2228 
Q 338 2497 613 2722 
Q 888 2947 1384 2947 
Q 1766 2947 2009 2819 
Q 2194 2722 2281 2516 
Q 2338 2381 2338 1966 
L 2338 994 
Q 2338 584 2353 492 
Q 2369 400 2405 369 
Q 2441 338 2488 338 
Q 2538 338 2575 359 
Q 2641 400 2828 588 
L 2828 413 
Q 2478 -56 2159 -56 
Q 2006 -56 1915 50 
Q 1825 156 1822 413 
z
M 1822 616 
L 1822 1706 
Q 1350 1519 1213 1441 
Q 966 1303 859 1153 
Q 753 1003 753 825 
Q 753 600 887 451 
Q 1022 303 1197 303 
Q 1434 303 1822 616 
z
" transform="scale(0.015625)"/>
       <path id="TimesNewRomanPSMT-74" d="M 1031 3803 
L 1031 2863 
L 1700 2863 
L 1700 2644 
L 1031 2644 
L 1031 788 
Q 1031 509 1111 412 
Q 1191 316 1316 316 
Q 1419 316 1516 380 
Q 1613 444 1666 569 
L 1788 569 
Q 1678 263 1478 108 
Q 1278 -47 1066 -47 
Q 922 -47 784 33 
Q 647 113 581 261 
Q 516 409 516 719 
L 516 2644 
L 63 2644 
L 63 2747 
Q 234 2816 414 2980 
Q 594 3144 734 3369 
Q 806 3488 934 3803 
L 1031 3803 
z
" transform="scale(0.015625)"/>
       <path id="TimesNewRomanPSMT-6c" d="M 1184 4444 
L 1184 647 
Q 1184 378 1223 290 
Q 1263 203 1344 158 
Q 1425 113 1647 113 
L 1647 0 
L 244 0 
L 244 113 
Q 441 113 512 153 
Q 584 194 625 287 
Q 666 381 666 647 
L 666 3247 
Q 666 3731 644 3842 
Q 622 3953 573 3993 
Q 525 4034 450 4034 
Q 369 4034 244 3984 
L 191 4094 
L 1044 4444 
L 1184 4444 
z
" transform="scale(0.015625)"/>
       <path id="TimesNewRomanPSMT-43" d="M 3853 4334 
L 3950 2894 
L 3853 2894 
Q 3659 3541 3300 3825 
Q 2941 4109 2438 4109 
Q 2016 4109 1675 3895 
Q 1334 3681 1139 3212 
Q 944 2744 944 2047 
Q 944 1472 1128 1050 
Q 1313 628 1683 403 
Q 2053 178 2528 178 
Q 2941 178 3256 354 
Q 3572 531 3950 1056 
L 4047 994 
Q 3728 428 3303 165 
Q 2878 -97 2294 -97 
Q 1241 -97 663 684 
Q 231 1266 231 2053 
Q 231 2688 515 3219 
Q 800 3750 1298 4042 
Q 1797 4334 2388 4334 
Q 2847 4334 3294 4109 
Q 3425 4041 3481 4041 
Q 3566 4041 3628 4100 
Q 3709 4184 3744 4334 
L 3853 4334 
z
" transform="scale(0.015625)"/>
       <path id="TimesNewRomanPSMT-63" d="M 2631 1088 
Q 2516 522 2178 217 
Q 1841 -88 1431 -88 
Q 944 -88 581 321 
Q 219 731 219 1428 
Q 219 2103 620 2525 
Q 1022 2947 1584 2947 
Q 2006 2947 2278 2723 
Q 2550 2500 2550 2259 
Q 2550 2141 2473 2067 
Q 2397 1994 2259 1994 
Q 2075 1994 1981 2113 
Q 1928 2178 1911 2362 
Q 1894 2547 1784 2644 
Q 1675 2738 1481 2738 
Q 1169 2738 978 2506 
Q 725 2200 725 1697 
Q 725 1184 976 792 
Q 1228 400 1656 400 
Q 1963 400 2206 609 
Q 2378 753 2541 1131 
L 2631 1088 
z
" transform="scale(0.015625)"/>
       <path id="TimesNewRomanPSMT-69" d="M 928 4444 
Q 1059 4444 1151 4351 
Q 1244 4259 1244 4128 
Q 1244 3997 1151 3903 
Q 1059 3809 928 3809 
Q 797 3809 703 3903 
Q 609 3997 609 4128 
Q 609 4259 701 4351 
Q 794 4444 928 4444 
z
M 1188 2947 
L 1188 647 
Q 1188 378 1227 289 
Q 1266 200 1342 156 
Q 1419 113 1622 113 
L 1622 0 
L 231 0 
L 231 113 
Q 441 113 512 153 
Q 584 194 626 287 
Q 669 381 669 647 
L 669 1750 
Q 669 2216 641 2353 
Q 619 2453 572 2492 
Q 525 2531 444 2531 
Q 356 2531 231 2484 
L 188 2597 
L 1050 2947 
L 1188 2947 
z
" transform="scale(0.015625)"/>
       <path id="TimesNewRomanPSMT-76" d="M 53 2863 
L 1400 2863 
L 1400 2747 
L 1313 2747 
Q 1191 2747 1127 2687 
Q 1063 2628 1063 2528 
Q 1063 2419 1128 2269 
L 1794 688 
L 2463 2328 
Q 2534 2503 2534 2594 
Q 2534 2638 2509 2666 
Q 2475 2713 2422 2730 
Q 2369 2747 2206 2747 
L 2206 2863 
L 3141 2863 
L 3141 2747 
Q 2978 2734 2916 2681 
Q 2806 2588 2719 2369 
L 1703 -88 
L 1575 -88 
L 553 2328 
Q 484 2497 421 2570 
Q 359 2644 263 2694 
Q 209 2722 53 2747 
L 53 2863 
z
" transform="scale(0.015625)"/>
       <path id="TimesNewRomanPSMT-79" d="M 38 2863 
L 1372 2863 
L 1372 2747 
L 1306 2747 
Q 1166 2747 1095 2686 
Q 1025 2625 1025 2534 
Q 1025 2413 1128 2197 
L 1825 753 
L 2466 2334 
Q 2519 2463 2519 2588 
Q 2519 2644 2497 2672 
Q 2472 2706 2419 2726 
Q 2366 2747 2231 2747 
L 2231 2863 
L 3163 2863 
L 3163 2747 
Q 3047 2734 2984 2696 
Q 2922 2659 2847 2556 
Q 2819 2513 2741 2316 
L 1575 -541 
Q 1406 -956 1132 -1168 
Q 859 -1381 606 -1381 
Q 422 -1381 303 -1275 
Q 184 -1169 184 -1031 
Q 184 -900 270 -820 
Q 356 -741 506 -741 
Q 609 -741 788 -809 
Q 913 -856 944 -856 
Q 1038 -856 1148 -759 
Q 1259 -663 1372 -384 
L 1575 113 
L 547 2272 
Q 500 2369 397 2513 
Q 319 2622 269 2659 
Q 197 2709 38 2747 
L 38 2863 
z
" transform="scale(0.015625)"/>
      </defs>
      <use xlink:href="#TimesNewRomanPSMT-4e"/>
      <use xlink:href="#TimesNewRomanPSMT-61" x="72.216797"/>
      <use xlink:href="#TimesNewRomanPSMT-74" x="116.601562"/>
      <use xlink:href="#TimesNewRomanPSMT-75" x="144.384766"/>
      <use xlink:href="#TimesNewRomanPSMT-72" x="194.384766"/>
      <use xlink:href="#TimesNewRomanPSMT-61" x="227.685547"/>
      <use xlink:href="#TimesNewRomanPSMT-6c" x="272.070312"/>
      <use xlink:href="#TimesNewRomanPSMT-20" x="299.853516"/>
      <use xlink:href="#TimesNewRomanPSMT-43" x="324.853516"/>
      <use xlink:href="#TimesNewRomanPSMT-6f" x="391.552734"/>
      <use xlink:href="#TimesNewRomanPSMT-6e" x="441.552734"/>
      <use xlink:href="#TimesNewRomanPSMT-6e" x="491.552734"/>
      <use xlink:href="#TimesNewRomanPSMT-65" x="541.552734"/>
      <use xlink:href="#TimesNewRomanPSMT-63" x="585.9375"/>
      <use xlink:href="#TimesNewRomanPSMT-74" x="630.322266"/>
      <use xlink:href="#TimesNewRomanPSMT-69" x="658.105469"/>
      <use xlink:href="#TimesNewRomanPSMT-76" x="685.888672"/>
      <use xlink:href="#TimesNewRomanPSMT-69" x="735.888672"/>
      <use xlink:href="#TimesNewRomanPSMT-74" x="763.671875"/>
      <use xlink:href="#TimesNewRomanPSMT-79" x="791.455078"/>
     </g>
    </g>
   </g>
   <g id="line2d_13">
    <path d="M 101.620063 256.32 
L 101.620063 34.56 
" clip-path="url(#p77ee135576)" style="fill: none; stroke-dasharray: 5.55,2.4; stroke-dashoffset: 0; stroke: #e89b9e; stroke-width: 1.5"/>
   </g>
   <g id="line2d_14">
    <path d="M 92.290909 246.24 
L 93.223824 184.020079 
L 94.15674 134.462667 
L 95.089655 94.497522 
L 96.022571 72.242745 
L 96.955486 58.333443 
L 97.888401 48.138224 
L 98.821317 48.735714 
L 99.754232 47.868073 
L 100.687147 47.87126 
L 101.620063 44.64 
L 102.552978 48.260651 
L 103.485893 48.858235 
L 104.418809 52.667914 
L 105.351724 57.315618 
L 106.284639 70.06953 
L 107.217555 69.240594 
L 108.15047 67.322179 
L 109.083386 70.934129 
L 110.016301 72.348698 
L 110.949216 71.464205 
L 111.882132 64.74945 
L 112.815047 61.913992 
L 113.747962 62.94868 
L 114.680878 67.467259 
L 115.613793 64.608711 
L 116.546708 64.985779 
L 117.479624 66.318504 
L 119.345455 73.383682 
L 120.27837 72.904899 
L 122.144201 78.346617 
L 123.077116 78.882326 
L 124.010031 78.160051 
L 124.942947 76.836703 
L 125.875862 80.271265 
L 126.808777 76.148714 
L 127.741693 74.468318 
L 128.674608 73.723459 
L 129.607524 76.344876 
L 130.540439 75.608849 
L 131.473354 78.518524 
L 132.40627 78.144736 
L 133.339185 80.086272 
L 134.2721 78.242649 
L 135.205016 80.105124 
L 136.137931 80.87394 
L 137.070846 69.904316 
L 138.003762 79.450086 
L 138.936677 84.58637 
L 139.869592 79.06001 
L 140.802508 78.433938 
L 141.735423 79.681256 
L 142.668339 81.558878 
L 143.601254 79.909001 
L 144.534169 73.666038 
L 145.467085 75.5081 
L 147.332915 79.954393 
L 148.265831 78.718518 
L 149.198746 77.759831 
L 150.131661 77.28447 
L 151.064577 80.960656 
L 151.997492 81.803292 
L 152.930408 83.768636 
L 153.863323 82.140445 
L 154.796238 81.757953 
L 155.729154 82.551092 
L 156.662069 81.993965 
L 157.594984 81.598871 
L 158.5279 81.882829 
L 159.460815 78.137485 
L 160.39373 76.56103 
L 161.326646 77.150374 
L 162.259561 76.835194 
L 163.192476 76.732966 
L 164.125392 77.724932 
L 165.058307 79.027559 
L 165.991223 79.48093 
L 166.924138 79.045888 
L 167.857053 77.752453 
L 168.789969 79.869063 
L 170.655799 77.808512 
L 171.588715 77.873284 
L 172.52163 78.337615 
L 173.454545 75.542545 
L 174.387461 74.784538 
L 175.320376 75.616578 
L 176.253292 77.04639 
L 177.186207 77.953959 
L 178.119122 82.854098 
L 179.052038 83.499139 
L 179.984953 84.693974 
L 180.917868 84.410183 
L 181.850784 83.624695 
L 183.716614 84.162236 
L 184.64953 83.295462 
L 185.582445 82.958234 
L 186.515361 84.502669 
L 187.448276 85.100612 
L 188.381191 84.815824 
L 189.314107 84.879951 
L 190.247022 86.668043 
L 191.179937 88.835538 
L 192.112853 89.653335 
L 193.045768 91.082643 
L 193.978683 90.832874 
L 194.911599 89.826462 
L 195.844514 92.21059 
L 196.777429 92.505122 
L 198.64326 91.884698 
L 199.576176 91.773207 
L 200.509091 91.963653 
L 201.442006 92.038718 
L 202.374922 91.239359 
L 203.307837 92.096524 
L 204.240752 91.183646 
L 206.106583 93.988831 
L 207.039498 93.741756 
L 207.972414 93.843767 
L 208.905329 96.50778 
L 209.838245 96.269762 
L 210.77116 96.584618 
L 212.636991 92.391721 
L 213.569906 90.998901 
L 214.502821 91.885762 
L 215.435737 92.348851 
L 216.368652 92.392597 
L 217.301567 90.79018 
L 219.167398 91.095343 
L 221.033229 90.765462 
L 221.966144 90.083167 
L 222.89906 90.282555 
L 223.831975 91.513654 
L 224.76489 93.2968 
L 225.697806 91.329096 
L 226.630721 91.660025 
L 227.563636 91.71491 
L 228.496552 91.444896 
L 229.429467 92.447142 
L 230.362382 91.829003 
L 232.228213 92.141803 
L 246.221944 93.473508 
L 260.215674 96.00708 
L 274.209404 98.005823 
L 288.203135 97.514529 
L 302.196865 97.233234 
L 316.190596 97.879911 
L 330.184326 96.757206 
L 344.178056 94.170268 
L 358.171787 95.878856 
L 372.165517 98.353187 
L 386.159248 94.834672 
L 400.152978 94.828669 
L 414.146708 93.768815 
L 428.140439 93.466527 
L 442.134169 92.803025 
L 456.1279 91.860338 
L 470.12163 91.967473 
L 484.115361 92.219025 
L 498.109091 92.114667 
L 498.109091 92.114667 
" clip-path="url(#p77ee135576)" style="fill: none; stroke: #d92523; stroke-width: 1.5; stroke-linecap: square"/>
    <defs>
     <path id="m850799feb1" d="M 0 1.5 
C 0.397805 1.5 0.77937 1.341951 1.06066 1.06066 
C 1.341951 0.77937 1.5 0.397805 1.5 0 
C 1.5 -0.397805 1.341951 -0.77937 1.06066 -1.06066 
C 0.77937 -1.341951 0.397805 -1.5 0 -1.5 
C -0.397805 -1.5 -0.77937 -1.341951 -1.06066 -1.06066 
C -1.341951 -0.77937 -1.5 -0.397805 -1.5 0 
C -1.5 0.397805 -1.341951 0.77937 -1.06066 1.06066 
C -0.77937 1.341951 -0.397805 1.5 0 1.5 
z
" style="stroke: #d92523"/>
    </defs>
    <g clip-path="url(#p77ee135576)">
     <use xlink:href="#m850799feb1" x="92.290909" y="246.24" style="fill: #ffffff; stroke: #d92523"/>
     <use xlink:href="#m850799feb1" x="93.223824" y="184.020079" style="fill: #ffffff; stroke: #d92523"/>
     <use xlink:href="#m850799feb1" x="94.15674" y="134.462667" style="fill: #ffffff; stroke: #d92523"/>
     <use xlink:href="#m850799feb1" x="95.089655" y="94.497522" style="fill: #ffffff; stroke: #d92523"/>
     <use xlink:href="#m850799feb1" x="96.022571" y="72.242745" style="fill: #ffffff; stroke: #d92523"/>
     <use xlink:href="#m850799feb1" x="96.955486" y="58.333443" style="fill: #ffffff; stroke: #d92523"/>
     <use xlink:href="#m850799feb1" x="97.888401" y="48.138224" style="fill: #ffffff; stroke: #d92523"/>
     <use xlink:href="#m850799feb1" x="98.821317" y="48.735714" style="fill: #ffffff; stroke: #d92523"/>
     <use xlink:href="#m850799feb1" x="99.754232" y="47.868073" style="fill: #ffffff; stroke: #d92523"/>
     <use xlink:href="#m850799feb1" x="100.687147" y="47.87126" style="fill: #ffffff; stroke: #d92523"/>
     <use xlink:href="#m850799feb1" x="101.620063" y="44.64" style="fill: #ffffff; stroke: #d92523"/>
     <use xlink:href="#m850799feb1" x="102.552978" y="48.260651" style="fill: #ffffff; stroke: #d92523"/>
     <use xlink:href="#m850799feb1" x="103.485893" y="48.858235" style="fill: #ffffff; stroke: #d92523"/>
     <use xlink:href="#m850799feb1" x="104.418809" y="52.667914" style="fill: #ffffff; stroke: #d92523"/>
     <use xlink:href="#m850799feb1" x="105.351724" y="57.315618" style="fill: #ffffff; stroke: #d92523"/>
     <use xlink:href="#m850799feb1" x="106.284639" y="70.06953" style="fill: #ffffff; stroke: #d92523"/>
     <use xlink:href="#m850799feb1" x="107.217555" y="69.240594" style="fill: #ffffff; stroke: #d92523"/>
     <use xlink:href="#m850799feb1" x="108.15047" y="67.322179" style="fill: #ffffff; stroke: #d92523"/>
     <use xlink:href="#m850799feb1" x="109.083386" y="70.934129" style="fill: #ffffff; stroke: #d92523"/>
     <use xlink:href="#m850799feb1" x="110.016301" y="72.348698" style="fill: #ffffff; stroke: #d92523"/>
     <use xlink:href="#m850799feb1" x="110.949216" y="71.464205" style="fill: #ffffff; stroke: #d92523"/>
     <use xlink:href="#m850799feb1" x="111.882132" y="64.74945" style="fill: #ffffff; stroke: #d92523"/>
     <use xlink:href="#m850799feb1" x="112.815047" y="61.913992" style="fill: #ffffff; stroke: #d92523"/>
     <use xlink:href="#m850799feb1" x="113.747962" y="62.94868" style="fill: #ffffff; stroke: #d92523"/>
     <use xlink:href="#m850799feb1" x="114.680878" y="67.467259" style="fill: #ffffff; stroke: #d92523"/>
     <use xlink:href="#m850799feb1" x="115.613793" y="64.608711" style="fill: #ffffff; stroke: #d92523"/>
     <use xlink:href="#m850799feb1" x="116.546708" y="64.985779" style="fill: #ffffff; stroke: #d92523"/>
     <use xlink:href="#m850799feb1" x="117.479624" y="66.318504" style="fill: #ffffff; stroke: #d92523"/>
     <use xlink:href="#m850799feb1" x="118.412539" y="69.84871" style="fill: #ffffff; stroke: #d92523"/>
     <use xlink:href="#m850799feb1" x="119.345455" y="73.383682" style="fill: #ffffff; stroke: #d92523"/>
     <use xlink:href="#m850799feb1" x="120.27837" y="72.904899" style="fill: #ffffff; stroke: #d92523"/>
     <use xlink:href="#m850799feb1" x="121.211285" y="75.571532" style="fill: #ffffff; stroke: #d92523"/>
     <use xlink:href="#m850799feb1" x="122.144201" y="78.346617" style="fill: #ffffff; stroke: #d92523"/>
     <use xlink:href="#m850799feb1" x="123.077116" y="78.882326" style="fill: #ffffff; stroke: #d92523"/>
     <use xlink:href="#m850799feb1" x="124.010031" y="78.160051" style="fill: #ffffff; stroke: #d92523"/>
     <use xlink:href="#m850799feb1" x="124.942947" y="76.836703" style="fill: #ffffff; stroke: #d92523"/>
     <use xlink:href="#m850799feb1" x="125.875862" y="80.271265" style="fill: #ffffff; stroke: #d92523"/>
     <use xlink:href="#m850799feb1" x="126.808777" y="76.148714" style="fill: #ffffff; stroke: #d92523"/>
     <use xlink:href="#m850799feb1" x="127.741693" y="74.468318" style="fill: #ffffff; stroke: #d92523"/>
     <use xlink:href="#m850799feb1" x="128.674608" y="73.723459" style="fill: #ffffff; stroke: #d92523"/>
     <use xlink:href="#m850799feb1" x="129.607524" y="76.344876" style="fill: #ffffff; stroke: #d92523"/>
     <use xlink:href="#m850799feb1" x="130.540439" y="75.608849" style="fill: #ffffff; stroke: #d92523"/>
     <use xlink:href="#m850799feb1" x="131.473354" y="78.518524" style="fill: #ffffff; stroke: #d92523"/>
     <use xlink:href="#m850799feb1" x="132.40627" y="78.144736" style="fill: #ffffff; stroke: #d92523"/>
     <use xlink:href="#m850799feb1" x="133.339185" y="80.086272" style="fill: #ffffff; stroke: #d92523"/>
     <use xlink:href="#m850799feb1" x="134.2721" y="78.242649" style="fill: #ffffff; stroke: #d92523"/>
     <use xlink:href="#m850799feb1" x="135.205016" y="80.105124" style="fill: #ffffff; stroke: #d92523"/>
     <use xlink:href="#m850799feb1" x="136.137931" y="80.87394" style="fill: #ffffff; stroke: #d92523"/>
     <use xlink:href="#m850799feb1" x="137.070846" y="69.904316" style="fill: #ffffff; stroke: #d92523"/>
     <use xlink:href="#m850799feb1" x="138.003762" y="79.450086" style="fill: #ffffff; stroke: #d92523"/>
     <use xlink:href="#m850799feb1" x="138.936677" y="84.58637" style="fill: #ffffff; stroke: #d92523"/>
     <use xlink:href="#m850799feb1" x="139.869592" y="79.06001" style="fill: #ffffff; stroke: #d92523"/>
     <use xlink:href="#m850799feb1" x="140.802508" y="78.433938" style="fill: #ffffff; stroke: #d92523"/>
     <use xlink:href="#m850799feb1" x="141.735423" y="79.681256" style="fill: #ffffff; stroke: #d92523"/>
     <use xlink:href="#m850799feb1" x="142.668339" y="81.558878" style="fill: #ffffff; stroke: #d92523"/>
     <use xlink:href="#m850799feb1" x="143.601254" y="79.909001" style="fill: #ffffff; stroke: #d92523"/>
     <use xlink:href="#m850799feb1" x="144.534169" y="73.666038" style="fill: #ffffff; stroke: #d92523"/>
     <use xlink:href="#m850799feb1" x="145.467085" y="75.5081" style="fill: #ffffff; stroke: #d92523"/>
     <use xlink:href="#m850799feb1" x="146.4" y="77.836205" style="fill: #ffffff; stroke: #d92523"/>
     <use xlink:href="#m850799feb1" x="147.332915" y="79.954393" style="fill: #ffffff; stroke: #d92523"/>
     <use xlink:href="#m850799feb1" x="148.265831" y="78.718518" style="fill: #ffffff; stroke: #d92523"/>
     <use xlink:href="#m850799feb1" x="149.198746" y="77.759831" style="fill: #ffffff; stroke: #d92523"/>
     <use xlink:href="#m850799feb1" x="150.131661" y="77.28447" style="fill: #ffffff; stroke: #d92523"/>
     <use xlink:href="#m850799feb1" x="151.064577" y="80.960656" style="fill: #ffffff; stroke: #d92523"/>
     <use xlink:href="#m850799feb1" x="151.997492" y="81.803292" style="fill: #ffffff; stroke: #d92523"/>
     <use xlink:href="#m850799feb1" x="152.930408" y="83.768636" style="fill: #ffffff; stroke: #d92523"/>
     <use xlink:href="#m850799feb1" x="153.863323" y="82.140445" style="fill: #ffffff; stroke: #d92523"/>
     <use xlink:href="#m850799feb1" x="154.796238" y="81.757953" style="fill: #ffffff; stroke: #d92523"/>
     <use xlink:href="#m850799feb1" x="155.729154" y="82.551092" style="fill: #ffffff; stroke: #d92523"/>
     <use xlink:href="#m850799feb1" x="156.662069" y="81.993965" style="fill: #ffffff; stroke: #d92523"/>
     <use xlink:href="#m850799feb1" x="157.594984" y="81.598871" style="fill: #ffffff; stroke: #d92523"/>
     <use xlink:href="#m850799feb1" x="158.5279" y="81.882829" style="fill: #ffffff; stroke: #d92523"/>
     <use xlink:href="#m850799feb1" x="159.460815" y="78.137485" style="fill: #ffffff; stroke: #d92523"/>
     <use xlink:href="#m850799feb1" x="160.39373" y="76.56103" style="fill: #ffffff; stroke: #d92523"/>
     <use xlink:href="#m850799feb1" x="161.326646" y="77.150374" style="fill: #ffffff; stroke: #d92523"/>
     <use xlink:href="#m850799feb1" x="162.259561" y="76.835194" style="fill: #ffffff; stroke: #d92523"/>
     <use xlink:href="#m850799feb1" x="163.192476" y="76.732966" style="fill: #ffffff; stroke: #d92523"/>
     <use xlink:href="#m850799feb1" x="164.125392" y="77.724932" style="fill: #ffffff; stroke: #d92523"/>
     <use xlink:href="#m850799feb1" x="165.058307" y="79.027559" style="fill: #ffffff; stroke: #d92523"/>
     <use xlink:href="#m850799feb1" x="165.991223" y="79.48093" style="fill: #ffffff; stroke: #d92523"/>
     <use xlink:href="#m850799feb1" x="166.924138" y="79.045888" style="fill: #ffffff; stroke: #d92523"/>
     <use xlink:href="#m850799feb1" x="167.857053" y="77.752453" style="fill: #ffffff; stroke: #d92523"/>
     <use xlink:href="#m850799feb1" x="168.789969" y="79.869063" style="fill: #ffffff; stroke: #d92523"/>
     <use xlink:href="#m850799feb1" x="169.722884" y="78.835495" style="fill: #ffffff; stroke: #d92523"/>
     <use xlink:href="#m850799feb1" x="170.655799" y="77.808512" style="fill: #ffffff; stroke: #d92523"/>
     <use xlink:href="#m850799feb1" x="171.588715" y="77.873284" style="fill: #ffffff; stroke: #d92523"/>
     <use xlink:href="#m850799feb1" x="172.52163" y="78.337615" style="fill: #ffffff; stroke: #d92523"/>
     <use xlink:href="#m850799feb1" x="173.454545" y="75.542545" style="fill: #ffffff; stroke: #d92523"/>
     <use xlink:href="#m850799feb1" x="174.387461" y="74.784538" style="fill: #ffffff; stroke: #d92523"/>
     <use xlink:href="#m850799feb1" x="175.320376" y="75.616578" style="fill: #ffffff; stroke: #d92523"/>
     <use xlink:href="#m850799feb1" x="176.253292" y="77.04639" style="fill: #ffffff; stroke: #d92523"/>
     <use xlink:href="#m850799feb1" x="177.186207" y="77.953959" style="fill: #ffffff; stroke: #d92523"/>
     <use xlink:href="#m850799feb1" x="178.119122" y="82.854098" style="fill: #ffffff; stroke: #d92523"/>
     <use xlink:href="#m850799feb1" x="179.052038" y="83.499139" style="fill: #ffffff; stroke: #d92523"/>
     <use xlink:href="#m850799feb1" x="179.984953" y="84.693974" style="fill: #ffffff; stroke: #d92523"/>
     <use xlink:href="#m850799feb1" x="180.917868" y="84.410183" style="fill: #ffffff; stroke: #d92523"/>
     <use xlink:href="#m850799feb1" x="181.850784" y="83.624695" style="fill: #ffffff; stroke: #d92523"/>
     <use xlink:href="#m850799feb1" x="182.783699" y="83.868046" style="fill: #ffffff; stroke: #d92523"/>
     <use xlink:href="#m850799feb1" x="183.716614" y="84.162236" style="fill: #ffffff; stroke: #d92523"/>
     <use xlink:href="#m850799feb1" x="184.64953" y="83.295462" style="fill: #ffffff; stroke: #d92523"/>
     <use xlink:href="#m850799feb1" x="185.582445" y="82.958234" style="fill: #ffffff; stroke: #d92523"/>
     <use xlink:href="#m850799feb1" x="186.515361" y="84.502669" style="fill: #ffffff; stroke: #d92523"/>
     <use xlink:href="#m850799feb1" x="187.448276" y="85.100612" style="fill: #ffffff; stroke: #d92523"/>
     <use xlink:href="#m850799feb1" x="188.381191" y="84.815824" style="fill: #ffffff; stroke: #d92523"/>
     <use xlink:href="#m850799feb1" x="189.314107" y="84.879951" style="fill: #ffffff; stroke: #d92523"/>
     <use xlink:href="#m850799feb1" x="190.247022" y="86.668043" style="fill: #ffffff; stroke: #d92523"/>
     <use xlink:href="#m850799feb1" x="191.179937" y="88.835538" style="fill: #ffffff; stroke: #d92523"/>
     <use xlink:href="#m850799feb1" x="192.112853" y="89.653335" style="fill: #ffffff; stroke: #d92523"/>
     <use xlink:href="#m850799feb1" x="193.045768" y="91.082643" style="fill: #ffffff; stroke: #d92523"/>
     <use xlink:href="#m850799feb1" x="193.978683" y="90.832874" style="fill: #ffffff; stroke: #d92523"/>
     <use xlink:href="#m850799feb1" x="194.911599" y="89.826462" style="fill: #ffffff; stroke: #d92523"/>
     <use xlink:href="#m850799feb1" x="195.844514" y="92.21059" style="fill: #ffffff; stroke: #d92523"/>
     <use xlink:href="#m850799feb1" x="196.777429" y="92.505122" style="fill: #ffffff; stroke: #d92523"/>
     <use xlink:href="#m850799feb1" x="197.710345" y="92.19159" style="fill: #ffffff; stroke: #d92523"/>
     <use xlink:href="#m850799feb1" x="198.64326" y="91.884698" style="fill: #ffffff; stroke: #d92523"/>
     <use xlink:href="#m850799feb1" x="199.576176" y="91.773207" style="fill: #ffffff; stroke: #d92523"/>
     <use xlink:href="#m850799feb1" x="200.509091" y="91.963653" style="fill: #ffffff; stroke: #d92523"/>
     <use xlink:href="#m850799feb1" x="201.442006" y="92.038718" style="fill: #ffffff; stroke: #d92523"/>
     <use xlink:href="#m850799feb1" x="202.374922" y="91.239359" style="fill: #ffffff; stroke: #d92523"/>
     <use xlink:href="#m850799feb1" x="203.307837" y="92.096524" style="fill: #ffffff; stroke: #d92523"/>
     <use xlink:href="#m850799feb1" x="204.240752" y="91.183646" style="fill: #ffffff; stroke: #d92523"/>
     <use xlink:href="#m850799feb1" x="205.173668" y="92.58354" style="fill: #ffffff; stroke: #d92523"/>
     <use xlink:href="#m850799feb1" x="206.106583" y="93.988831" style="fill: #ffffff; stroke: #d92523"/>
     <use xlink:href="#m850799feb1" x="207.039498" y="93.741756" style="fill: #ffffff; stroke: #d92523"/>
     <use xlink:href="#m850799feb1" x="207.972414" y="93.843767" style="fill: #ffffff; stroke: #d92523"/>
     <use xlink:href="#m850799feb1" x="208.905329" y="96.50778" style="fill: #ffffff; stroke: #d92523"/>
     <use xlink:href="#m850799feb1" x="209.838245" y="96.269762" style="fill: #ffffff; stroke: #d92523"/>
     <use xlink:href="#m850799feb1" x="210.77116" y="96.584618" style="fill: #ffffff; stroke: #d92523"/>
     <use xlink:href="#m850799feb1" x="211.704075" y="94.541062" style="fill: #ffffff; stroke: #d92523"/>
     <use xlink:href="#m850799feb1" x="212.636991" y="92.391721" style="fill: #ffffff; stroke: #d92523"/>
     <use xlink:href="#m850799feb1" x="213.569906" y="90.998901" style="fill: #ffffff; stroke: #d92523"/>
     <use xlink:href="#m850799feb1" x="214.502821" y="91.885762" style="fill: #ffffff; stroke: #d92523"/>
     <use xlink:href="#m850799feb1" x="215.435737" y="92.348851" style="fill: #ffffff; stroke: #d92523"/>
     <use xlink:href="#m850799feb1" x="216.368652" y="92.392597" style="fill: #ffffff; stroke: #d92523"/>
     <use xlink:href="#m850799feb1" x="217.301567" y="90.79018" style="fill: #ffffff; stroke: #d92523"/>
     <use xlink:href="#m850799feb1" x="218.234483" y="90.938499" style="fill: #ffffff; stroke: #d92523"/>
     <use xlink:href="#m850799feb1" x="219.167398" y="91.095343" style="fill: #ffffff; stroke: #d92523"/>
     <use xlink:href="#m850799feb1" x="220.100313" y="90.882625" style="fill: #ffffff; stroke: #d92523"/>
     <use xlink:href="#m850799feb1" x="221.033229" y="90.765462" style="fill: #ffffff; stroke: #d92523"/>
     <use xlink:href="#m850799feb1" x="221.966144" y="90.083167" style="fill: #ffffff; stroke: #d92523"/>
     <use xlink:href="#m850799feb1" x="222.89906" y="90.282555" style="fill: #ffffff; stroke: #d92523"/>
     <use xlink:href="#m850799feb1" x="223.831975" y="91.513654" style="fill: #ffffff; stroke: #d92523"/>
     <use xlink:href="#m850799feb1" x="224.76489" y="93.2968" style="fill: #ffffff; stroke: #d92523"/>
     <use xlink:href="#m850799feb1" x="225.697806" y="91.329096" style="fill: #ffffff; stroke: #d92523"/>
     <use xlink:href="#m850799feb1" x="226.630721" y="91.660025" style="fill: #ffffff; stroke: #d92523"/>
     <use xlink:href="#m850799feb1" x="227.563636" y="91.71491" style="fill: #ffffff; stroke: #d92523"/>
     <use xlink:href="#m850799feb1" x="228.496552" y="91.444896" style="fill: #ffffff; stroke: #d92523"/>
     <use xlink:href="#m850799feb1" x="229.429467" y="92.447142" style="fill: #ffffff; stroke: #d92523"/>
     <use xlink:href="#m850799feb1" x="230.362382" y="91.829003" style="fill: #ffffff; stroke: #d92523"/>
     <use xlink:href="#m850799feb1" x="232.228213" y="92.141803" style="fill: #ffffff; stroke: #d92523"/>
     <use xlink:href="#m850799feb1" x="246.221944" y="93.473508" style="fill: #ffffff; stroke: #d92523"/>
     <use xlink:href="#m850799feb1" x="260.215674" y="96.00708" style="fill: #ffffff; stroke: #d92523"/>
     <use xlink:href="#m850799feb1" x="274.209404" y="98.005823" style="fill: #ffffff; stroke: #d92523"/>
     <use xlink:href="#m850799feb1" x="288.203135" y="97.514529" style="fill: #ffffff; stroke: #d92523"/>
     <use xlink:href="#m850799feb1" x="302.196865" y="97.233234" style="fill: #ffffff; stroke: #d92523"/>
     <use xlink:href="#m850799feb1" x="316.190596" y="97.879911" style="fill: #ffffff; stroke: #d92523"/>
     <use xlink:href="#m850799feb1" x="330.184326" y="96.757206" style="fill: #ffffff; stroke: #d92523"/>
     <use xlink:href="#m850799feb1" x="344.178056" y="94.170268" style="fill: #ffffff; stroke: #d92523"/>
     <use xlink:href="#m850799feb1" x="358.171787" y="95.878856" style="fill: #ffffff; stroke: #d92523"/>
     <use xlink:href="#m850799feb1" x="372.165517" y="98.353187" style="fill: #ffffff; stroke: #d92523"/>
     <use xlink:href="#m850799feb1" x="386.159248" y="94.834672" style="fill: #ffffff; stroke: #d92523"/>
     <use xlink:href="#m850799feb1" x="400.152978" y="94.828669" style="fill: #ffffff; stroke: #d92523"/>
     <use xlink:href="#m850799feb1" x="414.146708" y="93.768815" style="fill: #ffffff; stroke: #d92523"/>
     <use xlink:href="#m850799feb1" x="428.140439" y="93.466527" style="fill: #ffffff; stroke: #d92523"/>
     <use xlink:href="#m850799feb1" x="442.134169" y="92.803025" style="fill: #ffffff; stroke: #d92523"/>
     <use xlink:href="#m850799feb1" x="456.1279" y="91.860338" style="fill: #ffffff; stroke: #d92523"/>
     <use xlink:href="#m850799feb1" x="470.12163" y="91.967473" style="fill: #ffffff; stroke: #d92523"/>
     <use xlink:href="#m850799feb1" x="484.115361" y="92.219025" style="fill: #ffffff; stroke: #d92523"/>
     <use xlink:href="#m850799feb1" x="498.109091" y="92.114667" style="fill: #ffffff; stroke: #d92523"/>
    </g>
   </g>
   <g id="patch_3">
    <path d="M 72 256.32 
L 72 34.56 
" style="fill: none; stroke: #000000; stroke-width: 0.8; stroke-linejoin: miter; stroke-linecap: square"/>
   </g>
   <g id="patch_4">
    <path d="M 518.4 256.32 
L 518.4 34.56 
" style="fill: none; stroke: #000000; stroke-width: 0.8; stroke-linejoin: miter; stroke-linecap: square"/>
   </g>
   <g id="patch_5">
    <path d="M 72 256.32 
L 518.4 256.32 
" style="fill: none; stroke: #000000; stroke-width: 0.8; stroke-linejoin: miter; stroke-linecap: square"/>
   </g>
   <g id="patch_6">
    <path d="M 72 34.56 
L 518.4 34.56 
" style="fill: none; stroke: #000000; stroke-width: 0.8; stroke-linejoin: miter; stroke-linecap: square"/>
   </g>
   <g id="text_15">
    <!-- 12 -->
    <g transform="translate(101.620063 253.750485) scale(0.105 -0.105)">
     <use xlink:href="#TimesNewRomanPSMT-31"/>
     <use xlink:href="#TimesNewRomanPSMT-32" x="50"/>
    </g>
   </g>
   <g id="text_16">
    <!-- Natural Connectivity -->
    <g transform="translate(242.187469 28.56) scale(0.126 -0.126)">
     <use xlink:href="#TimesNewRomanPSMT-4e"/>
     <use xlink:href="#TimesNewRomanPSMT-61" x="72.216797"/>
     <use xlink:href="#TimesNewRomanPSMT-74" x="116.601562"/>
     <use xlink:href="#TimesNewRomanPSMT-75" x="144.384766"/>
     <use xlink:href="#TimesNewRomanPSMT-72" x="194.384766"/>
     <use xlink:href="#TimesNewRomanPSMT-61" x="227.685547"/>
     <use xlink:href="#TimesNewRomanPSMT-6c" x="272.070312"/>
     <use xlink:href="#TimesNewRomanPSMT-20" x="299.853516"/>
     <use xlink:href="#TimesNewRomanPSMT-43" x="324.853516"/>
     <use xlink:href="#TimesNewRomanPSMT-6f" x="391.552734"/>
     <use xlink:href="#TimesNewRomanPSMT-6e" x="441.552734"/>
     <use xlink:href="#TimesNewRomanPSMT-6e" x="491.552734"/>
     <use xlink:href="#TimesNewRomanPSMT-65" x="541.552734"/>
     <use xlink:href="#TimesNewRomanPSMT-63" x="585.9375"/>
     <use xlink:href="#TimesNewRomanPSMT-74" x="630.322266"/>
     <use xlink:href="#TimesNewRomanPSMT-69" x="658.105469"/>
     <use xlink:href="#TimesNewRomanPSMT-76" x="685.888672"/>
     <use xlink:href="#TimesNewRomanPSMT-69" x="735.888672"/>
     <use xlink:href="#TimesNewRomanPSMT-74" x="763.671875"/>
     <use xlink:href="#TimesNewRomanPSMT-79" x="791.455078"/>
    </g>
   </g>
   <g id="legend_1">
    <g id="patch_7">
     <path d="M 389.095781 57.825703 
L 511.05 57.825703 
Q 513.15 57.825703 513.15 55.725703 
L 513.15 41.91 
Q 513.15 39.81 511.05 39.81 
L 389.095781 39.81 
Q 386.995781 39.81 386.995781 41.91 
L 386.995781 55.725703 
Q 386.995781 57.825703 389.095781 57.825703 
z
" style="fill: #ffffff; opacity: 0.8; stroke: #cccccc; stroke-linejoin: miter"/>
    </g>
    <g id="line2d_15">
     <path d="M 391.195781 47.685 
L 401.695781 47.685 
L 412.195781 47.685 
" style="fill: none; stroke: #d92523; stroke-width: 1.5; stroke-linecap: square"/>
     <g>
      <use xlink:href="#m850799feb1" x="401.695781" y="47.685" style="fill: #ffffff; stroke: #d92523"/>
     </g>
    </g>
    <g id="text_17">
     <!-- Natural Connectivity -->
     <g transform="translate(420.595781 51.36) scale(0.105 -0.105)">
      <use xlink:href="#TimesNewRomanPSMT-4e"/>
      <use xlink:href="#TimesNewRomanPSMT-61" x="72.216797"/>
      <use xlink:href="#TimesNewRomanPSMT-74" x="116.601562"/>
      <use xlink:href="#TimesNewRomanPSMT-75" x="144.384766"/>
      <use xlink:href="#TimesNewRomanPSMT-72" x="194.384766"/>
      <use xlink:href="#TimesNewRomanPSMT-61" x="227.685547"/>
      <use xlink:href="#TimesNewRomanPSMT-6c" x="272.070312"/>
      <use xlink:href="#TimesNewRomanPSMT-20" x="299.853516"/>
      <use xlink:href="#TimesNewRomanPSMT-43" x="324.853516"/>
      <use xlink:href="#TimesNewRomanPSMT-6f" x="391.552734"/>
      <use xlink:href="#TimesNewRomanPSMT-6e" x="441.552734"/>
      <use xlink:href="#TimesNewRomanPSMT-6e" x="491.552734"/>
      <use xlink:href="#TimesNewRomanPSMT-65" x="541.552734"/>
      <use xlink:href="#TimesNewRomanPSMT-63" x="585.9375"/>
      <use xlink:href="#TimesNewRomanPSMT-74" x="630.322266"/>
      <use xlink:href="#TimesNewRomanPSMT-69" x="658.105469"/>
      <use xlink:href="#TimesNewRomanPSMT-76" x="685.888672"/>
      <use xlink:href="#TimesNewRomanPSMT-69" x="735.888672"/>
      <use xlink:href="#TimesNewRomanPSMT-74" x="763.671875"/>
      <use xlink:href="#TimesNewRomanPSMT-79" x="791.455078"/>
     </g>
    </g>
   </g>
  </g>
 </g>
 <defs>
  <clipPath id="p77ee135576">
   <rect x="72" y="34.56" width="446.4" height="221.76"/>
  </clipPath>
 </defs>
</svg>
