<?xml version="1.0" encoding="utf-8" standalone="no"?>
<!DOCTYPE svg PUBLIC "-//W3C//DTD SVG 1.1//EN"
  "http://www.w3.org/Graphics/SVG/1.1/DTD/svg11.dtd">
<svg xmlns:xlink="http://www.w3.org/1999/xlink" width="576pt" height="288pt" viewBox="0 0 576 288" xmlns="http://www.w3.org/2000/svg" version="1.1">
 <metadata>
  <rdf:RDF xmlns:dc="http://purl.org/dc/elements/1.1/" xmlns:cc="http://creativecommons.org/ns#" xmlns:rdf="http://www.w3.org/1999/02/22-rdf-syntax-ns#">
   <cc:Work>
    <dc:type rdf:resource="http://purl.org/dc/dcmitype/StillImage"/>
    <dc:date>2024-11-13T20:09:39.166258</dc:date>
    <dc:format>image/svg+xml</dc:format>
    <dc:creator>
     <cc:Agent>
      <dc:title>Matplotlib v3.9.2, https://matplotlib.org/</dc:title>
     </cc:Agent>
    </dc:creator>
   </cc:Work>
  </rdf:RDF>
 </metadata>
 <defs>
  <style type="text/css">*{stroke-linejoin: round; stroke-linecap: butt}</style>
 </defs>
 <g id="figure_1">
  <g id="patch_1">
   <path d="M 0 288 
L 576 288 
L 576 0 
L 0 0 
z
" style="fill: #ffffff"/>
  </g>
  <g id="axes_1">
   <g id="patch_2">
    <path d="M 72 256.32 
L 518.4 256.32 
L 518.4 34.56 
L 72 34.56 
z
" style="fill: #ffffff"/>
   </g>
   <g id="matplotlib.axis_1">
    <g id="xtick_1">
     <g id="line2d_1">
      <defs>
       <path id="mbdedb80df4" d="M 0 0 
L 0 3.5 
" style="stroke: #000000; stroke-width: 0.8"/>
      </defs>
      <g>
       <use xlink:href="#mbdedb80df4" x="89.567297" y="256.32" style="stroke: #000000; stroke-width: 0.8"/>
      </g>
     </g>
     <g id="text_1">
      <!-- 0 -->
      <g transform="translate(86.942297 270.610937) scale(0.105 -0.105)">
       <defs>
        <path id="TimesNewRomanPSMT-30" d="M 231 2094 
Q 231 2819 450 3342 
Q 669 3866 1031 4122 
Q 1313 4325 1613 4325 
Q 2100 4325 2488 3828 
Q 2972 3213 2972 2159 
Q 2972 1422 2759 906 
Q 2547 391 2217 158 
Q 1888 -75 1581 -75 
Q 975 -75 572 641 
Q 231 1244 231 2094 
z
M 844 2016 
Q 844 1141 1059 588 
Q 1238 122 1591 122 
Q 1759 122 1940 273 
Q 2122 425 2216 781 
Q 2359 1319 2359 2297 
Q 2359 3022 2209 3506 
Q 2097 3866 1919 4016 
Q 1791 4119 1609 4119 
Q 1397 4119 1231 3928 
Q 1006 3669 925 3112 
Q 844 2556 844 2016 
z
" transform="scale(0.015625)"/>
       </defs>
       <use xlink:href="#TimesNewRomanPSMT-30"/>
      </g>
     </g>
    </g>
    <g id="xtick_2">
     <g id="line2d_2">
      <g>
       <use xlink:href="#mbdedb80df4" x="144.039536" y="256.32" style="stroke: #000000; stroke-width: 0.8"/>
      </g>
     </g>
     <g id="text_2">
      <!-- 20 -->
      <g transform="translate(138.789536 270.610937) scale(0.105 -0.105)">
       <defs>
        <path id="TimesNewRomanPSMT-32" d="M 2934 816 
L 2638 0 
L 138 0 
L 138 116 
Q 1241 1122 1691 1759 
Q 2141 2397 2141 2925 
Q 2141 3328 1894 3587 
Q 1647 3847 1303 3847 
Q 991 3847 742 3664 
Q 494 3481 375 3128 
L 259 3128 
Q 338 3706 661 4015 
Q 984 4325 1469 4325 
Q 1984 4325 2329 3994 
Q 2675 3663 2675 3213 
Q 2675 2891 2525 2569 
Q 2294 2063 1775 1497 
Q 997 647 803 472 
L 1909 472 
Q 2247 472 2383 497 
Q 2519 522 2628 598 
Q 2738 675 2819 816 
L 2934 816 
z
" transform="scale(0.015625)"/>
       </defs>
       <use xlink:href="#TimesNewRomanPSMT-32"/>
       <use xlink:href="#TimesNewRomanPSMT-30" x="50"/>
      </g>
     </g>
    </g>
    <g id="xtick_3">
     <g id="line2d_3">
      <g>
       <use xlink:href="#mbdedb80df4" x="198.511775" y="256.32" style="stroke: #000000; stroke-width: 0.8"/>
      </g>
     </g>
     <g id="text_3">
      <!-- 40 -->
      <g transform="translate(193.261775 270.610937) scale(0.105 -0.105)">
       <defs>
        <path id="TimesNewRomanPSMT-34" d="M 2978 1563 
L 2978 1119 
L 2409 1119 
L 2409 0 
L 1894 0 
L 1894 1119 
L 100 1119 
L 100 1519 
L 2066 4325 
L 2409 4325 
L 2409 1563 
L 2978 1563 
z
M 1894 1563 
L 1894 3666 
L 406 1563 
L 1894 1563 
z
" transform="scale(0.015625)"/>
       </defs>
       <use xlink:href="#TimesNewRomanPSMT-34"/>
       <use xlink:href="#TimesNewRomanPSMT-30" x="50"/>
      </g>
     </g>
    </g>
    <g id="xtick_4">
     <g id="line2d_4">
      <g>
       <use xlink:href="#mbdedb80df4" x="252.984015" y="256.32" style="stroke: #000000; stroke-width: 0.8"/>
      </g>
     </g>
     <g id="text_4">
      <!-- 60 -->
      <g transform="translate(247.734015 270.610937) scale(0.105 -0.105)">
       <defs>
        <path id="TimesNewRomanPSMT-36" d="M 2869 4325 
L 2869 4209 
Q 2456 4169 2195 4045 
Q 1934 3922 1679 3669 
Q 1425 3416 1258 3105 
Q 1091 2794 978 2366 
Q 1428 2675 1881 2675 
Q 2316 2675 2634 2325 
Q 2953 1975 2953 1425 
Q 2953 894 2631 456 
Q 2244 -75 1606 -75 
Q 1172 -75 869 213 
Q 275 772 275 1663 
Q 275 2231 503 2743 
Q 731 3256 1154 3653 
Q 1578 4050 1965 4187 
Q 2353 4325 2688 4325 
L 2869 4325 
z
M 925 2138 
Q 869 1716 869 1456 
Q 869 1156 980 804 
Q 1091 453 1309 247 
Q 1469 100 1697 100 
Q 1969 100 2183 356 
Q 2397 613 2397 1088 
Q 2397 1622 2184 2012 
Q 1972 2403 1581 2403 
Q 1463 2403 1327 2353 
Q 1191 2303 925 2138 
z
" transform="scale(0.015625)"/>
       </defs>
       <use xlink:href="#TimesNewRomanPSMT-36"/>
       <use xlink:href="#TimesNewRomanPSMT-30" x="50"/>
      </g>
     </g>
    </g>
    <g id="xtick_5">
     <g id="line2d_5">
      <g>
       <use xlink:href="#mbdedb80df4" x="307.456254" y="256.32" style="stroke: #000000; stroke-width: 0.8"/>
      </g>
     </g>
     <g id="text_5">
      <!-- 80 -->
      <g transform="translate(302.206254 270.610937) scale(0.105 -0.105)">
       <defs>
        <path id="TimesNewRomanPSMT-38" d="M 1228 2134 
Q 725 2547 579 2797 
Q 434 3047 434 3316 
Q 434 3728 753 4026 
Q 1072 4325 1600 4325 
Q 2113 4325 2425 4047 
Q 2738 3769 2738 3413 
Q 2738 3175 2569 2928 
Q 2400 2681 1866 2347 
Q 2416 1922 2594 1678 
Q 2831 1359 2831 1006 
Q 2831 559 2490 242 
Q 2150 -75 1597 -75 
Q 994 -75 656 303 
Q 388 606 388 966 
Q 388 1247 577 1523 
Q 766 1800 1228 2134 
z
M 1719 2469 
Q 2094 2806 2194 3001 
Q 2294 3197 2294 3444 
Q 2294 3772 2109 3958 
Q 1925 4144 1606 4144 
Q 1288 4144 1088 3959 
Q 888 3775 888 3528 
Q 888 3366 970 3203 
Q 1053 3041 1206 2894 
L 1719 2469 
z
M 1375 2016 
Q 1116 1797 991 1539 
Q 866 1281 866 981 
Q 866 578 1086 336 
Q 1306 94 1647 94 
Q 1984 94 2187 284 
Q 2391 475 2391 747 
Q 2391 972 2272 1150 
Q 2050 1481 1375 2016 
z
" transform="scale(0.015625)"/>
       </defs>
       <use xlink:href="#TimesNewRomanPSMT-38"/>
       <use xlink:href="#TimesNewRomanPSMT-30" x="50"/>
      </g>
     </g>
    </g>
    <g id="xtick_6">
     <g id="line2d_6">
      <g>
       <use xlink:href="#mbdedb80df4" x="361.928493" y="256.32" style="stroke: #000000; stroke-width: 0.8"/>
      </g>
     </g>
     <g id="text_6">
      <!-- 100 -->
      <g transform="translate(354.053493 270.610937) scale(0.105 -0.105)">
       <defs>
        <path id="TimesNewRomanPSMT-31" d="M 750 3822 
L 1781 4325 
L 1884 4325 
L 1884 747 
Q 1884 391 1914 303 
Q 1944 216 2037 169 
Q 2131 122 2419 116 
L 2419 0 
L 825 0 
L 825 116 
Q 1125 122 1212 167 
Q 1300 213 1334 289 
Q 1369 366 1369 747 
L 1369 3034 
Q 1369 3497 1338 3628 
Q 1316 3728 1258 3775 
Q 1200 3822 1119 3822 
Q 1003 3822 797 3725 
L 750 3822 
z
" transform="scale(0.015625)"/>
       </defs>
       <use xlink:href="#TimesNewRomanPSMT-31"/>
       <use xlink:href="#TimesNewRomanPSMT-30" x="50"/>
       <use xlink:href="#TimesNewRomanPSMT-30" x="100"/>
      </g>
     </g>
    </g>
    <g id="xtick_7">
     <g id="line2d_7">
      <g>
       <use xlink:href="#mbdedb80df4" x="416.400732" y="256.32" style="stroke: #000000; stroke-width: 0.8"/>
      </g>
     </g>
     <g id="text_7">
      <!-- 120 -->
      <g transform="translate(408.525732 270.610937) scale(0.105 -0.105)">
       <use xlink:href="#TimesNewRomanPSMT-31"/>
       <use xlink:href="#TimesNewRomanPSMT-32" x="50"/>
       <use xlink:href="#TimesNewRomanPSMT-30" x="100"/>
      </g>
     </g>
    </g>
    <g id="xtick_8">
     <g id="line2d_8">
      <g>
       <use xlink:href="#mbdedb80df4" x="470.872971" y="256.32" style="stroke: #000000; stroke-width: 0.8"/>
      </g>
     </g>
     <g id="text_8">
      <!-- 140 -->
      <g transform="translate(462.997971 270.610937) scale(0.105 -0.105)">
       <use xlink:href="#TimesNewRomanPSMT-31"/>
       <use xlink:href="#TimesNewRomanPSMT-34" x="50"/>
       <use xlink:href="#TimesNewRomanPSMT-30" x="100"/>
      </g>
     </g>
    </g>
    <g id="text_9">
     <!-- Number of nodes -->
     <g transform="translate(258.749414 284.147891) scale(0.105 -0.105)">
      <defs>
       <path id="TimesNewRomanPSMT-4e" d="M -84 4238 
L 1066 4238 
L 3656 1059 
L 3656 3503 
Q 3656 3894 3569 3991 
Q 3453 4122 3203 4122 
L 3056 4122 
L 3056 4238 
L 4531 4238 
L 4531 4122 
L 4381 4122 
Q 4113 4122 4000 3959 
Q 3931 3859 3931 3503 
L 3931 -69 
L 3819 -69 
L 1025 3344 
L 1025 734 
Q 1025 344 1109 247 
Q 1228 116 1475 116 
L 1625 116 
L 1625 0 
L 150 0 
L 150 116 
L 297 116 
Q 569 116 681 278 
Q 750 378 750 734 
L 750 3681 
Q 566 3897 470 3965 
Q 375 4034 191 4094 
Q 100 4122 -84 4122 
L -84 4238 
z
" transform="scale(0.015625)"/>
       <path id="TimesNewRomanPSMT-75" d="M 2709 2863 
L 2709 1128 
Q 2709 631 2732 520 
Q 2756 409 2807 365 
Q 2859 322 2928 322 
Q 3025 322 3147 375 
L 3191 266 
L 2334 -88 
L 2194 -88 
L 2194 519 
Q 1825 119 1631 15 
Q 1438 -88 1222 -88 
Q 981 -88 804 51 
Q 628 191 559 409 
Q 491 628 491 1028 
L 491 2306 
Q 491 2509 447 2587 
Q 403 2666 317 2708 
Q 231 2750 6 2747 
L 6 2863 
L 1009 2863 
L 1009 947 
Q 1009 547 1148 422 
Q 1288 297 1484 297 
Q 1619 297 1789 381 
Q 1959 466 2194 703 
L 2194 2325 
Q 2194 2569 2105 2655 
Q 2016 2741 1734 2747 
L 1734 2863 
L 2709 2863 
z
" transform="scale(0.015625)"/>
       <path id="TimesNewRomanPSMT-6d" d="M 1050 2338 
Q 1363 2650 1419 2697 
Q 1559 2816 1721 2881 
Q 1884 2947 2044 2947 
Q 2313 2947 2506 2790 
Q 2700 2634 2766 2338 
Q 3088 2713 3309 2830 
Q 3531 2947 3766 2947 
Q 3994 2947 4170 2830 
Q 4347 2713 4450 2447 
Q 4519 2266 4519 1878 
L 4519 647 
Q 4519 378 4559 278 
Q 4591 209 4675 161 
Q 4759 113 4950 113 
L 4950 0 
L 3538 0 
L 3538 113 
L 3597 113 
Q 3781 113 3884 184 
Q 3956 234 3988 344 
Q 4000 397 4000 647 
L 4000 1878 
Q 4000 2228 3916 2372 
Q 3794 2572 3525 2572 
Q 3359 2572 3192 2489 
Q 3025 2406 2788 2181 
L 2781 2147 
L 2788 2013 
L 2788 647 
Q 2788 353 2820 281 
Q 2853 209 2943 161 
Q 3034 113 3253 113 
L 3253 0 
L 1806 0 
L 1806 113 
Q 2044 113 2133 169 
Q 2222 225 2256 338 
Q 2272 391 2272 647 
L 2272 1878 
Q 2272 2228 2169 2381 
Q 2031 2581 1784 2581 
Q 1616 2581 1450 2491 
Q 1191 2353 1050 2181 
L 1050 647 
Q 1050 366 1089 281 
Q 1128 197 1204 155 
Q 1281 113 1516 113 
L 1516 0 
L 100 0 
L 100 113 
Q 297 113 375 155 
Q 453 197 493 289 
Q 534 381 534 647 
L 534 1741 
Q 534 2213 506 2350 
Q 484 2453 437 2492 
Q 391 2531 309 2531 
Q 222 2531 100 2484 
L 53 2597 
L 916 2947 
L 1050 2947 
L 1050 2338 
z
" transform="scale(0.015625)"/>
       <path id="TimesNewRomanPSMT-62" d="M 984 2369 
Q 1400 2947 1881 2947 
Q 2322 2947 2650 2570 
Q 2978 2194 2978 1541 
Q 2978 778 2472 313 
Q 2038 -88 1503 -88 
Q 1253 -88 995 3 
Q 738 94 469 275 
L 469 3241 
Q 469 3728 445 3840 
Q 422 3953 372 3993 
Q 322 4034 247 4034 
Q 159 4034 28 3984 
L -16 4094 
L 844 4444 
L 984 4444 
L 984 2369 
z
M 984 2169 
L 984 456 
Q 1144 300 1314 220 
Q 1484 141 1663 141 
Q 1947 141 2192 453 
Q 2438 766 2438 1363 
Q 2438 1913 2192 2208 
Q 1947 2503 1634 2503 
Q 1469 2503 1303 2419 
Q 1178 2356 984 2169 
z
" transform="scale(0.015625)"/>
       <path id="TimesNewRomanPSMT-65" d="M 681 1784 
Q 678 1147 991 784 
Q 1303 422 1725 422 
Q 2006 422 2214 576 
Q 2422 731 2563 1106 
L 2659 1044 
Q 2594 616 2278 264 
Q 1963 -88 1488 -88 
Q 972 -88 605 314 
Q 238 716 238 1394 
Q 238 2128 614 2539 
Q 991 2950 1559 2950 
Q 2041 2950 2350 2633 
Q 2659 2316 2659 1784 
L 681 1784 
z
M 681 1966 
L 2006 1966 
Q 1991 2241 1941 2353 
Q 1863 2528 1708 2628 
Q 1553 2728 1384 2728 
Q 1125 2728 920 2526 
Q 716 2325 681 1966 
z
" transform="scale(0.015625)"/>
       <path id="TimesNewRomanPSMT-72" d="M 1038 2947 
L 1038 2303 
Q 1397 2947 1775 2947 
Q 1947 2947 2059 2842 
Q 2172 2738 2172 2600 
Q 2172 2478 2090 2393 
Q 2009 2309 1897 2309 
Q 1788 2309 1652 2417 
Q 1516 2525 1450 2525 
Q 1394 2525 1328 2463 
Q 1188 2334 1038 2041 
L 1038 669 
Q 1038 431 1097 309 
Q 1138 225 1241 169 
Q 1344 113 1538 113 
L 1538 0 
L 72 0 
L 72 113 
Q 291 113 397 181 
Q 475 231 506 341 
Q 522 394 522 644 
L 522 1753 
Q 522 2253 501 2348 
Q 481 2444 426 2487 
Q 372 2531 291 2531 
Q 194 2531 72 2484 
L 41 2597 
L 906 2947 
L 1038 2947 
z
" transform="scale(0.015625)"/>
       <path id="TimesNewRomanPSMT-20" transform="scale(0.015625)"/>
       <path id="TimesNewRomanPSMT-6f" d="M 1600 2947 
Q 2250 2947 2644 2453 
Q 2978 2031 2978 1484 
Q 2978 1100 2793 706 
Q 2609 313 2286 112 
Q 1963 -88 1566 -88 
Q 919 -88 538 428 
Q 216 863 216 1403 
Q 216 1797 411 2186 
Q 606 2575 925 2761 
Q 1244 2947 1600 2947 
z
M 1503 2744 
Q 1338 2744 1170 2645 
Q 1003 2547 900 2300 
Q 797 2053 797 1666 
Q 797 1041 1045 587 
Q 1294 134 1700 134 
Q 2003 134 2200 384 
Q 2397 634 2397 1244 
Q 2397 2006 2069 2444 
Q 1847 2744 1503 2744 
z
" transform="scale(0.015625)"/>
       <path id="TimesNewRomanPSMT-66" d="M 1319 2638 
L 1319 756 
Q 1319 356 1406 250 
Q 1522 113 1716 113 
L 1975 113 
L 1975 0 
L 266 0 
L 266 113 
L 394 113 
Q 519 113 622 175 
Q 725 238 764 344 
Q 803 450 803 756 
L 803 2638 
L 247 2638 
L 247 2863 
L 803 2863 
L 803 3050 
Q 803 3478 940 3775 
Q 1078 4072 1361 4255 
Q 1644 4438 1997 4438 
Q 2325 4438 2600 4225 
Q 2781 4084 2781 3909 
Q 2781 3816 2700 3733 
Q 2619 3650 2525 3650 
Q 2453 3650 2373 3701 
Q 2294 3753 2178 3923 
Q 2063 4094 1966 4153 
Q 1869 4213 1750 4213 
Q 1606 4213 1506 4136 
Q 1406 4059 1362 3898 
Q 1319 3738 1319 3069 
L 1319 2863 
L 2056 2863 
L 2056 2638 
L 1319 2638 
z
" transform="scale(0.015625)"/>
       <path id="TimesNewRomanPSMT-6e" d="M 1034 2341 
Q 1538 2947 1994 2947 
Q 2228 2947 2397 2830 
Q 2566 2713 2666 2444 
Q 2734 2256 2734 1869 
L 2734 647 
Q 2734 375 2778 278 
Q 2813 200 2889 156 
Q 2966 113 3172 113 
L 3172 0 
L 1756 0 
L 1756 113 
L 1816 113 
Q 2016 113 2095 173 
Q 2175 234 2206 353 
Q 2219 400 2219 647 
L 2219 1819 
Q 2219 2209 2117 2386 
Q 2016 2563 1775 2563 
Q 1403 2563 1034 2156 
L 1034 647 
Q 1034 356 1069 288 
Q 1113 197 1189 155 
Q 1266 113 1500 113 
L 1500 0 
L 84 0 
L 84 113 
L 147 113 
Q 366 113 442 223 
Q 519 334 519 647 
L 519 1709 
Q 519 2225 495 2337 
Q 472 2450 423 2490 
Q 375 2531 294 2531 
Q 206 2531 84 2484 
L 38 2597 
L 900 2947 
L 1034 2947 
L 1034 2341 
z
" transform="scale(0.015625)"/>
       <path id="TimesNewRomanPSMT-64" d="M 2222 322 
Q 2013 103 1813 7 
Q 1613 -88 1381 -88 
Q 913 -88 563 304 
Q 213 697 213 1313 
Q 213 1928 600 2439 
Q 988 2950 1597 2950 
Q 1975 2950 2222 2709 
L 2222 3238 
Q 2222 3728 2198 3840 
Q 2175 3953 2125 3993 
Q 2075 4034 2000 4034 
Q 1919 4034 1784 3984 
L 1744 4094 
L 2597 4444 
L 2738 4444 
L 2738 1134 
Q 2738 631 2761 520 
Q 2784 409 2836 365 
Q 2888 322 2956 322 
Q 3041 322 3181 375 
L 3216 266 
L 2366 -88 
L 2222 -88 
L 2222 322 
z
M 2222 541 
L 2222 2016 
Q 2203 2228 2109 2403 
Q 2016 2578 1861 2667 
Q 1706 2756 1559 2756 
Q 1284 2756 1069 2509 
Q 784 2184 784 1559 
Q 784 928 1059 592 
Q 1334 256 1672 256 
Q 1956 256 2222 541 
z
" transform="scale(0.015625)"/>
       <path id="TimesNewRomanPSMT-73" d="M 2050 2947 
L 2050 1972 
L 1947 1972 
Q 1828 2431 1642 2597 
Q 1456 2763 1169 2763 
Q 950 2763 815 2647 
Q 681 2531 681 2391 
Q 681 2216 781 2091 
Q 878 1963 1175 1819 
L 1631 1597 
Q 2266 1288 2266 781 
Q 2266 391 1970 151 
Q 1675 -88 1309 -88 
Q 1047 -88 709 6 
Q 606 38 541 38 
Q 469 38 428 -44 
L 325 -44 
L 325 978 
L 428 978 
Q 516 541 762 319 
Q 1009 97 1316 97 
Q 1531 97 1667 223 
Q 1803 350 1803 528 
Q 1803 744 1651 891 
Q 1500 1038 1047 1263 
Q 594 1488 453 1669 
Q 313 1847 313 2119 
Q 313 2472 555 2709 
Q 797 2947 1181 2947 
Q 1350 2947 1591 2875 
Q 1750 2828 1803 2828 
Q 1853 2828 1881 2850 
Q 1909 2872 1947 2947 
L 2050 2947 
z
" transform="scale(0.015625)"/>
      </defs>
      <use xlink:href="#TimesNewRomanPSMT-4e"/>
      <use xlink:href="#TimesNewRomanPSMT-75" x="72.216797"/>
      <use xlink:href="#TimesNewRomanPSMT-6d" x="122.216797"/>
      <use xlink:href="#TimesNewRomanPSMT-62" x="200"/>
      <use xlink:href="#TimesNewRomanPSMT-65" x="250"/>
      <use xlink:href="#TimesNewRomanPSMT-72" x="294.384766"/>
      <use xlink:href="#TimesNewRomanPSMT-20" x="327.685547"/>
      <use xlink:href="#TimesNewRomanPSMT-6f" x="352.685547"/>
      <use xlink:href="#TimesNewRomanPSMT-66" x="402.685547"/>
      <use xlink:href="#TimesNewRomanPSMT-20" x="435.986328"/>
      <use xlink:href="#TimesNewRomanPSMT-6e" x="460.986328"/>
      <use xlink:href="#TimesNewRomanPSMT-6f" x="510.986328"/>
      <use xlink:href="#TimesNewRomanPSMT-64" x="560.986328"/>
      <use xlink:href="#TimesNewRomanPSMT-65" x="610.986328"/>
      <use xlink:href="#TimesNewRomanPSMT-73" x="655.371094"/>
     </g>
    </g>
   </g>
   <g id="matplotlib.axis_2">
    <g id="ytick_1">
     <g id="line2d_9">
      <defs>
       <path id="m659ee17b7a" d="M 0 0 
L -3.5 0 
" style="stroke: #000000; stroke-width: 0.8"/>
      </defs>
      <g>
       <use xlink:href="#m659ee17b7a" x="72" y="256.32" style="stroke: #000000; stroke-width: 0.8"/>
      </g>
     </g>
     <g id="text_10">
      <!-- 0.0 -->
      <g transform="translate(51.875 259.965469) scale(0.105 -0.105)">
       <defs>
        <path id="TimesNewRomanPSMT-2e" d="M 800 606 
Q 947 606 1047 504 
Q 1147 403 1147 259 
Q 1147 116 1045 14 
Q 944 -88 800 -88 
Q 656 -88 554 14 
Q 453 116 453 259 
Q 453 406 554 506 
Q 656 606 800 606 
z
" transform="scale(0.015625)"/>
       </defs>
       <use xlink:href="#TimesNewRomanPSMT-30"/>
       <use xlink:href="#TimesNewRomanPSMT-2e" x="50"/>
       <use xlink:href="#TimesNewRomanPSMT-30" x="75"/>
      </g>
     </g>
    </g>
    <g id="ytick_2">
     <g id="line2d_10">
      <g>
       <use xlink:href="#m659ee17b7a" x="72" y="211.968" style="stroke: #000000; stroke-width: 0.8"/>
      </g>
     </g>
     <g id="text_11">
      <!-- 0.2 -->
      <g transform="translate(51.875 215.613469) scale(0.105 -0.105)">
       <use xlink:href="#TimesNewRomanPSMT-30"/>
       <use xlink:href="#TimesNewRomanPSMT-2e" x="50"/>
       <use xlink:href="#TimesNewRomanPSMT-32" x="75"/>
      </g>
     </g>
    </g>
    <g id="ytick_3">
     <g id="line2d_11">
      <g>
       <use xlink:href="#m659ee17b7a" x="72" y="167.616" style="stroke: #000000; stroke-width: 0.8"/>
      </g>
     </g>
     <g id="text_12">
      <!-- 0.4 -->
      <g transform="translate(51.875 171.261469) scale(0.105 -0.105)">
       <use xlink:href="#TimesNewRomanPSMT-30"/>
       <use xlink:href="#TimesNewRomanPSMT-2e" x="50"/>
       <use xlink:href="#TimesNewRomanPSMT-34" x="75"/>
      </g>
     </g>
    </g>
    <g id="ytick_4">
     <g id="line2d_12">
      <g>
       <use xlink:href="#m659ee17b7a" x="72" y="123.264" style="stroke: #000000; stroke-width: 0.8"/>
      </g>
     </g>
     <g id="text_13">
      <!-- 0.6 -->
      <g transform="translate(51.875 126.909469) scale(0.105 -0.105)">
       <use xlink:href="#TimesNewRomanPSMT-30"/>
       <use xlink:href="#TimesNewRomanPSMT-2e" x="50"/>
       <use xlink:href="#TimesNewRomanPSMT-36" x="75"/>
      </g>
     </g>
    </g>
    <g id="ytick_5">
     <g id="line2d_13">
      <g>
       <use xlink:href="#m659ee17b7a" x="72" y="78.912" style="stroke: #000000; stroke-width: 0.8"/>
      </g>
     </g>
     <g id="text_14">
      <!-- 0.8 -->
      <g transform="translate(51.875 82.557469) scale(0.105 -0.105)">
       <use xlink:href="#TimesNewRomanPSMT-30"/>
       <use xlink:href="#TimesNewRomanPSMT-2e" x="50"/>
       <use xlink:href="#TimesNewRomanPSMT-38" x="75"/>
      </g>
     </g>
    </g>
    <g id="ytick_6">
     <g id="line2d_14">
      <g>
       <use xlink:href="#m659ee17b7a" x="72" y="34.56" style="stroke: #000000; stroke-width: 0.8"/>
      </g>
     </g>
     <g id="text_15">
      <!-- 1.0 -->
      <g transform="translate(51.875 38.205469) scale(0.105 -0.105)">
       <use xlink:href="#TimesNewRomanPSMT-31"/>
       <use xlink:href="#TimesNewRomanPSMT-2e" x="50"/>
       <use xlink:href="#TimesNewRomanPSMT-30" x="75"/>
      </g>
     </g>
    </g>
    <g id="text_16">
     <!-- Natural Connectivity -->
     <g transform="translate(45.609297 189.617109) rotate(-90) scale(0.105 -0.105)">
      <defs>
       <path id="TimesNewRomanPSMT-61" d="M 1822 413 
Q 1381 72 1269 19 
Q 1100 -59 909 -59 
Q 613 -59 420 144 
Q 228 347 228 678 
Q 228 888 322 1041 
Q 450 1253 767 1440 
Q 1084 1628 1822 1897 
L 1822 2009 
Q 1822 2438 1686 2597 
Q 1550 2756 1291 2756 
Q 1094 2756 978 2650 
Q 859 2544 859 2406 
L 866 2225 
Q 866 2081 792 2003 
Q 719 1925 600 1925 
Q 484 1925 411 2006 
Q 338 2088 338 2228 
Q 338 2497 613 2722 
Q 888 2947 1384 2947 
Q 1766 2947 2009 2819 
Q 2194 2722 2281 2516 
Q 2338 2381 2338 1966 
L 2338 994 
Q 2338 584 2353 492 
Q 2369 400 2405 369 
Q 2441 338 2488 338 
Q 2538 338 2575 359 
Q 2641 400 2828 588 
L 2828 413 
Q 2478 -56 2159 -56 
Q 2006 -56 1915 50 
Q 1825 156 1822 413 
z
M 1822 616 
L 1822 1706 
Q 1350 1519 1213 1441 
Q 966 1303 859 1153 
Q 753 1003 753 825 
Q 753 600 887 451 
Q 1022 303 1197 303 
Q 1434 303 1822 616 
z
" transform="scale(0.015625)"/>
       <path id="TimesNewRomanPSMT-74" d="M 1031 3803 
L 1031 2863 
L 1700 2863 
L 1700 2644 
L 1031 2644 
L 1031 788 
Q 1031 509 1111 412 
Q 1191 316 1316 316 
Q 1419 316 1516 380 
Q 1613 444 1666 569 
L 1788 569 
Q 1678 263 1478 108 
Q 1278 -47 1066 -47 
Q 922 -47 784 33 
Q 647 113 581 261 
Q 516 409 516 719 
L 516 2644 
L 63 2644 
L 63 2747 
Q 234 2816 414 2980 
Q 594 3144 734 3369 
Q 806 3488 934 3803 
L 1031 3803 
z
" transform="scale(0.015625)"/>
       <path id="TimesNewRomanPSMT-6c" d="M 1184 4444 
L 1184 647 
Q 1184 378 1223 290 
Q 1263 203 1344 158 
Q 1425 113 1647 113 
L 1647 0 
L 244 0 
L 244 113 
Q 441 113 512 153 
Q 584 194 625 287 
Q 666 381 666 647 
L 666 3247 
Q 666 3731 644 3842 
Q 622 3953 573 3993 
Q 525 4034 450 4034 
Q 369 4034 244 3984 
L 191 4094 
L 1044 4444 
L 1184 4444 
z
" transform="scale(0.015625)"/>
       <path id="TimesNewRomanPSMT-43" d="M 3853 4334 
L 3950 2894 
L 3853 2894 
Q 3659 3541 3300 3825 
Q 2941 4109 2438 4109 
Q 2016 4109 1675 3895 
Q 1334 3681 1139 3212 
Q 944 2744 944 2047 
Q 944 1472 1128 1050 
Q 1313 628 1683 403 
Q 2053 178 2528 178 
Q 2941 178 3256 354 
Q 3572 531 3950 1056 
L 4047 994 
Q 3728 428 3303 165 
Q 2878 -97 2294 -97 
Q 1241 -97 663 684 
Q 231 1266 231 2053 
Q 231 2688 515 3219 
Q 800 3750 1298 4042 
Q 1797 4334 2388 4334 
Q 2847 4334 3294 4109 
Q 3425 4041 3481 4041 
Q 3566 4041 3628 4100 
Q 3709 4184 3744 4334 
L 3853 4334 
z
" transform="scale(0.015625)"/>
       <path id="TimesNewRomanPSMT-63" d="M 2631 1088 
Q 2516 522 2178 217 
Q 1841 -88 1431 -88 
Q 944 -88 581 321 
Q 219 731 219 1428 
Q 219 2103 620 2525 
Q 1022 2947 1584 2947 
Q 2006 2947 2278 2723 
Q 2550 2500 2550 2259 
Q 2550 2141 2473 2067 
Q 2397 1994 2259 1994 
Q 2075 1994 1981 2113 
Q 1928 2178 1911 2362 
Q 1894 2547 1784 2644 
Q 1675 2738 1481 2738 
Q 1169 2738 978 2506 
Q 725 2200 725 1697 
Q 725 1184 976 792 
Q 1228 400 1656 400 
Q 1963 400 2206 609 
Q 2378 753 2541 1131 
L 2631 1088 
z
" transform="scale(0.015625)"/>
       <path id="TimesNewRomanPSMT-69" d="M 928 4444 
Q 1059 4444 1151 4351 
Q 1244 4259 1244 4128 
Q 1244 3997 1151 3903 
Q 1059 3809 928 3809 
Q 797 3809 703 3903 
Q 609 3997 609 4128 
Q 609 4259 701 4351 
Q 794 4444 928 4444 
z
M 1188 2947 
L 1188 647 
Q 1188 378 1227 289 
Q 1266 200 1342 156 
Q 1419 113 1622 113 
L 1622 0 
L 231 0 
L 231 113 
Q 441 113 512 153 
Q 584 194 626 287 
Q 669 381 669 647 
L 669 1750 
Q 669 2216 641 2353 
Q 619 2453 572 2492 
Q 525 2531 444 2531 
Q 356 2531 231 2484 
L 188 2597 
L 1050 2947 
L 1188 2947 
z
" transform="scale(0.015625)"/>
       <path id="TimesNewRomanPSMT-76" d="M 53 2863 
L 1400 2863 
L 1400 2747 
L 1313 2747 
Q 1191 2747 1127 2687 
Q 1063 2628 1063 2528 
Q 1063 2419 1128 2269 
L 1794 688 
L 2463 2328 
Q 2534 2503 2534 2594 
Q 2534 2638 2509 2666 
Q 2475 2713 2422 2730 
Q 2369 2747 2206 2747 
L 2206 2863 
L 3141 2863 
L 3141 2747 
Q 2978 2734 2916 2681 
Q 2806 2588 2719 2369 
L 1703 -88 
L 1575 -88 
L 553 2328 
Q 484 2497 421 2570 
Q 359 2644 263 2694 
Q 209 2722 53 2747 
L 53 2863 
z
" transform="scale(0.015625)"/>
       <path id="TimesNewRomanPSMT-79" d="M 38 2863 
L 1372 2863 
L 1372 2747 
L 1306 2747 
Q 1166 2747 1095 2686 
Q 1025 2625 1025 2534 
Q 1025 2413 1128 2197 
L 1825 753 
L 2466 2334 
Q 2519 2463 2519 2588 
Q 2519 2644 2497 2672 
Q 2472 2706 2419 2726 
Q 2366 2747 2231 2747 
L 2231 2863 
L 3163 2863 
L 3163 2747 
Q 3047 2734 2984 2696 
Q 2922 2659 2847 2556 
Q 2819 2513 2741 2316 
L 1575 -541 
Q 1406 -956 1132 -1168 
Q 859 -1381 606 -1381 
Q 422 -1381 303 -1275 
Q 184 -1169 184 -1031 
Q 184 -900 270 -820 
Q 356 -741 506 -741 
Q 609 -741 788 -809 
Q 913 -856 944 -856 
Q 1038 -856 1148 -759 
Q 1259 -663 1372 -384 
L 1575 113 
L 547 2272 
Q 500 2369 397 2513 
Q 319 2622 269 2659 
Q 197 2709 38 2747 
L 38 2863 
z
" transform="scale(0.015625)"/>
      </defs>
      <use xlink:href="#TimesNewRomanPSMT-4e"/>
      <use xlink:href="#TimesNewRomanPSMT-61" x="72.216797"/>
      <use xlink:href="#TimesNewRomanPSMT-74" x="116.601562"/>
      <use xlink:href="#TimesNewRomanPSMT-75" x="144.384766"/>
      <use xlink:href="#TimesNewRomanPSMT-72" x="194.384766"/>
      <use xlink:href="#TimesNewRomanPSMT-61" x="227.685547"/>
      <use xlink:href="#TimesNewRomanPSMT-6c" x="272.070312"/>
      <use xlink:href="#TimesNewRomanPSMT-20" x="299.853516"/>
      <use xlink:href="#TimesNewRomanPSMT-43" x="324.853516"/>
      <use xlink:href="#TimesNewRomanPSMT-6f" x="391.552734"/>
      <use xlink:href="#TimesNewRomanPSMT-6e" x="441.552734"/>
      <use xlink:href="#TimesNewRomanPSMT-6e" x="491.552734"/>
      <use xlink:href="#TimesNewRomanPSMT-65" x="541.552734"/>
      <use xlink:href="#TimesNewRomanPSMT-63" x="585.9375"/>
      <use xlink:href="#TimesNewRomanPSMT-74" x="630.322266"/>
      <use xlink:href="#TimesNewRomanPSMT-69" x="658.105469"/>
      <use xlink:href="#TimesNewRomanPSMT-76" x="685.888672"/>
      <use xlink:href="#TimesNewRomanPSMT-69" x="735.888672"/>
      <use xlink:href="#TimesNewRomanPSMT-74" x="763.671875"/>
      <use xlink:href="#TimesNewRomanPSMT-79" x="791.455078"/>
     </g>
    </g>
   </g>
   <g id="patch_3">
    <path d="M 72 256.32 
L 72 34.56 
" style="fill: none; stroke: #000000; stroke-width: 0.8; stroke-linejoin: miter; stroke-linecap: square"/>
   </g>
   <g id="patch_4">
    <path d="M 518.4 256.32 
L 518.4 34.56 
" style="fill: none; stroke: #000000; stroke-width: 0.8; stroke-linejoin: miter; stroke-linecap: square"/>
   </g>
   <g id="patch_5">
    <path d="M 72 256.32 
L 518.4 256.32 
" style="fill: none; stroke: #000000; stroke-width: 0.8; stroke-linejoin: miter; stroke-linecap: square"/>
   </g>
   <g id="patch_6">
    <path d="M 72 34.56 
L 518.4 34.56 
" style="fill: none; stroke: #000000; stroke-width: 0.8; stroke-linejoin: miter; stroke-linecap: square"/>
   </g>
   <g id="legend_1">
    <g id="patch_7">
     <path d="M 350.683828 57.825703 
L 511.05 57.825703 
Q 513.15 57.825703 513.15 55.725703 
L 513.15 41.91 
Q 513.15 39.81 511.05 39.81 
L 350.683828 39.81 
Q 348.583828 39.81 348.583828 41.91 
L 348.583828 55.725703 
Q 348.583828 57.825703 350.683828 57.825703 
z
" style="fill: #ffffff; opacity: 0.8; stroke: #cccccc; stroke-linejoin: miter"/>
    </g>
    <g id="line2d_15">
     <path d="M 352.783828 47.685 
L 363.283828 47.685 
L 373.783828 47.685 
" style="fill: none; stroke: #2e7ebb; stroke-width: 1.5; stroke-linecap: square"/>
     <defs>
      <path id="m76c4b166be" d="M 0 1.5 
C 0.397805 1.5 0.77937 1.341951 1.06066 1.06066 
C 1.341951 0.77937 1.5 0.397805 1.5 0 
C 1.5 -0.397805 1.341951 -0.77937 1.06066 -1.06066 
C 0.77937 -1.341951 0.397805 -1.5 0 -1.5 
C -0.397805 -1.5 -0.77937 -1.341951 -1.06066 -1.06066 
C -1.341951 -0.77937 -1.5 -0.397805 -1.5 0 
C -1.5 0.397805 -1.341951 0.77937 -1.06066 1.06066 
C -0.77937 1.341951 -0.397805 1.5 0 1.5 
z
" style="stroke: #2e7ebb"/>
     </defs>
     <g>
      <use xlink:href="#m76c4b166be" x="363.283828" y="47.685" style="fill: #ffffff; stroke: #2e7ebb"/>
     </g>
    </g>
    <g id="text_17">
     <!-- Average Energy Consumption -->
     <g transform="translate(382.183828 51.36) scale(0.105 -0.105)">
      <defs>
       <path id="TimesNewRomanPSMT-41" d="M 2928 1419 
L 1288 1419 
L 1000 750 
Q 894 503 894 381 
Q 894 284 986 211 
Q 1078 138 1384 116 
L 1384 0 
L 50 0 
L 50 116 
Q 316 163 394 238 
Q 553 388 747 847 
L 2238 4334 
L 2347 4334 
L 3822 809 
Q 4000 384 4145 257 
Q 4291 131 4550 116 
L 4550 0 
L 2878 0 
L 2878 116 
Q 3131 128 3220 200 
Q 3309 272 3309 375 
Q 3309 513 3184 809 
L 2928 1419 
z
M 2841 1650 
L 2122 3363 
L 1384 1650 
L 2841 1650 
z
" transform="scale(0.015625)"/>
       <path id="TimesNewRomanPSMT-67" d="M 966 1044 
Q 703 1172 562 1401 
Q 422 1631 422 1909 
Q 422 2334 742 2640 
Q 1063 2947 1563 2947 
Q 1972 2947 2272 2747 
L 2878 2747 
Q 3013 2747 3034 2739 
Q 3056 2731 3066 2713 
Q 3084 2684 3084 2613 
Q 3084 2531 3069 2500 
Q 3059 2484 3036 2475 
Q 3013 2466 2878 2466 
L 2506 2466 
Q 2681 2241 2681 1891 
Q 2681 1491 2375 1206 
Q 2069 922 1553 922 
Q 1341 922 1119 984 
Q 981 866 932 777 
Q 884 688 884 625 
Q 884 572 936 522 
Q 988 472 1138 450 
Q 1225 438 1575 428 
Q 2219 413 2409 384 
Q 2700 344 2873 169 
Q 3047 -6 3047 -263 
Q 3047 -616 2716 -925 
Q 2228 -1381 1444 -1381 
Q 841 -1381 425 -1109 
Q 191 -953 191 -784 
Q 191 -709 225 -634 
Q 278 -519 444 -313 
Q 466 -284 763 25 
Q 600 122 533 198 
Q 466 275 466 372 
Q 466 481 555 628 
Q 644 775 966 1044 
z
M 1509 2797 
Q 1278 2797 1122 2612 
Q 966 2428 966 2047 
Q 966 1553 1178 1281 
Q 1341 1075 1591 1075 
Q 1828 1075 1981 1253 
Q 2134 1431 2134 1813 
Q 2134 2309 1919 2591 
Q 1759 2797 1509 2797 
z
M 934 0 
Q 788 -159 713 -296 
Q 638 -434 638 -550 
Q 638 -700 819 -813 
Q 1131 -1006 1722 -1006 
Q 2284 -1006 2551 -807 
Q 2819 -609 2819 -384 
Q 2819 -222 2659 -153 
Q 2497 -84 2016 -72 
Q 1313 -53 934 0 
z
" transform="scale(0.015625)"/>
       <path id="TimesNewRomanPSMT-45" d="M 1338 4006 
L 1338 2331 
L 2269 2331 
Q 2631 2331 2753 2441 
Q 2916 2584 2934 2947 
L 3050 2947 
L 3050 1472 
L 2934 1472 
Q 2891 1781 2847 1869 
Q 2791 1978 2662 2040 
Q 2534 2103 2269 2103 
L 1338 2103 
L 1338 706 
Q 1338 425 1363 364 
Q 1388 303 1450 267 
Q 1513 231 1688 231 
L 2406 231 
Q 2766 231 2928 281 
Q 3091 331 3241 478 
Q 3434 672 3638 1063 
L 3763 1063 
L 3397 0 
L 131 0 
L 131 116 
L 281 116 
Q 431 116 566 188 
Q 666 238 702 338 
Q 738 438 738 747 
L 738 3500 
Q 738 3903 656 3997 
Q 544 4122 281 4122 
L 131 4122 
L 131 4238 
L 3397 4238 
L 3444 3309 
L 3322 3309 
Q 3256 3644 3176 3769 
Q 3097 3894 2941 3959 
Q 2816 4006 2500 4006 
L 1338 4006 
z
" transform="scale(0.015625)"/>
       <path id="TimesNewRomanPSMT-70" d="M -6 2578 
L 875 2934 
L 994 2934 
L 994 2266 
Q 1216 2644 1439 2795 
Q 1663 2947 1909 2947 
Q 2341 2947 2628 2609 
Q 2981 2197 2981 1534 
Q 2981 794 2556 309 
Q 2206 -88 1675 -88 
Q 1444 -88 1275 -22 
Q 1150 25 994 166 
L 994 -706 
Q 994 -1000 1030 -1079 
Q 1066 -1159 1155 -1206 
Q 1244 -1253 1478 -1253 
L 1478 -1369 
L -22 -1369 
L -22 -1253 
L 56 -1253 
Q 228 -1256 350 -1188 
Q 409 -1153 442 -1076 
Q 475 -1000 475 -688 
L 475 2019 
Q 475 2297 450 2372 
Q 425 2447 370 2484 
Q 316 2522 222 2522 
Q 147 2522 31 2478 
L -6 2578 
z
M 994 2081 
L 994 1013 
Q 994 666 1022 556 
Q 1066 375 1236 237 
Q 1406 100 1666 100 
Q 1978 100 2172 344 
Q 2425 663 2425 1241 
Q 2425 1897 2138 2250 
Q 1938 2494 1663 2494 
Q 1513 2494 1366 2419 
Q 1253 2363 994 2081 
z
" transform="scale(0.015625)"/>
      </defs>
      <use xlink:href="#TimesNewRomanPSMT-41"/>
      <use xlink:href="#TimesNewRomanPSMT-76" x="64.841797"/>
      <use xlink:href="#TimesNewRomanPSMT-65" x="114.841797"/>
      <use xlink:href="#TimesNewRomanPSMT-72" x="159.226562"/>
      <use xlink:href="#TimesNewRomanPSMT-61" x="192.527344"/>
      <use xlink:href="#TimesNewRomanPSMT-67" x="236.912109"/>
      <use xlink:href="#TimesNewRomanPSMT-65" x="286.912109"/>
      <use xlink:href="#TimesNewRomanPSMT-20" x="331.296875"/>
      <use xlink:href="#TimesNewRomanPSMT-45" x="356.296875"/>
      <use xlink:href="#TimesNewRomanPSMT-6e" x="417.380859"/>
      <use xlink:href="#TimesNewRomanPSMT-65" x="467.380859"/>
      <use xlink:href="#TimesNewRomanPSMT-72" x="511.765625"/>
      <use xlink:href="#TimesNewRomanPSMT-67" x="543.316406"/>
      <use xlink:href="#TimesNewRomanPSMT-79" x="593.316406"/>
      <use xlink:href="#TimesNewRomanPSMT-20" x="643.316406"/>
      <use xlink:href="#TimesNewRomanPSMT-43" x="668.316406"/>
      <use xlink:href="#TimesNewRomanPSMT-6f" x="735.015625"/>
      <use xlink:href="#TimesNewRomanPSMT-6e" x="785.015625"/>
      <use xlink:href="#TimesNewRomanPSMT-73" x="835.015625"/>
      <use xlink:href="#TimesNewRomanPSMT-75" x="873.931641"/>
      <use xlink:href="#TimesNewRomanPSMT-6d" x="923.931641"/>
      <use xlink:href="#TimesNewRomanPSMT-70" x="1001.714844"/>
      <use xlink:href="#TimesNewRomanPSMT-74" x="1051.714844"/>
      <use xlink:href="#TimesNewRomanPSMT-69" x="1079.498047"/>
      <use xlink:href="#TimesNewRomanPSMT-6f" x="1107.28125"/>
      <use xlink:href="#TimesNewRomanPSMT-6e" x="1157.28125"/>
     </g>
    </g>
   </g>
  </g>
  <g id="axes_2">
   <g id="matplotlib.axis_3">
    <g id="ytick_7">
     <g id="line2d_16">
      <defs>
       <path id="mf2b01d672c" d="M 0 0 
L 3.5 0 
" style="stroke: #000000; stroke-width: 0.8"/>
      </defs>
      <g>
       <use xlink:href="#mf2b01d672c" x="518.4" y="246.24" style="stroke: #000000; stroke-width: 0.8"/>
      </g>
     </g>
     <g id="text_18">
      <!-- 0.000 -->
      <g transform="translate(525.4 249.885469) scale(0.105 -0.105)">
       <use xlink:href="#TimesNewRomanPSMT-30"/>
       <use xlink:href="#TimesNewRomanPSMT-2e" x="50"/>
       <use xlink:href="#TimesNewRomanPSMT-30" x="75"/>
       <use xlink:href="#TimesNewRomanPSMT-30" x="125"/>
       <use xlink:href="#TimesNewRomanPSMT-30" x="175"/>
      </g>
     </g>
    </g>
    <g id="ytick_8">
     <g id="line2d_17">
      <g>
       <use xlink:href="#mf2b01d672c" x="518.4" y="209.200277" style="stroke: #000000; stroke-width: 0.8"/>
      </g>
     </g>
     <g id="text_19">
      <!-- 0.002 -->
      <g transform="translate(525.4 212.845746) scale(0.105 -0.105)">
       <use xlink:href="#TimesNewRomanPSMT-30"/>
       <use xlink:href="#TimesNewRomanPSMT-2e" x="50"/>
       <use xlink:href="#TimesNewRomanPSMT-30" x="75"/>
       <use xlink:href="#TimesNewRomanPSMT-30" x="125"/>
       <use xlink:href="#TimesNewRomanPSMT-32" x="175"/>
      </g>
     </g>
    </g>
    <g id="ytick_9">
     <g id="line2d_18">
      <g>
       <use xlink:href="#mf2b01d672c" x="518.4" y="172.160554" style="stroke: #000000; stroke-width: 0.8"/>
      </g>
     </g>
     <g id="text_20">
      <!-- 0.004 -->
      <g transform="translate(525.4 175.806023) scale(0.105 -0.105)">
       <use xlink:href="#TimesNewRomanPSMT-30"/>
       <use xlink:href="#TimesNewRomanPSMT-2e" x="50"/>
       <use xlink:href="#TimesNewRomanPSMT-30" x="75"/>
       <use xlink:href="#TimesNewRomanPSMT-30" x="125"/>
       <use xlink:href="#TimesNewRomanPSMT-34" x="175"/>
      </g>
     </g>
    </g>
    <g id="ytick_10">
     <g id="line2d_19">
      <g>
       <use xlink:href="#mf2b01d672c" x="518.4" y="135.120831" style="stroke: #000000; stroke-width: 0.8"/>
      </g>
     </g>
     <g id="text_21">
      <!-- 0.006 -->
      <g transform="translate(525.4 138.7663) scale(0.105 -0.105)">
       <use xlink:href="#TimesNewRomanPSMT-30"/>
       <use xlink:href="#TimesNewRomanPSMT-2e" x="50"/>
       <use xlink:href="#TimesNewRomanPSMT-30" x="75"/>
       <use xlink:href="#TimesNewRomanPSMT-30" x="125"/>
       <use xlink:href="#TimesNewRomanPSMT-36" x="175"/>
      </g>
     </g>
    </g>
    <g id="ytick_11">
     <g id="line2d_20">
      <g>
       <use xlink:href="#mf2b01d672c" x="518.4" y="98.081108" style="stroke: #000000; stroke-width: 0.8"/>
      </g>
     </g>
     <g id="text_22">
      <!-- 0.008 -->
      <g transform="translate(525.4 101.726577) scale(0.105 -0.105)">
       <use xlink:href="#TimesNewRomanPSMT-30"/>
       <use xlink:href="#TimesNewRomanPSMT-2e" x="50"/>
       <use xlink:href="#TimesNewRomanPSMT-30" x="75"/>
       <use xlink:href="#TimesNewRomanPSMT-30" x="125"/>
       <use xlink:href="#TimesNewRomanPSMT-38" x="175"/>
      </g>
     </g>
    </g>
    <g id="ytick_12">
     <g id="line2d_21">
      <g>
       <use xlink:href="#mf2b01d672c" x="518.4" y="61.041385" style="stroke: #000000; stroke-width: 0.8"/>
      </g>
     </g>
     <g id="text_23">
      <!-- 0.010 -->
      <g transform="translate(525.4 64.686854) scale(0.105 -0.105)">
       <use xlink:href="#TimesNewRomanPSMT-30"/>
       <use xlink:href="#TimesNewRomanPSMT-2e" x="50"/>
       <use xlink:href="#TimesNewRomanPSMT-30" x="75"/>
       <use xlink:href="#TimesNewRomanPSMT-31" x="125"/>
       <use xlink:href="#TimesNewRomanPSMT-30" x="175"/>
      </g>
     </g>
    </g>
    <g id="text_24">
     <!-- Average Energy Consumption -->
     <g transform="translate(560.315938 208.823086) rotate(-90) scale(0.105 -0.105)">
      <use xlink:href="#TimesNewRomanPSMT-41"/>
      <use xlink:href="#TimesNewRomanPSMT-76" x="64.841797"/>
      <use xlink:href="#TimesNewRomanPSMT-65" x="114.841797"/>
      <use xlink:href="#TimesNewRomanPSMT-72" x="159.226562"/>
      <use xlink:href="#TimesNewRomanPSMT-61" x="192.527344"/>
      <use xlink:href="#TimesNewRomanPSMT-67" x="236.912109"/>
      <use xlink:href="#TimesNewRomanPSMT-65" x="286.912109"/>
      <use xlink:href="#TimesNewRomanPSMT-20" x="331.296875"/>
      <use xlink:href="#TimesNewRomanPSMT-45" x="356.296875"/>
      <use xlink:href="#TimesNewRomanPSMT-6e" x="417.380859"/>
      <use xlink:href="#TimesNewRomanPSMT-65" x="467.380859"/>
      <use xlink:href="#TimesNewRomanPSMT-72" x="511.765625"/>
      <use xlink:href="#TimesNewRomanPSMT-67" x="543.316406"/>
      <use xlink:href="#TimesNewRomanPSMT-79" x="593.316406"/>
      <use xlink:href="#TimesNewRomanPSMT-20" x="643.316406"/>
      <use xlink:href="#TimesNewRomanPSMT-43" x="668.316406"/>
      <use xlink:href="#TimesNewRomanPSMT-6f" x="735.015625"/>
      <use xlink:href="#TimesNewRomanPSMT-6e" x="785.015625"/>
      <use xlink:href="#TimesNewRomanPSMT-73" x="835.015625"/>
      <use xlink:href="#TimesNewRomanPSMT-75" x="873.931641"/>
      <use xlink:href="#TimesNewRomanPSMT-6d" x="923.931641"/>
      <use xlink:href="#TimesNewRomanPSMT-70" x="1001.714844"/>
      <use xlink:href="#TimesNewRomanPSMT-74" x="1051.714844"/>
      <use xlink:href="#TimesNewRomanPSMT-69" x="1079.498047"/>
      <use xlink:href="#TimesNewRomanPSMT-6f" x="1107.28125"/>
      <use xlink:href="#TimesNewRomanPSMT-6e" x="1157.28125"/>
     </g>
    </g>
   </g>
   <g id="line2d_22">
    <path d="M 122.250641 256.32 
L 122.250641 34.56 
" clip-path="url(#p8cbdfb184e)" style="fill: none; stroke-dasharray: 5.55,2.4; stroke-dashoffset: 0; stroke: #e89b9e; stroke-width: 1.5"/>
   </g>
   <g id="line2d_23">
    <path d="M 92.290909 246.24 
L 95.014521 235.128083 
L 97.738133 207.566888 
L 100.461745 204.21268 
L 103.185357 177.133586 
L 105.908969 159.291199 
L 108.632581 156.279416 
L 111.356193 121.183443 
L 114.079805 98.544833 
L 116.803417 73.803794 
L 119.527029 96.661949 
L 122.250641 88.217432 
L 124.974253 84.576224 
L 127.697865 87.956577 
L 130.421477 87.835839 
L 133.145088 86.790952 
L 135.8687 80.946175 
L 138.592312 76.330956 
L 141.315924 71.36723 
L 144.039536 69.130592 
L 146.763148 72.151858 
L 149.48676 69.718107 
L 152.210372 61.679291 
L 154.933984 56.990554 
L 157.657596 65.420996 
L 160.381208 61.487495 
L 163.10482 55.047904 
L 165.828432 53.929146 
L 168.552044 54.720466 
L 171.275656 52.770918 
L 173.999268 56.369354 
L 176.72288 54.700885 
L 179.446492 52.614047 
L 182.170104 52.562309 
L 187.617328 53.100193 
L 190.34094 55.061743 
L 193.064552 51.878209 
L 195.788164 50.96842 
L 198.511775 50.501457 
L 201.235387 50.659843 
L 203.958999 49.537222 
L 206.682611 49.086176 
L 209.406223 46.516836 
L 212.129835 45.257778 
L 217.577059 46.948226 
L 220.300671 46.441384 
L 223.024283 45.701726 
L 225.747895 45.695369 
L 228.471507 44.64 
L 231.195119 51.778906 
L 233.918731 50.8643 
L 236.642343 50.798167 
L 239.365955 50.009513 
L 242.089567 49.652278 
L 244.813179 54.412759 
L 247.536791 51.046298 
L 250.260403 51.970216 
L 252.984015 51.858513 
L 255.707627 55.534719 
L 258.431239 52.807982 
L 261.154851 53.066029 
L 266.602074 52.68121 
L 269.325686 51.920643 
L 272.049298 51.542916 
L 274.77291 53.159803 
L 277.496522 53.515761 
L 282.943746 52.627176 
L 288.39097 50.545204 
L 291.114582 50.030558 
L 293.838194 49.365259 
L 296.561806 49.977375 
L 299.285418 49.306923 
L 302.00903 49.265532 
L 304.732642 51.535662 
L 307.456254 49.585795 
L 310.179866 49.093261 
L 312.903478 51.983306 
L 315.62709 50.125149 
L 318.350702 49.497896 
L 321.074314 49.025892 
L 323.797926 48.349761 
L 326.521538 47.884573 
L 329.245149 48.54113 
L 334.692373 48.352276 
L 337.415985 48.034308 
L 340.139597 48.610336 
L 342.863209 48.654846 
L 345.586821 50.700109 
L 348.310433 52.604087 
L 351.034045 52.67679 
L 353.757657 49.576024 
L 356.481269 49.856213 
L 359.204881 49.52776 
L 361.928493 49.076516 
L 364.652105 52.817827 
L 367.375717 52.790021 
L 370.099329 51.883673 
L 372.822941 54.62326 
L 375.546553 51.263822 
L 378.270165 55.628424 
L 380.993777 56.299423 
L 383.717389 54.44363 
L 389.164613 53.671354 
L 394.611836 54.060917 
L 397.335448 52.756364 
L 400.05906 52.855729 
L 402.782672 52.372639 
L 408.229896 51.910706 
L 410.953508 51.092503 
L 413.67712 51.115819 
L 421.847956 49.816875 
L 424.571568 50.156797 
L 427.29518 50.15038 
L 430.018792 50.347822 
L 432.742404 52.679689 
L 435.466016 52.207714 
L 438.189628 52.059853 
L 440.91324 52.234845 
L 443.636852 53.182443 
L 446.360464 52.627576 
L 449.084076 52.443705 
L 451.807688 52.723382 
L 454.5313 52.872796 
L 459.978523 52.459214 
L 462.702135 51.190515 
L 468.149359 49.81261 
L 470.872971 49.49679 
L 473.596583 49.359651 
L 476.320195 49.344331 
L 481.767419 48.963173 
L 484.491031 48.075714 
L 487.214643 48.334556 
L 489.938255 49.024885 
L 492.661867 50.086679 
L 495.385479 48.595352 
L 498.109091 48.235964 
L 498.109091 48.235964 
" clip-path="url(#p8cbdfb184e)" style="fill: none; stroke: #2e7ebb; stroke-width: 1.5; stroke-linecap: square"/>
    <g clip-path="url(#p8cbdfb184e)">
     <use xlink:href="#m76c4b166be" x="92.290909" y="246.24" style="fill: #ffffff; stroke: #2e7ebb"/>
     <use xlink:href="#m76c4b166be" x="95.014521" y="235.128083" style="fill: #ffffff; stroke: #2e7ebb"/>
     <use xlink:href="#m76c4b166be" x="97.738133" y="207.566888" style="fill: #ffffff; stroke: #2e7ebb"/>
     <use xlink:href="#m76c4b166be" x="100.461745" y="204.21268" style="fill: #ffffff; stroke: #2e7ebb"/>
     <use xlink:href="#m76c4b166be" x="103.185357" y="177.133586" style="fill: #ffffff; stroke: #2e7ebb"/>
     <use xlink:href="#m76c4b166be" x="105.908969" y="159.291199" style="fill: #ffffff; stroke: #2e7ebb"/>
     <use xlink:href="#m76c4b166be" x="108.632581" y="156.279416" style="fill: #ffffff; stroke: #2e7ebb"/>
     <use xlink:href="#m76c4b166be" x="111.356193" y="121.183443" style="fill: #ffffff; stroke: #2e7ebb"/>
     <use xlink:href="#m76c4b166be" x="114.079805" y="98.544833" style="fill: #ffffff; stroke: #2e7ebb"/>
     <use xlink:href="#m76c4b166be" x="116.803417" y="73.803794" style="fill: #ffffff; stroke: #2e7ebb"/>
     <use xlink:href="#m76c4b166be" x="119.527029" y="96.661949" style="fill: #ffffff; stroke: #2e7ebb"/>
     <use xlink:href="#m76c4b166be" x="122.250641" y="88.217432" style="fill: #ffffff; stroke: #2e7ebb"/>
     <use xlink:href="#m76c4b166be" x="124.974253" y="84.576224" style="fill: #ffffff; stroke: #2e7ebb"/>
     <use xlink:href="#m76c4b166be" x="127.697865" y="87.956577" style="fill: #ffffff; stroke: #2e7ebb"/>
     <use xlink:href="#m76c4b166be" x="130.421477" y="87.835839" style="fill: #ffffff; stroke: #2e7ebb"/>
     <use xlink:href="#m76c4b166be" x="133.145088" y="86.790952" style="fill: #ffffff; stroke: #2e7ebb"/>
     <use xlink:href="#m76c4b166be" x="135.8687" y="80.946175" style="fill: #ffffff; stroke: #2e7ebb"/>
     <use xlink:href="#m76c4b166be" x="138.592312" y="76.330956" style="fill: #ffffff; stroke: #2e7ebb"/>
     <use xlink:href="#m76c4b166be" x="141.315924" y="71.36723" style="fill: #ffffff; stroke: #2e7ebb"/>
     <use xlink:href="#m76c4b166be" x="144.039536" y="69.130592" style="fill: #ffffff; stroke: #2e7ebb"/>
     <use xlink:href="#m76c4b166be" x="146.763148" y="72.151858" style="fill: #ffffff; stroke: #2e7ebb"/>
     <use xlink:href="#m76c4b166be" x="149.48676" y="69.718107" style="fill: #ffffff; stroke: #2e7ebb"/>
     <use xlink:href="#m76c4b166be" x="152.210372" y="61.679291" style="fill: #ffffff; stroke: #2e7ebb"/>
     <use xlink:href="#m76c4b166be" x="154.933984" y="56.990554" style="fill: #ffffff; stroke: #2e7ebb"/>
     <use xlink:href="#m76c4b166be" x="157.657596" y="65.420996" style="fill: #ffffff; stroke: #2e7ebb"/>
     <use xlink:href="#m76c4b166be" x="160.381208" y="61.487495" style="fill: #ffffff; stroke: #2e7ebb"/>
     <use xlink:href="#m76c4b166be" x="163.10482" y="55.047904" style="fill: #ffffff; stroke: #2e7ebb"/>
     <use xlink:href="#m76c4b166be" x="165.828432" y="53.929146" style="fill: #ffffff; stroke: #2e7ebb"/>
     <use xlink:href="#m76c4b166be" x="168.552044" y="54.720466" style="fill: #ffffff; stroke: #2e7ebb"/>
     <use xlink:href="#m76c4b166be" x="171.275656" y="52.770918" style="fill: #ffffff; stroke: #2e7ebb"/>
     <use xlink:href="#m76c4b166be" x="173.999268" y="56.369354" style="fill: #ffffff; stroke: #2e7ebb"/>
     <use xlink:href="#m76c4b166be" x="176.72288" y="54.700885" style="fill: #ffffff; stroke: #2e7ebb"/>
     <use xlink:href="#m76c4b166be" x="179.446492" y="52.614047" style="fill: #ffffff; stroke: #2e7ebb"/>
     <use xlink:href="#m76c4b166be" x="182.170104" y="52.562309" style="fill: #ffffff; stroke: #2e7ebb"/>
     <use xlink:href="#m76c4b166be" x="184.893716" y="52.840787" style="fill: #ffffff; stroke: #2e7ebb"/>
     <use xlink:href="#m76c4b166be" x="187.617328" y="53.100193" style="fill: #ffffff; stroke: #2e7ebb"/>
     <use xlink:href="#m76c4b166be" x="190.34094" y="55.061743" style="fill: #ffffff; stroke: #2e7ebb"/>
     <use xlink:href="#m76c4b166be" x="193.064552" y="51.878209" style="fill: #ffffff; stroke: #2e7ebb"/>
     <use xlink:href="#m76c4b166be" x="195.788164" y="50.96842" style="fill: #ffffff; stroke: #2e7ebb"/>
     <use xlink:href="#m76c4b166be" x="198.511775" y="50.501457" style="fill: #ffffff; stroke: #2e7ebb"/>
     <use xlink:href="#m76c4b166be" x="201.235387" y="50.659843" style="fill: #ffffff; stroke: #2e7ebb"/>
     <use xlink:href="#m76c4b166be" x="203.958999" y="49.537222" style="fill: #ffffff; stroke: #2e7ebb"/>
     <use xlink:href="#m76c4b166be" x="206.682611" y="49.086176" style="fill: #ffffff; stroke: #2e7ebb"/>
     <use xlink:href="#m76c4b166be" x="209.406223" y="46.516836" style="fill: #ffffff; stroke: #2e7ebb"/>
     <use xlink:href="#m76c4b166be" x="212.129835" y="45.257778" style="fill: #ffffff; stroke: #2e7ebb"/>
     <use xlink:href="#m76c4b166be" x="214.853447" y="46.103641" style="fill: #ffffff; stroke: #2e7ebb"/>
     <use xlink:href="#m76c4b166be" x="217.577059" y="46.948226" style="fill: #ffffff; stroke: #2e7ebb"/>
     <use xlink:href="#m76c4b166be" x="220.300671" y="46.441384" style="fill: #ffffff; stroke: #2e7ebb"/>
     <use xlink:href="#m76c4b166be" x="223.024283" y="45.701726" style="fill: #ffffff; stroke: #2e7ebb"/>
     <use xlink:href="#m76c4b166be" x="225.747895" y="45.695369" style="fill: #ffffff; stroke: #2e7ebb"/>
     <use xlink:href="#m76c4b166be" x="228.471507" y="44.64" style="fill: #ffffff; stroke: #2e7ebb"/>
     <use xlink:href="#m76c4b166be" x="231.195119" y="51.778906" style="fill: #ffffff; stroke: #2e7ebb"/>
     <use xlink:href="#m76c4b166be" x="233.918731" y="50.8643" style="fill: #ffffff; stroke: #2e7ebb"/>
     <use xlink:href="#m76c4b166be" x="236.642343" y="50.798167" style="fill: #ffffff; stroke: #2e7ebb"/>
     <use xlink:href="#m76c4b166be" x="239.365955" y="50.009513" style="fill: #ffffff; stroke: #2e7ebb"/>
     <use xlink:href="#m76c4b166be" x="242.089567" y="49.652278" style="fill: #ffffff; stroke: #2e7ebb"/>
     <use xlink:href="#m76c4b166be" x="244.813179" y="54.412759" style="fill: #ffffff; stroke: #2e7ebb"/>
     <use xlink:href="#m76c4b166be" x="247.536791" y="51.046298" style="fill: #ffffff; stroke: #2e7ebb"/>
     <use xlink:href="#m76c4b166be" x="250.260403" y="51.970216" style="fill: #ffffff; stroke: #2e7ebb"/>
     <use xlink:href="#m76c4b166be" x="252.984015" y="51.858513" style="fill: #ffffff; stroke: #2e7ebb"/>
     <use xlink:href="#m76c4b166be" x="255.707627" y="55.534719" style="fill: #ffffff; stroke: #2e7ebb"/>
     <use xlink:href="#m76c4b166be" x="258.431239" y="52.807982" style="fill: #ffffff; stroke: #2e7ebb"/>
     <use xlink:href="#m76c4b166be" x="261.154851" y="53.066029" style="fill: #ffffff; stroke: #2e7ebb"/>
     <use xlink:href="#m76c4b166be" x="263.878462" y="52.864727" style="fill: #ffffff; stroke: #2e7ebb"/>
     <use xlink:href="#m76c4b166be" x="266.602074" y="52.68121" style="fill: #ffffff; stroke: #2e7ebb"/>
     <use xlink:href="#m76c4b166be" x="269.325686" y="51.920643" style="fill: #ffffff; stroke: #2e7ebb"/>
     <use xlink:href="#m76c4b166be" x="272.049298" y="51.542916" style="fill: #ffffff; stroke: #2e7ebb"/>
     <use xlink:href="#m76c4b166be" x="274.77291" y="53.159803" style="fill: #ffffff; stroke: #2e7ebb"/>
     <use xlink:href="#m76c4b166be" x="277.496522" y="53.515761" style="fill: #ffffff; stroke: #2e7ebb"/>
     <use xlink:href="#m76c4b166be" x="280.220134" y="53.079987" style="fill: #ffffff; stroke: #2e7ebb"/>
     <use xlink:href="#m76c4b166be" x="282.943746" y="52.627176" style="fill: #ffffff; stroke: #2e7ebb"/>
     <use xlink:href="#m76c4b166be" x="285.667358" y="51.596557" style="fill: #ffffff; stroke: #2e7ebb"/>
     <use xlink:href="#m76c4b166be" x="288.39097" y="50.545204" style="fill: #ffffff; stroke: #2e7ebb"/>
     <use xlink:href="#m76c4b166be" x="291.114582" y="50.030558" style="fill: #ffffff; stroke: #2e7ebb"/>
     <use xlink:href="#m76c4b166be" x="293.838194" y="49.365259" style="fill: #ffffff; stroke: #2e7ebb"/>
     <use xlink:href="#m76c4b166be" x="296.561806" y="49.977375" style="fill: #ffffff; stroke: #2e7ebb"/>
     <use xlink:href="#m76c4b166be" x="299.285418" y="49.306923" style="fill: #ffffff; stroke: #2e7ebb"/>
     <use xlink:href="#m76c4b166be" x="302.00903" y="49.265532" style="fill: #ffffff; stroke: #2e7ebb"/>
     <use xlink:href="#m76c4b166be" x="304.732642" y="51.535662" style="fill: #ffffff; stroke: #2e7ebb"/>
     <use xlink:href="#m76c4b166be" x="307.456254" y="49.585795" style="fill: #ffffff; stroke: #2e7ebb"/>
     <use xlink:href="#m76c4b166be" x="310.179866" y="49.093261" style="fill: #ffffff; stroke: #2e7ebb"/>
     <use xlink:href="#m76c4b166be" x="312.903478" y="51.983306" style="fill: #ffffff; stroke: #2e7ebb"/>
     <use xlink:href="#m76c4b166be" x="315.62709" y="50.125149" style="fill: #ffffff; stroke: #2e7ebb"/>
     <use xlink:href="#m76c4b166be" x="318.350702" y="49.497896" style="fill: #ffffff; stroke: #2e7ebb"/>
     <use xlink:href="#m76c4b166be" x="321.074314" y="49.025892" style="fill: #ffffff; stroke: #2e7ebb"/>
     <use xlink:href="#m76c4b166be" x="323.797926" y="48.349761" style="fill: #ffffff; stroke: #2e7ebb"/>
     <use xlink:href="#m76c4b166be" x="326.521538" y="47.884573" style="fill: #ffffff; stroke: #2e7ebb"/>
     <use xlink:href="#m76c4b166be" x="329.245149" y="48.54113" style="fill: #ffffff; stroke: #2e7ebb"/>
     <use xlink:href="#m76c4b166be" x="331.968761" y="48.48788" style="fill: #ffffff; stroke: #2e7ebb"/>
     <use xlink:href="#m76c4b166be" x="334.692373" y="48.352276" style="fill: #ffffff; stroke: #2e7ebb"/>
     <use xlink:href="#m76c4b166be" x="337.415985" y="48.034308" style="fill: #ffffff; stroke: #2e7ebb"/>
     <use xlink:href="#m76c4b166be" x="340.139597" y="48.610336" style="fill: #ffffff; stroke: #2e7ebb"/>
     <use xlink:href="#m76c4b166be" x="342.863209" y="48.654846" style="fill: #ffffff; stroke: #2e7ebb"/>
     <use xlink:href="#m76c4b166be" x="345.586821" y="50.700109" style="fill: #ffffff; stroke: #2e7ebb"/>
     <use xlink:href="#m76c4b166be" x="348.310433" y="52.604087" style="fill: #ffffff; stroke: #2e7ebb"/>
     <use xlink:href="#m76c4b166be" x="351.034045" y="52.67679" style="fill: #ffffff; stroke: #2e7ebb"/>
     <use xlink:href="#m76c4b166be" x="353.757657" y="49.576024" style="fill: #ffffff; stroke: #2e7ebb"/>
     <use xlink:href="#m76c4b166be" x="356.481269" y="49.856213" style="fill: #ffffff; stroke: #2e7ebb"/>
     <use xlink:href="#m76c4b166be" x="359.204881" y="49.52776" style="fill: #ffffff; stroke: #2e7ebb"/>
     <use xlink:href="#m76c4b166be" x="361.928493" y="49.076516" style="fill: #ffffff; stroke: #2e7ebb"/>
     <use xlink:href="#m76c4b166be" x="364.652105" y="52.817827" style="fill: #ffffff; stroke: #2e7ebb"/>
     <use xlink:href="#m76c4b166be" x="367.375717" y="52.790021" style="fill: #ffffff; stroke: #2e7ebb"/>
     <use xlink:href="#m76c4b166be" x="370.099329" y="51.883673" style="fill: #ffffff; stroke: #2e7ebb"/>
     <use xlink:href="#m76c4b166be" x="372.822941" y="54.62326" style="fill: #ffffff; stroke: #2e7ebb"/>
     <use xlink:href="#m76c4b166be" x="375.546553" y="51.263822" style="fill: #ffffff; stroke: #2e7ebb"/>
     <use xlink:href="#m76c4b166be" x="378.270165" y="55.628424" style="fill: #ffffff; stroke: #2e7ebb"/>
     <use xlink:href="#m76c4b166be" x="380.993777" y="56.299423" style="fill: #ffffff; stroke: #2e7ebb"/>
     <use xlink:href="#m76c4b166be" x="383.717389" y="54.44363" style="fill: #ffffff; stroke: #2e7ebb"/>
     <use xlink:href="#m76c4b166be" x="386.441001" y="54.001733" style="fill: #ffffff; stroke: #2e7ebb"/>
     <use xlink:href="#m76c4b166be" x="389.164613" y="53.671354" style="fill: #ffffff; stroke: #2e7ebb"/>
     <use xlink:href="#m76c4b166be" x="391.888225" y="53.856845" style="fill: #ffffff; stroke: #2e7ebb"/>
     <use xlink:href="#m76c4b166be" x="394.611836" y="54.060917" style="fill: #ffffff; stroke: #2e7ebb"/>
     <use xlink:href="#m76c4b166be" x="397.335448" y="52.756364" style="fill: #ffffff; stroke: #2e7ebb"/>
     <use xlink:href="#m76c4b166be" x="400.05906" y="52.855729" style="fill: #ffffff; stroke: #2e7ebb"/>
     <use xlink:href="#m76c4b166be" x="402.782672" y="52.372639" style="fill: #ffffff; stroke: #2e7ebb"/>
     <use xlink:href="#m76c4b166be" x="405.506284" y="52.133309" style="fill: #ffffff; stroke: #2e7ebb"/>
     <use xlink:href="#m76c4b166be" x="408.229896" y="51.910706" style="fill: #ffffff; stroke: #2e7ebb"/>
     <use xlink:href="#m76c4b166be" x="410.953508" y="51.092503" style="fill: #ffffff; stroke: #2e7ebb"/>
     <use xlink:href="#m76c4b166be" x="413.67712" y="51.115819" style="fill: #ffffff; stroke: #2e7ebb"/>
     <use xlink:href="#m76c4b166be" x="416.400732" y="50.653587" style="fill: #ffffff; stroke: #2e7ebb"/>
     <use xlink:href="#m76c4b166be" x="419.124344" y="50.142979" style="fill: #ffffff; stroke: #2e7ebb"/>
     <use xlink:href="#m76c4b166be" x="421.847956" y="49.816875" style="fill: #ffffff; stroke: #2e7ebb"/>
     <use xlink:href="#m76c4b166be" x="424.571568" y="50.156797" style="fill: #ffffff; stroke: #2e7ebb"/>
     <use xlink:href="#m76c4b166be" x="427.29518" y="50.15038" style="fill: #ffffff; stroke: #2e7ebb"/>
     <use xlink:href="#m76c4b166be" x="430.018792" y="50.347822" style="fill: #ffffff; stroke: #2e7ebb"/>
     <use xlink:href="#m76c4b166be" x="432.742404" y="52.679689" style="fill: #ffffff; stroke: #2e7ebb"/>
     <use xlink:href="#m76c4b166be" x="435.466016" y="52.207714" style="fill: #ffffff; stroke: #2e7ebb"/>
     <use xlink:href="#m76c4b166be" x="438.189628" y="52.059853" style="fill: #ffffff; stroke: #2e7ebb"/>
     <use xlink:href="#m76c4b166be" x="440.91324" y="52.234845" style="fill: #ffffff; stroke: #2e7ebb"/>
     <use xlink:href="#m76c4b166be" x="443.636852" y="53.182443" style="fill: #ffffff; stroke: #2e7ebb"/>
     <use xlink:href="#m76c4b166be" x="446.360464" y="52.627576" style="fill: #ffffff; stroke: #2e7ebb"/>
     <use xlink:href="#m76c4b166be" x="449.084076" y="52.443705" style="fill: #ffffff; stroke: #2e7ebb"/>
     <use xlink:href="#m76c4b166be" x="451.807688" y="52.723382" style="fill: #ffffff; stroke: #2e7ebb"/>
     <use xlink:href="#m76c4b166be" x="454.5313" y="52.872796" style="fill: #ffffff; stroke: #2e7ebb"/>
     <use xlink:href="#m76c4b166be" x="457.254912" y="52.673437" style="fill: #ffffff; stroke: #2e7ebb"/>
     <use xlink:href="#m76c4b166be" x="459.978523" y="52.459214" style="fill: #ffffff; stroke: #2e7ebb"/>
     <use xlink:href="#m76c4b166be" x="462.702135" y="51.190515" style="fill: #ffffff; stroke: #2e7ebb"/>
     <use xlink:href="#m76c4b166be" x="465.425747" y="50.548216" style="fill: #ffffff; stroke: #2e7ebb"/>
     <use xlink:href="#m76c4b166be" x="468.149359" y="49.81261" style="fill: #ffffff; stroke: #2e7ebb"/>
     <use xlink:href="#m76c4b166be" x="470.872971" y="49.49679" style="fill: #ffffff; stroke: #2e7ebb"/>
     <use xlink:href="#m76c4b166be" x="473.596583" y="49.359651" style="fill: #ffffff; stroke: #2e7ebb"/>
     <use xlink:href="#m76c4b166be" x="476.320195" y="49.344331" style="fill: #ffffff; stroke: #2e7ebb"/>
     <use xlink:href="#m76c4b166be" x="479.043807" y="49.136755" style="fill: #ffffff; stroke: #2e7ebb"/>
     <use xlink:href="#m76c4b166be" x="481.767419" y="48.963173" style="fill: #ffffff; stroke: #2e7ebb"/>
     <use xlink:href="#m76c4b166be" x="484.491031" y="48.075714" style="fill: #ffffff; stroke: #2e7ebb"/>
     <use xlink:href="#m76c4b166be" x="487.214643" y="48.334556" style="fill: #ffffff; stroke: #2e7ebb"/>
     <use xlink:href="#m76c4b166be" x="489.938255" y="49.024885" style="fill: #ffffff; stroke: #2e7ebb"/>
     <use xlink:href="#m76c4b166be" x="492.661867" y="50.086679" style="fill: #ffffff; stroke: #2e7ebb"/>
     <use xlink:href="#m76c4b166be" x="495.385479" y="48.595352" style="fill: #ffffff; stroke: #2e7ebb"/>
     <use xlink:href="#m76c4b166be" x="498.109091" y="48.235964" style="fill: #ffffff; stroke: #2e7ebb"/>
    </g>
   </g>
   <g id="patch_8">
    <path d="M 72 256.32 
L 72 34.56 
" style="fill: none; stroke: #000000; stroke-width: 0.8; stroke-linejoin: miter; stroke-linecap: square"/>
   </g>
   <g id="patch_9">
    <path d="M 518.4 256.32 
L 518.4 34.56 
" style="fill: none; stroke: #000000; stroke-width: 0.8; stroke-linejoin: miter; stroke-linecap: square"/>
   </g>
   <g id="patch_10">
    <path d="M 72 256.32 
L 518.4 256.32 
" style="fill: none; stroke: #000000; stroke-width: 0.8; stroke-linejoin: miter; stroke-linecap: square"/>
   </g>
   <g id="patch_11">
    <path d="M 72 34.56 
L 518.4 34.56 
" style="fill: none; stroke: #000000; stroke-width: 0.8; stroke-linejoin: miter; stroke-linecap: square"/>
   </g>
   <g id="text_25">
    <!-- 12 -->
    <g transform="translate(122.250641 246.24) scale(0.105 -0.105)">
     <use xlink:href="#TimesNewRomanPSMT-31"/>
     <use xlink:href="#TimesNewRomanPSMT-32" x="50"/>
    </g>
   </g>
   <g id="text_26">
    <!-- Reference indicators -->
    <g transform="translate(243.250594 28.56) scale(0.126 -0.126)">
     <defs>
      <path id="TimesNewRomanPSMT-52" d="M 4325 0 
L 3194 0 
L 1759 1981 
Q 1600 1975 1500 1975 
Q 1459 1975 1412 1976 
Q 1366 1978 1316 1981 
L 1316 750 
Q 1316 350 1403 253 
Q 1522 116 1759 116 
L 1925 116 
L 1925 0 
L 109 0 
L 109 116 
L 269 116 
Q 538 116 653 291 
Q 719 388 719 750 
L 719 3488 
Q 719 3888 631 3984 
Q 509 4122 269 4122 
L 109 4122 
L 109 4238 
L 1653 4238 
Q 2328 4238 2648 4139 
Q 2969 4041 3192 3777 
Q 3416 3513 3416 3147 
Q 3416 2756 3161 2468 
Q 2906 2181 2372 2063 
L 3247 847 
Q 3547 428 3762 290 
Q 3978 153 4325 116 
L 4325 0 
z
M 1316 2178 
Q 1375 2178 1419 2176 
Q 1463 2175 1491 2175 
Q 2097 2175 2405 2437 
Q 2713 2700 2713 3106 
Q 2713 3503 2464 3751 
Q 2216 4000 1806 4000 
Q 1625 4000 1316 3941 
L 1316 2178 
z
" transform="scale(0.015625)"/>
     </defs>
     <use xlink:href="#TimesNewRomanPSMT-52"/>
     <use xlink:href="#TimesNewRomanPSMT-65" x="66.699219"/>
     <use xlink:href="#TimesNewRomanPSMT-66" x="111.083984"/>
     <use xlink:href="#TimesNewRomanPSMT-65" x="144.384766"/>
     <use xlink:href="#TimesNewRomanPSMT-72" x="188.769531"/>
     <use xlink:href="#TimesNewRomanPSMT-65" x="222.070312"/>
     <use xlink:href="#TimesNewRomanPSMT-6e" x="266.455078"/>
     <use xlink:href="#TimesNewRomanPSMT-63" x="316.455078"/>
     <use xlink:href="#TimesNewRomanPSMT-65" x="360.839844"/>
     <use xlink:href="#TimesNewRomanPSMT-20" x="405.224609"/>
     <use xlink:href="#TimesNewRomanPSMT-69" x="430.224609"/>
     <use xlink:href="#TimesNewRomanPSMT-6e" x="458.007812"/>
     <use xlink:href="#TimesNewRomanPSMT-64" x="508.007812"/>
     <use xlink:href="#TimesNewRomanPSMT-69" x="558.007812"/>
     <use xlink:href="#TimesNewRomanPSMT-63" x="585.791016"/>
     <use xlink:href="#TimesNewRomanPSMT-61" x="630.175781"/>
     <use xlink:href="#TimesNewRomanPSMT-74" x="674.560547"/>
     <use xlink:href="#TimesNewRomanPSMT-6f" x="702.34375"/>
     <use xlink:href="#TimesNewRomanPSMT-72" x="752.34375"/>
     <use xlink:href="#TimesNewRomanPSMT-73" x="785.644531"/>
    </g>
   </g>
  </g>
 </g>
 <defs>
  <clipPath id="p8cbdfb184e">
   <rect x="72" y="34.56" width="446.4" height="221.76"/>
  </clipPath>
 </defs>
</svg>
