<?xml version="1.0" encoding="utf-8" standalone="no"?>
<!DOCTYPE svg PUBLIC "-//W3C//DTD SVG 1.1//EN"
  "http://www.w3.org/Graphics/SVG/1.1/DTD/svg11.dtd">
<svg xmlns:xlink="http://www.w3.org/1999/xlink" width="576pt" height="288pt" viewBox="0 0 576 288" xmlns="http://www.w3.org/2000/svg" version="1.1">
 <metadata>
  <rdf:RDF xmlns:dc="http://purl.org/dc/elements/1.1/" xmlns:cc="http://creativecommons.org/ns#" xmlns:rdf="http://www.w3.org/1999/02/22-rdf-syntax-ns#">
   <cc:Work>
    <dc:type rdf:resource="http://purl.org/dc/dcmitype/StillImage"/>
    <dc:date>2024-11-12T21:15:01.752961</dc:date>
    <dc:format>image/svg+xml</dc:format>
    <dc:creator>
     <cc:Agent>
      <dc:title>Matplotlib v3.9.2, https://matplotlib.org/</dc:title>
     </cc:Agent>
    </dc:creator>
   </cc:Work>
  </rdf:RDF>
 </metadata>
 <defs>
  <style type="text/css">*{stroke-linejoin: round; stroke-linecap: butt}</style>
 </defs>
 <g id="figure_1">
  <g id="patch_1">
   <path d="M 0 288 
L 576 288 
L 576 0 
L 0 0 
z
" style="fill: #ffffff"/>
  </g>
  <g id="axes_1">
   <g id="patch_2">
    <path d="M 72 256.32 
L 518.4 256.32 
L 518.4 34.56 
L 72 34.56 
z
" style="fill: #ffffff"/>
   </g>
   <g id="matplotlib.axis_1">
    <g id="xtick_1">
     <g id="line2d_1">
      <defs>
       <path id="m0e6f15788f" d="M 0 0 
L 0 3.5 
" style="stroke: #000000; stroke-width: 0.8"/>
      </defs>
      <g>
       <use xlink:href="#m0e6f15788f" x="86.706255" y="256.32" style="stroke: #000000; stroke-width: 0.8"/>
      </g>
     </g>
     <g id="text_1">
      <!-- 0 -->
      <g transform="translate(84.081255 270.610937) scale(0.105 -0.105)">
       <defs>
        <path id="TimesNewRomanPSMT-30" d="M 231 2094 
Q 231 2819 450 3342 
Q 669 3866 1031 4122 
Q 1313 4325 1613 4325 
Q 2100 4325 2488 3828 
Q 2972 3213 2972 2159 
Q 2972 1422 2759 906 
Q 2547 391 2217 158 
Q 1888 -75 1581 -75 
Q 975 -75 572 641 
Q 231 1244 231 2094 
z
M 844 2016 
Q 844 1141 1059 588 
Q 1238 122 1591 122 
Q 1759 122 1940 273 
Q 2122 425 2216 781 
Q 2359 1319 2359 2297 
Q 2359 3022 2209 3506 
Q 2097 3866 1919 4016 
Q 1791 4119 1609 4119 
Q 1397 4119 1231 3928 
Q 1006 3669 925 3112 
Q 844 2556 844 2016 
z
" transform="scale(0.015625)"/>
       </defs>
       <use xlink:href="#TimesNewRomanPSMT-30"/>
      </g>
     </g>
    </g>
    <g id="xtick_2">
     <g id="line2d_2">
      <g>
       <use xlink:href="#m0e6f15788f" x="179.78382" y="256.32" style="stroke: #000000; stroke-width: 0.8"/>
      </g>
     </g>
     <g id="text_2">
      <!-- 100 -->
      <g transform="translate(171.90882 270.610937) scale(0.105 -0.105)">
       <defs>
        <path id="TimesNewRomanPSMT-31" d="M 750 3822 
L 1781 4325 
L 1884 4325 
L 1884 747 
Q 1884 391 1914 303 
Q 1944 216 2037 169 
Q 2131 122 2419 116 
L 2419 0 
L 825 0 
L 825 116 
Q 1125 122 1212 167 
Q 1300 213 1334 289 
Q 1369 366 1369 747 
L 1369 3034 
Q 1369 3497 1338 3628 
Q 1316 3728 1258 3775 
Q 1200 3822 1119 3822 
Q 1003 3822 797 3725 
L 750 3822 
z
" transform="scale(0.015625)"/>
       </defs>
       <use xlink:href="#TimesNewRomanPSMT-31"/>
       <use xlink:href="#TimesNewRomanPSMT-30" x="50"/>
       <use xlink:href="#TimesNewRomanPSMT-30" x="100"/>
      </g>
     </g>
    </g>
    <g id="xtick_3">
     <g id="line2d_3">
      <g>
       <use xlink:href="#m0e6f15788f" x="272.861384" y="256.32" style="stroke: #000000; stroke-width: 0.8"/>
      </g>
     </g>
     <g id="text_3">
      <!-- 200 -->
      <g transform="translate(264.986384 270.610937) scale(0.105 -0.105)">
       <defs>
        <path id="TimesNewRomanPSMT-32" d="M 2934 816 
L 2638 0 
L 138 0 
L 138 116 
Q 1241 1122 1691 1759 
Q 2141 2397 2141 2925 
Q 2141 3328 1894 3587 
Q 1647 3847 1303 3847 
Q 991 3847 742 3664 
Q 494 3481 375 3128 
L 259 3128 
Q 338 3706 661 4015 
Q 984 4325 1469 4325 
Q 1984 4325 2329 3994 
Q 2675 3663 2675 3213 
Q 2675 2891 2525 2569 
Q 2294 2063 1775 1497 
Q 997 647 803 472 
L 1909 472 
Q 2247 472 2383 497 
Q 2519 522 2628 598 
Q 2738 675 2819 816 
L 2934 816 
z
" transform="scale(0.015625)"/>
       </defs>
       <use xlink:href="#TimesNewRomanPSMT-32"/>
       <use xlink:href="#TimesNewRomanPSMT-30" x="50"/>
       <use xlink:href="#TimesNewRomanPSMT-30" x="100"/>
      </g>
     </g>
    </g>
    <g id="xtick_4">
     <g id="line2d_4">
      <g>
       <use xlink:href="#m0e6f15788f" x="365.938949" y="256.32" style="stroke: #000000; stroke-width: 0.8"/>
      </g>
     </g>
     <g id="text_4">
      <!-- 300 -->
      <g transform="translate(358.063949 270.610937) scale(0.105 -0.105)">
       <defs>
        <path id="TimesNewRomanPSMT-33" d="M 325 3431 
Q 506 3859 782 4092 
Q 1059 4325 1472 4325 
Q 1981 4325 2253 3994 
Q 2459 3747 2459 3466 
Q 2459 3003 1878 2509 
Q 2269 2356 2469 2072 
Q 2669 1788 2669 1403 
Q 2669 853 2319 450 
Q 1863 -75 997 -75 
Q 569 -75 414 31 
Q 259 138 259 259 
Q 259 350 332 419 
Q 406 488 509 488 
Q 588 488 669 463 
Q 722 447 909 348 
Q 1097 250 1169 231 
Q 1284 197 1416 197 
Q 1734 197 1970 444 
Q 2206 691 2206 1028 
Q 2206 1275 2097 1509 
Q 2016 1684 1919 1775 
Q 1784 1900 1550 2001 
Q 1316 2103 1072 2103 
L 972 2103 
L 972 2197 
Q 1219 2228 1467 2375 
Q 1716 2522 1828 2728 
Q 1941 2934 1941 3181 
Q 1941 3503 1739 3701 
Q 1538 3900 1238 3900 
Q 753 3900 428 3381 
L 325 3431 
z
" transform="scale(0.015625)"/>
       </defs>
       <use xlink:href="#TimesNewRomanPSMT-33"/>
       <use xlink:href="#TimesNewRomanPSMT-30" x="50"/>
       <use xlink:href="#TimesNewRomanPSMT-30" x="100"/>
      </g>
     </g>
    </g>
    <g id="xtick_5">
     <g id="line2d_5">
      <g>
       <use xlink:href="#m0e6f15788f" x="459.016514" y="256.32" style="stroke: #000000; stroke-width: 0.8"/>
      </g>
     </g>
     <g id="text_5">
      <!-- 400 -->
      <g transform="translate(451.141514 270.610937) scale(0.105 -0.105)">
       <defs>
        <path id="TimesNewRomanPSMT-34" d="M 2978 1563 
L 2978 1119 
L 2409 1119 
L 2409 0 
L 1894 0 
L 1894 1119 
L 100 1119 
L 100 1519 
L 2066 4325 
L 2409 4325 
L 2409 1563 
L 2978 1563 
z
M 1894 1563 
L 1894 3666 
L 406 1563 
L 1894 1563 
z
" transform="scale(0.015625)"/>
       </defs>
       <use xlink:href="#TimesNewRomanPSMT-34"/>
       <use xlink:href="#TimesNewRomanPSMT-30" x="50"/>
       <use xlink:href="#TimesNewRomanPSMT-30" x="100"/>
      </g>
     </g>
    </g>
    <g id="text_6">
     <!-- Number of nodes -->
     <g transform="translate(258.749414 284.147891) scale(0.105 -0.105)">
      <defs>
       <path id="TimesNewRomanPSMT-4e" d="M -84 4238 
L 1066 4238 
L 3656 1059 
L 3656 3503 
Q 3656 3894 3569 3991 
Q 3453 4122 3203 4122 
L 3056 4122 
L 3056 4238 
L 4531 4238 
L 4531 4122 
L 4381 4122 
Q 4113 4122 4000 3959 
Q 3931 3859 3931 3503 
L 3931 -69 
L 3819 -69 
L 1025 3344 
L 1025 734 
Q 1025 344 1109 247 
Q 1228 116 1475 116 
L 1625 116 
L 1625 0 
L 150 0 
L 150 116 
L 297 116 
Q 569 116 681 278 
Q 750 378 750 734 
L 750 3681 
Q 566 3897 470 3965 
Q 375 4034 191 4094 
Q 100 4122 -84 4122 
L -84 4238 
z
" transform="scale(0.015625)"/>
       <path id="TimesNewRomanPSMT-75" d="M 2709 2863 
L 2709 1128 
Q 2709 631 2732 520 
Q 2756 409 2807 365 
Q 2859 322 2928 322 
Q 3025 322 3147 375 
L 3191 266 
L 2334 -88 
L 2194 -88 
L 2194 519 
Q 1825 119 1631 15 
Q 1438 -88 1222 -88 
Q 981 -88 804 51 
Q 628 191 559 409 
Q 491 628 491 1028 
L 491 2306 
Q 491 2509 447 2587 
Q 403 2666 317 2708 
Q 231 2750 6 2747 
L 6 2863 
L 1009 2863 
L 1009 947 
Q 1009 547 1148 422 
Q 1288 297 1484 297 
Q 1619 297 1789 381 
Q 1959 466 2194 703 
L 2194 2325 
Q 2194 2569 2105 2655 
Q 2016 2741 1734 2747 
L 1734 2863 
L 2709 2863 
z
" transform="scale(0.015625)"/>
       <path id="TimesNewRomanPSMT-6d" d="M 1050 2338 
Q 1363 2650 1419 2697 
Q 1559 2816 1721 2881 
Q 1884 2947 2044 2947 
Q 2313 2947 2506 2790 
Q 2700 2634 2766 2338 
Q 3088 2713 3309 2830 
Q 3531 2947 3766 2947 
Q 3994 2947 4170 2830 
Q 4347 2713 4450 2447 
Q 4519 2266 4519 1878 
L 4519 647 
Q 4519 378 4559 278 
Q 4591 209 4675 161 
Q 4759 113 4950 113 
L 4950 0 
L 3538 0 
L 3538 113 
L 3597 113 
Q 3781 113 3884 184 
Q 3956 234 3988 344 
Q 4000 397 4000 647 
L 4000 1878 
Q 4000 2228 3916 2372 
Q 3794 2572 3525 2572 
Q 3359 2572 3192 2489 
Q 3025 2406 2788 2181 
L 2781 2147 
L 2788 2013 
L 2788 647 
Q 2788 353 2820 281 
Q 2853 209 2943 161 
Q 3034 113 3253 113 
L 3253 0 
L 1806 0 
L 1806 113 
Q 2044 113 2133 169 
Q 2222 225 2256 338 
Q 2272 391 2272 647 
L 2272 1878 
Q 2272 2228 2169 2381 
Q 2031 2581 1784 2581 
Q 1616 2581 1450 2491 
Q 1191 2353 1050 2181 
L 1050 647 
Q 1050 366 1089 281 
Q 1128 197 1204 155 
Q 1281 113 1516 113 
L 1516 0 
L 100 0 
L 100 113 
Q 297 113 375 155 
Q 453 197 493 289 
Q 534 381 534 647 
L 534 1741 
Q 534 2213 506 2350 
Q 484 2453 437 2492 
Q 391 2531 309 2531 
Q 222 2531 100 2484 
L 53 2597 
L 916 2947 
L 1050 2947 
L 1050 2338 
z
" transform="scale(0.015625)"/>
       <path id="TimesNewRomanPSMT-62" d="M 984 2369 
Q 1400 2947 1881 2947 
Q 2322 2947 2650 2570 
Q 2978 2194 2978 1541 
Q 2978 778 2472 313 
Q 2038 -88 1503 -88 
Q 1253 -88 995 3 
Q 738 94 469 275 
L 469 3241 
Q 469 3728 445 3840 
Q 422 3953 372 3993 
Q 322 4034 247 4034 
Q 159 4034 28 3984 
L -16 4094 
L 844 4444 
L 984 4444 
L 984 2369 
z
M 984 2169 
L 984 456 
Q 1144 300 1314 220 
Q 1484 141 1663 141 
Q 1947 141 2192 453 
Q 2438 766 2438 1363 
Q 2438 1913 2192 2208 
Q 1947 2503 1634 2503 
Q 1469 2503 1303 2419 
Q 1178 2356 984 2169 
z
" transform="scale(0.015625)"/>
       <path id="TimesNewRomanPSMT-65" d="M 681 1784 
Q 678 1147 991 784 
Q 1303 422 1725 422 
Q 2006 422 2214 576 
Q 2422 731 2563 1106 
L 2659 1044 
Q 2594 616 2278 264 
Q 1963 -88 1488 -88 
Q 972 -88 605 314 
Q 238 716 238 1394 
Q 238 2128 614 2539 
Q 991 2950 1559 2950 
Q 2041 2950 2350 2633 
Q 2659 2316 2659 1784 
L 681 1784 
z
M 681 1966 
L 2006 1966 
Q 1991 2241 1941 2353 
Q 1863 2528 1708 2628 
Q 1553 2728 1384 2728 
Q 1125 2728 920 2526 
Q 716 2325 681 1966 
z
" transform="scale(0.015625)"/>
       <path id="TimesNewRomanPSMT-72" d="M 1038 2947 
L 1038 2303 
Q 1397 2947 1775 2947 
Q 1947 2947 2059 2842 
Q 2172 2738 2172 2600 
Q 2172 2478 2090 2393 
Q 2009 2309 1897 2309 
Q 1788 2309 1652 2417 
Q 1516 2525 1450 2525 
Q 1394 2525 1328 2463 
Q 1188 2334 1038 2041 
L 1038 669 
Q 1038 431 1097 309 
Q 1138 225 1241 169 
Q 1344 113 1538 113 
L 1538 0 
L 72 0 
L 72 113 
Q 291 113 397 181 
Q 475 231 506 341 
Q 522 394 522 644 
L 522 1753 
Q 522 2253 501 2348 
Q 481 2444 426 2487 
Q 372 2531 291 2531 
Q 194 2531 72 2484 
L 41 2597 
L 906 2947 
L 1038 2947 
z
" transform="scale(0.015625)"/>
       <path id="TimesNewRomanPSMT-20" transform="scale(0.015625)"/>
       <path id="TimesNewRomanPSMT-6f" d="M 1600 2947 
Q 2250 2947 2644 2453 
Q 2978 2031 2978 1484 
Q 2978 1100 2793 706 
Q 2609 313 2286 112 
Q 1963 -88 1566 -88 
Q 919 -88 538 428 
Q 216 863 216 1403 
Q 216 1797 411 2186 
Q 606 2575 925 2761 
Q 1244 2947 1600 2947 
z
M 1503 2744 
Q 1338 2744 1170 2645 
Q 1003 2547 900 2300 
Q 797 2053 797 1666 
Q 797 1041 1045 587 
Q 1294 134 1700 134 
Q 2003 134 2200 384 
Q 2397 634 2397 1244 
Q 2397 2006 2069 2444 
Q 1847 2744 1503 2744 
z
" transform="scale(0.015625)"/>
       <path id="TimesNewRomanPSMT-66" d="M 1319 2638 
L 1319 756 
Q 1319 356 1406 250 
Q 1522 113 1716 113 
L 1975 113 
L 1975 0 
L 266 0 
L 266 113 
L 394 113 
Q 519 113 622 175 
Q 725 238 764 344 
Q 803 450 803 756 
L 803 2638 
L 247 2638 
L 247 2863 
L 803 2863 
L 803 3050 
Q 803 3478 940 3775 
Q 1078 4072 1361 4255 
Q 1644 4438 1997 4438 
Q 2325 4438 2600 4225 
Q 2781 4084 2781 3909 
Q 2781 3816 2700 3733 
Q 2619 3650 2525 3650 
Q 2453 3650 2373 3701 
Q 2294 3753 2178 3923 
Q 2063 4094 1966 4153 
Q 1869 4213 1750 4213 
Q 1606 4213 1506 4136 
Q 1406 4059 1362 3898 
Q 1319 3738 1319 3069 
L 1319 2863 
L 2056 2863 
L 2056 2638 
L 1319 2638 
z
" transform="scale(0.015625)"/>
       <path id="TimesNewRomanPSMT-6e" d="M 1034 2341 
Q 1538 2947 1994 2947 
Q 2228 2947 2397 2830 
Q 2566 2713 2666 2444 
Q 2734 2256 2734 1869 
L 2734 647 
Q 2734 375 2778 278 
Q 2813 200 2889 156 
Q 2966 113 3172 113 
L 3172 0 
L 1756 0 
L 1756 113 
L 1816 113 
Q 2016 113 2095 173 
Q 2175 234 2206 353 
Q 2219 400 2219 647 
L 2219 1819 
Q 2219 2209 2117 2386 
Q 2016 2563 1775 2563 
Q 1403 2563 1034 2156 
L 1034 647 
Q 1034 356 1069 288 
Q 1113 197 1189 155 
Q 1266 113 1500 113 
L 1500 0 
L 84 0 
L 84 113 
L 147 113 
Q 366 113 442 223 
Q 519 334 519 647 
L 519 1709 
Q 519 2225 495 2337 
Q 472 2450 423 2490 
Q 375 2531 294 2531 
Q 206 2531 84 2484 
L 38 2597 
L 900 2947 
L 1034 2947 
L 1034 2341 
z
" transform="scale(0.015625)"/>
       <path id="TimesNewRomanPSMT-64" d="M 2222 322 
Q 2013 103 1813 7 
Q 1613 -88 1381 -88 
Q 913 -88 563 304 
Q 213 697 213 1313 
Q 213 1928 600 2439 
Q 988 2950 1597 2950 
Q 1975 2950 2222 2709 
L 2222 3238 
Q 2222 3728 2198 3840 
Q 2175 3953 2125 3993 
Q 2075 4034 2000 4034 
Q 1919 4034 1784 3984 
L 1744 4094 
L 2597 4444 
L 2738 4444 
L 2738 1134 
Q 2738 631 2761 520 
Q 2784 409 2836 365 
Q 2888 322 2956 322 
Q 3041 322 3181 375 
L 3216 266 
L 2366 -88 
L 2222 -88 
L 2222 322 
z
M 2222 541 
L 2222 2016 
Q 2203 2228 2109 2403 
Q 2016 2578 1861 2667 
Q 1706 2756 1559 2756 
Q 1284 2756 1069 2509 
Q 784 2184 784 1559 
Q 784 928 1059 592 
Q 1334 256 1672 256 
Q 1956 256 2222 541 
z
" transform="scale(0.015625)"/>
       <path id="TimesNewRomanPSMT-73" d="M 2050 2947 
L 2050 1972 
L 1947 1972 
Q 1828 2431 1642 2597 
Q 1456 2763 1169 2763 
Q 950 2763 815 2647 
Q 681 2531 681 2391 
Q 681 2216 781 2091 
Q 878 1963 1175 1819 
L 1631 1597 
Q 2266 1288 2266 781 
Q 2266 391 1970 151 
Q 1675 -88 1309 -88 
Q 1047 -88 709 6 
Q 606 38 541 38 
Q 469 38 428 -44 
L 325 -44 
L 325 978 
L 428 978 
Q 516 541 762 319 
Q 1009 97 1316 97 
Q 1531 97 1667 223 
Q 1803 350 1803 528 
Q 1803 744 1651 891 
Q 1500 1038 1047 1263 
Q 594 1488 453 1669 
Q 313 1847 313 2119 
Q 313 2472 555 2709 
Q 797 2947 1181 2947 
Q 1350 2947 1591 2875 
Q 1750 2828 1803 2828 
Q 1853 2828 1881 2850 
Q 1909 2872 1947 2947 
L 2050 2947 
z
" transform="scale(0.015625)"/>
      </defs>
      <use xlink:href="#TimesNewRomanPSMT-4e"/>
      <use xlink:href="#TimesNewRomanPSMT-75" x="72.216797"/>
      <use xlink:href="#TimesNewRomanPSMT-6d" x="122.216797"/>
      <use xlink:href="#TimesNewRomanPSMT-62" x="200"/>
      <use xlink:href="#TimesNewRomanPSMT-65" x="250"/>
      <use xlink:href="#TimesNewRomanPSMT-72" x="294.384766"/>
      <use xlink:href="#TimesNewRomanPSMT-20" x="327.685547"/>
      <use xlink:href="#TimesNewRomanPSMT-6f" x="352.685547"/>
      <use xlink:href="#TimesNewRomanPSMT-66" x="402.685547"/>
      <use xlink:href="#TimesNewRomanPSMT-20" x="435.986328"/>
      <use xlink:href="#TimesNewRomanPSMT-6e" x="460.986328"/>
      <use xlink:href="#TimesNewRomanPSMT-6f" x="510.986328"/>
      <use xlink:href="#TimesNewRomanPSMT-64" x="560.986328"/>
      <use xlink:href="#TimesNewRomanPSMT-65" x="610.986328"/>
      <use xlink:href="#TimesNewRomanPSMT-73" x="655.371094"/>
     </g>
    </g>
   </g>
   <g id="matplotlib.axis_2">
    <g id="ytick_1">
     <g id="line2d_6">
      <defs>
       <path id="m42207bb392" d="M 0 0 
L -3.5 0 
" style="stroke: #000000; stroke-width: 0.8"/>
      </defs>
      <g>
       <use xlink:href="#m42207bb392" x="72" y="254.782506" style="stroke: #000000; stroke-width: 0.8"/>
      </g>
     </g>
     <g id="text_7">
      <!-- 1.25 -->
      <g transform="translate(46.625 258.427975) scale(0.105 -0.105)">
       <defs>
        <path id="TimesNewRomanPSMT-2e" d="M 800 606 
Q 947 606 1047 504 
Q 1147 403 1147 259 
Q 1147 116 1045 14 
Q 944 -88 800 -88 
Q 656 -88 554 14 
Q 453 116 453 259 
Q 453 406 554 506 
Q 656 606 800 606 
z
" transform="scale(0.015625)"/>
        <path id="TimesNewRomanPSMT-35" d="M 2778 4238 
L 2534 3706 
L 1259 3706 
L 981 3138 
Q 1809 3016 2294 2522 
Q 2709 2097 2709 1522 
Q 2709 1188 2573 903 
Q 2438 619 2231 419 
Q 2025 219 1772 97 
Q 1413 -75 1034 -75 
Q 653 -75 479 54 
Q 306 184 306 341 
Q 306 428 378 495 
Q 450 563 559 563 
Q 641 563 702 538 
Q 763 513 909 409 
Q 1144 247 1384 247 
Q 1750 247 2026 523 
Q 2303 800 2303 1197 
Q 2303 1581 2056 1914 
Q 1809 2247 1375 2428 
Q 1034 2569 447 2591 
L 1259 4238 
L 2778 4238 
z
" transform="scale(0.015625)"/>
       </defs>
       <use xlink:href="#TimesNewRomanPSMT-31"/>
       <use xlink:href="#TimesNewRomanPSMT-2e" x="50"/>
       <use xlink:href="#TimesNewRomanPSMT-32" x="75"/>
       <use xlink:href="#TimesNewRomanPSMT-35" x="125"/>
      </g>
     </g>
    </g>
    <g id="ytick_2">
     <g id="line2d_7">
      <g>
       <use xlink:href="#m42207bb392" x="72" y="222.619782" style="stroke: #000000; stroke-width: 0.8"/>
      </g>
     </g>
     <g id="text_8">
      <!-- 1.30 -->
      <g transform="translate(46.625 226.265251) scale(0.105 -0.105)">
       <use xlink:href="#TimesNewRomanPSMT-31"/>
       <use xlink:href="#TimesNewRomanPSMT-2e" x="50"/>
       <use xlink:href="#TimesNewRomanPSMT-33" x="75"/>
       <use xlink:href="#TimesNewRomanPSMT-30" x="125"/>
      </g>
     </g>
    </g>
    <g id="ytick_3">
     <g id="line2d_8">
      <g>
       <use xlink:href="#m42207bb392" x="72" y="190.457059" style="stroke: #000000; stroke-width: 0.8"/>
      </g>
     </g>
     <g id="text_9">
      <!-- 1.35 -->
      <g transform="translate(46.625 194.102527) scale(0.105 -0.105)">
       <use xlink:href="#TimesNewRomanPSMT-31"/>
       <use xlink:href="#TimesNewRomanPSMT-2e" x="50"/>
       <use xlink:href="#TimesNewRomanPSMT-33" x="75"/>
       <use xlink:href="#TimesNewRomanPSMT-35" x="125"/>
      </g>
     </g>
    </g>
    <g id="ytick_4">
     <g id="line2d_9">
      <g>
       <use xlink:href="#m42207bb392" x="72" y="158.294335" style="stroke: #000000; stroke-width: 0.8"/>
      </g>
     </g>
     <g id="text_10">
      <!-- 1.40 -->
      <g transform="translate(46.625 161.939804) scale(0.105 -0.105)">
       <use xlink:href="#TimesNewRomanPSMT-31"/>
       <use xlink:href="#TimesNewRomanPSMT-2e" x="50"/>
       <use xlink:href="#TimesNewRomanPSMT-34" x="75"/>
       <use xlink:href="#TimesNewRomanPSMT-30" x="125"/>
      </g>
     </g>
    </g>
    <g id="ytick_5">
     <g id="line2d_10">
      <g>
       <use xlink:href="#m42207bb392" x="72" y="126.131611" style="stroke: #000000; stroke-width: 0.8"/>
      </g>
     </g>
     <g id="text_11">
      <!-- 1.45 -->
      <g transform="translate(46.625 129.77708) scale(0.105 -0.105)">
       <use xlink:href="#TimesNewRomanPSMT-31"/>
       <use xlink:href="#TimesNewRomanPSMT-2e" x="50"/>
       <use xlink:href="#TimesNewRomanPSMT-34" x="75"/>
       <use xlink:href="#TimesNewRomanPSMT-35" x="125"/>
      </g>
     </g>
    </g>
    <g id="ytick_6">
     <g id="line2d_11">
      <g>
       <use xlink:href="#m42207bb392" x="72" y="93.968888" style="stroke: #000000; stroke-width: 0.8"/>
      </g>
     </g>
     <g id="text_12">
      <!-- 1.50 -->
      <g transform="translate(46.625 97.614356) scale(0.105 -0.105)">
       <use xlink:href="#TimesNewRomanPSMT-31"/>
       <use xlink:href="#TimesNewRomanPSMT-2e" x="50"/>
       <use xlink:href="#TimesNewRomanPSMT-35" x="75"/>
       <use xlink:href="#TimesNewRomanPSMT-30" x="125"/>
      </g>
     </g>
    </g>
    <g id="ytick_7">
     <g id="line2d_12">
      <g>
       <use xlink:href="#m42207bb392" x="72" y="61.806164" style="stroke: #000000; stroke-width: 0.8"/>
      </g>
     </g>
     <g id="text_13">
      <!-- 1.55 -->
      <g transform="translate(46.625 65.451633) scale(0.105 -0.105)">
       <use xlink:href="#TimesNewRomanPSMT-31"/>
       <use xlink:href="#TimesNewRomanPSMT-2e" x="50"/>
       <use xlink:href="#TimesNewRomanPSMT-35" x="75"/>
       <use xlink:href="#TimesNewRomanPSMT-35" x="125"/>
      </g>
     </g>
    </g>
    <g id="text_14">
     <!-- Natural Connectivity -->
     <g transform="translate(40.359297 189.617109) rotate(-90) scale(0.105 -0.105)">
      <defs>
       <path id="TimesNewRomanPSMT-61" d="M 1822 413 
Q 1381 72 1269 19 
Q 1100 -59 909 -59 
Q 613 -59 420 144 
Q 228 347 228 678 
Q 228 888 322 1041 
Q 450 1253 767 1440 
Q 1084 1628 1822 1897 
L 1822 2009 
Q 1822 2438 1686 2597 
Q 1550 2756 1291 2756 
Q 1094 2756 978 2650 
Q 859 2544 859 2406 
L 866 2225 
Q 866 2081 792 2003 
Q 719 1925 600 1925 
Q 484 1925 411 2006 
Q 338 2088 338 2228 
Q 338 2497 613 2722 
Q 888 2947 1384 2947 
Q 1766 2947 2009 2819 
Q 2194 2722 2281 2516 
Q 2338 2381 2338 1966 
L 2338 994 
Q 2338 584 2353 492 
Q 2369 400 2405 369 
Q 2441 338 2488 338 
Q 2538 338 2575 359 
Q 2641 400 2828 588 
L 2828 413 
Q 2478 -56 2159 -56 
Q 2006 -56 1915 50 
Q 1825 156 1822 413 
z
M 1822 616 
L 1822 1706 
Q 1350 1519 1213 1441 
Q 966 1303 859 1153 
Q 753 1003 753 825 
Q 753 600 887 451 
Q 1022 303 1197 303 
Q 1434 303 1822 616 
z
" transform="scale(0.015625)"/>
       <path id="TimesNewRomanPSMT-74" d="M 1031 3803 
L 1031 2863 
L 1700 2863 
L 1700 2644 
L 1031 2644 
L 1031 788 
Q 1031 509 1111 412 
Q 1191 316 1316 316 
Q 1419 316 1516 380 
Q 1613 444 1666 569 
L 1788 569 
Q 1678 263 1478 108 
Q 1278 -47 1066 -47 
Q 922 -47 784 33 
Q 647 113 581 261 
Q 516 409 516 719 
L 516 2644 
L 63 2644 
L 63 2747 
Q 234 2816 414 2980 
Q 594 3144 734 3369 
Q 806 3488 934 3803 
L 1031 3803 
z
" transform="scale(0.015625)"/>
       <path id="TimesNewRomanPSMT-6c" d="M 1184 4444 
L 1184 647 
Q 1184 378 1223 290 
Q 1263 203 1344 158 
Q 1425 113 1647 113 
L 1647 0 
L 244 0 
L 244 113 
Q 441 113 512 153 
Q 584 194 625 287 
Q 666 381 666 647 
L 666 3247 
Q 666 3731 644 3842 
Q 622 3953 573 3993 
Q 525 4034 450 4034 
Q 369 4034 244 3984 
L 191 4094 
L 1044 4444 
L 1184 4444 
z
" transform="scale(0.015625)"/>
       <path id="TimesNewRomanPSMT-43" d="M 3853 4334 
L 3950 2894 
L 3853 2894 
Q 3659 3541 3300 3825 
Q 2941 4109 2438 4109 
Q 2016 4109 1675 3895 
Q 1334 3681 1139 3212 
Q 944 2744 944 2047 
Q 944 1472 1128 1050 
Q 1313 628 1683 403 
Q 2053 178 2528 178 
Q 2941 178 3256 354 
Q 3572 531 3950 1056 
L 4047 994 
Q 3728 428 3303 165 
Q 2878 -97 2294 -97 
Q 1241 -97 663 684 
Q 231 1266 231 2053 
Q 231 2688 515 3219 
Q 800 3750 1298 4042 
Q 1797 4334 2388 4334 
Q 2847 4334 3294 4109 
Q 3425 4041 3481 4041 
Q 3566 4041 3628 4100 
Q 3709 4184 3744 4334 
L 3853 4334 
z
" transform="scale(0.015625)"/>
       <path id="TimesNewRomanPSMT-63" d="M 2631 1088 
Q 2516 522 2178 217 
Q 1841 -88 1431 -88 
Q 944 -88 581 321 
Q 219 731 219 1428 
Q 219 2103 620 2525 
Q 1022 2947 1584 2947 
Q 2006 2947 2278 2723 
Q 2550 2500 2550 2259 
Q 2550 2141 2473 2067 
Q 2397 1994 2259 1994 
Q 2075 1994 1981 2113 
Q 1928 2178 1911 2362 
Q 1894 2547 1784 2644 
Q 1675 2738 1481 2738 
Q 1169 2738 978 2506 
Q 725 2200 725 1697 
Q 725 1184 976 792 
Q 1228 400 1656 400 
Q 1963 400 2206 609 
Q 2378 753 2541 1131 
L 2631 1088 
z
" transform="scale(0.015625)"/>
       <path id="TimesNewRomanPSMT-69" d="M 928 4444 
Q 1059 4444 1151 4351 
Q 1244 4259 1244 4128 
Q 1244 3997 1151 3903 
Q 1059 3809 928 3809 
Q 797 3809 703 3903 
Q 609 3997 609 4128 
Q 609 4259 701 4351 
Q 794 4444 928 4444 
z
M 1188 2947 
L 1188 647 
Q 1188 378 1227 289 
Q 1266 200 1342 156 
Q 1419 113 1622 113 
L 1622 0 
L 231 0 
L 231 113 
Q 441 113 512 153 
Q 584 194 626 287 
Q 669 381 669 647 
L 669 1750 
Q 669 2216 641 2353 
Q 619 2453 572 2492 
Q 525 2531 444 2531 
Q 356 2531 231 2484 
L 188 2597 
L 1050 2947 
L 1188 2947 
z
" transform="scale(0.015625)"/>
       <path id="TimesNewRomanPSMT-76" d="M 53 2863 
L 1400 2863 
L 1400 2747 
L 1313 2747 
Q 1191 2747 1127 2687 
Q 1063 2628 1063 2528 
Q 1063 2419 1128 2269 
L 1794 688 
L 2463 2328 
Q 2534 2503 2534 2594 
Q 2534 2638 2509 2666 
Q 2475 2713 2422 2730 
Q 2369 2747 2206 2747 
L 2206 2863 
L 3141 2863 
L 3141 2747 
Q 2978 2734 2916 2681 
Q 2806 2588 2719 2369 
L 1703 -88 
L 1575 -88 
L 553 2328 
Q 484 2497 421 2570 
Q 359 2644 263 2694 
Q 209 2722 53 2747 
L 53 2863 
z
" transform="scale(0.015625)"/>
       <path id="TimesNewRomanPSMT-79" d="M 38 2863 
L 1372 2863 
L 1372 2747 
L 1306 2747 
Q 1166 2747 1095 2686 
Q 1025 2625 1025 2534 
Q 1025 2413 1128 2197 
L 1825 753 
L 2466 2334 
Q 2519 2463 2519 2588 
Q 2519 2644 2497 2672 
Q 2472 2706 2419 2726 
Q 2366 2747 2231 2747 
L 2231 2863 
L 3163 2863 
L 3163 2747 
Q 3047 2734 2984 2696 
Q 2922 2659 2847 2556 
Q 2819 2513 2741 2316 
L 1575 -541 
Q 1406 -956 1132 -1168 
Q 859 -1381 606 -1381 
Q 422 -1381 303 -1275 
Q 184 -1169 184 -1031 
Q 184 -900 270 -820 
Q 356 -741 506 -741 
Q 609 -741 788 -809 
Q 913 -856 944 -856 
Q 1038 -856 1148 -759 
Q 1259 -663 1372 -384 
L 1575 113 
L 547 2272 
Q 500 2369 397 2513 
Q 319 2622 269 2659 
Q 197 2709 38 2747 
L 38 2863 
z
" transform="scale(0.015625)"/>
      </defs>
      <use xlink:href="#TimesNewRomanPSMT-4e"/>
      <use xlink:href="#TimesNewRomanPSMT-61" x="72.216797"/>
      <use xlink:href="#TimesNewRomanPSMT-74" x="116.601562"/>
      <use xlink:href="#TimesNewRomanPSMT-75" x="144.384766"/>
      <use xlink:href="#TimesNewRomanPSMT-72" x="194.384766"/>
      <use xlink:href="#TimesNewRomanPSMT-61" x="227.685547"/>
      <use xlink:href="#TimesNewRomanPSMT-6c" x="272.070312"/>
      <use xlink:href="#TimesNewRomanPSMT-20" x="299.853516"/>
      <use xlink:href="#TimesNewRomanPSMT-43" x="324.853516"/>
      <use xlink:href="#TimesNewRomanPSMT-6f" x="391.552734"/>
      <use xlink:href="#TimesNewRomanPSMT-6e" x="441.552734"/>
      <use xlink:href="#TimesNewRomanPSMT-6e" x="491.552734"/>
      <use xlink:href="#TimesNewRomanPSMT-65" x="541.552734"/>
      <use xlink:href="#TimesNewRomanPSMT-63" x="585.9375"/>
      <use xlink:href="#TimesNewRomanPSMT-74" x="630.322266"/>
      <use xlink:href="#TimesNewRomanPSMT-69" x="658.105469"/>
      <use xlink:href="#TimesNewRomanPSMT-76" x="685.888672"/>
      <use xlink:href="#TimesNewRomanPSMT-69" x="735.888672"/>
      <use xlink:href="#TimesNewRomanPSMT-74" x="763.671875"/>
      <use xlink:href="#TimesNewRomanPSMT-79" x="791.455078"/>
     </g>
    </g>
   </g>
   <g id="line2d_13">
    <path d="M 92.290909 141.855727 
L 96.944787 44.64 
L 101.598666 82.31272 
L 106.252544 142.278361 
L 110.906422 122.806727 
L 115.5603 146.406825 
L 120.214178 165.459341 
L 124.868057 147.762165 
L 129.521935 173.142868 
L 134.175813 170.605181 
L 138.829691 179.016967 
L 143.48357 172.616816 
L 148.137448 179.991914 
L 152.791326 180.752492 
L 157.445204 161.43183 
L 162.099083 170.728212 
L 166.752961 164.057084 
L 171.406839 155.313651 
L 176.060717 191.522589 
L 180.714595 185.944048 
L 185.368474 192.264435 
L 190.022352 216.010128 
L 194.67623 220.205762 
L 199.330108 221.050716 
L 203.983987 228.020314 
L 208.637865 222.228232 
L 213.291743 215.839824 
L 217.945621 213.019611 
L 222.5995 219.309562 
L 228.184153 221.231331 
L 237.49191 229.275839 
L 246.799666 228.088641 
L 256.107423 236.649582 
L 265.415179 246.044689 
L 274.722936 246.24 
L 284.030692 242.662663 
L 293.338449 239.500938 
L 302.646205 237.862789 
L 311.953962 244.120141 
L 321.261718 241.833417 
L 330.569475 237.183182 
L 339.877231 229.322701 
L 349.184987 229.738294 
L 358.492744 239.501655 
L 367.8005 246.008 
L 377.108257 237.492845 
L 386.416013 239.225783 
L 395.72377 231.949004 
L 405.031526 233.250214 
L 414.339283 229.431455 
L 423.647039 226.51554 
L 432.954796 223.977274 
L 442.262552 222.591811 
L 451.570309 220.108592 
L 460.878065 221.426878 
L 479.493578 221.539362 
L 488.801334 223.031737 
L 498.109091 218.934644 
L 498.109091 218.934644 
" clip-path="url(#pe586741549)" style="fill: none; stroke: #d92523; stroke-width: 1.5; stroke-linecap: square"/>
    <defs>
     <path id="m4417c3bd3e" d="M 0 1.5 
C 0.397805 1.5 0.77937 1.341951 1.06066 1.06066 
C 1.341951 0.77937 1.5 0.397805 1.5 0 
C 1.5 -0.397805 1.341951 -0.77937 1.06066 -1.06066 
C 0.77937 -1.341951 0.397805 -1.5 0 -1.5 
C -0.397805 -1.5 -0.77937 -1.341951 -1.06066 -1.06066 
C -1.341951 -0.77937 -1.5 -0.397805 -1.5 0 
C -1.5 0.397805 -1.341951 0.77937 -1.06066 1.06066 
C -0.77937 1.341951 -0.397805 1.5 0 1.5 
z
" style="stroke: #d92523"/>
    </defs>
    <g clip-path="url(#pe586741549)">
     <use xlink:href="#m4417c3bd3e" x="92.290909" y="141.855727" style="fill: #ffffff; stroke: #d92523"/>
     <use xlink:href="#m4417c3bd3e" x="96.944787" y="44.64" style="fill: #ffffff; stroke: #d92523"/>
     <use xlink:href="#m4417c3bd3e" x="101.598666" y="82.31272" style="fill: #ffffff; stroke: #d92523"/>
     <use xlink:href="#m4417c3bd3e" x="106.252544" y="142.278361" style="fill: #ffffff; stroke: #d92523"/>
     <use xlink:href="#m4417c3bd3e" x="110.906422" y="122.806727" style="fill: #ffffff; stroke: #d92523"/>
     <use xlink:href="#m4417c3bd3e" x="115.5603" y="146.406825" style="fill: #ffffff; stroke: #d92523"/>
     <use xlink:href="#m4417c3bd3e" x="120.214178" y="165.459341" style="fill: #ffffff; stroke: #d92523"/>
     <use xlink:href="#m4417c3bd3e" x="124.868057" y="147.762165" style="fill: #ffffff; stroke: #d92523"/>
     <use xlink:href="#m4417c3bd3e" x="129.521935" y="173.142868" style="fill: #ffffff; stroke: #d92523"/>
     <use xlink:href="#m4417c3bd3e" x="134.175813" y="170.605181" style="fill: #ffffff; stroke: #d92523"/>
     <use xlink:href="#m4417c3bd3e" x="138.829691" y="179.016967" style="fill: #ffffff; stroke: #d92523"/>
     <use xlink:href="#m4417c3bd3e" x="143.48357" y="172.616816" style="fill: #ffffff; stroke: #d92523"/>
     <use xlink:href="#m4417c3bd3e" x="148.137448" y="179.991914" style="fill: #ffffff; stroke: #d92523"/>
     <use xlink:href="#m4417c3bd3e" x="152.791326" y="180.752492" style="fill: #ffffff; stroke: #d92523"/>
     <use xlink:href="#m4417c3bd3e" x="157.445204" y="161.43183" style="fill: #ffffff; stroke: #d92523"/>
     <use xlink:href="#m4417c3bd3e" x="162.099083" y="170.728212" style="fill: #ffffff; stroke: #d92523"/>
     <use xlink:href="#m4417c3bd3e" x="166.752961" y="164.057084" style="fill: #ffffff; stroke: #d92523"/>
     <use xlink:href="#m4417c3bd3e" x="171.406839" y="155.313651" style="fill: #ffffff; stroke: #d92523"/>
     <use xlink:href="#m4417c3bd3e" x="176.060717" y="191.522589" style="fill: #ffffff; stroke: #d92523"/>
     <use xlink:href="#m4417c3bd3e" x="180.714595" y="185.944048" style="fill: #ffffff; stroke: #d92523"/>
     <use xlink:href="#m4417c3bd3e" x="185.368474" y="192.264435" style="fill: #ffffff; stroke: #d92523"/>
     <use xlink:href="#m4417c3bd3e" x="190.022352" y="216.010128" style="fill: #ffffff; stroke: #d92523"/>
     <use xlink:href="#m4417c3bd3e" x="194.67623" y="220.205762" style="fill: #ffffff; stroke: #d92523"/>
     <use xlink:href="#m4417c3bd3e" x="199.330108" y="221.050716" style="fill: #ffffff; stroke: #d92523"/>
     <use xlink:href="#m4417c3bd3e" x="203.983987" y="228.020314" style="fill: #ffffff; stroke: #d92523"/>
     <use xlink:href="#m4417c3bd3e" x="208.637865" y="222.228232" style="fill: #ffffff; stroke: #d92523"/>
     <use xlink:href="#m4417c3bd3e" x="213.291743" y="215.839824" style="fill: #ffffff; stroke: #d92523"/>
     <use xlink:href="#m4417c3bd3e" x="217.945621" y="213.019611" style="fill: #ffffff; stroke: #d92523"/>
     <use xlink:href="#m4417c3bd3e" x="222.5995" y="219.309562" style="fill: #ffffff; stroke: #d92523"/>
     <use xlink:href="#m4417c3bd3e" x="228.184153" y="221.231331" style="fill: #ffffff; stroke: #d92523"/>
     <use xlink:href="#m4417c3bd3e" x="237.49191" y="229.275839" style="fill: #ffffff; stroke: #d92523"/>
     <use xlink:href="#m4417c3bd3e" x="246.799666" y="228.088641" style="fill: #ffffff; stroke: #d92523"/>
     <use xlink:href="#m4417c3bd3e" x="256.107423" y="236.649582" style="fill: #ffffff; stroke: #d92523"/>
     <use xlink:href="#m4417c3bd3e" x="265.415179" y="246.044689" style="fill: #ffffff; stroke: #d92523"/>
     <use xlink:href="#m4417c3bd3e" x="274.722936" y="246.24" style="fill: #ffffff; stroke: #d92523"/>
     <use xlink:href="#m4417c3bd3e" x="284.030692" y="242.662663" style="fill: #ffffff; stroke: #d92523"/>
     <use xlink:href="#m4417c3bd3e" x="293.338449" y="239.500938" style="fill: #ffffff; stroke: #d92523"/>
     <use xlink:href="#m4417c3bd3e" x="302.646205" y="237.862789" style="fill: #ffffff; stroke: #d92523"/>
     <use xlink:href="#m4417c3bd3e" x="311.953962" y="244.120141" style="fill: #ffffff; stroke: #d92523"/>
     <use xlink:href="#m4417c3bd3e" x="321.261718" y="241.833417" style="fill: #ffffff; stroke: #d92523"/>
     <use xlink:href="#m4417c3bd3e" x="330.569475" y="237.183182" style="fill: #ffffff; stroke: #d92523"/>
     <use xlink:href="#m4417c3bd3e" x="339.877231" y="229.322701" style="fill: #ffffff; stroke: #d92523"/>
     <use xlink:href="#m4417c3bd3e" x="349.184987" y="229.738294" style="fill: #ffffff; stroke: #d92523"/>
     <use xlink:href="#m4417c3bd3e" x="358.492744" y="239.501655" style="fill: #ffffff; stroke: #d92523"/>
     <use xlink:href="#m4417c3bd3e" x="367.8005" y="246.008" style="fill: #ffffff; stroke: #d92523"/>
     <use xlink:href="#m4417c3bd3e" x="377.108257" y="237.492845" style="fill: #ffffff; stroke: #d92523"/>
     <use xlink:href="#m4417c3bd3e" x="386.416013" y="239.225783" style="fill: #ffffff; stroke: #d92523"/>
     <use xlink:href="#m4417c3bd3e" x="395.72377" y="231.949004" style="fill: #ffffff; stroke: #d92523"/>
     <use xlink:href="#m4417c3bd3e" x="405.031526" y="233.250214" style="fill: #ffffff; stroke: #d92523"/>
     <use xlink:href="#m4417c3bd3e" x="414.339283" y="229.431455" style="fill: #ffffff; stroke: #d92523"/>
     <use xlink:href="#m4417c3bd3e" x="423.647039" y="226.51554" style="fill: #ffffff; stroke: #d92523"/>
     <use xlink:href="#m4417c3bd3e" x="432.954796" y="223.977274" style="fill: #ffffff; stroke: #d92523"/>
     <use xlink:href="#m4417c3bd3e" x="442.262552" y="222.591811" style="fill: #ffffff; stroke: #d92523"/>
     <use xlink:href="#m4417c3bd3e" x="451.570309" y="220.108592" style="fill: #ffffff; stroke: #d92523"/>
     <use xlink:href="#m4417c3bd3e" x="460.878065" y="221.426878" style="fill: #ffffff; stroke: #d92523"/>
     <use xlink:href="#m4417c3bd3e" x="470.185822" y="221.508915" style="fill: #ffffff; stroke: #d92523"/>
     <use xlink:href="#m4417c3bd3e" x="479.493578" y="221.539362" style="fill: #ffffff; stroke: #d92523"/>
     <use xlink:href="#m4417c3bd3e" x="488.801334" y="223.031737" style="fill: #ffffff; stroke: #d92523"/>
     <use xlink:href="#m4417c3bd3e" x="498.109091" y="218.934644" style="fill: #ffffff; stroke: #d92523"/>
    </g>
   </g>
   <g id="patch_3">
    <path d="M 72 256.32 
L 72 34.56 
" style="fill: none; stroke: #000000; stroke-width: 0.8; stroke-linejoin: miter; stroke-linecap: square"/>
   </g>
   <g id="patch_4">
    <path d="M 518.4 256.32 
L 518.4 34.56 
" style="fill: none; stroke: #000000; stroke-width: 0.8; stroke-linejoin: miter; stroke-linecap: square"/>
   </g>
   <g id="patch_5">
    <path d="M 72 256.32 
L 518.4 256.32 
" style="fill: none; stroke: #000000; stroke-width: 0.8; stroke-linejoin: miter; stroke-linecap: square"/>
   </g>
   <g id="patch_6">
    <path d="M 72 34.56 
L 518.4 34.56 
" style="fill: none; stroke: #000000; stroke-width: 0.8; stroke-linejoin: miter; stroke-linecap: square"/>
   </g>
   <g id="legend_1">
    <g id="patch_7">
     <path d="M 389.095781 87.557109 
L 511.05 87.557109 
Q 513.15 87.557109 513.15 85.457109 
L 513.15 41.91 
Q 513.15 39.81 511.05 39.81 
L 389.095781 39.81 
Q 386.995781 39.81 386.995781 41.91 
L 386.995781 85.457109 
Q 386.995781 87.557109 389.095781 87.557109 
z
" style="fill: #ffffff; opacity: 0.8; stroke: #cccccc; stroke-linejoin: miter"/>
    </g>
    <g id="line2d_14">
     <path d="M 391.195781 47.685 
L 401.695781 47.685 
L 412.195781 47.685 
" style="fill: none; stroke: #d92523; stroke-width: 1.5; stroke-linecap: square"/>
     <g>
      <use xlink:href="#m4417c3bd3e" x="401.695781" y="47.685" style="fill: #ffffff; stroke: #d92523"/>
     </g>
    </g>
    <g id="text_15">
     <!-- Natural Connectivity -->
     <g transform="translate(420.595781 51.36) scale(0.105 -0.105)">
      <use xlink:href="#TimesNewRomanPSMT-4e"/>
      <use xlink:href="#TimesNewRomanPSMT-61" x="72.216797"/>
      <use xlink:href="#TimesNewRomanPSMT-74" x="116.601562"/>
      <use xlink:href="#TimesNewRomanPSMT-75" x="144.384766"/>
      <use xlink:href="#TimesNewRomanPSMT-72" x="194.384766"/>
      <use xlink:href="#TimesNewRomanPSMT-61" x="227.685547"/>
      <use xlink:href="#TimesNewRomanPSMT-6c" x="272.070312"/>
      <use xlink:href="#TimesNewRomanPSMT-20" x="299.853516"/>
      <use xlink:href="#TimesNewRomanPSMT-43" x="324.853516"/>
      <use xlink:href="#TimesNewRomanPSMT-6f" x="391.552734"/>
      <use xlink:href="#TimesNewRomanPSMT-6e" x="441.552734"/>
      <use xlink:href="#TimesNewRomanPSMT-6e" x="491.552734"/>
      <use xlink:href="#TimesNewRomanPSMT-65" x="541.552734"/>
      <use xlink:href="#TimesNewRomanPSMT-63" x="585.9375"/>
      <use xlink:href="#TimesNewRomanPSMT-74" x="630.322266"/>
      <use xlink:href="#TimesNewRomanPSMT-69" x="658.105469"/>
      <use xlink:href="#TimesNewRomanPSMT-76" x="685.888672"/>
      <use xlink:href="#TimesNewRomanPSMT-69" x="735.888672"/>
      <use xlink:href="#TimesNewRomanPSMT-74" x="763.671875"/>
      <use xlink:href="#TimesNewRomanPSMT-79" x="791.455078"/>
     </g>
    </g>
    <g id="line2d_15">
     <path d="M 391.195781 62.550703 
L 401.695781 62.550703 
L 412.195781 62.550703 
" style="fill: none; stroke: #00ff00; stroke-width: 1.5; stroke-linecap: square"/>
     <defs>
      <path id="madb9cf5d21" d="M 0 1.5 
C 0.397805 1.5 0.77937 1.341951 1.06066 1.06066 
C 1.341951 0.77937 1.5 0.397805 1.5 0 
C 1.5 -0.397805 1.341951 -0.77937 1.06066 -1.06066 
C 0.77937 -1.341951 0.397805 -1.5 0 -1.5 
C -0.397805 -1.5 -0.77937 -1.341951 -1.06066 -1.06066 
C -1.341951 -0.77937 -1.5 -0.397805 -1.5 0 
C -1.5 0.397805 -1.341951 0.77937 -1.06066 1.06066 
C -0.77937 1.341951 -0.397805 1.5 0 1.5 
z
" style="stroke: #00ff00"/>
     </defs>
     <g>
      <use xlink:href="#madb9cf5d21" x="401.695781" y="62.550703" style="fill: #ffffff; stroke: #00ff00"/>
     </g>
    </g>
    <g id="text_16">
     <!-- communicate_circle -->
     <g transform="translate(420.595781 66.225703) scale(0.105 -0.105)">
      <defs>
       <path id="TimesNewRomanPSMT-5f" d="M 3256 -1381 
L -53 -1381 
L -53 -1119 
L 3256 -1119 
L 3256 -1381 
z
" transform="scale(0.015625)"/>
      </defs>
      <use xlink:href="#TimesNewRomanPSMT-63"/>
      <use xlink:href="#TimesNewRomanPSMT-6f" x="44.384766"/>
      <use xlink:href="#TimesNewRomanPSMT-6d" x="94.384766"/>
      <use xlink:href="#TimesNewRomanPSMT-6d" x="172.167969"/>
      <use xlink:href="#TimesNewRomanPSMT-75" x="249.951172"/>
      <use xlink:href="#TimesNewRomanPSMT-6e" x="299.951172"/>
      <use xlink:href="#TimesNewRomanPSMT-69" x="349.951172"/>
      <use xlink:href="#TimesNewRomanPSMT-63" x="377.734375"/>
      <use xlink:href="#TimesNewRomanPSMT-61" x="422.119141"/>
      <use xlink:href="#TimesNewRomanPSMT-74" x="466.503906"/>
      <use xlink:href="#TimesNewRomanPSMT-65" x="494.287109"/>
      <use xlink:href="#TimesNewRomanPSMT-5f" x="538.671875"/>
      <use xlink:href="#TimesNewRomanPSMT-63" x="588.671875"/>
      <use xlink:href="#TimesNewRomanPSMT-69" x="633.056641"/>
      <use xlink:href="#TimesNewRomanPSMT-72" x="660.839844"/>
      <use xlink:href="#TimesNewRomanPSMT-63" x="694.140625"/>
      <use xlink:href="#TimesNewRomanPSMT-6c" x="738.525391"/>
      <use xlink:href="#TimesNewRomanPSMT-65" x="766.308594"/>
     </g>
    </g>
    <g id="line2d_16">
     <path d="M 391.195781 77.416406 
L 401.695781 77.416406 
L 412.195781 77.416406 
" style="fill: none; stroke: #2e7ebb; stroke-width: 1.5; stroke-linecap: square"/>
    </g>
    <g id="text_17">
     <!-- res_energy_avg -->
     <g transform="translate(420.595781 81.091406) scale(0.105 -0.105)">
      <defs>
       <path id="TimesNewRomanPSMT-67" d="M 966 1044 
Q 703 1172 562 1401 
Q 422 1631 422 1909 
Q 422 2334 742 2640 
Q 1063 2947 1563 2947 
Q 1972 2947 2272 2747 
L 2878 2747 
Q 3013 2747 3034 2739 
Q 3056 2731 3066 2713 
Q 3084 2684 3084 2613 
Q 3084 2531 3069 2500 
Q 3059 2484 3036 2475 
Q 3013 2466 2878 2466 
L 2506 2466 
Q 2681 2241 2681 1891 
Q 2681 1491 2375 1206 
Q 2069 922 1553 922 
Q 1341 922 1119 984 
Q 981 866 932 777 
Q 884 688 884 625 
Q 884 572 936 522 
Q 988 472 1138 450 
Q 1225 438 1575 428 
Q 2219 413 2409 384 
Q 2700 344 2873 169 
Q 3047 -6 3047 -263 
Q 3047 -616 2716 -925 
Q 2228 -1381 1444 -1381 
Q 841 -1381 425 -1109 
Q 191 -953 191 -784 
Q 191 -709 225 -634 
Q 278 -519 444 -313 
Q 466 -284 763 25 
Q 600 122 533 198 
Q 466 275 466 372 
Q 466 481 555 628 
Q 644 775 966 1044 
z
M 1509 2797 
Q 1278 2797 1122 2612 
Q 966 2428 966 2047 
Q 966 1553 1178 1281 
Q 1341 1075 1591 1075 
Q 1828 1075 1981 1253 
Q 2134 1431 2134 1813 
Q 2134 2309 1919 2591 
Q 1759 2797 1509 2797 
z
M 934 0 
Q 788 -159 713 -296 
Q 638 -434 638 -550 
Q 638 -700 819 -813 
Q 1131 -1006 1722 -1006 
Q 2284 -1006 2551 -807 
Q 2819 -609 2819 -384 
Q 2819 -222 2659 -153 
Q 2497 -84 2016 -72 
Q 1313 -53 934 0 
z
" transform="scale(0.015625)"/>
      </defs>
      <use xlink:href="#TimesNewRomanPSMT-72"/>
      <use xlink:href="#TimesNewRomanPSMT-65" x="33.300781"/>
      <use xlink:href="#TimesNewRomanPSMT-73" x="77.685547"/>
      <use xlink:href="#TimesNewRomanPSMT-5f" x="116.601562"/>
      <use xlink:href="#TimesNewRomanPSMT-65" x="166.601562"/>
      <use xlink:href="#TimesNewRomanPSMT-6e" x="210.986328"/>
      <use xlink:href="#TimesNewRomanPSMT-65" x="260.986328"/>
      <use xlink:href="#TimesNewRomanPSMT-72" x="305.371094"/>
      <use xlink:href="#TimesNewRomanPSMT-67" x="336.921875"/>
      <use xlink:href="#TimesNewRomanPSMT-79" x="386.921875"/>
      <use xlink:href="#TimesNewRomanPSMT-5f" x="436.921875"/>
      <use xlink:href="#TimesNewRomanPSMT-61" x="486.921875"/>
      <use xlink:href="#TimesNewRomanPSMT-76" x="531.306641"/>
      <use xlink:href="#TimesNewRomanPSMT-67" x="581.306641"/>
     </g>
    </g>
   </g>
  </g>
  <g id="axes_2">
   <g id="matplotlib.axis_3">
    <g id="ytick_8">
     <g id="line2d_17">
      <defs>
       <path id="m28935f451f" d="M 0 0 
L 3.5 0 
" style="stroke: #000000; stroke-width: 0.8"/>
      </defs>
      <g>
       <use xlink:href="#m28935f451f" x="518.4" y="233.132748" style="stroke: #000000; stroke-width: 0.8"/>
      </g>
     </g>
     <g id="text_18">
      <!-- 2 -->
      <g transform="translate(525.4 236.778217) scale(0.105 -0.105)">
       <use xlink:href="#TimesNewRomanPSMT-32"/>
      </g>
     </g>
    </g>
    <g id="ytick_9">
     <g id="line2d_18">
      <g>
       <use xlink:href="#m28935f451f" x="518.4" y="193.883213" style="stroke: #000000; stroke-width: 0.8"/>
      </g>
     </g>
     <g id="text_19">
      <!-- 4 -->
      <g transform="translate(525.4 197.528682) scale(0.105 -0.105)">
       <use xlink:href="#TimesNewRomanPSMT-34"/>
      </g>
     </g>
    </g>
    <g id="ytick_10">
     <g id="line2d_19">
      <g>
       <use xlink:href="#m28935f451f" x="518.4" y="154.633677" style="stroke: #000000; stroke-width: 0.8"/>
      </g>
     </g>
     <g id="text_20">
      <!-- 6 -->
      <g transform="translate(525.4 158.279146) scale(0.105 -0.105)">
       <defs>
        <path id="TimesNewRomanPSMT-36" d="M 2869 4325 
L 2869 4209 
Q 2456 4169 2195 4045 
Q 1934 3922 1679 3669 
Q 1425 3416 1258 3105 
Q 1091 2794 978 2366 
Q 1428 2675 1881 2675 
Q 2316 2675 2634 2325 
Q 2953 1975 2953 1425 
Q 2953 894 2631 456 
Q 2244 -75 1606 -75 
Q 1172 -75 869 213 
Q 275 772 275 1663 
Q 275 2231 503 2743 
Q 731 3256 1154 3653 
Q 1578 4050 1965 4187 
Q 2353 4325 2688 4325 
L 2869 4325 
z
M 925 2138 
Q 869 1716 869 1456 
Q 869 1156 980 804 
Q 1091 453 1309 247 
Q 1469 100 1697 100 
Q 1969 100 2183 356 
Q 2397 613 2397 1088 
Q 2397 1622 2184 2012 
Q 1972 2403 1581 2403 
Q 1463 2403 1327 2353 
Q 1191 2303 925 2138 
z
" transform="scale(0.015625)"/>
       </defs>
       <use xlink:href="#TimesNewRomanPSMT-36"/>
      </g>
     </g>
    </g>
    <g id="ytick_11">
     <g id="line2d_20">
      <g>
       <use xlink:href="#m28935f451f" x="518.4" y="115.384142" style="stroke: #000000; stroke-width: 0.8"/>
      </g>
     </g>
     <g id="text_21">
      <!-- 8 -->
      <g transform="translate(525.4 119.029611) scale(0.105 -0.105)">
       <defs>
        <path id="TimesNewRomanPSMT-38" d="M 1228 2134 
Q 725 2547 579 2797 
Q 434 3047 434 3316 
Q 434 3728 753 4026 
Q 1072 4325 1600 4325 
Q 2113 4325 2425 4047 
Q 2738 3769 2738 3413 
Q 2738 3175 2569 2928 
Q 2400 2681 1866 2347 
Q 2416 1922 2594 1678 
Q 2831 1359 2831 1006 
Q 2831 559 2490 242 
Q 2150 -75 1597 -75 
Q 994 -75 656 303 
Q 388 606 388 966 
Q 388 1247 577 1523 
Q 766 1800 1228 2134 
z
M 1719 2469 
Q 2094 2806 2194 3001 
Q 2294 3197 2294 3444 
Q 2294 3772 2109 3958 
Q 1925 4144 1606 4144 
Q 1288 4144 1088 3959 
Q 888 3775 888 3528 
Q 888 3366 970 3203 
Q 1053 3041 1206 2894 
L 1719 2469 
z
M 1375 2016 
Q 1116 1797 991 1539 
Q 866 1281 866 981 
Q 866 578 1086 336 
Q 1306 94 1647 94 
Q 1984 94 2187 284 
Q 2391 475 2391 747 
Q 2391 972 2272 1150 
Q 2050 1481 1375 2016 
z
" transform="scale(0.015625)"/>
       </defs>
       <use xlink:href="#TimesNewRomanPSMT-38"/>
      </g>
     </g>
    </g>
    <g id="ytick_12">
     <g id="line2d_21">
      <g>
       <use xlink:href="#m28935f451f" x="518.4" y="76.134607" style="stroke: #000000; stroke-width: 0.8"/>
      </g>
     </g>
     <g id="text_22">
      <!-- 10 -->
      <g transform="translate(525.4 79.780075) scale(0.105 -0.105)">
       <use xlink:href="#TimesNewRomanPSMT-31"/>
       <use xlink:href="#TimesNewRomanPSMT-30" x="50"/>
      </g>
     </g>
    </g>
    <g id="ytick_13">
     <g id="line2d_22">
      <g>
       <use xlink:href="#m28935f451f" x="518.4" y="36.885071" style="stroke: #000000; stroke-width: 0.8"/>
      </g>
     </g>
     <g id="text_23">
      <!-- 12 -->
      <g transform="translate(525.4 40.53054) scale(0.105 -0.105)">
       <use xlink:href="#TimesNewRomanPSMT-31"/>
       <use xlink:href="#TimesNewRomanPSMT-32" x="50"/>
      </g>
     </g>
    </g>
    <g id="text_24">
     <!-- res_energy_avg -->
     <g transform="translate(547.17125 178.584727) rotate(-90) scale(0.105 -0.105)">
      <use xlink:href="#TimesNewRomanPSMT-72"/>
      <use xlink:href="#TimesNewRomanPSMT-65" x="33.300781"/>
      <use xlink:href="#TimesNewRomanPSMT-73" x="77.685547"/>
      <use xlink:href="#TimesNewRomanPSMT-5f" x="116.601562"/>
      <use xlink:href="#TimesNewRomanPSMT-65" x="166.601562"/>
      <use xlink:href="#TimesNewRomanPSMT-6e" x="210.986328"/>
      <use xlink:href="#TimesNewRomanPSMT-65" x="260.986328"/>
      <use xlink:href="#TimesNewRomanPSMT-72" x="305.371094"/>
      <use xlink:href="#TimesNewRomanPSMT-67" x="336.921875"/>
      <use xlink:href="#TimesNewRomanPSMT-79" x="386.921875"/>
      <use xlink:href="#TimesNewRomanPSMT-5f" x="436.921875"/>
      <use xlink:href="#TimesNewRomanPSMT-61" x="486.921875"/>
      <use xlink:href="#TimesNewRomanPSMT-76" x="531.306641"/>
      <use xlink:href="#TimesNewRomanPSMT-67" x="581.306641"/>
     </g>
    </g>
   </g>
   <g id="line2d_23">
    <path d="M 92.290909 246.24 
L 96.944787 153.547821 
L 101.598666 185.20465 
L 106.252544 137.616798 
L 110.906422 116.733843 
L 115.5603 67.985289 
L 120.214178 69.938195 
L 124.868057 100.993922 
L 129.521935 76.299591 
L 134.175813 110.056056 
L 138.829691 93.417859 
L 143.48357 56.245413 
L 148.137448 58.225032 
L 152.791326 62.750415 
L 157.445204 62.740465 
L 162.099083 105.060356 
L 166.752961 57.584135 
L 171.406839 104.534393 
L 176.060717 78.942461 
L 180.714595 98.695395 
L 185.368474 77.973958 
L 190.022352 70.090716 
L 194.67623 73.414641 
L 199.330108 92.704009 
L 203.983987 120.856941 
L 208.637865 100.709969 
L 213.291743 124.317336 
L 217.945621 105.409304 
L 222.5995 80.758524 
L 228.184153 88.776159 
L 237.49191 117.323021 
L 246.799666 95.230144 
L 256.107423 98.425375 
L 265.415179 82.832883 
L 274.722936 98.271885 
L 284.030692 119.228797 
L 293.338449 56.040853 
L 302.646205 58.824018 
L 311.953962 69.924042 
L 321.261718 52.574422 
L 330.569475 58.922247 
L 339.877231 71.3613 
L 349.184987 89.690079 
L 358.492744 147.737694 
L 367.8005 152.347441 
L 377.108257 156.690751 
L 386.416013 176.537494 
L 395.72377 164.381022 
L 405.031526 44.64 
L 414.339283 174.17526 
L 423.647039 173.934625 
L 432.954796 51.724075 
L 442.262552 69.166203 
L 451.570309 204.827521 
L 460.878065 74.7809 
L 470.185822 78.668886 
L 479.493578 87.923165 
L 488.801334 96.03073 
L 498.109091 105.190427 
L 498.109091 105.190427 
" clip-path="url(#pe586741549)" style="fill: none; stroke: #2e7ebb; stroke-width: 1.5; stroke-linecap: square"/>
   </g>
   <g id="patch_8">
    <path d="M 72 256.32 
L 72 34.56 
" style="fill: none; stroke: #000000; stroke-width: 0.8; stroke-linejoin: miter; stroke-linecap: square"/>
   </g>
   <g id="patch_9">
    <path d="M 518.4 256.32 
L 518.4 34.56 
" style="fill: none; stroke: #000000; stroke-width: 0.8; stroke-linejoin: miter; stroke-linecap: square"/>
   </g>
   <g id="patch_10">
    <path d="M 72 256.32 
L 518.4 256.32 
" style="fill: none; stroke: #000000; stroke-width: 0.8; stroke-linejoin: miter; stroke-linecap: square"/>
   </g>
   <g id="patch_11">
    <path d="M 72 34.56 
L 518.4 34.56 
" style="fill: none; stroke: #000000; stroke-width: 0.8; stroke-linejoin: miter; stroke-linecap: square"/>
   </g>
  </g>
  <g id="axes_3">
   <g id="matplotlib.axis_4">
    <g id="ytick_14">
     <g id="line2d_24">
      <g>
       <use xlink:href="#m28935f451f" x="558.4" y="246.306535" style="stroke: #000000; stroke-width: 0.8"/>
      </g>
     </g>
     <g id="text_25">
      <!-- 0 -->
      <g transform="translate(565.4 249.952003) scale(0.105 -0.105)">
       <use xlink:href="#TimesNewRomanPSMT-30"/>
      </g>
     </g>
    </g>
    <g id="ytick_15">
     <g id="line2d_25">
      <g>
       <use xlink:href="#m28935f451f" x="558.4" y="213.039208" style="stroke: #000000; stroke-width: 0.8"/>
      </g>
     </g>
     <g id="text_26">
      <!-- 500 -->
      <g transform="translate(565.4 216.684677) scale(0.105 -0.105)">
       <use xlink:href="#TimesNewRomanPSMT-35"/>
       <use xlink:href="#TimesNewRomanPSMT-30" x="50"/>
       <use xlink:href="#TimesNewRomanPSMT-30" x="100"/>
      </g>
     </g>
    </g>
    <g id="ytick_16">
     <g id="line2d_26">
      <g>
       <use xlink:href="#m28935f451f" x="558.4" y="179.771881" style="stroke: #000000; stroke-width: 0.8"/>
      </g>
     </g>
     <g id="text_27">
      <!-- 1000 -->
      <g transform="translate(565.4 183.41735) scale(0.105 -0.105)">
       <use xlink:href="#TimesNewRomanPSMT-31"/>
       <use xlink:href="#TimesNewRomanPSMT-30" x="50"/>
       <use xlink:href="#TimesNewRomanPSMT-30" x="100"/>
       <use xlink:href="#TimesNewRomanPSMT-30" x="150"/>
      </g>
     </g>
    </g>
    <g id="ytick_17">
     <g id="line2d_27">
      <g>
       <use xlink:href="#m28935f451f" x="558.4" y="146.504554" style="stroke: #000000; stroke-width: 0.8"/>
      </g>
     </g>
     <g id="text_28">
      <!-- 1500 -->
      <g transform="translate(565.4 150.150023) scale(0.105 -0.105)">
       <use xlink:href="#TimesNewRomanPSMT-31"/>
       <use xlink:href="#TimesNewRomanPSMT-35" x="50"/>
       <use xlink:href="#TimesNewRomanPSMT-30" x="100"/>
       <use xlink:href="#TimesNewRomanPSMT-30" x="150"/>
      </g>
     </g>
    </g>
    <g id="ytick_18">
     <g id="line2d_28">
      <g>
       <use xlink:href="#m28935f451f" x="558.4" y="113.237228" style="stroke: #000000; stroke-width: 0.8"/>
      </g>
     </g>
     <g id="text_29">
      <!-- 2000 -->
      <g transform="translate(565.4 116.882696) scale(0.105 -0.105)">
       <use xlink:href="#TimesNewRomanPSMT-32"/>
       <use xlink:href="#TimesNewRomanPSMT-30" x="50"/>
       <use xlink:href="#TimesNewRomanPSMT-30" x="100"/>
       <use xlink:href="#TimesNewRomanPSMT-30" x="150"/>
      </g>
     </g>
    </g>
    <g id="ytick_19">
     <g id="line2d_29">
      <g>
       <use xlink:href="#m28935f451f" x="558.4" y="79.969901" style="stroke: #000000; stroke-width: 0.8"/>
      </g>
     </g>
     <g id="text_30">
      <!-- 2500 -->
      <g transform="translate(565.4 83.61537) scale(0.105 -0.105)">
       <use xlink:href="#TimesNewRomanPSMT-32"/>
       <use xlink:href="#TimesNewRomanPSMT-35" x="50"/>
       <use xlink:href="#TimesNewRomanPSMT-30" x="100"/>
       <use xlink:href="#TimesNewRomanPSMT-30" x="150"/>
      </g>
     </g>
    </g>
    <g id="ytick_20">
     <g id="line2d_30">
      <g>
       <use xlink:href="#m28935f451f" x="558.4" y="46.702574" style="stroke: #000000; stroke-width: 0.8"/>
      </g>
     </g>
     <g id="text_31">
      <!-- 3000 -->
      <g transform="translate(565.4 50.348043) scale(0.105 -0.105)">
       <use xlink:href="#TimesNewRomanPSMT-33"/>
       <use xlink:href="#TimesNewRomanPSMT-30" x="50"/>
       <use xlink:href="#TimesNewRomanPSMT-30" x="100"/>
       <use xlink:href="#TimesNewRomanPSMT-30" x="150"/>
      </g>
     </g>
    </g>
    <g id="text_32">
     <!-- communicate_circle -->
     <g transform="translate(597.690938 188.002734) rotate(-90) scale(0.105 -0.105)">
      <use xlink:href="#TimesNewRomanPSMT-63"/>
      <use xlink:href="#TimesNewRomanPSMT-6f" x="44.384766"/>
      <use xlink:href="#TimesNewRomanPSMT-6d" x="94.384766"/>
      <use xlink:href="#TimesNewRomanPSMT-6d" x="172.167969"/>
      <use xlink:href="#TimesNewRomanPSMT-75" x="249.951172"/>
      <use xlink:href="#TimesNewRomanPSMT-6e" x="299.951172"/>
      <use xlink:href="#TimesNewRomanPSMT-69" x="349.951172"/>
      <use xlink:href="#TimesNewRomanPSMT-63" x="377.734375"/>
      <use xlink:href="#TimesNewRomanPSMT-61" x="422.119141"/>
      <use xlink:href="#TimesNewRomanPSMT-74" x="466.503906"/>
      <use xlink:href="#TimesNewRomanPSMT-65" x="494.287109"/>
      <use xlink:href="#TimesNewRomanPSMT-5f" x="538.671875"/>
      <use xlink:href="#TimesNewRomanPSMT-63" x="588.671875"/>
      <use xlink:href="#TimesNewRomanPSMT-69" x="633.056641"/>
      <use xlink:href="#TimesNewRomanPSMT-72" x="660.839844"/>
      <use xlink:href="#TimesNewRomanPSMT-63" x="694.140625"/>
      <use xlink:href="#TimesNewRomanPSMT-6c" x="738.525391"/>
      <use xlink:href="#TimesNewRomanPSMT-65" x="766.308594"/>
     </g>
    </g>
   </g>
   <g id="line2d_31">
    <path d="M 92.290909 44.64 
L 96.944787 143.57703 
L 101.598666 177.842376 
L 106.252544 212.972673 
L 110.906422 221.289505 
L 115.5603 233.79802 
L 120.214178 237.124752 
L 124.868057 238.056238 
L 129.521935 241.782178 
L 134.175813 242.314455 
L 138.829691 243.112871 
L 143.48357 242.114851 
L 148.137448 243.844752 
L 152.791326 244.110891 
L 162.099083 243.778218 
L 166.752961 244.643168 
L 171.406839 243.977822 
L 176.060717 245.042376 
L 180.714595 244.975842 
L 185.368474 245.175446 
L 190.022352 245.508119 
L 194.67623 245.508119 
L 199.330108 245.641188 
L 203.983987 245.574653 
L 208.637865 245.840792 
L 213.291743 245.774257 
L 222.5995 245.907327 
L 228.184153 245.840792 
L 274.722936 246.106931 
L 432.954796 246.173465 
L 442.262552 246.24 
L 451.570309 246.173465 
L 470.185822 246.24 
L 498.109091 246.24 
L 498.109091 246.24 
" clip-path="url(#pe586741549)" style="fill: none; stroke: #00ff00; stroke-width: 1.5; stroke-linecap: square"/>
    <g clip-path="url(#pe586741549)">
     <use xlink:href="#madb9cf5d21" x="92.290909" y="44.64" style="fill: #ffffff; stroke: #00ff00"/>
     <use xlink:href="#madb9cf5d21" x="96.944787" y="143.57703" style="fill: #ffffff; stroke: #00ff00"/>
     <use xlink:href="#madb9cf5d21" x="101.598666" y="177.842376" style="fill: #ffffff; stroke: #00ff00"/>
     <use xlink:href="#madb9cf5d21" x="106.252544" y="212.972673" style="fill: #ffffff; stroke: #00ff00"/>
     <use xlink:href="#madb9cf5d21" x="110.906422" y="221.289505" style="fill: #ffffff; stroke: #00ff00"/>
     <use xlink:href="#madb9cf5d21" x="115.5603" y="233.79802" style="fill: #ffffff; stroke: #00ff00"/>
     <use xlink:href="#madb9cf5d21" x="120.214178" y="237.124752" style="fill: #ffffff; stroke: #00ff00"/>
     <use xlink:href="#madb9cf5d21" x="124.868057" y="238.056238" style="fill: #ffffff; stroke: #00ff00"/>
     <use xlink:href="#madb9cf5d21" x="129.521935" y="241.782178" style="fill: #ffffff; stroke: #00ff00"/>
     <use xlink:href="#madb9cf5d21" x="134.175813" y="242.314455" style="fill: #ffffff; stroke: #00ff00"/>
     <use xlink:href="#madb9cf5d21" x="138.829691" y="243.112871" style="fill: #ffffff; stroke: #00ff00"/>
     <use xlink:href="#madb9cf5d21" x="143.48357" y="242.114851" style="fill: #ffffff; stroke: #00ff00"/>
     <use xlink:href="#madb9cf5d21" x="148.137448" y="243.844752" style="fill: #ffffff; stroke: #00ff00"/>
     <use xlink:href="#madb9cf5d21" x="152.791326" y="244.110891" style="fill: #ffffff; stroke: #00ff00"/>
     <use xlink:href="#madb9cf5d21" x="157.445204" y="243.977822" style="fill: #ffffff; stroke: #00ff00"/>
     <use xlink:href="#madb9cf5d21" x="162.099083" y="243.778218" style="fill: #ffffff; stroke: #00ff00"/>
     <use xlink:href="#madb9cf5d21" x="166.752961" y="244.643168" style="fill: #ffffff; stroke: #00ff00"/>
     <use xlink:href="#madb9cf5d21" x="171.406839" y="243.977822" style="fill: #ffffff; stroke: #00ff00"/>
     <use xlink:href="#madb9cf5d21" x="176.060717" y="245.042376" style="fill: #ffffff; stroke: #00ff00"/>
     <use xlink:href="#madb9cf5d21" x="180.714595" y="244.975842" style="fill: #ffffff; stroke: #00ff00"/>
     <use xlink:href="#madb9cf5d21" x="185.368474" y="245.175446" style="fill: #ffffff; stroke: #00ff00"/>
     <use xlink:href="#madb9cf5d21" x="190.022352" y="245.508119" style="fill: #ffffff; stroke: #00ff00"/>
     <use xlink:href="#madb9cf5d21" x="194.67623" y="245.508119" style="fill: #ffffff; stroke: #00ff00"/>
     <use xlink:href="#madb9cf5d21" x="199.330108" y="245.641188" style="fill: #ffffff; stroke: #00ff00"/>
     <use xlink:href="#madb9cf5d21" x="203.983987" y="245.574653" style="fill: #ffffff; stroke: #00ff00"/>
     <use xlink:href="#madb9cf5d21" x="208.637865" y="245.840792" style="fill: #ffffff; stroke: #00ff00"/>
     <use xlink:href="#madb9cf5d21" x="213.291743" y="245.774257" style="fill: #ffffff; stroke: #00ff00"/>
     <use xlink:href="#madb9cf5d21" x="217.945621" y="245.840792" style="fill: #ffffff; stroke: #00ff00"/>
     <use xlink:href="#madb9cf5d21" x="222.5995" y="245.907327" style="fill: #ffffff; stroke: #00ff00"/>
     <use xlink:href="#madb9cf5d21" x="228.184153" y="245.840792" style="fill: #ffffff; stroke: #00ff00"/>
     <use xlink:href="#madb9cf5d21" x="237.49191" y="245.907327" style="fill: #ffffff; stroke: #00ff00"/>
     <use xlink:href="#madb9cf5d21" x="246.799666" y="245.973861" style="fill: #ffffff; stroke: #00ff00"/>
     <use xlink:href="#madb9cf5d21" x="256.107423" y="246.040396" style="fill: #ffffff; stroke: #00ff00"/>
     <use xlink:href="#madb9cf5d21" x="265.415179" y="246.106931" style="fill: #ffffff; stroke: #00ff00"/>
     <use xlink:href="#madb9cf5d21" x="274.722936" y="246.106931" style="fill: #ffffff; stroke: #00ff00"/>
     <use xlink:href="#madb9cf5d21" x="284.030692" y="246.106931" style="fill: #ffffff; stroke: #00ff00"/>
     <use xlink:href="#madb9cf5d21" x="293.338449" y="246.173465" style="fill: #ffffff; stroke: #00ff00"/>
     <use xlink:href="#madb9cf5d21" x="302.646205" y="246.106931" style="fill: #ffffff; stroke: #00ff00"/>
     <use xlink:href="#madb9cf5d21" x="311.953962" y="246.106931" style="fill: #ffffff; stroke: #00ff00"/>
     <use xlink:href="#madb9cf5d21" x="321.261718" y="246.106931" style="fill: #ffffff; stroke: #00ff00"/>
     <use xlink:href="#madb9cf5d21" x="330.569475" y="246.106931" style="fill: #ffffff; stroke: #00ff00"/>
     <use xlink:href="#madb9cf5d21" x="339.877231" y="246.106931" style="fill: #ffffff; stroke: #00ff00"/>
     <use xlink:href="#madb9cf5d21" x="349.184987" y="246.106931" style="fill: #ffffff; stroke: #00ff00"/>
     <use xlink:href="#madb9cf5d21" x="358.492744" y="246.106931" style="fill: #ffffff; stroke: #00ff00"/>
     <use xlink:href="#madb9cf5d21" x="367.8005" y="246.106931" style="fill: #ffffff; stroke: #00ff00"/>
     <use xlink:href="#madb9cf5d21" x="377.108257" y="246.106931" style="fill: #ffffff; stroke: #00ff00"/>
     <use xlink:href="#madb9cf5d21" x="386.416013" y="246.106931" style="fill: #ffffff; stroke: #00ff00"/>
     <use xlink:href="#madb9cf5d21" x="395.72377" y="246.106931" style="fill: #ffffff; stroke: #00ff00"/>
     <use xlink:href="#madb9cf5d21" x="405.031526" y="246.173465" style="fill: #ffffff; stroke: #00ff00"/>
     <use xlink:href="#madb9cf5d21" x="414.339283" y="246.106931" style="fill: #ffffff; stroke: #00ff00"/>
     <use xlink:href="#madb9cf5d21" x="423.647039" y="246.106931" style="fill: #ffffff; stroke: #00ff00"/>
     <use xlink:href="#madb9cf5d21" x="432.954796" y="246.173465" style="fill: #ffffff; stroke: #00ff00"/>
     <use xlink:href="#madb9cf5d21" x="442.262552" y="246.24" style="fill: #ffffff; stroke: #00ff00"/>
     <use xlink:href="#madb9cf5d21" x="451.570309" y="246.173465" style="fill: #ffffff; stroke: #00ff00"/>
     <use xlink:href="#madb9cf5d21" x="460.878065" y="246.24" style="fill: #ffffff; stroke: #00ff00"/>
     <use xlink:href="#madb9cf5d21" x="470.185822" y="246.24" style="fill: #ffffff; stroke: #00ff00"/>
     <use xlink:href="#madb9cf5d21" x="479.493578" y="246.24" style="fill: #ffffff; stroke: #00ff00"/>
     <use xlink:href="#madb9cf5d21" x="488.801334" y="246.24" style="fill: #ffffff; stroke: #00ff00"/>
     <use xlink:href="#madb9cf5d21" x="498.109091" y="246.24" style="fill: #ffffff; stroke: #00ff00"/>
    </g>
   </g>
   <g id="patch_12">
    <path d="M 72 256.32 
L 72 34.56 
" style="fill: none; stroke: #000000; stroke-width: 0.8; stroke-linejoin: miter; stroke-linecap: square"/>
   </g>
   <g id="patch_13">
    <path d="M 558.4 256.32 
L 558.4 34.56 
" style="fill: none; stroke: #000000; stroke-width: 0.8; stroke-linejoin: miter; stroke-linecap: square"/>
   </g>
   <g id="patch_14">
    <path d="M 72 256.32 
L 518.4 256.32 
" style="fill: none; stroke: #000000; stroke-width: 0.8; stroke-linejoin: miter; stroke-linecap: square"/>
   </g>
   <g id="patch_15">
    <path d="M 72 34.56 
L 518.4 34.56 
" style="fill: none; stroke: #000000; stroke-width: 0.8; stroke-linejoin: miter; stroke-linecap: square"/>
   </g>
   <g id="text_33">
    <!-- Reference indicators -->
    <g transform="translate(243.250594 28.56) scale(0.126 -0.126)">
     <defs>
      <path id="TimesNewRomanPSMT-52" d="M 4325 0 
L 3194 0 
L 1759 1981 
Q 1600 1975 1500 1975 
Q 1459 1975 1412 1976 
Q 1366 1978 1316 1981 
L 1316 750 
Q 1316 350 1403 253 
Q 1522 116 1759 116 
L 1925 116 
L 1925 0 
L 109 0 
L 109 116 
L 269 116 
Q 538 116 653 291 
Q 719 388 719 750 
L 719 3488 
Q 719 3888 631 3984 
Q 509 4122 269 4122 
L 109 4122 
L 109 4238 
L 1653 4238 
Q 2328 4238 2648 4139 
Q 2969 4041 3192 3777 
Q 3416 3513 3416 3147 
Q 3416 2756 3161 2468 
Q 2906 2181 2372 2063 
L 3247 847 
Q 3547 428 3762 290 
Q 3978 153 4325 116 
L 4325 0 
z
M 1316 2178 
Q 1375 2178 1419 2176 
Q 1463 2175 1491 2175 
Q 2097 2175 2405 2437 
Q 2713 2700 2713 3106 
Q 2713 3503 2464 3751 
Q 2216 4000 1806 4000 
Q 1625 4000 1316 3941 
L 1316 2178 
z
" transform="scale(0.015625)"/>
     </defs>
     <use xlink:href="#TimesNewRomanPSMT-52"/>
     <use xlink:href="#TimesNewRomanPSMT-65" x="66.699219"/>
     <use xlink:href="#TimesNewRomanPSMT-66" x="111.083984"/>
     <use xlink:href="#TimesNewRomanPSMT-65" x="144.384766"/>
     <use xlink:href="#TimesNewRomanPSMT-72" x="188.769531"/>
     <use xlink:href="#TimesNewRomanPSMT-65" x="222.070312"/>
     <use xlink:href="#TimesNewRomanPSMT-6e" x="266.455078"/>
     <use xlink:href="#TimesNewRomanPSMT-63" x="316.455078"/>
     <use xlink:href="#TimesNewRomanPSMT-65" x="360.839844"/>
     <use xlink:href="#TimesNewRomanPSMT-20" x="405.224609"/>
     <use xlink:href="#TimesNewRomanPSMT-69" x="430.224609"/>
     <use xlink:href="#TimesNewRomanPSMT-6e" x="458.007812"/>
     <use xlink:href="#TimesNewRomanPSMT-64" x="508.007812"/>
     <use xlink:href="#TimesNewRomanPSMT-69" x="558.007812"/>
     <use xlink:href="#TimesNewRomanPSMT-63" x="585.791016"/>
     <use xlink:href="#TimesNewRomanPSMT-61" x="630.175781"/>
     <use xlink:href="#TimesNewRomanPSMT-74" x="674.560547"/>
     <use xlink:href="#TimesNewRomanPSMT-6f" x="702.34375"/>
     <use xlink:href="#TimesNewRomanPSMT-72" x="752.34375"/>
     <use xlink:href="#TimesNewRomanPSMT-73" x="785.644531"/>
    </g>
   </g>
  </g>
 </g>
 <defs>
  <clipPath id="pe586741549">
   <rect x="72" y="34.56" width="446.4" height="221.76"/>
  </clipPath>
 </defs>
</svg>
