<?xml version="1.0" encoding="utf-8" standalone="no"?>
<!DOCTYPE svg PUBLIC "-//W3C//DTD SVG 1.1//EN"
  "http://www.w3.org/Graphics/SVG/1.1/DTD/svg11.dtd">
<svg xmlns:xlink="http://www.w3.org/1999/xlink" width="576pt" height="288pt" viewBox="0 0 576 288" xmlns="http://www.w3.org/2000/svg" version="1.1">
 <metadata>
  <rdf:RDF xmlns:dc="http://purl.org/dc/elements/1.1/" xmlns:cc="http://creativecommons.org/ns#" xmlns:rdf="http://www.w3.org/1999/02/22-rdf-syntax-ns#">
   <cc:Work>
    <dc:type rdf:resource="http://purl.org/dc/dcmitype/StillImage"/>
    <dc:date>2024-11-12T21:32:59.948098</dc:date>
    <dc:format>image/svg+xml</dc:format>
    <dc:creator>
     <cc:Agent>
      <dc:title>Matplotlib v3.9.2, https://matplotlib.org/</dc:title>
     </cc:Agent>
    </dc:creator>
   </cc:Work>
  </rdf:RDF>
 </metadata>
 <defs>
  <style type="text/css">*{stroke-linejoin: round; stroke-linecap: butt}</style>
 </defs>
 <g id="figure_1">
  <g id="patch_1">
   <path d="M 0 288 
L 576 288 
L 576 0 
L 0 0 
z
" style="fill: #ffffff"/>
  </g>
  <g id="axes_1">
   <g id="patch_2">
    <path d="M 72 256.32 
L 518.4 256.32 
L 518.4 34.56 
L 72 34.56 
z
" style="fill: #ffffff"/>
   </g>
   <g id="matplotlib.axis_1">
    <g id="xtick_1">
     <g id="line2d_1">
      <defs>
       <path id="m2eaf78e3d3" d="M 0 0 
L 0 3.5 
" style="stroke: #000000; stroke-width: 0.8"/>
      </defs>
      <g>
       <use xlink:href="#m2eaf78e3d3" x="86.706255" y="256.32" style="stroke: #000000; stroke-width: 0.8"/>
      </g>
     </g>
     <g id="text_1">
      <!-- 0 -->
      <g transform="translate(84.081255 270.610937) scale(0.105 -0.105)">
       <defs>
        <path id="TimesNewRomanPSMT-30" d="M 231 2094 
Q 231 2819 450 3342 
Q 669 3866 1031 4122 
Q 1313 4325 1613 4325 
Q 2100 4325 2488 3828 
Q 2972 3213 2972 2159 
Q 2972 1422 2759 906 
Q 2547 391 2217 158 
Q 1888 -75 1581 -75 
Q 975 -75 572 641 
Q 231 1244 231 2094 
z
M 844 2016 
Q 844 1141 1059 588 
Q 1238 122 1591 122 
Q 1759 122 1940 273 
Q 2122 425 2216 781 
Q 2359 1319 2359 2297 
Q 2359 3022 2209 3506 
Q 2097 3866 1919 4016 
Q 1791 4119 1609 4119 
Q 1397 4119 1231 3928 
Q 1006 3669 925 3112 
Q 844 2556 844 2016 
z
" transform="scale(0.015625)"/>
       </defs>
       <use xlink:href="#TimesNewRomanPSMT-30"/>
      </g>
     </g>
    </g>
    <g id="xtick_2">
     <g id="line2d_2">
      <g>
       <use xlink:href="#m2eaf78e3d3" x="179.78382" y="256.32" style="stroke: #000000; stroke-width: 0.8"/>
      </g>
     </g>
     <g id="text_2">
      <!-- 100 -->
      <g transform="translate(171.90882 270.610937) scale(0.105 -0.105)">
       <defs>
        <path id="TimesNewRomanPSMT-31" d="M 750 3822 
L 1781 4325 
L 1884 4325 
L 1884 747 
Q 1884 391 1914 303 
Q 1944 216 2037 169 
Q 2131 122 2419 116 
L 2419 0 
L 825 0 
L 825 116 
Q 1125 122 1212 167 
Q 1300 213 1334 289 
Q 1369 366 1369 747 
L 1369 3034 
Q 1369 3497 1338 3628 
Q 1316 3728 1258 3775 
Q 1200 3822 1119 3822 
Q 1003 3822 797 3725 
L 750 3822 
z
" transform="scale(0.015625)"/>
       </defs>
       <use xlink:href="#TimesNewRomanPSMT-31"/>
       <use xlink:href="#TimesNewRomanPSMT-30" x="50"/>
       <use xlink:href="#TimesNewRomanPSMT-30" x="100"/>
      </g>
     </g>
    </g>
    <g id="xtick_3">
     <g id="line2d_3">
      <g>
       <use xlink:href="#m2eaf78e3d3" x="272.861384" y="256.32" style="stroke: #000000; stroke-width: 0.8"/>
      </g>
     </g>
     <g id="text_3">
      <!-- 200 -->
      <g transform="translate(264.986384 270.610937) scale(0.105 -0.105)">
       <defs>
        <path id="TimesNewRomanPSMT-32" d="M 2934 816 
L 2638 0 
L 138 0 
L 138 116 
Q 1241 1122 1691 1759 
Q 2141 2397 2141 2925 
Q 2141 3328 1894 3587 
Q 1647 3847 1303 3847 
Q 991 3847 742 3664 
Q 494 3481 375 3128 
L 259 3128 
Q 338 3706 661 4015 
Q 984 4325 1469 4325 
Q 1984 4325 2329 3994 
Q 2675 3663 2675 3213 
Q 2675 2891 2525 2569 
Q 2294 2063 1775 1497 
Q 997 647 803 472 
L 1909 472 
Q 2247 472 2383 497 
Q 2519 522 2628 598 
Q 2738 675 2819 816 
L 2934 816 
z
" transform="scale(0.015625)"/>
       </defs>
       <use xlink:href="#TimesNewRomanPSMT-32"/>
       <use xlink:href="#TimesNewRomanPSMT-30" x="50"/>
       <use xlink:href="#TimesNewRomanPSMT-30" x="100"/>
      </g>
     </g>
    </g>
    <g id="xtick_4">
     <g id="line2d_4">
      <g>
       <use xlink:href="#m2eaf78e3d3" x="365.938949" y="256.32" style="stroke: #000000; stroke-width: 0.8"/>
      </g>
     </g>
     <g id="text_4">
      <!-- 300 -->
      <g transform="translate(358.063949 270.610937) scale(0.105 -0.105)">
       <defs>
        <path id="TimesNewRomanPSMT-33" d="M 325 3431 
Q 506 3859 782 4092 
Q 1059 4325 1472 4325 
Q 1981 4325 2253 3994 
Q 2459 3747 2459 3466 
Q 2459 3003 1878 2509 
Q 2269 2356 2469 2072 
Q 2669 1788 2669 1403 
Q 2669 853 2319 450 
Q 1863 -75 997 -75 
Q 569 -75 414 31 
Q 259 138 259 259 
Q 259 350 332 419 
Q 406 488 509 488 
Q 588 488 669 463 
Q 722 447 909 348 
Q 1097 250 1169 231 
Q 1284 197 1416 197 
Q 1734 197 1970 444 
Q 2206 691 2206 1028 
Q 2206 1275 2097 1509 
Q 2016 1684 1919 1775 
Q 1784 1900 1550 2001 
Q 1316 2103 1072 2103 
L 972 2103 
L 972 2197 
Q 1219 2228 1467 2375 
Q 1716 2522 1828 2728 
Q 1941 2934 1941 3181 
Q 1941 3503 1739 3701 
Q 1538 3900 1238 3900 
Q 753 3900 428 3381 
L 325 3431 
z
" transform="scale(0.015625)"/>
       </defs>
       <use xlink:href="#TimesNewRomanPSMT-33"/>
       <use xlink:href="#TimesNewRomanPSMT-30" x="50"/>
       <use xlink:href="#TimesNewRomanPSMT-30" x="100"/>
      </g>
     </g>
    </g>
    <g id="xtick_5">
     <g id="line2d_5">
      <g>
       <use xlink:href="#m2eaf78e3d3" x="459.016514" y="256.32" style="stroke: #000000; stroke-width: 0.8"/>
      </g>
     </g>
     <g id="text_5">
      <!-- 400 -->
      <g transform="translate(451.141514 270.610937) scale(0.105 -0.105)">
       <defs>
        <path id="TimesNewRomanPSMT-34" d="M 2978 1563 
L 2978 1119 
L 2409 1119 
L 2409 0 
L 1894 0 
L 1894 1119 
L 100 1119 
L 100 1519 
L 2066 4325 
L 2409 4325 
L 2409 1563 
L 2978 1563 
z
M 1894 1563 
L 1894 3666 
L 406 1563 
L 1894 1563 
z
" transform="scale(0.015625)"/>
       </defs>
       <use xlink:href="#TimesNewRomanPSMT-34"/>
       <use xlink:href="#TimesNewRomanPSMT-30" x="50"/>
       <use xlink:href="#TimesNewRomanPSMT-30" x="100"/>
      </g>
     </g>
    </g>
    <g id="text_6">
     <!-- Number of nodes -->
     <g transform="translate(258.749414 284.147891) scale(0.105 -0.105)">
      <defs>
       <path id="TimesNewRomanPSMT-4e" d="M -84 4238 
L 1066 4238 
L 3656 1059 
L 3656 3503 
Q 3656 3894 3569 3991 
Q 3453 4122 3203 4122 
L 3056 4122 
L 3056 4238 
L 4531 4238 
L 4531 4122 
L 4381 4122 
Q 4113 4122 4000 3959 
Q 3931 3859 3931 3503 
L 3931 -69 
L 3819 -69 
L 1025 3344 
L 1025 734 
Q 1025 344 1109 247 
Q 1228 116 1475 116 
L 1625 116 
L 1625 0 
L 150 0 
L 150 116 
L 297 116 
Q 569 116 681 278 
Q 750 378 750 734 
L 750 3681 
Q 566 3897 470 3965 
Q 375 4034 191 4094 
Q 100 4122 -84 4122 
L -84 4238 
z
" transform="scale(0.015625)"/>
       <path id="TimesNewRomanPSMT-75" d="M 2709 2863 
L 2709 1128 
Q 2709 631 2732 520 
Q 2756 409 2807 365 
Q 2859 322 2928 322 
Q 3025 322 3147 375 
L 3191 266 
L 2334 -88 
L 2194 -88 
L 2194 519 
Q 1825 119 1631 15 
Q 1438 -88 1222 -88 
Q 981 -88 804 51 
Q 628 191 559 409 
Q 491 628 491 1028 
L 491 2306 
Q 491 2509 447 2587 
Q 403 2666 317 2708 
Q 231 2750 6 2747 
L 6 2863 
L 1009 2863 
L 1009 947 
Q 1009 547 1148 422 
Q 1288 297 1484 297 
Q 1619 297 1789 381 
Q 1959 466 2194 703 
L 2194 2325 
Q 2194 2569 2105 2655 
Q 2016 2741 1734 2747 
L 1734 2863 
L 2709 2863 
z
" transform="scale(0.015625)"/>
       <path id="TimesNewRomanPSMT-6d" d="M 1050 2338 
Q 1363 2650 1419 2697 
Q 1559 2816 1721 2881 
Q 1884 2947 2044 2947 
Q 2313 2947 2506 2790 
Q 2700 2634 2766 2338 
Q 3088 2713 3309 2830 
Q 3531 2947 3766 2947 
Q 3994 2947 4170 2830 
Q 4347 2713 4450 2447 
Q 4519 2266 4519 1878 
L 4519 647 
Q 4519 378 4559 278 
Q 4591 209 4675 161 
Q 4759 113 4950 113 
L 4950 0 
L 3538 0 
L 3538 113 
L 3597 113 
Q 3781 113 3884 184 
Q 3956 234 3988 344 
Q 4000 397 4000 647 
L 4000 1878 
Q 4000 2228 3916 2372 
Q 3794 2572 3525 2572 
Q 3359 2572 3192 2489 
Q 3025 2406 2788 2181 
L 2781 2147 
L 2788 2013 
L 2788 647 
Q 2788 353 2820 281 
Q 2853 209 2943 161 
Q 3034 113 3253 113 
L 3253 0 
L 1806 0 
L 1806 113 
Q 2044 113 2133 169 
Q 2222 225 2256 338 
Q 2272 391 2272 647 
L 2272 1878 
Q 2272 2228 2169 2381 
Q 2031 2581 1784 2581 
Q 1616 2581 1450 2491 
Q 1191 2353 1050 2181 
L 1050 647 
Q 1050 366 1089 281 
Q 1128 197 1204 155 
Q 1281 113 1516 113 
L 1516 0 
L 100 0 
L 100 113 
Q 297 113 375 155 
Q 453 197 493 289 
Q 534 381 534 647 
L 534 1741 
Q 534 2213 506 2350 
Q 484 2453 437 2492 
Q 391 2531 309 2531 
Q 222 2531 100 2484 
L 53 2597 
L 916 2947 
L 1050 2947 
L 1050 2338 
z
" transform="scale(0.015625)"/>
       <path id="TimesNewRomanPSMT-62" d="M 984 2369 
Q 1400 2947 1881 2947 
Q 2322 2947 2650 2570 
Q 2978 2194 2978 1541 
Q 2978 778 2472 313 
Q 2038 -88 1503 -88 
Q 1253 -88 995 3 
Q 738 94 469 275 
L 469 3241 
Q 469 3728 445 3840 
Q 422 3953 372 3993 
Q 322 4034 247 4034 
Q 159 4034 28 3984 
L -16 4094 
L 844 4444 
L 984 4444 
L 984 2369 
z
M 984 2169 
L 984 456 
Q 1144 300 1314 220 
Q 1484 141 1663 141 
Q 1947 141 2192 453 
Q 2438 766 2438 1363 
Q 2438 1913 2192 2208 
Q 1947 2503 1634 2503 
Q 1469 2503 1303 2419 
Q 1178 2356 984 2169 
z
" transform="scale(0.015625)"/>
       <path id="TimesNewRomanPSMT-65" d="M 681 1784 
Q 678 1147 991 784 
Q 1303 422 1725 422 
Q 2006 422 2214 576 
Q 2422 731 2563 1106 
L 2659 1044 
Q 2594 616 2278 264 
Q 1963 -88 1488 -88 
Q 972 -88 605 314 
Q 238 716 238 1394 
Q 238 2128 614 2539 
Q 991 2950 1559 2950 
Q 2041 2950 2350 2633 
Q 2659 2316 2659 1784 
L 681 1784 
z
M 681 1966 
L 2006 1966 
Q 1991 2241 1941 2353 
Q 1863 2528 1708 2628 
Q 1553 2728 1384 2728 
Q 1125 2728 920 2526 
Q 716 2325 681 1966 
z
" transform="scale(0.015625)"/>
       <path id="TimesNewRomanPSMT-72" d="M 1038 2947 
L 1038 2303 
Q 1397 2947 1775 2947 
Q 1947 2947 2059 2842 
Q 2172 2738 2172 2600 
Q 2172 2478 2090 2393 
Q 2009 2309 1897 2309 
Q 1788 2309 1652 2417 
Q 1516 2525 1450 2525 
Q 1394 2525 1328 2463 
Q 1188 2334 1038 2041 
L 1038 669 
Q 1038 431 1097 309 
Q 1138 225 1241 169 
Q 1344 113 1538 113 
L 1538 0 
L 72 0 
L 72 113 
Q 291 113 397 181 
Q 475 231 506 341 
Q 522 394 522 644 
L 522 1753 
Q 522 2253 501 2348 
Q 481 2444 426 2487 
Q 372 2531 291 2531 
Q 194 2531 72 2484 
L 41 2597 
L 906 2947 
L 1038 2947 
z
" transform="scale(0.015625)"/>
       <path id="TimesNewRomanPSMT-20" transform="scale(0.015625)"/>
       <path id="TimesNewRomanPSMT-6f" d="M 1600 2947 
Q 2250 2947 2644 2453 
Q 2978 2031 2978 1484 
Q 2978 1100 2793 706 
Q 2609 313 2286 112 
Q 1963 -88 1566 -88 
Q 919 -88 538 428 
Q 216 863 216 1403 
Q 216 1797 411 2186 
Q 606 2575 925 2761 
Q 1244 2947 1600 2947 
z
M 1503 2744 
Q 1338 2744 1170 2645 
Q 1003 2547 900 2300 
Q 797 2053 797 1666 
Q 797 1041 1045 587 
Q 1294 134 1700 134 
Q 2003 134 2200 384 
Q 2397 634 2397 1244 
Q 2397 2006 2069 2444 
Q 1847 2744 1503 2744 
z
" transform="scale(0.015625)"/>
       <path id="TimesNewRomanPSMT-66" d="M 1319 2638 
L 1319 756 
Q 1319 356 1406 250 
Q 1522 113 1716 113 
L 1975 113 
L 1975 0 
L 266 0 
L 266 113 
L 394 113 
Q 519 113 622 175 
Q 725 238 764 344 
Q 803 450 803 756 
L 803 2638 
L 247 2638 
L 247 2863 
L 803 2863 
L 803 3050 
Q 803 3478 940 3775 
Q 1078 4072 1361 4255 
Q 1644 4438 1997 4438 
Q 2325 4438 2600 4225 
Q 2781 4084 2781 3909 
Q 2781 3816 2700 3733 
Q 2619 3650 2525 3650 
Q 2453 3650 2373 3701 
Q 2294 3753 2178 3923 
Q 2063 4094 1966 4153 
Q 1869 4213 1750 4213 
Q 1606 4213 1506 4136 
Q 1406 4059 1362 3898 
Q 1319 3738 1319 3069 
L 1319 2863 
L 2056 2863 
L 2056 2638 
L 1319 2638 
z
" transform="scale(0.015625)"/>
       <path id="TimesNewRomanPSMT-6e" d="M 1034 2341 
Q 1538 2947 1994 2947 
Q 2228 2947 2397 2830 
Q 2566 2713 2666 2444 
Q 2734 2256 2734 1869 
L 2734 647 
Q 2734 375 2778 278 
Q 2813 200 2889 156 
Q 2966 113 3172 113 
L 3172 0 
L 1756 0 
L 1756 113 
L 1816 113 
Q 2016 113 2095 173 
Q 2175 234 2206 353 
Q 2219 400 2219 647 
L 2219 1819 
Q 2219 2209 2117 2386 
Q 2016 2563 1775 2563 
Q 1403 2563 1034 2156 
L 1034 647 
Q 1034 356 1069 288 
Q 1113 197 1189 155 
Q 1266 113 1500 113 
L 1500 0 
L 84 0 
L 84 113 
L 147 113 
Q 366 113 442 223 
Q 519 334 519 647 
L 519 1709 
Q 519 2225 495 2337 
Q 472 2450 423 2490 
Q 375 2531 294 2531 
Q 206 2531 84 2484 
L 38 2597 
L 900 2947 
L 1034 2947 
L 1034 2341 
z
" transform="scale(0.015625)"/>
       <path id="TimesNewRomanPSMT-64" d="M 2222 322 
Q 2013 103 1813 7 
Q 1613 -88 1381 -88 
Q 913 -88 563 304 
Q 213 697 213 1313 
Q 213 1928 600 2439 
Q 988 2950 1597 2950 
Q 1975 2950 2222 2709 
L 2222 3238 
Q 2222 3728 2198 3840 
Q 2175 3953 2125 3993 
Q 2075 4034 2000 4034 
Q 1919 4034 1784 3984 
L 1744 4094 
L 2597 4444 
L 2738 4444 
L 2738 1134 
Q 2738 631 2761 520 
Q 2784 409 2836 365 
Q 2888 322 2956 322 
Q 3041 322 3181 375 
L 3216 266 
L 2366 -88 
L 2222 -88 
L 2222 322 
z
M 2222 541 
L 2222 2016 
Q 2203 2228 2109 2403 
Q 2016 2578 1861 2667 
Q 1706 2756 1559 2756 
Q 1284 2756 1069 2509 
Q 784 2184 784 1559 
Q 784 928 1059 592 
Q 1334 256 1672 256 
Q 1956 256 2222 541 
z
" transform="scale(0.015625)"/>
       <path id="TimesNewRomanPSMT-73" d="M 2050 2947 
L 2050 1972 
L 1947 1972 
Q 1828 2431 1642 2597 
Q 1456 2763 1169 2763 
Q 950 2763 815 2647 
Q 681 2531 681 2391 
Q 681 2216 781 2091 
Q 878 1963 1175 1819 
L 1631 1597 
Q 2266 1288 2266 781 
Q 2266 391 1970 151 
Q 1675 -88 1309 -88 
Q 1047 -88 709 6 
Q 606 38 541 38 
Q 469 38 428 -44 
L 325 -44 
L 325 978 
L 428 978 
Q 516 541 762 319 
Q 1009 97 1316 97 
Q 1531 97 1667 223 
Q 1803 350 1803 528 
Q 1803 744 1651 891 
Q 1500 1038 1047 1263 
Q 594 1488 453 1669 
Q 313 1847 313 2119 
Q 313 2472 555 2709 
Q 797 2947 1181 2947 
Q 1350 2947 1591 2875 
Q 1750 2828 1803 2828 
Q 1853 2828 1881 2850 
Q 1909 2872 1947 2947 
L 2050 2947 
z
" transform="scale(0.015625)"/>
      </defs>
      <use xlink:href="#TimesNewRomanPSMT-4e"/>
      <use xlink:href="#TimesNewRomanPSMT-75" x="72.216797"/>
      <use xlink:href="#TimesNewRomanPSMT-6d" x="122.216797"/>
      <use xlink:href="#TimesNewRomanPSMT-62" x="200"/>
      <use xlink:href="#TimesNewRomanPSMT-65" x="250"/>
      <use xlink:href="#TimesNewRomanPSMT-72" x="294.384766"/>
      <use xlink:href="#TimesNewRomanPSMT-20" x="327.685547"/>
      <use xlink:href="#TimesNewRomanPSMT-6f" x="352.685547"/>
      <use xlink:href="#TimesNewRomanPSMT-66" x="402.685547"/>
      <use xlink:href="#TimesNewRomanPSMT-20" x="435.986328"/>
      <use xlink:href="#TimesNewRomanPSMT-6e" x="460.986328"/>
      <use xlink:href="#TimesNewRomanPSMT-6f" x="510.986328"/>
      <use xlink:href="#TimesNewRomanPSMT-64" x="560.986328"/>
      <use xlink:href="#TimesNewRomanPSMT-65" x="610.986328"/>
      <use xlink:href="#TimesNewRomanPSMT-73" x="655.371094"/>
     </g>
    </g>
   </g>
   <g id="matplotlib.axis_2">
    <g id="ytick_1">
     <g id="line2d_6">
      <defs>
       <path id="m2ca6aeb89a" d="M 0 0 
L -3.5 0 
" style="stroke: #000000; stroke-width: 0.8"/>
      </defs>
      <g>
       <use xlink:href="#m2ca6aeb89a" x="72" y="254.269165" style="stroke: #000000; stroke-width: 0.8"/>
      </g>
     </g>
     <g id="text_7">
      <!-- 1.25 -->
      <g transform="translate(46.625 257.914633) scale(0.105 -0.105)">
       <defs>
        <path id="TimesNewRomanPSMT-2e" d="M 800 606 
Q 947 606 1047 504 
Q 1147 403 1147 259 
Q 1147 116 1045 14 
Q 944 -88 800 -88 
Q 656 -88 554 14 
Q 453 116 453 259 
Q 453 406 554 506 
Q 656 606 800 606 
z
" transform="scale(0.015625)"/>
        <path id="TimesNewRomanPSMT-35" d="M 2778 4238 
L 2534 3706 
L 1259 3706 
L 981 3138 
Q 1809 3016 2294 2522 
Q 2709 2097 2709 1522 
Q 2709 1188 2573 903 
Q 2438 619 2231 419 
Q 2025 219 1772 97 
Q 1413 -75 1034 -75 
Q 653 -75 479 54 
Q 306 184 306 341 
Q 306 428 378 495 
Q 450 563 559 563 
Q 641 563 702 538 
Q 763 513 909 409 
Q 1144 247 1384 247 
Q 1750 247 2026 523 
Q 2303 800 2303 1197 
Q 2303 1581 2056 1914 
Q 1809 2247 1375 2428 
Q 1034 2569 447 2591 
L 1259 4238 
L 2778 4238 
z
" transform="scale(0.015625)"/>
       </defs>
       <use xlink:href="#TimesNewRomanPSMT-31"/>
       <use xlink:href="#TimesNewRomanPSMT-2e" x="50"/>
       <use xlink:href="#TimesNewRomanPSMT-32" x="75"/>
       <use xlink:href="#TimesNewRomanPSMT-35" x="125"/>
      </g>
     </g>
    </g>
    <g id="ytick_2">
     <g id="line2d_7">
      <g>
       <use xlink:href="#m2ca6aeb89a" x="72" y="224.039183" style="stroke: #000000; stroke-width: 0.8"/>
      </g>
     </g>
     <g id="text_8">
      <!-- 1.30 -->
      <g transform="translate(46.625 227.684652) scale(0.105 -0.105)">
       <use xlink:href="#TimesNewRomanPSMT-31"/>
       <use xlink:href="#TimesNewRomanPSMT-2e" x="50"/>
       <use xlink:href="#TimesNewRomanPSMT-33" x="75"/>
       <use xlink:href="#TimesNewRomanPSMT-30" x="125"/>
      </g>
     </g>
    </g>
    <g id="ytick_3">
     <g id="line2d_8">
      <g>
       <use xlink:href="#m2ca6aeb89a" x="72" y="193.809201" style="stroke: #000000; stroke-width: 0.8"/>
      </g>
     </g>
     <g id="text_9">
      <!-- 1.35 -->
      <g transform="translate(46.625 197.45467) scale(0.105 -0.105)">
       <use xlink:href="#TimesNewRomanPSMT-31"/>
       <use xlink:href="#TimesNewRomanPSMT-2e" x="50"/>
       <use xlink:href="#TimesNewRomanPSMT-33" x="75"/>
       <use xlink:href="#TimesNewRomanPSMT-35" x="125"/>
      </g>
     </g>
    </g>
    <g id="ytick_4">
     <g id="line2d_9">
      <g>
       <use xlink:href="#m2ca6aeb89a" x="72" y="163.579219" style="stroke: #000000; stroke-width: 0.8"/>
      </g>
     </g>
     <g id="text_10">
      <!-- 1.40 -->
      <g transform="translate(46.625 167.224688) scale(0.105 -0.105)">
       <use xlink:href="#TimesNewRomanPSMT-31"/>
       <use xlink:href="#TimesNewRomanPSMT-2e" x="50"/>
       <use xlink:href="#TimesNewRomanPSMT-34" x="75"/>
       <use xlink:href="#TimesNewRomanPSMT-30" x="125"/>
      </g>
     </g>
    </g>
    <g id="ytick_5">
     <g id="line2d_10">
      <g>
       <use xlink:href="#m2ca6aeb89a" x="72" y="133.349237" style="stroke: #000000; stroke-width: 0.8"/>
      </g>
     </g>
     <g id="text_11">
      <!-- 1.45 -->
      <g transform="translate(46.625 136.994706) scale(0.105 -0.105)">
       <use xlink:href="#TimesNewRomanPSMT-31"/>
       <use xlink:href="#TimesNewRomanPSMT-2e" x="50"/>
       <use xlink:href="#TimesNewRomanPSMT-34" x="75"/>
       <use xlink:href="#TimesNewRomanPSMT-35" x="125"/>
      </g>
     </g>
    </g>
    <g id="ytick_6">
     <g id="line2d_11">
      <g>
       <use xlink:href="#m2ca6aeb89a" x="72" y="103.119255" style="stroke: #000000; stroke-width: 0.8"/>
      </g>
     </g>
     <g id="text_12">
      <!-- 1.50 -->
      <g transform="translate(46.625 106.764724) scale(0.105 -0.105)">
       <use xlink:href="#TimesNewRomanPSMT-31"/>
       <use xlink:href="#TimesNewRomanPSMT-2e" x="50"/>
       <use xlink:href="#TimesNewRomanPSMT-35" x="75"/>
       <use xlink:href="#TimesNewRomanPSMT-30" x="125"/>
      </g>
     </g>
    </g>
    <g id="ytick_7">
     <g id="line2d_12">
      <g>
       <use xlink:href="#m2ca6aeb89a" x="72" y="72.889273" style="stroke: #000000; stroke-width: 0.8"/>
      </g>
     </g>
     <g id="text_13">
      <!-- 1.55 -->
      <g transform="translate(46.625 76.534742) scale(0.105 -0.105)">
       <use xlink:href="#TimesNewRomanPSMT-31"/>
       <use xlink:href="#TimesNewRomanPSMT-2e" x="50"/>
       <use xlink:href="#TimesNewRomanPSMT-35" x="75"/>
       <use xlink:href="#TimesNewRomanPSMT-35" x="125"/>
      </g>
     </g>
    </g>
    <g id="ytick_8">
     <g id="line2d_13">
      <g>
       <use xlink:href="#m2ca6aeb89a" x="72" y="42.659291" style="stroke: #000000; stroke-width: 0.8"/>
      </g>
     </g>
     <g id="text_14">
      <!-- 1.60 -->
      <g transform="translate(46.625 46.30476) scale(0.105 -0.105)">
       <defs>
        <path id="TimesNewRomanPSMT-36" d="M 2869 4325 
L 2869 4209 
Q 2456 4169 2195 4045 
Q 1934 3922 1679 3669 
Q 1425 3416 1258 3105 
Q 1091 2794 978 2366 
Q 1428 2675 1881 2675 
Q 2316 2675 2634 2325 
Q 2953 1975 2953 1425 
Q 2953 894 2631 456 
Q 2244 -75 1606 -75 
Q 1172 -75 869 213 
Q 275 772 275 1663 
Q 275 2231 503 2743 
Q 731 3256 1154 3653 
Q 1578 4050 1965 4187 
Q 2353 4325 2688 4325 
L 2869 4325 
z
M 925 2138 
Q 869 1716 869 1456 
Q 869 1156 980 804 
Q 1091 453 1309 247 
Q 1469 100 1697 100 
Q 1969 100 2183 356 
Q 2397 613 2397 1088 
Q 2397 1622 2184 2012 
Q 1972 2403 1581 2403 
Q 1463 2403 1327 2353 
Q 1191 2303 925 2138 
z
" transform="scale(0.015625)"/>
       </defs>
       <use xlink:href="#TimesNewRomanPSMT-31"/>
       <use xlink:href="#TimesNewRomanPSMT-2e" x="50"/>
       <use xlink:href="#TimesNewRomanPSMT-36" x="75"/>
       <use xlink:href="#TimesNewRomanPSMT-30" x="125"/>
      </g>
     </g>
    </g>
    <g id="text_15">
     <!-- Natural Connectivity -->
     <g transform="translate(40.359297 189.617109) rotate(-90) scale(0.105 -0.105)">
      <defs>
       <path id="TimesNewRomanPSMT-61" d="M 1822 413 
Q 1381 72 1269 19 
Q 1100 -59 909 -59 
Q 613 -59 420 144 
Q 228 347 228 678 
Q 228 888 322 1041 
Q 450 1253 767 1440 
Q 1084 1628 1822 1897 
L 1822 2009 
Q 1822 2438 1686 2597 
Q 1550 2756 1291 2756 
Q 1094 2756 978 2650 
Q 859 2544 859 2406 
L 866 2225 
Q 866 2081 792 2003 
Q 719 1925 600 1925 
Q 484 1925 411 2006 
Q 338 2088 338 2228 
Q 338 2497 613 2722 
Q 888 2947 1384 2947 
Q 1766 2947 2009 2819 
Q 2194 2722 2281 2516 
Q 2338 2381 2338 1966 
L 2338 994 
Q 2338 584 2353 492 
Q 2369 400 2405 369 
Q 2441 338 2488 338 
Q 2538 338 2575 359 
Q 2641 400 2828 588 
L 2828 413 
Q 2478 -56 2159 -56 
Q 2006 -56 1915 50 
Q 1825 156 1822 413 
z
M 1822 616 
L 1822 1706 
Q 1350 1519 1213 1441 
Q 966 1303 859 1153 
Q 753 1003 753 825 
Q 753 600 887 451 
Q 1022 303 1197 303 
Q 1434 303 1822 616 
z
" transform="scale(0.015625)"/>
       <path id="TimesNewRomanPSMT-74" d="M 1031 3803 
L 1031 2863 
L 1700 2863 
L 1700 2644 
L 1031 2644 
L 1031 788 
Q 1031 509 1111 412 
Q 1191 316 1316 316 
Q 1419 316 1516 380 
Q 1613 444 1666 569 
L 1788 569 
Q 1678 263 1478 108 
Q 1278 -47 1066 -47 
Q 922 -47 784 33 
Q 647 113 581 261 
Q 516 409 516 719 
L 516 2644 
L 63 2644 
L 63 2747 
Q 234 2816 414 2980 
Q 594 3144 734 3369 
Q 806 3488 934 3803 
L 1031 3803 
z
" transform="scale(0.015625)"/>
       <path id="TimesNewRomanPSMT-6c" d="M 1184 4444 
L 1184 647 
Q 1184 378 1223 290 
Q 1263 203 1344 158 
Q 1425 113 1647 113 
L 1647 0 
L 244 0 
L 244 113 
Q 441 113 512 153 
Q 584 194 625 287 
Q 666 381 666 647 
L 666 3247 
Q 666 3731 644 3842 
Q 622 3953 573 3993 
Q 525 4034 450 4034 
Q 369 4034 244 3984 
L 191 4094 
L 1044 4444 
L 1184 4444 
z
" transform="scale(0.015625)"/>
       <path id="TimesNewRomanPSMT-43" d="M 3853 4334 
L 3950 2894 
L 3853 2894 
Q 3659 3541 3300 3825 
Q 2941 4109 2438 4109 
Q 2016 4109 1675 3895 
Q 1334 3681 1139 3212 
Q 944 2744 944 2047 
Q 944 1472 1128 1050 
Q 1313 628 1683 403 
Q 2053 178 2528 178 
Q 2941 178 3256 354 
Q 3572 531 3950 1056 
L 4047 994 
Q 3728 428 3303 165 
Q 2878 -97 2294 -97 
Q 1241 -97 663 684 
Q 231 1266 231 2053 
Q 231 2688 515 3219 
Q 800 3750 1298 4042 
Q 1797 4334 2388 4334 
Q 2847 4334 3294 4109 
Q 3425 4041 3481 4041 
Q 3566 4041 3628 4100 
Q 3709 4184 3744 4334 
L 3853 4334 
z
" transform="scale(0.015625)"/>
       <path id="TimesNewRomanPSMT-63" d="M 2631 1088 
Q 2516 522 2178 217 
Q 1841 -88 1431 -88 
Q 944 -88 581 321 
Q 219 731 219 1428 
Q 219 2103 620 2525 
Q 1022 2947 1584 2947 
Q 2006 2947 2278 2723 
Q 2550 2500 2550 2259 
Q 2550 2141 2473 2067 
Q 2397 1994 2259 1994 
Q 2075 1994 1981 2113 
Q 1928 2178 1911 2362 
Q 1894 2547 1784 2644 
Q 1675 2738 1481 2738 
Q 1169 2738 978 2506 
Q 725 2200 725 1697 
Q 725 1184 976 792 
Q 1228 400 1656 400 
Q 1963 400 2206 609 
Q 2378 753 2541 1131 
L 2631 1088 
z
" transform="scale(0.015625)"/>
       <path id="TimesNewRomanPSMT-69" d="M 928 4444 
Q 1059 4444 1151 4351 
Q 1244 4259 1244 4128 
Q 1244 3997 1151 3903 
Q 1059 3809 928 3809 
Q 797 3809 703 3903 
Q 609 3997 609 4128 
Q 609 4259 701 4351 
Q 794 4444 928 4444 
z
M 1188 2947 
L 1188 647 
Q 1188 378 1227 289 
Q 1266 200 1342 156 
Q 1419 113 1622 113 
L 1622 0 
L 231 0 
L 231 113 
Q 441 113 512 153 
Q 584 194 626 287 
Q 669 381 669 647 
L 669 1750 
Q 669 2216 641 2353 
Q 619 2453 572 2492 
Q 525 2531 444 2531 
Q 356 2531 231 2484 
L 188 2597 
L 1050 2947 
L 1188 2947 
z
" transform="scale(0.015625)"/>
       <path id="TimesNewRomanPSMT-76" d="M 53 2863 
L 1400 2863 
L 1400 2747 
L 1313 2747 
Q 1191 2747 1127 2687 
Q 1063 2628 1063 2528 
Q 1063 2419 1128 2269 
L 1794 688 
L 2463 2328 
Q 2534 2503 2534 2594 
Q 2534 2638 2509 2666 
Q 2475 2713 2422 2730 
Q 2369 2747 2206 2747 
L 2206 2863 
L 3141 2863 
L 3141 2747 
Q 2978 2734 2916 2681 
Q 2806 2588 2719 2369 
L 1703 -88 
L 1575 -88 
L 553 2328 
Q 484 2497 421 2570 
Q 359 2644 263 2694 
Q 209 2722 53 2747 
L 53 2863 
z
" transform="scale(0.015625)"/>
       <path id="TimesNewRomanPSMT-79" d="M 38 2863 
L 1372 2863 
L 1372 2747 
L 1306 2747 
Q 1166 2747 1095 2686 
Q 1025 2625 1025 2534 
Q 1025 2413 1128 2197 
L 1825 753 
L 2466 2334 
Q 2519 2463 2519 2588 
Q 2519 2644 2497 2672 
Q 2472 2706 2419 2726 
Q 2366 2747 2231 2747 
L 2231 2863 
L 3163 2863 
L 3163 2747 
Q 3047 2734 2984 2696 
Q 2922 2659 2847 2556 
Q 2819 2513 2741 2316 
L 1575 -541 
Q 1406 -956 1132 -1168 
Q 859 -1381 606 -1381 
Q 422 -1381 303 -1275 
Q 184 -1169 184 -1031 
Q 184 -900 270 -820 
Q 356 -741 506 -741 
Q 609 -741 788 -809 
Q 913 -856 944 -856 
Q 1038 -856 1148 -759 
Q 1259 -663 1372 -384 
L 1575 113 
L 547 2272 
Q 500 2369 397 2513 
Q 319 2622 269 2659 
Q 197 2709 38 2747 
L 38 2863 
z
" transform="scale(0.015625)"/>
      </defs>
      <use xlink:href="#TimesNewRomanPSMT-4e"/>
      <use xlink:href="#TimesNewRomanPSMT-61" x="72.216797"/>
      <use xlink:href="#TimesNewRomanPSMT-74" x="116.601562"/>
      <use xlink:href="#TimesNewRomanPSMT-75" x="144.384766"/>
      <use xlink:href="#TimesNewRomanPSMT-72" x="194.384766"/>
      <use xlink:href="#TimesNewRomanPSMT-61" x="227.685547"/>
      <use xlink:href="#TimesNewRomanPSMT-6c" x="272.070312"/>
      <use xlink:href="#TimesNewRomanPSMT-20" x="299.853516"/>
      <use xlink:href="#TimesNewRomanPSMT-43" x="324.853516"/>
      <use xlink:href="#TimesNewRomanPSMT-6f" x="391.552734"/>
      <use xlink:href="#TimesNewRomanPSMT-6e" x="441.552734"/>
      <use xlink:href="#TimesNewRomanPSMT-6e" x="491.552734"/>
      <use xlink:href="#TimesNewRomanPSMT-65" x="541.552734"/>
      <use xlink:href="#TimesNewRomanPSMT-63" x="585.9375"/>
      <use xlink:href="#TimesNewRomanPSMT-74" x="630.322266"/>
      <use xlink:href="#TimesNewRomanPSMT-69" x="658.105469"/>
      <use xlink:href="#TimesNewRomanPSMT-76" x="685.888672"/>
      <use xlink:href="#TimesNewRomanPSMT-69" x="735.888672"/>
      <use xlink:href="#TimesNewRomanPSMT-74" x="763.671875"/>
      <use xlink:href="#TimesNewRomanPSMT-79" x="791.455078"/>
     </g>
    </g>
   </g>
   <g id="line2d_14">
    <path d="M 92.290909 148.12845 
L 93.221685 95.979575 
L 94.15246 57.75557 
L 95.083236 59.995685 
L 96.014012 56.74272 
L 96.944787 56.754669 
L 97.875563 44.64 
L 98.806339 58.214576 
L 99.737114 60.455043 
L 100.66789 74.738324 
L 101.598666 92.163537 
L 102.529441 139.980612 
L 103.460217 136.872758 
L 104.390992 129.680219 
L 105.321768 143.222172 
L 106.252544 148.525687 
L 107.183319 145.20954 
L 108.114095 120.034521 
L 109.044871 109.403799 
L 109.975646 113.283061 
L 110.906422 130.224154 
L 111.837198 119.506863 
L 112.767973 120.920568 
L 113.698749 125.917233 
L 115.5603 152.40606 
L 116.491076 150.611002 
L 118.352627 171.013138 
L 119.283403 173.021622 
L 120.214178 170.313661 
L 121.144954 165.352156 
L 122.07573 178.229043 
L 123.006505 162.772742 
L 123.937281 156.472587 
L 124.868057 153.679955 
L 125.798832 163.508194 
L 126.729608 160.748674 
L 127.660384 171.657651 
L 128.591159 170.256243 
L 129.521935 177.535465 
L 130.452711 170.623338 
L 131.383486 177.606148 
L 132.314262 180.488597 
L 133.245038 139.36119 
L 134.175813 175.150274 
L 135.106589 194.407273 
L 136.037364 173.687798 
L 136.96814 171.340523 
L 137.898916 176.016978 
L 138.829691 183.056574 
L 139.760467 176.870842 
L 140.691243 153.464672 
L 141.622018 160.370946 
L 143.48357 177.041025 
L 144.414345 172.407473 
L 145.345121 168.813153 
L 146.275897 167.030926 
L 147.206672 180.813713 
L 148.137448 183.972934 
L 149.068224 191.341419 
L 149.998999 185.236988 
L 150.929775 183.802946 
L 151.86055 186.77659 
L 152.791326 184.687806 
L 153.722102 183.206516 
L 154.652877 184.271133 
L 155.583653 170.229057 
L 156.514429 164.318599 
L 157.445204 166.528174 
L 158.37598 165.346496 
L 159.306756 164.963224 
L 160.237531 168.682311 
L 161.168307 173.566129 
L 162.099083 175.265912 
L 163.029858 173.63485 
L 163.960634 168.785491 
L 164.89141 176.721105 
L 166.752961 168.995669 
L 167.683736 169.238513 
L 168.614512 170.979387 
L 169.545288 160.500088 
L 170.476063 157.658161 
L 171.406839 160.777652 
L 172.337615 166.138316 
L 173.26839 169.540979 
L 174.199166 187.912625 
L 175.129942 190.331015 
L 176.060717 194.810701 
L 176.991493 193.74671 
L 177.922269 190.801754 
L 178.853044 191.714124 
L 179.78382 192.817104 
L 180.714595 189.567389 
L 181.645371 188.303049 
L 182.576147 194.093459 
L 183.506922 196.335273 
L 184.437698 195.267543 
L 185.368474 195.507967 
L 186.299249 202.211897 
L 187.230025 210.338288 
L 188.160801 213.404379 
L 189.091576 218.763153 
L 190.022352 217.82672 
L 190.953128 214.053468 
L 191.883903 222.992064 
L 192.814679 224.096326 
L 194.67623 221.770227 
L 195.607006 221.352221 
L 196.537781 222.066247 
L 197.468557 222.34768 
L 198.399333 219.350717 
L 199.330108 222.564406 
L 200.260884 219.141836 
L 202.122435 229.659061 
L 203.053211 228.732722 
L 203.983987 229.115183 
L 204.914762 239.103123 
L 205.845538 238.210744 
L 206.776314 239.391207 
L 208.637865 223.671162 
L 209.568641 218.449189 
L 210.499416 221.774214 
L 211.430192 223.510434 
L 212.360967 223.674446 
L 213.291743 217.66665 
L 215.153294 218.810771 
L 216.08407 218.013246 
L 217.014846 217.573976 
L 217.945621 215.01591 
L 218.876397 215.763457 
L 219.807173 220.379104 
L 220.737948 227.064492 
L 221.668724 219.687157 
L 222.5995 220.927882 
L 223.530275 221.133655 
L 224.461051 220.121318 
L 225.391827 223.878946 
L 226.322602 221.561414 
L 228.184153 222.734167 
L 237.49191 230.29526 
L 246.799666 229.179404 
L 256.107423 237.225895 
L 265.415179 246.056426 
L 274.722936 246.24 
L 284.030692 242.877635 
L 293.338449 239.905906 
L 302.646205 238.366197 
L 311.953962 244.247529 
L 321.261718 242.09822 
L 330.569475 237.72743 
L 339.877231 230.339305 
L 349.184987 230.729924 
L 358.492744 239.906579 
L 367.8005 246.021941 
L 377.108257 238.018485 
L 386.416013 239.647285 
L 395.72377 232.807787 
L 405.031526 234.030804 
L 414.339283 230.441524 
L 423.647039 227.700834 
L 432.954796 225.315099 
L 442.262552 224.012892 
L 451.570309 221.678896 
L 460.878065 222.917963 
L 479.493578 223.023688 
L 488.801334 224.426382 
L 498.109091 220.575494 
L 498.109091 220.575494 
" clip-path="url(#p3a3806d30a)" style="fill: none; stroke: #d92523; stroke-width: 1.5; stroke-linecap: square"/>
    <defs>
     <path id="ma60eb5c1d7" d="M 0 1.5 
C 0.397805 1.5 0.77937 1.341951 1.06066 1.06066 
C 1.341951 0.77937 1.5 0.397805 1.5 0 
C 1.5 -0.397805 1.341951 -0.77937 1.06066 -1.06066 
C 0.77937 -1.341951 0.397805 -1.5 0 -1.5 
C -0.397805 -1.5 -0.77937 -1.341951 -1.06066 -1.06066 
C -1.341951 -0.77937 -1.5 -0.397805 -1.5 0 
C -1.5 0.397805 -1.341951 0.77937 -1.06066 1.06066 
C -0.77937 1.341951 -0.397805 1.5 0 1.5 
z
" style="stroke: #d92523"/>
    </defs>
    <g clip-path="url(#p3a3806d30a)">
     <use xlink:href="#ma60eb5c1d7" x="92.290909" y="148.12845" style="fill: #ffffff; stroke: #d92523"/>
     <use xlink:href="#ma60eb5c1d7" x="93.221685" y="95.979575" style="fill: #ffffff; stroke: #d92523"/>
     <use xlink:href="#ma60eb5c1d7" x="94.15246" y="57.75557" style="fill: #ffffff; stroke: #d92523"/>
     <use xlink:href="#ma60eb5c1d7" x="95.083236" y="59.995685" style="fill: #ffffff; stroke: #d92523"/>
     <use xlink:href="#ma60eb5c1d7" x="96.014012" y="56.74272" style="fill: #ffffff; stroke: #d92523"/>
     <use xlink:href="#ma60eb5c1d7" x="96.944787" y="56.754669" style="fill: #ffffff; stroke: #d92523"/>
     <use xlink:href="#ma60eb5c1d7" x="97.875563" y="44.64" style="fill: #ffffff; stroke: #d92523"/>
     <use xlink:href="#ma60eb5c1d7" x="98.806339" y="58.214576" style="fill: #ffffff; stroke: #d92523"/>
     <use xlink:href="#ma60eb5c1d7" x="99.737114" y="60.455043" style="fill: #ffffff; stroke: #d92523"/>
     <use xlink:href="#ma60eb5c1d7" x="100.66789" y="74.738324" style="fill: #ffffff; stroke: #d92523"/>
     <use xlink:href="#ma60eb5c1d7" x="101.598666" y="92.163537" style="fill: #ffffff; stroke: #d92523"/>
     <use xlink:href="#ma60eb5c1d7" x="102.529441" y="139.980612" style="fill: #ffffff; stroke: #d92523"/>
     <use xlink:href="#ma60eb5c1d7" x="103.460217" y="136.872758" style="fill: #ffffff; stroke: #d92523"/>
     <use xlink:href="#ma60eb5c1d7" x="104.390992" y="129.680219" style="fill: #ffffff; stroke: #d92523"/>
     <use xlink:href="#ma60eb5c1d7" x="105.321768" y="143.222172" style="fill: #ffffff; stroke: #d92523"/>
     <use xlink:href="#ma60eb5c1d7" x="106.252544" y="148.525687" style="fill: #ffffff; stroke: #d92523"/>
     <use xlink:href="#ma60eb5c1d7" x="107.183319" y="145.20954" style="fill: #ffffff; stroke: #d92523"/>
     <use xlink:href="#ma60eb5c1d7" x="108.114095" y="120.034521" style="fill: #ffffff; stroke: #d92523"/>
     <use xlink:href="#ma60eb5c1d7" x="109.044871" y="109.403799" style="fill: #ffffff; stroke: #d92523"/>
     <use xlink:href="#ma60eb5c1d7" x="109.975646" y="113.283061" style="fill: #ffffff; stroke: #d92523"/>
     <use xlink:href="#ma60eb5c1d7" x="110.906422" y="130.224154" style="fill: #ffffff; stroke: #d92523"/>
     <use xlink:href="#ma60eb5c1d7" x="111.837198" y="119.506863" style="fill: #ffffff; stroke: #d92523"/>
     <use xlink:href="#ma60eb5c1d7" x="112.767973" y="120.920568" style="fill: #ffffff; stroke: #d92523"/>
     <use xlink:href="#ma60eb5c1d7" x="113.698749" y="125.917233" style="fill: #ffffff; stroke: #d92523"/>
     <use xlink:href="#ma60eb5c1d7" x="114.629525" y="139.152711" style="fill: #ffffff; stroke: #d92523"/>
     <use xlink:href="#ma60eb5c1d7" x="115.5603" y="152.40606" style="fill: #ffffff; stroke: #d92523"/>
     <use xlink:href="#ma60eb5c1d7" x="116.491076" y="150.611002" style="fill: #ffffff; stroke: #d92523"/>
     <use xlink:href="#ma60eb5c1d7" x="117.421852" y="160.608765" style="fill: #ffffff; stroke: #d92523"/>
     <use xlink:href="#ma60eb5c1d7" x="118.352627" y="171.013138" style="fill: #ffffff; stroke: #d92523"/>
     <use xlink:href="#ma60eb5c1d7" x="119.283403" y="173.021622" style="fill: #ffffff; stroke: #d92523"/>
     <use xlink:href="#ma60eb5c1d7" x="120.214178" y="170.313661" style="fill: #ffffff; stroke: #d92523"/>
     <use xlink:href="#ma60eb5c1d7" x="121.144954" y="165.352156" style="fill: #ffffff; stroke: #d92523"/>
     <use xlink:href="#ma60eb5c1d7" x="122.07573" y="178.229043" style="fill: #ffffff; stroke: #d92523"/>
     <use xlink:href="#ma60eb5c1d7" x="123.006505" y="162.772742" style="fill: #ffffff; stroke: #d92523"/>
     <use xlink:href="#ma60eb5c1d7" x="123.937281" y="156.472587" style="fill: #ffffff; stroke: #d92523"/>
     <use xlink:href="#ma60eb5c1d7" x="124.868057" y="153.679955" style="fill: #ffffff; stroke: #d92523"/>
     <use xlink:href="#ma60eb5c1d7" x="125.798832" y="163.508194" style="fill: #ffffff; stroke: #d92523"/>
     <use xlink:href="#ma60eb5c1d7" x="126.729608" y="160.748674" style="fill: #ffffff; stroke: #d92523"/>
     <use xlink:href="#ma60eb5c1d7" x="127.660384" y="171.657651" style="fill: #ffffff; stroke: #d92523"/>
     <use xlink:href="#ma60eb5c1d7" x="128.591159" y="170.256243" style="fill: #ffffff; stroke: #d92523"/>
     <use xlink:href="#ma60eb5c1d7" x="129.521935" y="177.535465" style="fill: #ffffff; stroke: #d92523"/>
     <use xlink:href="#ma60eb5c1d7" x="130.452711" y="170.623338" style="fill: #ffffff; stroke: #d92523"/>
     <use xlink:href="#ma60eb5c1d7" x="131.383486" y="177.606148" style="fill: #ffffff; stroke: #d92523"/>
     <use xlink:href="#ma60eb5c1d7" x="132.314262" y="180.488597" style="fill: #ffffff; stroke: #d92523"/>
     <use xlink:href="#ma60eb5c1d7" x="133.245038" y="139.36119" style="fill: #ffffff; stroke: #d92523"/>
     <use xlink:href="#ma60eb5c1d7" x="134.175813" y="175.150274" style="fill: #ffffff; stroke: #d92523"/>
     <use xlink:href="#ma60eb5c1d7" x="135.106589" y="194.407273" style="fill: #ffffff; stroke: #d92523"/>
     <use xlink:href="#ma60eb5c1d7" x="136.037364" y="173.687798" style="fill: #ffffff; stroke: #d92523"/>
     <use xlink:href="#ma60eb5c1d7" x="136.96814" y="171.340523" style="fill: #ffffff; stroke: #d92523"/>
     <use xlink:href="#ma60eb5c1d7" x="137.898916" y="176.016978" style="fill: #ffffff; stroke: #d92523"/>
     <use xlink:href="#ma60eb5c1d7" x="138.829691" y="183.056574" style="fill: #ffffff; stroke: #d92523"/>
     <use xlink:href="#ma60eb5c1d7" x="139.760467" y="176.870842" style="fill: #ffffff; stroke: #d92523"/>
     <use xlink:href="#ma60eb5c1d7" x="140.691243" y="153.464672" style="fill: #ffffff; stroke: #d92523"/>
     <use xlink:href="#ma60eb5c1d7" x="141.622018" y="160.370946" style="fill: #ffffff; stroke: #d92523"/>
     <use xlink:href="#ma60eb5c1d7" x="142.552794" y="169.099497" style="fill: #ffffff; stroke: #d92523"/>
     <use xlink:href="#ma60eb5c1d7" x="143.48357" y="177.041025" style="fill: #ffffff; stroke: #d92523"/>
     <use xlink:href="#ma60eb5c1d7" x="144.414345" y="172.407473" style="fill: #ffffff; stroke: #d92523"/>
     <use xlink:href="#ma60eb5c1d7" x="145.345121" y="168.813153" style="fill: #ffffff; stroke: #d92523"/>
     <use xlink:href="#ma60eb5c1d7" x="146.275897" y="167.030926" style="fill: #ffffff; stroke: #d92523"/>
     <use xlink:href="#ma60eb5c1d7" x="147.206672" y="180.813713" style="fill: #ffffff; stroke: #d92523"/>
     <use xlink:href="#ma60eb5c1d7" x="148.137448" y="183.972934" style="fill: #ffffff; stroke: #d92523"/>
     <use xlink:href="#ma60eb5c1d7" x="149.068224" y="191.341419" style="fill: #ffffff; stroke: #d92523"/>
     <use xlink:href="#ma60eb5c1d7" x="149.998999" y="185.236988" style="fill: #ffffff; stroke: #d92523"/>
     <use xlink:href="#ma60eb5c1d7" x="150.929775" y="183.802946" style="fill: #ffffff; stroke: #d92523"/>
     <use xlink:href="#ma60eb5c1d7" x="151.86055" y="186.77659" style="fill: #ffffff; stroke: #d92523"/>
     <use xlink:href="#ma60eb5c1d7" x="152.791326" y="184.687806" style="fill: #ffffff; stroke: #d92523"/>
     <use xlink:href="#ma60eb5c1d7" x="153.722102" y="183.206516" style="fill: #ffffff; stroke: #d92523"/>
     <use xlink:href="#ma60eb5c1d7" x="154.652877" y="184.271133" style="fill: #ffffff; stroke: #d92523"/>
     <use xlink:href="#ma60eb5c1d7" x="155.583653" y="170.229057" style="fill: #ffffff; stroke: #d92523"/>
     <use xlink:href="#ma60eb5c1d7" x="156.514429" y="164.318599" style="fill: #ffffff; stroke: #d92523"/>
     <use xlink:href="#ma60eb5c1d7" x="157.445204" y="166.528174" style="fill: #ffffff; stroke: #d92523"/>
     <use xlink:href="#ma60eb5c1d7" x="158.37598" y="165.346496" style="fill: #ffffff; stroke: #d92523"/>
     <use xlink:href="#ma60eb5c1d7" x="159.306756" y="164.963224" style="fill: #ffffff; stroke: #d92523"/>
     <use xlink:href="#ma60eb5c1d7" x="160.237531" y="168.682311" style="fill: #ffffff; stroke: #d92523"/>
     <use xlink:href="#ma60eb5c1d7" x="161.168307" y="173.566129" style="fill: #ffffff; stroke: #d92523"/>
     <use xlink:href="#ma60eb5c1d7" x="162.099083" y="175.265912" style="fill: #ffffff; stroke: #d92523"/>
     <use xlink:href="#ma60eb5c1d7" x="163.029858" y="173.63485" style="fill: #ffffff; stroke: #d92523"/>
     <use xlink:href="#ma60eb5c1d7" x="163.960634" y="168.785491" style="fill: #ffffff; stroke: #d92523"/>
     <use xlink:href="#ma60eb5c1d7" x="164.89141" y="176.721105" style="fill: #ffffff; stroke: #d92523"/>
     <use xlink:href="#ma60eb5c1d7" x="165.822185" y="172.846042" style="fill: #ffffff; stroke: #d92523"/>
     <use xlink:href="#ma60eb5c1d7" x="166.752961" y="168.995669" style="fill: #ffffff; stroke: #d92523"/>
     <use xlink:href="#ma60eb5c1d7" x="167.683736" y="169.238513" style="fill: #ffffff; stroke: #d92523"/>
     <use xlink:href="#ma60eb5c1d7" x="168.614512" y="170.979387" style="fill: #ffffff; stroke: #d92523"/>
     <use xlink:href="#ma60eb5c1d7" x="169.545288" y="160.500088" style="fill: #ffffff; stroke: #d92523"/>
     <use xlink:href="#ma60eb5c1d7" x="170.476063" y="157.658161" style="fill: #ffffff; stroke: #d92523"/>
     <use xlink:href="#ma60eb5c1d7" x="171.406839" y="160.777652" style="fill: #ffffff; stroke: #d92523"/>
     <use xlink:href="#ma60eb5c1d7" x="172.337615" y="166.138316" style="fill: #ffffff; stroke: #d92523"/>
     <use xlink:href="#ma60eb5c1d7" x="173.26839" y="169.540979" style="fill: #ffffff; stroke: #d92523"/>
     <use xlink:href="#ma60eb5c1d7" x="174.199166" y="187.912625" style="fill: #ffffff; stroke: #d92523"/>
     <use xlink:href="#ma60eb5c1d7" x="175.129942" y="190.331015" style="fill: #ffffff; stroke: #d92523"/>
     <use xlink:href="#ma60eb5c1d7" x="176.060717" y="194.810701" style="fill: #ffffff; stroke: #d92523"/>
     <use xlink:href="#ma60eb5c1d7" x="176.991493" y="193.74671" style="fill: #ffffff; stroke: #d92523"/>
     <use xlink:href="#ma60eb5c1d7" x="177.922269" y="190.801754" style="fill: #ffffff; stroke: #d92523"/>
     <use xlink:href="#ma60eb5c1d7" x="178.853044" y="191.714124" style="fill: #ffffff; stroke: #d92523"/>
     <use xlink:href="#ma60eb5c1d7" x="179.78382" y="192.817104" style="fill: #ffffff; stroke: #d92523"/>
     <use xlink:href="#ma60eb5c1d7" x="180.714595" y="189.567389" style="fill: #ffffff; stroke: #d92523"/>
     <use xlink:href="#ma60eb5c1d7" x="181.645371" y="188.303049" style="fill: #ffffff; stroke: #d92523"/>
     <use xlink:href="#ma60eb5c1d7" x="182.576147" y="194.093459" style="fill: #ffffff; stroke: #d92523"/>
     <use xlink:href="#ma60eb5c1d7" x="183.506922" y="196.335273" style="fill: #ffffff; stroke: #d92523"/>
     <use xlink:href="#ma60eb5c1d7" x="184.437698" y="195.267543" style="fill: #ffffff; stroke: #d92523"/>
     <use xlink:href="#ma60eb5c1d7" x="185.368474" y="195.507967" style="fill: #ffffff; stroke: #d92523"/>
     <use xlink:href="#ma60eb5c1d7" x="186.299249" y="202.211897" style="fill: #ffffff; stroke: #d92523"/>
     <use xlink:href="#ma60eb5c1d7" x="187.230025" y="210.338288" style="fill: #ffffff; stroke: #d92523"/>
     <use xlink:href="#ma60eb5c1d7" x="188.160801" y="213.404379" style="fill: #ffffff; stroke: #d92523"/>
     <use xlink:href="#ma60eb5c1d7" x="189.091576" y="218.763153" style="fill: #ffffff; stroke: #d92523"/>
     <use xlink:href="#ma60eb5c1d7" x="190.022352" y="217.82672" style="fill: #ffffff; stroke: #d92523"/>
     <use xlink:href="#ma60eb5c1d7" x="190.953128" y="214.053468" style="fill: #ffffff; stroke: #d92523"/>
     <use xlink:href="#ma60eb5c1d7" x="191.883903" y="222.992064" style="fill: #ffffff; stroke: #d92523"/>
     <use xlink:href="#ma60eb5c1d7" x="192.814679" y="224.096326" style="fill: #ffffff; stroke: #d92523"/>
     <use xlink:href="#ma60eb5c1d7" x="193.745455" y="222.920827" style="fill: #ffffff; stroke: #d92523"/>
     <use xlink:href="#ma60eb5c1d7" x="194.67623" y="221.770227" style="fill: #ffffff; stroke: #d92523"/>
     <use xlink:href="#ma60eb5c1d7" x="195.607006" y="221.352221" style="fill: #ffffff; stroke: #d92523"/>
     <use xlink:href="#ma60eb5c1d7" x="196.537781" y="222.066247" style="fill: #ffffff; stroke: #d92523"/>
     <use xlink:href="#ma60eb5c1d7" x="197.468557" y="222.34768" style="fill: #ffffff; stroke: #d92523"/>
     <use xlink:href="#ma60eb5c1d7" x="198.399333" y="219.350717" style="fill: #ffffff; stroke: #d92523"/>
     <use xlink:href="#ma60eb5c1d7" x="199.330108" y="222.564406" style="fill: #ffffff; stroke: #d92523"/>
     <use xlink:href="#ma60eb5c1d7" x="200.260884" y="219.141836" style="fill: #ffffff; stroke: #d92523"/>
     <use xlink:href="#ma60eb5c1d7" x="201.19166" y="224.390331" style="fill: #ffffff; stroke: #d92523"/>
     <use xlink:href="#ma60eb5c1d7" x="202.122435" y="229.659061" style="fill: #ffffff; stroke: #d92523"/>
     <use xlink:href="#ma60eb5c1d7" x="203.053211" y="228.732722" style="fill: #ffffff; stroke: #d92523"/>
     <use xlink:href="#ma60eb5c1d7" x="203.983987" y="229.115183" style="fill: #ffffff; stroke: #d92523"/>
     <use xlink:href="#ma60eb5c1d7" x="204.914762" y="239.103123" style="fill: #ffffff; stroke: #d92523"/>
     <use xlink:href="#ma60eb5c1d7" x="205.845538" y="238.210744" style="fill: #ffffff; stroke: #d92523"/>
     <use xlink:href="#ma60eb5c1d7" x="206.776314" y="239.391207" style="fill: #ffffff; stroke: #d92523"/>
     <use xlink:href="#ma60eb5c1d7" x="207.707089" y="231.729489" style="fill: #ffffff; stroke: #d92523"/>
     <use xlink:href="#ma60eb5c1d7" x="208.637865" y="223.671162" style="fill: #ffffff; stroke: #d92523"/>
     <use xlink:href="#ma60eb5c1d7" x="209.568641" y="218.449189" style="fill: #ffffff; stroke: #d92523"/>
     <use xlink:href="#ma60eb5c1d7" x="210.499416" y="221.774214" style="fill: #ffffff; stroke: #d92523"/>
     <use xlink:href="#ma60eb5c1d7" x="211.430192" y="223.510434" style="fill: #ffffff; stroke: #d92523"/>
     <use xlink:href="#ma60eb5c1d7" x="212.360967" y="223.674446" style="fill: #ffffff; stroke: #d92523"/>
     <use xlink:href="#ma60eb5c1d7" x="213.291743" y="217.66665" style="fill: #ffffff; stroke: #d92523"/>
     <use xlink:href="#ma60eb5c1d7" x="214.222519" y="218.222729" style="fill: #ffffff; stroke: #d92523"/>
     <use xlink:href="#ma60eb5c1d7" x="215.153294" y="218.810771" style="fill: #ffffff; stroke: #d92523"/>
     <use xlink:href="#ma60eb5c1d7" x="216.08407" y="218.013246" style="fill: #ffffff; stroke: #d92523"/>
     <use xlink:href="#ma60eb5c1d7" x="217.014846" y="217.573976" style="fill: #ffffff; stroke: #d92523"/>
     <use xlink:href="#ma60eb5c1d7" x="217.945621" y="215.01591" style="fill: #ffffff; stroke: #d92523"/>
     <use xlink:href="#ma60eb5c1d7" x="218.876397" y="215.763457" style="fill: #ffffff; stroke: #d92523"/>
     <use xlink:href="#ma60eb5c1d7" x="219.807173" y="220.379104" style="fill: #ffffff; stroke: #d92523"/>
     <use xlink:href="#ma60eb5c1d7" x="220.737948" y="227.064492" style="fill: #ffffff; stroke: #d92523"/>
     <use xlink:href="#ma60eb5c1d7" x="221.668724" y="219.687157" style="fill: #ffffff; stroke: #d92523"/>
     <use xlink:href="#ma60eb5c1d7" x="222.5995" y="220.927882" style="fill: #ffffff; stroke: #d92523"/>
     <use xlink:href="#ma60eb5c1d7" x="223.530275" y="221.133655" style="fill: #ffffff; stroke: #d92523"/>
     <use xlink:href="#ma60eb5c1d7" x="224.461051" y="220.121318" style="fill: #ffffff; stroke: #d92523"/>
     <use xlink:href="#ma60eb5c1d7" x="225.391827" y="223.878946" style="fill: #ffffff; stroke: #d92523"/>
     <use xlink:href="#ma60eb5c1d7" x="226.322602" y="221.561414" style="fill: #ffffff; stroke: #d92523"/>
     <use xlink:href="#ma60eb5c1d7" x="228.184153" y="222.734167" style="fill: #ffffff; stroke: #d92523"/>
     <use xlink:href="#ma60eb5c1d7" x="237.49191" y="230.29526" style="fill: #ffffff; stroke: #d92523"/>
     <use xlink:href="#ma60eb5c1d7" x="246.799666" y="229.179404" style="fill: #ffffff; stroke: #d92523"/>
     <use xlink:href="#ma60eb5c1d7" x="256.107423" y="237.225895" style="fill: #ffffff; stroke: #d92523"/>
     <use xlink:href="#ma60eb5c1d7" x="265.415179" y="246.056426" style="fill: #ffffff; stroke: #d92523"/>
     <use xlink:href="#ma60eb5c1d7" x="274.722936" y="246.24" style="fill: #ffffff; stroke: #d92523"/>
     <use xlink:href="#ma60eb5c1d7" x="284.030692" y="242.877635" style="fill: #ffffff; stroke: #d92523"/>
     <use xlink:href="#ma60eb5c1d7" x="293.338449" y="239.905906" style="fill: #ffffff; stroke: #d92523"/>
     <use xlink:href="#ma60eb5c1d7" x="302.646205" y="238.366197" style="fill: #ffffff; stroke: #d92523"/>
     <use xlink:href="#ma60eb5c1d7" x="311.953962" y="244.247529" style="fill: #ffffff; stroke: #d92523"/>
     <use xlink:href="#ma60eb5c1d7" x="321.261718" y="242.09822" style="fill: #ffffff; stroke: #d92523"/>
     <use xlink:href="#ma60eb5c1d7" x="330.569475" y="237.72743" style="fill: #ffffff; stroke: #d92523"/>
     <use xlink:href="#ma60eb5c1d7" x="339.877231" y="230.339305" style="fill: #ffffff; stroke: #d92523"/>
     <use xlink:href="#ma60eb5c1d7" x="349.184987" y="230.729924" style="fill: #ffffff; stroke: #d92523"/>
     <use xlink:href="#ma60eb5c1d7" x="358.492744" y="239.906579" style="fill: #ffffff; stroke: #d92523"/>
     <use xlink:href="#ma60eb5c1d7" x="367.8005" y="246.021941" style="fill: #ffffff; stroke: #d92523"/>
     <use xlink:href="#ma60eb5c1d7" x="377.108257" y="238.018485" style="fill: #ffffff; stroke: #d92523"/>
     <use xlink:href="#ma60eb5c1d7" x="386.416013" y="239.647285" style="fill: #ffffff; stroke: #d92523"/>
     <use xlink:href="#ma60eb5c1d7" x="395.72377" y="232.807787" style="fill: #ffffff; stroke: #d92523"/>
     <use xlink:href="#ma60eb5c1d7" x="405.031526" y="234.030804" style="fill: #ffffff; stroke: #d92523"/>
     <use xlink:href="#ma60eb5c1d7" x="414.339283" y="230.441524" style="fill: #ffffff; stroke: #d92523"/>
     <use xlink:href="#ma60eb5c1d7" x="423.647039" y="227.700834" style="fill: #ffffff; stroke: #d92523"/>
     <use xlink:href="#ma60eb5c1d7" x="432.954796" y="225.315099" style="fill: #ffffff; stroke: #d92523"/>
     <use xlink:href="#ma60eb5c1d7" x="442.262552" y="224.012892" style="fill: #ffffff; stroke: #d92523"/>
     <use xlink:href="#ma60eb5c1d7" x="451.570309" y="221.678896" style="fill: #ffffff; stroke: #d92523"/>
     <use xlink:href="#ma60eb5c1d7" x="460.878065" y="222.917963" style="fill: #ffffff; stroke: #d92523"/>
     <use xlink:href="#ma60eb5c1d7" x="470.185822" y="222.99507" style="fill: #ffffff; stroke: #d92523"/>
     <use xlink:href="#ma60eb5c1d7" x="479.493578" y="223.023688" style="fill: #ffffff; stroke: #d92523"/>
     <use xlink:href="#ma60eb5c1d7" x="488.801334" y="224.426382" style="fill: #ffffff; stroke: #d92523"/>
     <use xlink:href="#ma60eb5c1d7" x="498.109091" y="220.575494" style="fill: #ffffff; stroke: #d92523"/>
    </g>
   </g>
   <g id="patch_3">
    <path d="M 72 256.32 
L 72 34.56 
" style="fill: none; stroke: #000000; stroke-width: 0.8; stroke-linejoin: miter; stroke-linecap: square"/>
   </g>
   <g id="patch_4">
    <path d="M 518.4 256.32 
L 518.4 34.56 
" style="fill: none; stroke: #000000; stroke-width: 0.8; stroke-linejoin: miter; stroke-linecap: square"/>
   </g>
   <g id="patch_5">
    <path d="M 72 256.32 
L 518.4 256.32 
" style="fill: none; stroke: #000000; stroke-width: 0.8; stroke-linejoin: miter; stroke-linecap: square"/>
   </g>
   <g id="patch_6">
    <path d="M 72 34.56 
L 518.4 34.56 
" style="fill: none; stroke: #000000; stroke-width: 0.8; stroke-linejoin: miter; stroke-linecap: square"/>
   </g>
   <g id="legend_1">
    <g id="patch_7">
     <path d="M 389.095781 87.557109 
L 511.05 87.557109 
Q 513.15 87.557109 513.15 85.457109 
L 513.15 41.91 
Q 513.15 39.81 511.05 39.81 
L 389.095781 39.81 
Q 386.995781 39.81 386.995781 41.91 
L 386.995781 85.457109 
Q 386.995781 87.557109 389.095781 87.557109 
z
" style="fill: #ffffff; opacity: 0.8; stroke: #cccccc; stroke-linejoin: miter"/>
    </g>
    <g id="line2d_15">
     <path d="M 391.195781 47.685 
L 401.695781 47.685 
L 412.195781 47.685 
" style="fill: none; stroke: #d92523; stroke-width: 1.5; stroke-linecap: square"/>
     <g>
      <use xlink:href="#ma60eb5c1d7" x="401.695781" y="47.685" style="fill: #ffffff; stroke: #d92523"/>
     </g>
    </g>
    <g id="text_16">
     <!-- Natural Connectivity -->
     <g transform="translate(420.595781 51.36) scale(0.105 -0.105)">
      <use xlink:href="#TimesNewRomanPSMT-4e"/>
      <use xlink:href="#TimesNewRomanPSMT-61" x="72.216797"/>
      <use xlink:href="#TimesNewRomanPSMT-74" x="116.601562"/>
      <use xlink:href="#TimesNewRomanPSMT-75" x="144.384766"/>
      <use xlink:href="#TimesNewRomanPSMT-72" x="194.384766"/>
      <use xlink:href="#TimesNewRomanPSMT-61" x="227.685547"/>
      <use xlink:href="#TimesNewRomanPSMT-6c" x="272.070312"/>
      <use xlink:href="#TimesNewRomanPSMT-20" x="299.853516"/>
      <use xlink:href="#TimesNewRomanPSMT-43" x="324.853516"/>
      <use xlink:href="#TimesNewRomanPSMT-6f" x="391.552734"/>
      <use xlink:href="#TimesNewRomanPSMT-6e" x="441.552734"/>
      <use xlink:href="#TimesNewRomanPSMT-6e" x="491.552734"/>
      <use xlink:href="#TimesNewRomanPSMT-65" x="541.552734"/>
      <use xlink:href="#TimesNewRomanPSMT-63" x="585.9375"/>
      <use xlink:href="#TimesNewRomanPSMT-74" x="630.322266"/>
      <use xlink:href="#TimesNewRomanPSMT-69" x="658.105469"/>
      <use xlink:href="#TimesNewRomanPSMT-76" x="685.888672"/>
      <use xlink:href="#TimesNewRomanPSMT-69" x="735.888672"/>
      <use xlink:href="#TimesNewRomanPSMT-74" x="763.671875"/>
      <use xlink:href="#TimesNewRomanPSMT-79" x="791.455078"/>
     </g>
    </g>
    <g id="line2d_16">
     <path d="M 391.195781 62.550703 
L 401.695781 62.550703 
L 412.195781 62.550703 
" style="fill: none; stroke: #00ff00; stroke-width: 1.5; stroke-linecap: square"/>
     <defs>
      <path id="m638ddac4d5" d="M 0 1.5 
C 0.397805 1.5 0.77937 1.341951 1.06066 1.06066 
C 1.341951 0.77937 1.5 0.397805 1.5 0 
C 1.5 -0.397805 1.341951 -0.77937 1.06066 -1.06066 
C 0.77937 -1.341951 0.397805 -1.5 0 -1.5 
C -0.397805 -1.5 -0.77937 -1.341951 -1.06066 -1.06066 
C -1.341951 -0.77937 -1.5 -0.397805 -1.5 0 
C -1.5 0.397805 -1.341951 0.77937 -1.06066 1.06066 
C -0.77937 1.341951 -0.397805 1.5 0 1.5 
z
" style="stroke: #00ff00"/>
     </defs>
     <g>
      <use xlink:href="#m638ddac4d5" x="401.695781" y="62.550703" style="fill: #ffffff; stroke: #00ff00"/>
     </g>
    </g>
    <g id="text_17">
     <!-- communicate_circle -->
     <g transform="translate(420.595781 66.225703) scale(0.105 -0.105)">
      <defs>
       <path id="TimesNewRomanPSMT-5f" d="M 3256 -1381 
L -53 -1381 
L -53 -1119 
L 3256 -1119 
L 3256 -1381 
z
" transform="scale(0.015625)"/>
      </defs>
      <use xlink:href="#TimesNewRomanPSMT-63"/>
      <use xlink:href="#TimesNewRomanPSMT-6f" x="44.384766"/>
      <use xlink:href="#TimesNewRomanPSMT-6d" x="94.384766"/>
      <use xlink:href="#TimesNewRomanPSMT-6d" x="172.167969"/>
      <use xlink:href="#TimesNewRomanPSMT-75" x="249.951172"/>
      <use xlink:href="#TimesNewRomanPSMT-6e" x="299.951172"/>
      <use xlink:href="#TimesNewRomanPSMT-69" x="349.951172"/>
      <use xlink:href="#TimesNewRomanPSMT-63" x="377.734375"/>
      <use xlink:href="#TimesNewRomanPSMT-61" x="422.119141"/>
      <use xlink:href="#TimesNewRomanPSMT-74" x="466.503906"/>
      <use xlink:href="#TimesNewRomanPSMT-65" x="494.287109"/>
      <use xlink:href="#TimesNewRomanPSMT-5f" x="538.671875"/>
      <use xlink:href="#TimesNewRomanPSMT-63" x="588.671875"/>
      <use xlink:href="#TimesNewRomanPSMT-69" x="633.056641"/>
      <use xlink:href="#TimesNewRomanPSMT-72" x="660.839844"/>
      <use xlink:href="#TimesNewRomanPSMT-63" x="694.140625"/>
      <use xlink:href="#TimesNewRomanPSMT-6c" x="738.525391"/>
      <use xlink:href="#TimesNewRomanPSMT-65" x="766.308594"/>
     </g>
    </g>
    <g id="line2d_17">
     <path d="M 391.195781 77.416406 
L 401.695781 77.416406 
L 412.195781 77.416406 
" style="fill: none; stroke: #2e7ebb; stroke-width: 1.5; stroke-linecap: square"/>
    </g>
    <g id="text_18">
     <!-- res_energy_avg -->
     <g transform="translate(420.595781 81.091406) scale(0.105 -0.105)">
      <defs>
       <path id="TimesNewRomanPSMT-67" d="M 966 1044 
Q 703 1172 562 1401 
Q 422 1631 422 1909 
Q 422 2334 742 2640 
Q 1063 2947 1563 2947 
Q 1972 2947 2272 2747 
L 2878 2747 
Q 3013 2747 3034 2739 
Q 3056 2731 3066 2713 
Q 3084 2684 3084 2613 
Q 3084 2531 3069 2500 
Q 3059 2484 3036 2475 
Q 3013 2466 2878 2466 
L 2506 2466 
Q 2681 2241 2681 1891 
Q 2681 1491 2375 1206 
Q 2069 922 1553 922 
Q 1341 922 1119 984 
Q 981 866 932 777 
Q 884 688 884 625 
Q 884 572 936 522 
Q 988 472 1138 450 
Q 1225 438 1575 428 
Q 2219 413 2409 384 
Q 2700 344 2873 169 
Q 3047 -6 3047 -263 
Q 3047 -616 2716 -925 
Q 2228 -1381 1444 -1381 
Q 841 -1381 425 -1109 
Q 191 -953 191 -784 
Q 191 -709 225 -634 
Q 278 -519 444 -313 
Q 466 -284 763 25 
Q 600 122 533 198 
Q 466 275 466 372 
Q 466 481 555 628 
Q 644 775 966 1044 
z
M 1509 2797 
Q 1278 2797 1122 2612 
Q 966 2428 966 2047 
Q 966 1553 1178 1281 
Q 1341 1075 1591 1075 
Q 1828 1075 1981 1253 
Q 2134 1431 2134 1813 
Q 2134 2309 1919 2591 
Q 1759 2797 1509 2797 
z
M 934 0 
Q 788 -159 713 -296 
Q 638 -434 638 -550 
Q 638 -700 819 -813 
Q 1131 -1006 1722 -1006 
Q 2284 -1006 2551 -807 
Q 2819 -609 2819 -384 
Q 2819 -222 2659 -153 
Q 2497 -84 2016 -72 
Q 1313 -53 934 0 
z
" transform="scale(0.015625)"/>
      </defs>
      <use xlink:href="#TimesNewRomanPSMT-72"/>
      <use xlink:href="#TimesNewRomanPSMT-65" x="33.300781"/>
      <use xlink:href="#TimesNewRomanPSMT-73" x="77.685547"/>
      <use xlink:href="#TimesNewRomanPSMT-5f" x="116.601562"/>
      <use xlink:href="#TimesNewRomanPSMT-65" x="166.601562"/>
      <use xlink:href="#TimesNewRomanPSMT-6e" x="210.986328"/>
      <use xlink:href="#TimesNewRomanPSMT-65" x="260.986328"/>
      <use xlink:href="#TimesNewRomanPSMT-72" x="305.371094"/>
      <use xlink:href="#TimesNewRomanPSMT-67" x="336.921875"/>
      <use xlink:href="#TimesNewRomanPSMT-79" x="386.921875"/>
      <use xlink:href="#TimesNewRomanPSMT-5f" x="436.921875"/>
      <use xlink:href="#TimesNewRomanPSMT-61" x="486.921875"/>
      <use xlink:href="#TimesNewRomanPSMT-76" x="531.306641"/>
      <use xlink:href="#TimesNewRomanPSMT-67" x="581.306641"/>
     </g>
    </g>
   </g>
  </g>
  <g id="axes_2">
   <g id="matplotlib.axis_3">
    <g id="ytick_9">
     <g id="line2d_18">
      <defs>
       <path id="me143dd7250" d="M 0 0 
L 3.5 0 
" style="stroke: #000000; stroke-width: 0.8"/>
      </defs>
      <g>
       <use xlink:href="#me143dd7250" x="518.4" y="254.5556" style="stroke: #000000; stroke-width: 0.8"/>
      </g>
     </g>
     <g id="text_19">
      <!-- 0 -->
      <g transform="translate(525.4 258.201069) scale(0.105 -0.105)">
       <use xlink:href="#TimesNewRomanPSMT-30"/>
      </g>
     </g>
    </g>
    <g id="ytick_10">
     <g id="line2d_19">
      <g>
       <use xlink:href="#me143dd7250" x="518.4" y="229.552794" style="stroke: #000000; stroke-width: 0.8"/>
      </g>
     </g>
     <g id="text_20">
      <!-- 2 -->
      <g transform="translate(525.4 233.198263) scale(0.105 -0.105)">
       <use xlink:href="#TimesNewRomanPSMT-32"/>
      </g>
     </g>
    </g>
    <g id="ytick_11">
     <g id="line2d_20">
      <g>
       <use xlink:href="#me143dd7250" x="518.4" y="204.549988" style="stroke: #000000; stroke-width: 0.8"/>
      </g>
     </g>
     <g id="text_21">
      <!-- 4 -->
      <g transform="translate(525.4 208.195457) scale(0.105 -0.105)">
       <use xlink:href="#TimesNewRomanPSMT-34"/>
      </g>
     </g>
    </g>
    <g id="ytick_12">
     <g id="line2d_21">
      <g>
       <use xlink:href="#me143dd7250" x="518.4" y="179.547182" style="stroke: #000000; stroke-width: 0.8"/>
      </g>
     </g>
     <g id="text_22">
      <!-- 6 -->
      <g transform="translate(525.4 183.192651) scale(0.105 -0.105)">
       <use xlink:href="#TimesNewRomanPSMT-36"/>
      </g>
     </g>
    </g>
    <g id="ytick_13">
     <g id="line2d_22">
      <g>
       <use xlink:href="#me143dd7250" x="518.4" y="154.544376" style="stroke: #000000; stroke-width: 0.8"/>
      </g>
     </g>
     <g id="text_23">
      <!-- 8 -->
      <g transform="translate(525.4 158.189845) scale(0.105 -0.105)">
       <defs>
        <path id="TimesNewRomanPSMT-38" d="M 1228 2134 
Q 725 2547 579 2797 
Q 434 3047 434 3316 
Q 434 3728 753 4026 
Q 1072 4325 1600 4325 
Q 2113 4325 2425 4047 
Q 2738 3769 2738 3413 
Q 2738 3175 2569 2928 
Q 2400 2681 1866 2347 
Q 2416 1922 2594 1678 
Q 2831 1359 2831 1006 
Q 2831 559 2490 242 
Q 2150 -75 1597 -75 
Q 994 -75 656 303 
Q 388 606 388 966 
Q 388 1247 577 1523 
Q 766 1800 1228 2134 
z
M 1719 2469 
Q 2094 2806 2194 3001 
Q 2294 3197 2294 3444 
Q 2294 3772 2109 3958 
Q 1925 4144 1606 4144 
Q 1288 4144 1088 3959 
Q 888 3775 888 3528 
Q 888 3366 970 3203 
Q 1053 3041 1206 2894 
L 1719 2469 
z
M 1375 2016 
Q 1116 1797 991 1539 
Q 866 1281 866 981 
Q 866 578 1086 336 
Q 1306 94 1647 94 
Q 1984 94 2187 284 
Q 2391 475 2391 747 
Q 2391 972 2272 1150 
Q 2050 1481 1375 2016 
z
" transform="scale(0.015625)"/>
       </defs>
       <use xlink:href="#TimesNewRomanPSMT-38"/>
      </g>
     </g>
    </g>
    <g id="ytick_14">
     <g id="line2d_23">
      <g>
       <use xlink:href="#me143dd7250" x="518.4" y="129.54157" style="stroke: #000000; stroke-width: 0.8"/>
      </g>
     </g>
     <g id="text_24">
      <!-- 10 -->
      <g transform="translate(525.4 133.187039) scale(0.105 -0.105)">
       <use xlink:href="#TimesNewRomanPSMT-31"/>
       <use xlink:href="#TimesNewRomanPSMT-30" x="50"/>
      </g>
     </g>
    </g>
    <g id="ytick_15">
     <g id="line2d_24">
      <g>
       <use xlink:href="#me143dd7250" x="518.4" y="104.538764" style="stroke: #000000; stroke-width: 0.8"/>
      </g>
     </g>
     <g id="text_25">
      <!-- 12 -->
      <g transform="translate(525.4 108.184233) scale(0.105 -0.105)">
       <use xlink:href="#TimesNewRomanPSMT-31"/>
       <use xlink:href="#TimesNewRomanPSMT-32" x="50"/>
      </g>
     </g>
    </g>
    <g id="ytick_16">
     <g id="line2d_25">
      <g>
       <use xlink:href="#me143dd7250" x="518.4" y="79.535958" style="stroke: #000000; stroke-width: 0.8"/>
      </g>
     </g>
     <g id="text_26">
      <!-- 14 -->
      <g transform="translate(525.4 83.181427) scale(0.105 -0.105)">
       <use xlink:href="#TimesNewRomanPSMT-31"/>
       <use xlink:href="#TimesNewRomanPSMT-34" x="50"/>
      </g>
     </g>
    </g>
    <g id="ytick_17">
     <g id="line2d_26">
      <g>
       <use xlink:href="#me143dd7250" x="518.4" y="54.533152" style="stroke: #000000; stroke-width: 0.8"/>
      </g>
     </g>
     <g id="text_27">
      <!-- 16 -->
      <g transform="translate(525.4 58.178621) scale(0.105 -0.105)">
       <use xlink:href="#TimesNewRomanPSMT-31"/>
       <use xlink:href="#TimesNewRomanPSMT-36" x="50"/>
      </g>
     </g>
    </g>
    <g id="text_28">
     <!-- res_energy_avg -->
     <g transform="translate(547.17125 178.584727) rotate(-90) scale(0.105 -0.105)">
      <use xlink:href="#TimesNewRomanPSMT-72"/>
      <use xlink:href="#TimesNewRomanPSMT-65" x="33.300781"/>
      <use xlink:href="#TimesNewRomanPSMT-73" x="77.685547"/>
      <use xlink:href="#TimesNewRomanPSMT-5f" x="116.601562"/>
      <use xlink:href="#TimesNewRomanPSMT-65" x="166.601562"/>
      <use xlink:href="#TimesNewRomanPSMT-6e" x="210.986328"/>
      <use xlink:href="#TimesNewRomanPSMT-65" x="260.986328"/>
      <use xlink:href="#TimesNewRomanPSMT-72" x="305.371094"/>
      <use xlink:href="#TimesNewRomanPSMT-67" x="336.921875"/>
      <use xlink:href="#TimesNewRomanPSMT-79" x="386.921875"/>
      <use xlink:href="#TimesNewRomanPSMT-5f" x="436.921875"/>
      <use xlink:href="#TimesNewRomanPSMT-61" x="486.921875"/>
      <use xlink:href="#TimesNewRomanPSMT-76" x="531.306641"/>
      <use xlink:href="#TimesNewRomanPSMT-67" x="581.306641"/>
     </g>
    </g>
   </g>
   <g id="line2d_27">
    <path d="M 92.290909 246.24 
L 94.15246 227.824037 
L 95.083236 216.359202 
L 96.014012 207.347402 
L 96.944787 216.705534 
L 97.875563 215.922598 
L 98.806339 208.913093 
L 99.737114 208.997273 
L 100.66789 227.804931 
L 101.598666 226.860304 
L 102.529441 191.317562 
L 103.460217 192.696602 
L 104.390992 205.781573 
L 105.321768 214.470976 
L 106.252544 211.771417 
L 107.183319 214.349429 
L 108.114095 215.475497 
L 109.044871 208.953649 
L 109.975646 201.318905 
L 110.906422 204.979882 
L 111.837198 193.625577 
L 112.767973 194.02495 
L 113.698749 200.46753 
L 114.629525 218.903365 
L 115.5603 189.452939 
L 116.491076 207.93068 
L 117.421852 209.356588 
L 118.352627 208.434306 
L 119.283403 189.387429 
L 120.214178 190.074961 
L 121.144954 196.747829 
L 122.07573 199.372302 
L 123.006505 193.919308 
L 123.937281 203.547688 
L 124.868057 199.966547 
L 125.798832 192.696277 
L 126.729608 195.604333 
L 127.660384 201.636388 
L 128.591159 203.575345 
L 129.521935 192.101134 
L 130.452711 195.367106 
L 131.383486 195.496159 
L 132.314262 189.71914 
L 133.245038 141.565089 
L 134.175813 202.852935 
L 135.106589 193.741929 
L 136.037364 207.933934 
L 136.96814 209.135114 
L 137.898916 190.856306 
L 138.829691 197.553488 
L 139.760467 193.610304 
L 140.691243 116.582417 
L 141.622018 120.154322 
L 142.552794 121.301704 
L 143.48357 116.913923 
L 144.414345 130.269813 
L 145.345121 129.352033 
L 146.275897 130.649476 
L 147.206672 116.016567 
L 148.137448 118.175037 
L 149.068224 132.24344 
L 149.998999 132.799149 
L 150.929775 138.241082 
L 151.86055 132.786891 
L 152.791326 121.056688 
L 153.722102 124.320845 
L 154.652877 123.367288 
L 155.583653 138.755354 
L 156.514429 129.055642 
L 157.445204 121.051551 
L 158.37598 128.803857 
L 159.306756 134.409879 
L 160.237531 136.474595 
L 161.168307 141.233488 
L 162.099083 151.802173 
L 163.960634 148.25617 
L 164.89141 133.371869 
L 165.822185 124.667705 
L 166.752961 117.767307 
L 167.683736 121.579412 
L 168.614512 121.69428 
L 169.545288 143.637382 
L 170.476063 144.573401 
L 171.406839 147.675556 
L 172.337615 158.565675 
L 173.26839 151.826356 
L 174.199166 195.376352 
L 175.129942 196.110778 
L 176.060717 196.211292 
L 176.991493 197.434756 
L 177.922269 197.822702 
L 178.853044 188.622599 
L 179.78382 188.794355 
L 180.714595 199.234441 
L 181.645371 199.952952 
L 182.576147 192.991385 
L 184.437698 194.460875 
L 185.368474 196.276408 
L 186.299249 195.563634 
L 187.230025 198.529942 
L 188.160801 198.299341 
L 189.091576 189.905435 
L 190.022352 190.12354 
L 190.953128 191.831507 
L 191.883903 190.365511 
L 192.814679 190.40898 
L 196.537781 191.9293 
L 197.468557 192.786953 
L 198.399333 201.909133 
L 199.330108 197.326119 
L 200.260884 197.179427 
L 201.19166 208.494105 
L 202.122435 210.861406 
L 203.053211 211.275127 
L 203.983987 212.368572 
L 204.914762 204.541625 
L 205.845538 204.688988 
L 206.776314 201.469115 
L 207.707089 203.88699 
L 208.637865 208.880856 
L 210.499416 205.215476 
L 212.360967 207.539805 
L 213.291743 207.395307 
L 214.222519 208.021472 
L 215.153294 208.858153 
L 216.08407 209.944406 
L 217.014846 210.062749 
L 217.945621 210.867151 
L 218.876397 211.318776 
L 219.807173 212.172102 
L 220.737948 194.031169 
L 221.668724 192.834052 
L 222.5995 193.521353 
L 224.461051 194.622387 
L 225.391827 194.002563 
L 226.322602 188.603065 
L 228.184153 204.727639 
L 237.49191 205.167542 
L 246.799666 211.206924 
L 256.107423 199.148437 
L 265.415179 212.787287 
L 274.722936 219.599211 
L 284.030692 226.595151 
L 293.338449 185.648506 
L 302.646205 118.553328 
L 311.953962 61.214205 
L 321.261718 44.64 
L 330.569475 50.705303 
L 339.877231 62.592628 
L 349.184987 80.106187 
L 358.492744 175.184102 
L 367.8005 178.120088 
L 377.108257 180.886037 
L 386.416013 193.526858 
L 395.72377 185.78451 
L 405.031526 183.546275 
L 414.339283 192.021589 
L 423.647039 191.8679 
L 432.954796 189.50894 
L 442.262552 233.405881 
L 451.570309 233.038675 
L 460.878065 229.640606 
L 470.185822 231.368137 
L 479.493578 237.639533 
L 488.801334 240.411003 
L 498.109091 243.320269 
L 498.109091 243.320269 
" clip-path="url(#p3a3806d30a)" style="fill: none; stroke: #2e7ebb; stroke-width: 1.5; stroke-linecap: square"/>
   </g>
   <g id="patch_8">
    <path d="M 72 256.32 
L 72 34.56 
" style="fill: none; stroke: #000000; stroke-width: 0.8; stroke-linejoin: miter; stroke-linecap: square"/>
   </g>
   <g id="patch_9">
    <path d="M 518.4 256.32 
L 518.4 34.56 
" style="fill: none; stroke: #000000; stroke-width: 0.8; stroke-linejoin: miter; stroke-linecap: square"/>
   </g>
   <g id="patch_10">
    <path d="M 72 256.32 
L 518.4 256.32 
" style="fill: none; stroke: #000000; stroke-width: 0.8; stroke-linejoin: miter; stroke-linecap: square"/>
   </g>
   <g id="patch_11">
    <path d="M 72 34.56 
L 518.4 34.56 
" style="fill: none; stroke: #000000; stroke-width: 0.8; stroke-linejoin: miter; stroke-linecap: square"/>
   </g>
  </g>
  <g id="axes_3">
   <g id="matplotlib.axis_4">
    <g id="ytick_18">
     <g id="line2d_28">
      <g>
       <use xlink:href="#me143dd7250" x="558.4" y="246.373069" style="stroke: #000000; stroke-width: 0.8"/>
      </g>
     </g>
     <g id="text_29">
      <!-- 0 -->
      <g transform="translate(565.4 250.018538) scale(0.105 -0.105)">
       <use xlink:href="#TimesNewRomanPSMT-30"/>
      </g>
     </g>
    </g>
    <g id="ytick_19">
     <g id="line2d_29">
      <g>
       <use xlink:href="#me143dd7250" x="558.4" y="219.759208" style="stroke: #000000; stroke-width: 0.8"/>
      </g>
     </g>
     <g id="text_30">
      <!-- 200 -->
      <g transform="translate(565.4 223.404677) scale(0.105 -0.105)">
       <use xlink:href="#TimesNewRomanPSMT-32"/>
       <use xlink:href="#TimesNewRomanPSMT-30" x="50"/>
       <use xlink:href="#TimesNewRomanPSMT-30" x="100"/>
      </g>
     </g>
    </g>
    <g id="ytick_20">
     <g id="line2d_30">
      <g>
       <use xlink:href="#me143dd7250" x="558.4" y="193.145347" style="stroke: #000000; stroke-width: 0.8"/>
      </g>
     </g>
     <g id="text_31">
      <!-- 400 -->
      <g transform="translate(565.4 196.790815) scale(0.105 -0.105)">
       <use xlink:href="#TimesNewRomanPSMT-34"/>
       <use xlink:href="#TimesNewRomanPSMT-30" x="50"/>
       <use xlink:href="#TimesNewRomanPSMT-30" x="100"/>
      </g>
     </g>
    </g>
    <g id="ytick_21">
     <g id="line2d_31">
      <g>
       <use xlink:href="#me143dd7250" x="558.4" y="166.531485" style="stroke: #000000; stroke-width: 0.8"/>
      </g>
     </g>
     <g id="text_32">
      <!-- 600 -->
      <g transform="translate(565.4 170.176954) scale(0.105 -0.105)">
       <use xlink:href="#TimesNewRomanPSMT-36"/>
       <use xlink:href="#TimesNewRomanPSMT-30" x="50"/>
       <use xlink:href="#TimesNewRomanPSMT-30" x="100"/>
      </g>
     </g>
    </g>
    <g id="ytick_22">
     <g id="line2d_32">
      <g>
       <use xlink:href="#me143dd7250" x="558.4" y="139.917624" style="stroke: #000000; stroke-width: 0.8"/>
      </g>
     </g>
     <g id="text_33">
      <!-- 800 -->
      <g transform="translate(565.4 143.563093) scale(0.105 -0.105)">
       <use xlink:href="#TimesNewRomanPSMT-38"/>
       <use xlink:href="#TimesNewRomanPSMT-30" x="50"/>
       <use xlink:href="#TimesNewRomanPSMT-30" x="100"/>
      </g>
     </g>
    </g>
    <g id="ytick_23">
     <g id="line2d_33">
      <g>
       <use xlink:href="#me143dd7250" x="558.4" y="113.303762" style="stroke: #000000; stroke-width: 0.8"/>
      </g>
     </g>
     <g id="text_34">
      <!-- 1000 -->
      <g transform="translate(565.4 116.949231) scale(0.105 -0.105)">
       <use xlink:href="#TimesNewRomanPSMT-31"/>
       <use xlink:href="#TimesNewRomanPSMT-30" x="50"/>
       <use xlink:href="#TimesNewRomanPSMT-30" x="100"/>
       <use xlink:href="#TimesNewRomanPSMT-30" x="150"/>
      </g>
     </g>
    </g>
    <g id="ytick_24">
     <g id="line2d_34">
      <g>
       <use xlink:href="#me143dd7250" x="558.4" y="86.689901" style="stroke: #000000; stroke-width: 0.8"/>
      </g>
     </g>
     <g id="text_35">
      <!-- 1200 -->
      <g transform="translate(565.4 90.33537) scale(0.105 -0.105)">
       <use xlink:href="#TimesNewRomanPSMT-31"/>
       <use xlink:href="#TimesNewRomanPSMT-32" x="50"/>
       <use xlink:href="#TimesNewRomanPSMT-30" x="100"/>
       <use xlink:href="#TimesNewRomanPSMT-30" x="150"/>
      </g>
     </g>
    </g>
    <g id="ytick_25">
     <g id="line2d_35">
      <g>
       <use xlink:href="#me143dd7250" x="558.4" y="60.07604" style="stroke: #000000; stroke-width: 0.8"/>
      </g>
     </g>
     <g id="text_36">
      <!-- 1400 -->
      <g transform="translate(565.4 63.721508) scale(0.105 -0.105)">
       <use xlink:href="#TimesNewRomanPSMT-31"/>
       <use xlink:href="#TimesNewRomanPSMT-34" x="50"/>
       <use xlink:href="#TimesNewRomanPSMT-30" x="100"/>
       <use xlink:href="#TimesNewRomanPSMT-30" x="150"/>
      </g>
     </g>
    </g>
    <g id="text_37">
     <!-- communicate_circle -->
     <g transform="translate(597.690938 188.002734) rotate(-90) scale(0.105 -0.105)">
      <use xlink:href="#TimesNewRomanPSMT-63"/>
      <use xlink:href="#TimesNewRomanPSMT-6f" x="44.384766"/>
      <use xlink:href="#TimesNewRomanPSMT-6d" x="94.384766"/>
      <use xlink:href="#TimesNewRomanPSMT-6d" x="172.167969"/>
      <use xlink:href="#TimesNewRomanPSMT-75" x="249.951172"/>
      <use xlink:href="#TimesNewRomanPSMT-6e" x="299.951172"/>
      <use xlink:href="#TimesNewRomanPSMT-69" x="349.951172"/>
      <use xlink:href="#TimesNewRomanPSMT-63" x="377.734375"/>
      <use xlink:href="#TimesNewRomanPSMT-61" x="422.119141"/>
      <use xlink:href="#TimesNewRomanPSMT-74" x="466.503906"/>
      <use xlink:href="#TimesNewRomanPSMT-65" x="494.287109"/>
      <use xlink:href="#TimesNewRomanPSMT-5f" x="538.671875"/>
      <use xlink:href="#TimesNewRomanPSMT-63" x="588.671875"/>
      <use xlink:href="#TimesNewRomanPSMT-69" x="633.056641"/>
      <use xlink:href="#TimesNewRomanPSMT-72" x="660.839844"/>
      <use xlink:href="#TimesNewRomanPSMT-63" x="694.140625"/>
      <use xlink:href="#TimesNewRomanPSMT-6c" x="738.525391"/>
      <use xlink:href="#TimesNewRomanPSMT-65" x="766.308594"/>
     </g>
    </g>
   </g>
   <g id="line2d_36">
    <path d="M 92.290909 44.64 
L 93.221685 78.306535 
L 94.15246 102.25901 
L 95.083236 120.356436 
L 96.014012 134.328713 
L 96.944787 143.643564 
L 97.875563 158.281188 
L 98.806339 169.325941 
L 99.737114 177.842376 
L 101.598666 177.842376 
L 102.529441 184.76198 
L 103.460217 190.350891 
L 104.390992 212.972673 
L 108.114095 212.972673 
L 109.044871 216.299406 
L 109.975646 221.35604 
L 110.906422 221.35604 
L 111.837198 231.336238 
L 113.698749 231.336238 
L 114.629525 224.948911 
L 115.5603 233.864554 
L 116.491076 231.336238 
L 118.352627 231.336238 
L 119.283403 237.191287 
L 122.07573 237.191287 
L 123.006505 238.122772 
L 123.937281 237.191287 
L 124.868057 238.122772 
L 125.798832 239.453465 
L 126.729608 239.453465 
L 127.660384 240.118812 
L 128.591159 240.118812 
L 129.521935 241.848713 
L 131.383486 241.848713 
L 132.314262 242.38099 
L 133.245038 190.217822 
L 134.175813 242.38099 
L 135.106589 242.780198 
L 136.037364 242.514059 
L 136.96814 242.514059 
L 137.898916 243.445545 
L 138.829691 243.179406 
L 139.760467 243.445545 
L 140.691243 241.715644 
L 142.552794 241.715644 
L 143.48357 242.114851 
L 144.414345 242.247921 
L 146.275897 242.247921 
L 147.206672 242.647129 
L 148.137448 243.844752 
L 151.86055 243.844752 
L 152.791326 244.110891 
L 154.652877 244.110891 
L 155.583653 243.445545 
L 156.514429 242.38099 
L 157.445204 243.977822 
L 158.37598 243.844752 
L 161.168307 243.844752 
L 162.099083 243.711683 
L 163.960634 243.711683 
L 164.89141 244.37703 
L 166.752961 244.643168 
L 168.614512 244.643168 
L 169.545288 243.977822 
L 171.406839 243.977822 
L 172.337615 243.844752 
L 173.26839 243.977822 
L 174.199166 245.042376 
L 177.922269 245.042376 
L 178.853044 245.175446 
L 179.78382 245.175446 
L 180.714595 245.042376 
L 181.645371 245.042376 
L 182.576147 245.175446 
L 186.299249 245.175446 
L 187.230025 245.441584 
L 188.160801 245.441584 
L 189.091576 245.574653 
L 197.468557 245.574653 
L 198.399333 245.441584 
L 199.330108 245.707723 
L 200.260884 245.707723 
L 201.19166 245.574653 
L 203.983987 245.574653 
L 204.914762 245.973861 
L 207.707089 245.973861 
L 208.637865 245.840792 
L 219.807173 245.840792 
L 220.737948 245.973861 
L 226.322602 245.973861 
L 228.184153 245.840792 
L 237.49191 245.973861 
L 246.799666 245.973861 
L 256.107423 246.106931 
L 284.030692 246.106931 
L 293.338449 246.24 
L 302.646205 246.106931 
L 432.954796 246.106931 
L 442.262552 246.24 
L 498.109091 246.24 
L 498.109091 246.24 
" clip-path="url(#p3a3806d30a)" style="fill: none; stroke: #00ff00; stroke-width: 1.5; stroke-linecap: square"/>
    <g clip-path="url(#p3a3806d30a)">
     <use xlink:href="#m638ddac4d5" x="92.290909" y="44.64" style="fill: #ffffff; stroke: #00ff00"/>
     <use xlink:href="#m638ddac4d5" x="93.221685" y="78.306535" style="fill: #ffffff; stroke: #00ff00"/>
     <use xlink:href="#m638ddac4d5" x="94.15246" y="102.25901" style="fill: #ffffff; stroke: #00ff00"/>
     <use xlink:href="#m638ddac4d5" x="95.083236" y="120.356436" style="fill: #ffffff; stroke: #00ff00"/>
     <use xlink:href="#m638ddac4d5" x="96.014012" y="134.328713" style="fill: #ffffff; stroke: #00ff00"/>
     <use xlink:href="#m638ddac4d5" x="96.944787" y="143.643564" style="fill: #ffffff; stroke: #00ff00"/>
     <use xlink:href="#m638ddac4d5" x="97.875563" y="158.281188" style="fill: #ffffff; stroke: #00ff00"/>
     <use xlink:href="#m638ddac4d5" x="98.806339" y="169.325941" style="fill: #ffffff; stroke: #00ff00"/>
     <use xlink:href="#m638ddac4d5" x="99.737114" y="177.842376" style="fill: #ffffff; stroke: #00ff00"/>
     <use xlink:href="#m638ddac4d5" x="100.66789" y="177.842376" style="fill: #ffffff; stroke: #00ff00"/>
     <use xlink:href="#m638ddac4d5" x="101.598666" y="177.842376" style="fill: #ffffff; stroke: #00ff00"/>
     <use xlink:href="#m638ddac4d5" x="102.529441" y="184.76198" style="fill: #ffffff; stroke: #00ff00"/>
     <use xlink:href="#m638ddac4d5" x="103.460217" y="190.350891" style="fill: #ffffff; stroke: #00ff00"/>
     <use xlink:href="#m638ddac4d5" x="104.390992" y="212.972673" style="fill: #ffffff; stroke: #00ff00"/>
     <use xlink:href="#m638ddac4d5" x="105.321768" y="212.972673" style="fill: #ffffff; stroke: #00ff00"/>
     <use xlink:href="#m638ddac4d5" x="106.252544" y="212.972673" style="fill: #ffffff; stroke: #00ff00"/>
     <use xlink:href="#m638ddac4d5" x="107.183319" y="212.972673" style="fill: #ffffff; stroke: #00ff00"/>
     <use xlink:href="#m638ddac4d5" x="108.114095" y="212.972673" style="fill: #ffffff; stroke: #00ff00"/>
     <use xlink:href="#m638ddac4d5" x="109.044871" y="216.299406" style="fill: #ffffff; stroke: #00ff00"/>
     <use xlink:href="#m638ddac4d5" x="109.975646" y="221.35604" style="fill: #ffffff; stroke: #00ff00"/>
     <use xlink:href="#m638ddac4d5" x="110.906422" y="221.35604" style="fill: #ffffff; stroke: #00ff00"/>
     <use xlink:href="#m638ddac4d5" x="111.837198" y="231.336238" style="fill: #ffffff; stroke: #00ff00"/>
     <use xlink:href="#m638ddac4d5" x="112.767973" y="231.336238" style="fill: #ffffff; stroke: #00ff00"/>
     <use xlink:href="#m638ddac4d5" x="113.698749" y="231.336238" style="fill: #ffffff; stroke: #00ff00"/>
     <use xlink:href="#m638ddac4d5" x="114.629525" y="224.948911" style="fill: #ffffff; stroke: #00ff00"/>
     <use xlink:href="#m638ddac4d5" x="115.5603" y="233.864554" style="fill: #ffffff; stroke: #00ff00"/>
     <use xlink:href="#m638ddac4d5" x="116.491076" y="231.336238" style="fill: #ffffff; stroke: #00ff00"/>
     <use xlink:href="#m638ddac4d5" x="117.421852" y="231.336238" style="fill: #ffffff; stroke: #00ff00"/>
     <use xlink:href="#m638ddac4d5" x="118.352627" y="231.336238" style="fill: #ffffff; stroke: #00ff00"/>
     <use xlink:href="#m638ddac4d5" x="119.283403" y="237.191287" style="fill: #ffffff; stroke: #00ff00"/>
     <use xlink:href="#m638ddac4d5" x="120.214178" y="237.191287" style="fill: #ffffff; stroke: #00ff00"/>
     <use xlink:href="#m638ddac4d5" x="121.144954" y="237.191287" style="fill: #ffffff; stroke: #00ff00"/>
     <use xlink:href="#m638ddac4d5" x="122.07573" y="237.191287" style="fill: #ffffff; stroke: #00ff00"/>
     <use xlink:href="#m638ddac4d5" x="123.006505" y="238.122772" style="fill: #ffffff; stroke: #00ff00"/>
     <use xlink:href="#m638ddac4d5" x="123.937281" y="237.191287" style="fill: #ffffff; stroke: #00ff00"/>
     <use xlink:href="#m638ddac4d5" x="124.868057" y="238.122772" style="fill: #ffffff; stroke: #00ff00"/>
     <use xlink:href="#m638ddac4d5" x="125.798832" y="239.453465" style="fill: #ffffff; stroke: #00ff00"/>
     <use xlink:href="#m638ddac4d5" x="126.729608" y="239.453465" style="fill: #ffffff; stroke: #00ff00"/>
     <use xlink:href="#m638ddac4d5" x="127.660384" y="240.118812" style="fill: #ffffff; stroke: #00ff00"/>
     <use xlink:href="#m638ddac4d5" x="128.591159" y="240.118812" style="fill: #ffffff; stroke: #00ff00"/>
     <use xlink:href="#m638ddac4d5" x="129.521935" y="241.848713" style="fill: #ffffff; stroke: #00ff00"/>
     <use xlink:href="#m638ddac4d5" x="130.452711" y="241.848713" style="fill: #ffffff; stroke: #00ff00"/>
     <use xlink:href="#m638ddac4d5" x="131.383486" y="241.848713" style="fill: #ffffff; stroke: #00ff00"/>
     <use xlink:href="#m638ddac4d5" x="132.314262" y="242.38099" style="fill: #ffffff; stroke: #00ff00"/>
     <use xlink:href="#m638ddac4d5" x="133.245038" y="190.217822" style="fill: #ffffff; stroke: #00ff00"/>
     <use xlink:href="#m638ddac4d5" x="134.175813" y="242.38099" style="fill: #ffffff; stroke: #00ff00"/>
     <use xlink:href="#m638ddac4d5" x="135.106589" y="242.780198" style="fill: #ffffff; stroke: #00ff00"/>
     <use xlink:href="#m638ddac4d5" x="136.037364" y="242.514059" style="fill: #ffffff; stroke: #00ff00"/>
     <use xlink:href="#m638ddac4d5" x="136.96814" y="242.514059" style="fill: #ffffff; stroke: #00ff00"/>
     <use xlink:href="#m638ddac4d5" x="137.898916" y="243.445545" style="fill: #ffffff; stroke: #00ff00"/>
     <use xlink:href="#m638ddac4d5" x="138.829691" y="243.179406" style="fill: #ffffff; stroke: #00ff00"/>
     <use xlink:href="#m638ddac4d5" x="139.760467" y="243.445545" style="fill: #ffffff; stroke: #00ff00"/>
     <use xlink:href="#m638ddac4d5" x="140.691243" y="241.715644" style="fill: #ffffff; stroke: #00ff00"/>
     <use xlink:href="#m638ddac4d5" x="141.622018" y="241.715644" style="fill: #ffffff; stroke: #00ff00"/>
     <use xlink:href="#m638ddac4d5" x="142.552794" y="241.715644" style="fill: #ffffff; stroke: #00ff00"/>
     <use xlink:href="#m638ddac4d5" x="143.48357" y="242.114851" style="fill: #ffffff; stroke: #00ff00"/>
     <use xlink:href="#m638ddac4d5" x="144.414345" y="242.247921" style="fill: #ffffff; stroke: #00ff00"/>
     <use xlink:href="#m638ddac4d5" x="145.345121" y="242.247921" style="fill: #ffffff; stroke: #00ff00"/>
     <use xlink:href="#m638ddac4d5" x="146.275897" y="242.247921" style="fill: #ffffff; stroke: #00ff00"/>
     <use xlink:href="#m638ddac4d5" x="147.206672" y="242.647129" style="fill: #ffffff; stroke: #00ff00"/>
     <use xlink:href="#m638ddac4d5" x="148.137448" y="243.844752" style="fill: #ffffff; stroke: #00ff00"/>
     <use xlink:href="#m638ddac4d5" x="149.068224" y="243.844752" style="fill: #ffffff; stroke: #00ff00"/>
     <use xlink:href="#m638ddac4d5" x="149.998999" y="243.844752" style="fill: #ffffff; stroke: #00ff00"/>
     <use xlink:href="#m638ddac4d5" x="150.929775" y="243.844752" style="fill: #ffffff; stroke: #00ff00"/>
     <use xlink:href="#m638ddac4d5" x="151.86055" y="243.844752" style="fill: #ffffff; stroke: #00ff00"/>
     <use xlink:href="#m638ddac4d5" x="152.791326" y="244.110891" style="fill: #ffffff; stroke: #00ff00"/>
     <use xlink:href="#m638ddac4d5" x="153.722102" y="244.110891" style="fill: #ffffff; stroke: #00ff00"/>
     <use xlink:href="#m638ddac4d5" x="154.652877" y="244.110891" style="fill: #ffffff; stroke: #00ff00"/>
     <use xlink:href="#m638ddac4d5" x="155.583653" y="243.445545" style="fill: #ffffff; stroke: #00ff00"/>
     <use xlink:href="#m638ddac4d5" x="156.514429" y="242.38099" style="fill: #ffffff; stroke: #00ff00"/>
     <use xlink:href="#m638ddac4d5" x="157.445204" y="243.977822" style="fill: #ffffff; stroke: #00ff00"/>
     <use xlink:href="#m638ddac4d5" x="158.37598" y="243.844752" style="fill: #ffffff; stroke: #00ff00"/>
     <use xlink:href="#m638ddac4d5" x="159.306756" y="243.844752" style="fill: #ffffff; stroke: #00ff00"/>
     <use xlink:href="#m638ddac4d5" x="160.237531" y="243.844752" style="fill: #ffffff; stroke: #00ff00"/>
     <use xlink:href="#m638ddac4d5" x="161.168307" y="243.844752" style="fill: #ffffff; stroke: #00ff00"/>
     <use xlink:href="#m638ddac4d5" x="162.099083" y="243.711683" style="fill: #ffffff; stroke: #00ff00"/>
     <use xlink:href="#m638ddac4d5" x="163.029858" y="243.711683" style="fill: #ffffff; stroke: #00ff00"/>
     <use xlink:href="#m638ddac4d5" x="163.960634" y="243.711683" style="fill: #ffffff; stroke: #00ff00"/>
     <use xlink:href="#m638ddac4d5" x="164.89141" y="244.37703" style="fill: #ffffff; stroke: #00ff00"/>
     <use xlink:href="#m638ddac4d5" x="165.822185" y="244.510099" style="fill: #ffffff; stroke: #00ff00"/>
     <use xlink:href="#m638ddac4d5" x="166.752961" y="244.643168" style="fill: #ffffff; stroke: #00ff00"/>
     <use xlink:href="#m638ddac4d5" x="167.683736" y="244.643168" style="fill: #ffffff; stroke: #00ff00"/>
     <use xlink:href="#m638ddac4d5" x="168.614512" y="244.643168" style="fill: #ffffff; stroke: #00ff00"/>
     <use xlink:href="#m638ddac4d5" x="169.545288" y="243.977822" style="fill: #ffffff; stroke: #00ff00"/>
     <use xlink:href="#m638ddac4d5" x="170.476063" y="243.977822" style="fill: #ffffff; stroke: #00ff00"/>
     <use xlink:href="#m638ddac4d5" x="171.406839" y="243.977822" style="fill: #ffffff; stroke: #00ff00"/>
     <use xlink:href="#m638ddac4d5" x="172.337615" y="243.844752" style="fill: #ffffff; stroke: #00ff00"/>
     <use xlink:href="#m638ddac4d5" x="173.26839" y="243.977822" style="fill: #ffffff; stroke: #00ff00"/>
     <use xlink:href="#m638ddac4d5" x="174.199166" y="245.042376" style="fill: #ffffff; stroke: #00ff00"/>
     <use xlink:href="#m638ddac4d5" x="175.129942" y="245.042376" style="fill: #ffffff; stroke: #00ff00"/>
     <use xlink:href="#m638ddac4d5" x="176.060717" y="245.042376" style="fill: #ffffff; stroke: #00ff00"/>
     <use xlink:href="#m638ddac4d5" x="176.991493" y="245.042376" style="fill: #ffffff; stroke: #00ff00"/>
     <use xlink:href="#m638ddac4d5" x="177.922269" y="245.042376" style="fill: #ffffff; stroke: #00ff00"/>
     <use xlink:href="#m638ddac4d5" x="178.853044" y="245.175446" style="fill: #ffffff; stroke: #00ff00"/>
     <use xlink:href="#m638ddac4d5" x="179.78382" y="245.175446" style="fill: #ffffff; stroke: #00ff00"/>
     <use xlink:href="#m638ddac4d5" x="180.714595" y="245.042376" style="fill: #ffffff; stroke: #00ff00"/>
     <use xlink:href="#m638ddac4d5" x="181.645371" y="245.042376" style="fill: #ffffff; stroke: #00ff00"/>
     <use xlink:href="#m638ddac4d5" x="182.576147" y="245.175446" style="fill: #ffffff; stroke: #00ff00"/>
     <use xlink:href="#m638ddac4d5" x="183.506922" y="245.175446" style="fill: #ffffff; stroke: #00ff00"/>
     <use xlink:href="#m638ddac4d5" x="184.437698" y="245.175446" style="fill: #ffffff; stroke: #00ff00"/>
     <use xlink:href="#m638ddac4d5" x="185.368474" y="245.175446" style="fill: #ffffff; stroke: #00ff00"/>
     <use xlink:href="#m638ddac4d5" x="186.299249" y="245.175446" style="fill: #ffffff; stroke: #00ff00"/>
     <use xlink:href="#m638ddac4d5" x="187.230025" y="245.441584" style="fill: #ffffff; stroke: #00ff00"/>
     <use xlink:href="#m638ddac4d5" x="188.160801" y="245.441584" style="fill: #ffffff; stroke: #00ff00"/>
     <use xlink:href="#m638ddac4d5" x="189.091576" y="245.574653" style="fill: #ffffff; stroke: #00ff00"/>
     <use xlink:href="#m638ddac4d5" x="190.022352" y="245.574653" style="fill: #ffffff; stroke: #00ff00"/>
     <use xlink:href="#m638ddac4d5" x="190.953128" y="245.574653" style="fill: #ffffff; stroke: #00ff00"/>
     <use xlink:href="#m638ddac4d5" x="191.883903" y="245.574653" style="fill: #ffffff; stroke: #00ff00"/>
     <use xlink:href="#m638ddac4d5" x="192.814679" y="245.574653" style="fill: #ffffff; stroke: #00ff00"/>
     <use xlink:href="#m638ddac4d5" x="193.745455" y="245.574653" style="fill: #ffffff; stroke: #00ff00"/>
     <use xlink:href="#m638ddac4d5" x="194.67623" y="245.574653" style="fill: #ffffff; stroke: #00ff00"/>
     <use xlink:href="#m638ddac4d5" x="195.607006" y="245.574653" style="fill: #ffffff; stroke: #00ff00"/>
     <use xlink:href="#m638ddac4d5" x="196.537781" y="245.574653" style="fill: #ffffff; stroke: #00ff00"/>
     <use xlink:href="#m638ddac4d5" x="197.468557" y="245.574653" style="fill: #ffffff; stroke: #00ff00"/>
     <use xlink:href="#m638ddac4d5" x="198.399333" y="245.441584" style="fill: #ffffff; stroke: #00ff00"/>
     <use xlink:href="#m638ddac4d5" x="199.330108" y="245.707723" style="fill: #ffffff; stroke: #00ff00"/>
     <use xlink:href="#m638ddac4d5" x="200.260884" y="245.707723" style="fill: #ffffff; stroke: #00ff00"/>
     <use xlink:href="#m638ddac4d5" x="201.19166" y="245.574653" style="fill: #ffffff; stroke: #00ff00"/>
     <use xlink:href="#m638ddac4d5" x="202.122435" y="245.574653" style="fill: #ffffff; stroke: #00ff00"/>
     <use xlink:href="#m638ddac4d5" x="203.053211" y="245.574653" style="fill: #ffffff; stroke: #00ff00"/>
     <use xlink:href="#m638ddac4d5" x="203.983987" y="245.574653" style="fill: #ffffff; stroke: #00ff00"/>
     <use xlink:href="#m638ddac4d5" x="204.914762" y="245.973861" style="fill: #ffffff; stroke: #00ff00"/>
     <use xlink:href="#m638ddac4d5" x="205.845538" y="245.973861" style="fill: #ffffff; stroke: #00ff00"/>
     <use xlink:href="#m638ddac4d5" x="206.776314" y="245.973861" style="fill: #ffffff; stroke: #00ff00"/>
     <use xlink:href="#m638ddac4d5" x="207.707089" y="245.973861" style="fill: #ffffff; stroke: #00ff00"/>
     <use xlink:href="#m638ddac4d5" x="208.637865" y="245.840792" style="fill: #ffffff; stroke: #00ff00"/>
     <use xlink:href="#m638ddac4d5" x="209.568641" y="245.840792" style="fill: #ffffff; stroke: #00ff00"/>
     <use xlink:href="#m638ddac4d5" x="210.499416" y="245.840792" style="fill: #ffffff; stroke: #00ff00"/>
     <use xlink:href="#m638ddac4d5" x="211.430192" y="245.840792" style="fill: #ffffff; stroke: #00ff00"/>
     <use xlink:href="#m638ddac4d5" x="212.360967" y="245.840792" style="fill: #ffffff; stroke: #00ff00"/>
     <use xlink:href="#m638ddac4d5" x="213.291743" y="245.840792" style="fill: #ffffff; stroke: #00ff00"/>
     <use xlink:href="#m638ddac4d5" x="214.222519" y="245.840792" style="fill: #ffffff; stroke: #00ff00"/>
     <use xlink:href="#m638ddac4d5" x="215.153294" y="245.840792" style="fill: #ffffff; stroke: #00ff00"/>
     <use xlink:href="#m638ddac4d5" x="216.08407" y="245.840792" style="fill: #ffffff; stroke: #00ff00"/>
     <use xlink:href="#m638ddac4d5" x="217.014846" y="245.840792" style="fill: #ffffff; stroke: #00ff00"/>
     <use xlink:href="#m638ddac4d5" x="217.945621" y="245.840792" style="fill: #ffffff; stroke: #00ff00"/>
     <use xlink:href="#m638ddac4d5" x="218.876397" y="245.840792" style="fill: #ffffff; stroke: #00ff00"/>
     <use xlink:href="#m638ddac4d5" x="219.807173" y="245.840792" style="fill: #ffffff; stroke: #00ff00"/>
     <use xlink:href="#m638ddac4d5" x="220.737948" y="245.973861" style="fill: #ffffff; stroke: #00ff00"/>
     <use xlink:href="#m638ddac4d5" x="221.668724" y="245.973861" style="fill: #ffffff; stroke: #00ff00"/>
     <use xlink:href="#m638ddac4d5" x="222.5995" y="245.973861" style="fill: #ffffff; stroke: #00ff00"/>
     <use xlink:href="#m638ddac4d5" x="223.530275" y="245.973861" style="fill: #ffffff; stroke: #00ff00"/>
     <use xlink:href="#m638ddac4d5" x="224.461051" y="245.973861" style="fill: #ffffff; stroke: #00ff00"/>
     <use xlink:href="#m638ddac4d5" x="225.391827" y="245.973861" style="fill: #ffffff; stroke: #00ff00"/>
     <use xlink:href="#m638ddac4d5" x="226.322602" y="245.973861" style="fill: #ffffff; stroke: #00ff00"/>
     <use xlink:href="#m638ddac4d5" x="228.184153" y="245.840792" style="fill: #ffffff; stroke: #00ff00"/>
     <use xlink:href="#m638ddac4d5" x="237.49191" y="245.973861" style="fill: #ffffff; stroke: #00ff00"/>
     <use xlink:href="#m638ddac4d5" x="246.799666" y="245.973861" style="fill: #ffffff; stroke: #00ff00"/>
     <use xlink:href="#m638ddac4d5" x="256.107423" y="246.106931" style="fill: #ffffff; stroke: #00ff00"/>
     <use xlink:href="#m638ddac4d5" x="265.415179" y="246.106931" style="fill: #ffffff; stroke: #00ff00"/>
     <use xlink:href="#m638ddac4d5" x="274.722936" y="246.106931" style="fill: #ffffff; stroke: #00ff00"/>
     <use xlink:href="#m638ddac4d5" x="284.030692" y="246.106931" style="fill: #ffffff; stroke: #00ff00"/>
     <use xlink:href="#m638ddac4d5" x="293.338449" y="246.24" style="fill: #ffffff; stroke: #00ff00"/>
     <use xlink:href="#m638ddac4d5" x="302.646205" y="246.106931" style="fill: #ffffff; stroke: #00ff00"/>
     <use xlink:href="#m638ddac4d5" x="311.953962" y="246.106931" style="fill: #ffffff; stroke: #00ff00"/>
     <use xlink:href="#m638ddac4d5" x="321.261718" y="246.106931" style="fill: #ffffff; stroke: #00ff00"/>
     <use xlink:href="#m638ddac4d5" x="330.569475" y="246.106931" style="fill: #ffffff; stroke: #00ff00"/>
     <use xlink:href="#m638ddac4d5" x="339.877231" y="246.106931" style="fill: #ffffff; stroke: #00ff00"/>
     <use xlink:href="#m638ddac4d5" x="349.184987" y="246.106931" style="fill: #ffffff; stroke: #00ff00"/>
     <use xlink:href="#m638ddac4d5" x="358.492744" y="246.106931" style="fill: #ffffff; stroke: #00ff00"/>
     <use xlink:href="#m638ddac4d5" x="367.8005" y="246.106931" style="fill: #ffffff; stroke: #00ff00"/>
     <use xlink:href="#m638ddac4d5" x="377.108257" y="246.106931" style="fill: #ffffff; stroke: #00ff00"/>
     <use xlink:href="#m638ddac4d5" x="386.416013" y="246.106931" style="fill: #ffffff; stroke: #00ff00"/>
     <use xlink:href="#m638ddac4d5" x="395.72377" y="246.106931" style="fill: #ffffff; stroke: #00ff00"/>
     <use xlink:href="#m638ddac4d5" x="405.031526" y="246.106931" style="fill: #ffffff; stroke: #00ff00"/>
     <use xlink:href="#m638ddac4d5" x="414.339283" y="246.106931" style="fill: #ffffff; stroke: #00ff00"/>
     <use xlink:href="#m638ddac4d5" x="423.647039" y="246.106931" style="fill: #ffffff; stroke: #00ff00"/>
     <use xlink:href="#m638ddac4d5" x="432.954796" y="246.106931" style="fill: #ffffff; stroke: #00ff00"/>
     <use xlink:href="#m638ddac4d5" x="442.262552" y="246.24" style="fill: #ffffff; stroke: #00ff00"/>
     <use xlink:href="#m638ddac4d5" x="451.570309" y="246.24" style="fill: #ffffff; stroke: #00ff00"/>
     <use xlink:href="#m638ddac4d5" x="460.878065" y="246.24" style="fill: #ffffff; stroke: #00ff00"/>
     <use xlink:href="#m638ddac4d5" x="470.185822" y="246.24" style="fill: #ffffff; stroke: #00ff00"/>
     <use xlink:href="#m638ddac4d5" x="479.493578" y="246.24" style="fill: #ffffff; stroke: #00ff00"/>
     <use xlink:href="#m638ddac4d5" x="488.801334" y="246.24" style="fill: #ffffff; stroke: #00ff00"/>
     <use xlink:href="#m638ddac4d5" x="498.109091" y="246.24" style="fill: #ffffff; stroke: #00ff00"/>
    </g>
   </g>
   <g id="patch_12">
    <path d="M 72 256.32 
L 72 34.56 
" style="fill: none; stroke: #000000; stroke-width: 0.8; stroke-linejoin: miter; stroke-linecap: square"/>
   </g>
   <g id="patch_13">
    <path d="M 558.4 256.32 
L 558.4 34.56 
" style="fill: none; stroke: #000000; stroke-width: 0.8; stroke-linejoin: miter; stroke-linecap: square"/>
   </g>
   <g id="patch_14">
    <path d="M 72 256.32 
L 518.4 256.32 
" style="fill: none; stroke: #000000; stroke-width: 0.8; stroke-linejoin: miter; stroke-linecap: square"/>
   </g>
   <g id="patch_15">
    <path d="M 72 34.56 
L 518.4 34.56 
" style="fill: none; stroke: #000000; stroke-width: 0.8; stroke-linejoin: miter; stroke-linecap: square"/>
   </g>
   <g id="text_38">
    <!-- Reference indicators -->
    <g transform="translate(243.250594 28.56) scale(0.126 -0.126)">
     <defs>
      <path id="TimesNewRomanPSMT-52" d="M 4325 0 
L 3194 0 
L 1759 1981 
Q 1600 1975 1500 1975 
Q 1459 1975 1412 1976 
Q 1366 1978 1316 1981 
L 1316 750 
Q 1316 350 1403 253 
Q 1522 116 1759 116 
L 1925 116 
L 1925 0 
L 109 0 
L 109 116 
L 269 116 
Q 538 116 653 291 
Q 719 388 719 750 
L 719 3488 
Q 719 3888 631 3984 
Q 509 4122 269 4122 
L 109 4122 
L 109 4238 
L 1653 4238 
Q 2328 4238 2648 4139 
Q 2969 4041 3192 3777 
Q 3416 3513 3416 3147 
Q 3416 2756 3161 2468 
Q 2906 2181 2372 2063 
L 3247 847 
Q 3547 428 3762 290 
Q 3978 153 4325 116 
L 4325 0 
z
M 1316 2178 
Q 1375 2178 1419 2176 
Q 1463 2175 1491 2175 
Q 2097 2175 2405 2437 
Q 2713 2700 2713 3106 
Q 2713 3503 2464 3751 
Q 2216 4000 1806 4000 
Q 1625 4000 1316 3941 
L 1316 2178 
z
" transform="scale(0.015625)"/>
     </defs>
     <use xlink:href="#TimesNewRomanPSMT-52"/>
     <use xlink:href="#TimesNewRomanPSMT-65" x="66.699219"/>
     <use xlink:href="#TimesNewRomanPSMT-66" x="111.083984"/>
     <use xlink:href="#TimesNewRomanPSMT-65" x="144.384766"/>
     <use xlink:href="#TimesNewRomanPSMT-72" x="188.769531"/>
     <use xlink:href="#TimesNewRomanPSMT-65" x="222.070312"/>
     <use xlink:href="#TimesNewRomanPSMT-6e" x="266.455078"/>
     <use xlink:href="#TimesNewRomanPSMT-63" x="316.455078"/>
     <use xlink:href="#TimesNewRomanPSMT-65" x="360.839844"/>
     <use xlink:href="#TimesNewRomanPSMT-20" x="405.224609"/>
     <use xlink:href="#TimesNewRomanPSMT-69" x="430.224609"/>
     <use xlink:href="#TimesNewRomanPSMT-6e" x="458.007812"/>
     <use xlink:href="#TimesNewRomanPSMT-64" x="508.007812"/>
     <use xlink:href="#TimesNewRomanPSMT-69" x="558.007812"/>
     <use xlink:href="#TimesNewRomanPSMT-63" x="585.791016"/>
     <use xlink:href="#TimesNewRomanPSMT-61" x="630.175781"/>
     <use xlink:href="#TimesNewRomanPSMT-74" x="674.560547"/>
     <use xlink:href="#TimesNewRomanPSMT-6f" x="702.34375"/>
     <use xlink:href="#TimesNewRomanPSMT-72" x="752.34375"/>
     <use xlink:href="#TimesNewRomanPSMT-73" x="785.644531"/>
    </g>
   </g>
  </g>
 </g>
 <defs>
  <clipPath id="p3a3806d30a">
   <rect x="72" y="34.56" width="446.4" height="221.76"/>
  </clipPath>
 </defs>
</svg>
